<svg width="266" height="266" viewBox="0 0 266 266" fill="none" xmlns="http://www.w3.org/2000/svg">
<rect x="4" y="4" width="258" height="258" stroke="#017EFC" stroke-width="8"/>
<mask id="mask0" mask-type="alpha" maskUnits="userSpaceOnUse" x="49" y="74" width="171" height="123">
<path d="M55.5779 78.2427L78.8154 74.6118L107.797 79.1402H212.854C216.606 79.1402 219.647 82.1813 219.647 85.9327V190.085C219.647 193.836 216.606 196.877 212.854 196.877H107.797L78.8154 192.349L57.6751 195.652C53.9687 196.231 50.4945 193.696 49.9154 189.989C49.8612 189.642 49.834 189.292 49.834 188.941V84.9538C49.834 81.6072 52.2715 78.7593 55.5779 78.2427Z" fill="white"/>
</mask>
<g mask="url(#mask0)">
<path d="M55.5779 78.2427L78.8154 74.6118L107.797 79.1402H212.854C216.606 79.1402 219.647 82.1813 219.647 85.9327V190.085C219.647 193.836 216.606 196.877 212.854 196.877H107.797L78.8154 192.349L57.6751 195.652C53.9687 196.231 50.4945 193.696 49.9154 189.989C49.8612 189.642 49.834 189.292 49.834 188.941V84.9538C49.834 81.6072 52.2715 78.7593 55.5779 78.2427Z" fill="#E6E6EF"/>
<path d="M55.5779 78.2427L78.8154 74.6118L107.797 79.1402H212.854C216.606 79.1402 219.647 82.1813 219.647 85.9327V190.085C219.647 193.836 216.606 196.877 212.854 196.877H107.797L78.8154 192.349L57.6751 195.652C53.9687 196.231 50.4945 193.696 49.9154 189.989C49.8612 189.642 49.834 189.292 49.834 188.941V84.9538C49.834 81.6072 52.2715 78.7593 55.5779 78.2427Z" fill="url(#paint0_linear)"/>
</g>
<mask id="mask1" mask-type="alpha" maskUnits="userSpaceOnUse" x="61" y="85" width="148" height="101">
<path d="M66.5577 88.4925L78.8148 85.9316L107.796 89.6214H201.533C205.284 89.6214 208.325 92.6625 208.325 96.4139V178.763C208.325 182.514 205.284 185.555 201.533 185.555H107.796L78.8148 181.865L69.336 183.846C65.6638 184.613 62.0651 182.258 61.2979 178.586C61.2024 178.129 61.1543 177.664 61.1543 177.197V95.1414C61.1543 91.9254 63.4096 89.1502 66.5577 88.4925Z" fill="white"/>
</mask>
<g mask="url(#mask1)">
<path d="M66.5577 88.4925L78.8148 85.9316L107.796 89.6214H201.533C205.284 89.6214 208.325 92.6625 208.325 96.4139V178.763C208.325 182.514 205.284 185.555 201.533 185.555H107.796L78.8148 181.865L69.336 183.846C65.6638 184.613 62.0651 182.258 61.2979 178.586C61.2024 178.129 61.1543 177.664 61.1543 177.197V95.1414C61.1543 91.9254 63.4096 89.1502 66.5577 88.4925Z" fill="#7BC1EB"/>
</g>
<mask id="mask2" mask-type="alpha" maskUnits="userSpaceOnUse" x="61" y="85" width="136" height="101">
<path d="M181.568 89.6214C180.918 91.763 180.732 93.7838 181.161 95.6676C183.823 109.747 201.78 133.071 195.426 139.366C188.817 145.394 172.918 135.524 166.217 147.064C159.251 159.148 139.454 157.647 140.857 178.536C141.049 182.423 139.337 184.482 136.41 185.555H107.799L78.8157 181.865L69.3359 183.846C65.6638 184.613 62.065 182.258 61.2978 178.586C61.2024 178.129 61.1543 177.664 61.1543 177.197V95.1415C61.1543 91.9255 63.4097 89.1502 66.5577 88.4925L78.8157 85.9316L107.799 89.6214H181.568Z" fill="white"/>
</mask>
<g mask="url(#mask2)">
<path d="M181.568 89.6214C180.918 91.763 180.732 93.7838 181.161 95.6676C183.823 109.747 201.78 133.071 195.426 139.366C188.817 145.394 172.918 135.524 166.217 147.064C159.251 159.148 139.454 157.647 140.857 178.536C141.049 182.423 139.337 184.482 136.41 185.555H107.799L78.8157 181.865L69.3359 183.846C65.6638 184.613 62.065 182.258 61.2978 178.586C61.2024 178.129 61.1543 177.664 61.1543 177.197V95.1415C61.1543 91.9255 63.4097 89.1502 66.5577 88.4925L78.8157 85.9316L107.799 89.6214H181.568Z" fill="#00A07D"/>
<path d="M113.231 196.424L107.344 192.802L122.514 167.896C123.817 165.833 124.651 163.667 125.004 161.33L127.948 146.386C129.268 139.444 133.262 133.411 139.042 129.631L153.759 119.669C160.033 115.492 163.273 108.124 162.137 100.65L156.929 67.593L163.722 66.4609L168.929 99.7443C170.388 109.697 166.004 119.665 157.608 125.329L142.891 135.065C138.553 138.04 135.601 142.499 134.74 147.518L131.797 162.688C131.172 165.736 130.043 168.667 128.401 171.292L113.231 196.424Z" fill="white"/>
</g>
<path d="M158.063 52.1963C141.109 52.3477 127.271 66.1471 127.271 83.2154C127.271 100.922 151.197 128.115 156.931 134.386C157.512 135.014 158.615 135.014 159.195 134.386C164.929 128.115 188.856 100.921 188.856 83.2154C188.856 66.1471 175.018 52.3474 158.063 52.1963Z" fill="#3499FF" fill-opacity="0.985198"/>
<path d="M158.063 52.1963C141.109 52.3477 127.271 66.1471 127.271 83.2154C127.271 100.922 151.197 128.115 156.931 134.386C157.512 135.014 158.615 135.014 159.195 134.386C164.929 128.115 188.856 100.921 188.856 83.2154C188.856 66.1471 175.018 52.3474 158.063 52.1963Z" fill="url(#paint1_linear)"/>
<path fill-rule="evenodd" clip-rule="evenodd" d="M78.8154 74.6118L107.797 79.1402V196.877L78.8154 192.349V74.6118Z" fill="url(#paint2_linear)"/>
<path d="M101.318 121.715H44.7671C34.5609 121.715 26.2871 129.989 26.2871 140.195C26.2871 150.402 34.5609 158.675 44.7671 158.675H101.318C111.524 158.675 119.798 150.402 119.798 140.195C119.798 129.989 111.524 121.715 101.318 121.715Z" fill="#F0F0F6"/>
<path d="M101.318 121.715H44.7671C34.5609 121.715 26.2871 129.989 26.2871 140.195C26.2871 150.402 34.5609 158.675 44.7671 158.675H101.318C111.524 158.675 119.798 150.402 119.798 140.195C119.798 129.989 111.524 121.715 101.318 121.715Z" fill="url(#paint3_linear)"/>
<path d="M87.9868 147.769H68.7999C67.9633 147.769 67.2852 148.447 67.2852 149.284C67.2852 150.12 67.9633 150.799 68.7999 150.799H87.9868C88.8234 150.799 89.5016 150.12 89.5016 149.284C89.5016 148.447 88.8234 147.769 87.9868 147.769Z" fill="#DBDBE8"/>
<path d="M104.144 141.71H68.7999C67.9633 141.71 67.2852 142.389 67.2852 143.225C67.2852 144.062 67.9633 144.74 68.7999 144.74H104.144C104.981 144.74 105.659 144.062 105.659 143.225C105.659 142.389 104.981 141.71 104.144 141.71Z" fill="#DBDBE8"/>
<path d="M104.144 135.651H68.7999C67.9633 135.651 67.2852 136.33 67.2852 137.166C67.2852 138.003 67.9633 138.681 68.7999 138.681H104.144C104.981 138.681 105.659 138.003 105.659 137.166C105.659 136.33 104.981 135.651 104.144 135.651Z" fill="#DBDBE8"/>
<path d="M104.144 129.592H68.7999C67.9633 129.592 67.2852 130.27 67.2852 131.107C67.2852 131.944 67.9633 132.622 68.7999 132.622H104.144C104.981 132.622 105.659 131.944 105.659 131.107C105.659 130.27 104.981 129.592 104.144 129.592Z" fill="#DBDBE8"/>
<mask id="mask3" mask-type="alpha" maskUnits="userSpaceOnUse" x="30" y="125" width="30" height="30">
<path d="M44.7678 154.637C52.7432 154.637 59.2085 148.171 59.2085 140.196C59.2085 132.221 52.7432 125.755 44.7678 125.755C36.7925 125.755 30.3271 132.221 30.3271 140.196C30.3271 148.171 36.7925 154.637 44.7678 154.637Z" fill="white"/>
</mask>
<g mask="url(#mask3)">
<path d="M44.7678 154.637C52.7432 154.637 59.2085 148.171 59.2085 140.196C59.2085 132.221 52.7432 125.755 44.7678 125.755C36.7925 125.755 30.3271 132.221 30.3271 140.196C30.3271 148.171 36.7925 154.637 44.7678 154.637Z" fill="white"/>
<path d="M44.7653 143.326C47.052 143.326 48.9057 146.436 48.9057 150.271V154.356C48.9057 158.192 47.052 161.301 44.7653 161.301C42.4787 161.301 40.625 158.192 40.625 154.356V150.271C40.625 146.436 42.4787 143.326 44.7653 143.326Z" fill="#FFC62C"/>
<path d="M44.7653 143.326C47.052 143.326 48.9057 146.436 48.9057 150.271V154.356C48.9057 158.192 47.052 161.301 44.7653 161.301C42.4787 161.301 40.625 158.192 40.625 154.356V150.271C40.625 146.436 42.4787 143.326 44.7653 143.326Z" fill="url(#paint4_linear)"/>
<path fill-rule="evenodd" clip-rule="evenodd" d="M48.9057 152.841C48.3457 152.958 47.7762 153.021 47.2008 153.021C45.2781 153.021 42.9476 152.493 40.625 151.498V149.183C40.625 147.175 42.2526 145.548 44.2604 145.548H45.2702C47.278 145.548 48.9057 147.175 48.9057 149.183V152.841Z" fill="url(#paint5_linear)"/>
</g>
<mask id="mask4" mask-type="alpha" maskUnits="userSpaceOnUse" x="21" y="112" width="45" height="40">
<path d="M29.2358 120.67C32.2166 112.299 44.5874 109.879 51.0955 116.296C57.6614 122.822 60.7294 118.681 64.2114 121.582C67.717 124.571 64.2232 130.035 60.7502 133.063C57.31 136.137 65.2543 141.771 63.1184 149.101C61.009 156.415 48.5636 144.67 35.5515 150.139C22.5394 155.609 16.7745 140.169 24.6817 134.704C32.5889 129.238 26.3696 129.133 29.2358 120.67Z" fill="white"/>
</mask>
<g mask="url(#mask4)">
<path d="M29.2358 120.67C32.2166 112.299 44.5874 109.879 51.0955 116.296C57.6614 122.822 60.7294 118.681 64.2114 121.582C67.717 124.571 64.2232 130.035 60.7502 133.063C57.31 136.137 65.2543 141.771 63.1184 149.101C61.009 156.415 48.5636 144.67 35.5515 150.139C22.5394 155.609 16.7745 140.169 24.6817 134.704C32.5889 129.238 26.3696 129.133 29.2358 120.67Z" fill="#464D89"/>
<path d="M29.2358 120.67C32.2166 112.299 44.5874 109.879 51.0955 116.296C57.6614 122.822 60.7294 118.681 64.2114 121.582C67.717 124.571 64.2232 130.035 60.7502 133.063C57.31 136.137 65.2543 141.771 63.1184 149.101C61.009 156.415 48.5636 144.67 35.5515 150.139C22.5394 155.609 16.7745 140.169 24.6817 134.704C32.5889 129.238 26.3696 129.133 29.2358 120.67Z" fill="url(#paint6_linear)"/>
<path fill-rule="evenodd" clip-rule="evenodd" d="M49.2934 156.797C48.7878 157.133 48.3486 157.536 47.9978 158.031C47.2046 159.117 46.1669 159.423 44.9186 159.262C41.909 158.717 37.6587 155.058 31.7491 153.607C25.6999 146.811 30.5384 131.838 33.9712 137.984C36.6369 142.702 43.2532 140.879 53.8271 132.516C58.671 140.362 60.0746 146.637 58.0169 151.288C57.4332 152.625 56.9202 153.673 56.3916 154.545C53.8387 155.207 51.1389 155.556 49.2934 156.797Z" fill="url(#paint7_linear)"/>
</g>
<path d="M32.0987 139.699C30.4222 136.865 32.9594 135.147 33.7335 136.424C34.1198 136.974 34.2452 137.497 34.2784 138.061C35.7641 140.589 41.3902 135.199 43.1789 133.148C45.131 130.986 45.411 128.708 46.8117 133.148C47.7989 136.087 51.3488 134.924 54.0774 132.602C54.1068 133.462 54.0774 134.381 54.0774 135.332C54.0774 136.19 55.1673 137.325 55.1673 141.337C55.1673 145.311 50.9801 150.799 46.2668 150.799C42.6757 150.799 37.1767 148.38 34.6417 144.248C32.5295 144.246 33.8492 142.525 32.0987 139.699Z" fill="#FFC62C"/>
<path d="M32.0987 139.699C30.4222 136.865 32.9594 135.147 33.7335 136.424C34.1198 136.974 34.2452 137.497 34.2784 138.061C35.7641 140.589 41.3902 135.199 43.1789 133.148C45.131 130.986 45.411 128.708 46.8117 133.148C47.7989 136.087 51.3488 134.924 54.0774 132.602C54.1068 133.462 54.0774 134.381 54.0774 135.332C54.0774 136.19 55.1673 137.325 55.1673 141.337C55.1673 145.311 50.9801 150.799 46.2668 150.799C42.6757 150.799 37.1767 148.38 34.6417 144.248C32.5295 144.246 33.8492 142.525 32.0987 139.699Z" fill="url(#paint8_linear)"/>
<path d="M33.6559 143.124C33.7675 143.124 33.8579 143.214 33.8579 143.326C33.8579 143.438 33.7675 143.528 33.6559 143.528C33.5795 143.528 33.4529 143.681 33.3467 143.984C33.223 144.338 33.151 144.824 33.151 145.346C33.151 145.867 33.223 146.354 33.3467 146.707C33.4529 147.01 33.5795 147.163 33.6559 147.163C33.7324 147.163 33.859 147.01 33.9651 146.707C34.0888 146.354 34.1608 145.867 34.1608 145.346C34.1608 145.188 34.1543 145.032 34.1414 144.882C34.1319 144.77 34.2142 144.673 34.3254 144.663C34.4365 144.654 34.5343 144.736 34.5438 144.847C34.5577 145.009 34.5648 145.176 34.5648 145.346C34.5648 146.569 34.2155 147.567 33.6559 147.567C33.0963 147.567 32.7471 146.569 32.7471 145.346C32.7471 144.122 33.0963 143.124 33.6559 143.124Z" fill="white"/>
<path fill-rule="evenodd" clip-rule="evenodd" d="M46.8141 136.822C45.3992 132.362 45.1168 134.659 43.1463 136.822C41.3453 138.906 36.6561 142.284 34.1602 138.102C35.6729 140.671 41.3453 135.237 43.1463 133.166C45.1168 130.989 45.3992 128.693 46.8141 133.166C47.8066 136.132 51.3858 134.96 54.1497 132.618C54.1664 133.486 54.1368 134.413 54.1497 135.36C54.1368 136.236 47.8066 139.802 46.8141 136.822Z" fill="url(#paint9_linear)"/>
<path d="M169.365 70.3271C168.923 70.4119 150.362 74.0182 149.967 74.0935C149.572 74.1688 149.205 74.4325 149.205 74.8468V97.4545C149.205 97.6052 149.196 98.1325 148.979 98.5562C148.688 99.1118 148.18 99.5166 147.465 99.752C147.154 99.8556 146.731 99.9498 146.232 100.063C143.965 100.571 140.174 101.438 140.174 104.94C140.174 107.869 142.281 109.187 144.097 109.413C144.294 109.441 144.52 109.479 144.765 109.479C145.395 109.479 148.151 109.168 149.581 108.236C150.616 107.558 151.849 106.221 151.849 103.735V83.7261C151.849 83.3683 152.103 83.0575 152.451 82.9916L166.75 80.1009C167.22 80.0068 167.653 80.3646 167.653 80.8354V93.1609C167.653 93.5469 167.634 93.9989 167.418 94.4226C167.126 94.9781 166.618 95.383 165.894 95.6184C165.584 95.722 165.066 95.8162 164.568 95.9292C162.3 96.4376 158.509 97.2945 158.509 100.797C158.509 103.97 160.899 105.242 162.441 105.345C163.053 105.383 163.495 105.373 164.266 105.26C165.038 105.147 166.477 104.743 167.7 104.036C169.384 103.066 170.287 101.513 170.287 99.4978V71.0522C170.278 70.6379 169.93 70.2141 169.365 70.3271Z" fill="#E8EDFB"/>
<path d="M224.29 161.329H160.893C149.451 161.329 140.176 170.604 140.176 182.046C140.176 193.488 149.451 202.763 160.893 202.763H224.29C235.731 202.763 245.007 193.488 245.007 182.046C245.007 170.604 235.731 161.329 224.29 161.329Z" fill="#F0F0F6"/>
<path d="M224.29 161.329H160.893C149.451 161.329 140.176 170.604 140.176 182.046C140.176 193.488 149.451 202.763 160.893 202.763H224.29C235.731 202.763 245.007 193.488 245.007 182.046C245.007 170.604 235.731 161.329 224.29 161.329Z" fill="url(#paint10_linear)"/>
<mask id="mask5" mask-type="alpha" maskUnits="userSpaceOnUse" x="205" y="165" width="34" height="34">
<path d="M222.026 198.235C230.967 198.235 238.215 190.987 238.215 182.046C238.215 173.105 230.967 165.857 222.026 165.857C213.085 165.857 205.837 173.105 205.837 182.046C205.837 190.987 213.085 198.235 222.026 198.235Z" fill="white"/>
</mask>
<g mask="url(#mask5)">
<path d="M222.026 198.235C230.967 198.235 238.215 190.987 238.215 182.046C238.215 173.105 230.967 165.857 222.026 165.857C213.085 165.857 205.837 173.105 205.837 182.046C205.837 190.987 213.085 198.235 222.026 198.235Z" fill="white"/>
<path d="M221.541 182.419H234.695L233.873 198.451C233.793 202.133 230.745 205.028 227.09 205.028C223.55 205.028 220.719 202.214 220.719 198.656C220.719 198.648 220.721 198.553 220.719 198.451L221.541 182.419Z" fill="#FFC62C"/>
<path d="M221.541 182.419H234.695L233.873 198.451C233.793 202.133 230.745 205.028 227.09 205.028C223.55 205.028 220.719 202.214 220.719 198.656C220.719 198.648 220.721 198.553 220.719 198.451L221.541 182.419Z" fill="url(#paint11_linear)"/>
<path fill-rule="evenodd" clip-rule="evenodd" d="M234.283 190.435C231.575 194.228 226.845 196.807 223.801 196.807C223.031 196.807 222.007 196.582 220.924 196.19L221.54 182.419H234.694L234.283 190.435Z" fill="url(#paint12_linear)"/>
</g>
<path d="M176.967 183.744H157.722C156.784 183.744 156.023 184.504 156.023 185.442C156.023 186.38 156.784 187.14 157.722 187.14H176.967C177.905 187.14 178.665 186.38 178.665 185.442C178.665 184.504 177.905 183.744 176.967 183.744Z" fill="#DBDBE8"/>
<path d="M197.345 176.951H157.722C156.784 176.951 156.023 177.711 156.023 178.649C156.023 179.587 156.784 180.347 157.722 180.347H197.345C198.282 180.347 199.043 179.587 199.043 178.649C199.043 177.711 198.282 176.951 197.345 176.951Z" fill="#DBDBE8"/>
<path d="M197.345 170.159H157.722C156.784 170.159 156.023 170.919 156.023 171.857C156.023 172.795 156.784 173.555 157.722 173.555H197.345C198.282 173.555 199.043 172.795 199.043 171.857C199.043 170.919 198.282 170.159 197.345 170.159Z" fill="#DBDBE8"/>
<path d="M234.488 174.859C236.332 175.488 237.605 177.223 237.571 179.131C237.533 181.359 236.166 183.122 234.35 183.676C233.254 189.919 225.879 194.751 221.848 194.751C217.486 194.751 209.208 189.092 209.208 182.111C209.619 178.887 209.825 177.153 209.825 176.909C209.825 176.665 209.619 174.836 209.208 171.424C209.208 164.443 214.867 158.784 221.848 158.784C228.829 158.784 234.488 164.443 234.488 171.424V174.859Z" fill="#FFC62C"/>
<path d="M234.488 174.859C236.332 175.488 237.605 177.223 237.571 179.131C237.533 181.359 236.166 183.122 234.35 183.676C233.254 189.919 225.879 194.751 221.848 194.751C217.486 194.751 209.208 189.092 209.208 182.111C209.619 178.887 209.825 177.153 209.825 176.909C209.825 176.665 209.619 174.836 209.208 171.424C209.208 164.443 214.867 158.784 221.848 158.784C228.829 158.784 234.488 164.443 234.488 171.424V174.859Z" fill="url(#paint13_linear)"/>
<path d="M234.452 187.145L234.694 182.419L234.489 178.898C232.405 177.741 230.995 175.518 230.995 172.965C230.995 172.396 231.065 171.842 231.197 171.314C231.096 171.319 230.994 171.321 230.892 171.321C227.452 171.321 224.619 168.721 224.252 165.378C223.219 165.893 222.054 166.183 220.821 166.183C218.988 166.183 217.305 165.543 215.983 164.475C215.401 164.778 214.74 164.949 214.038 164.949C213.099 164.949 212.231 164.642 211.53 164.121C210.495 165.582 209.761 167.272 209.422 169.1C207.782 167.705 206.742 165.626 206.742 163.305C206.742 159.352 209.758 156.104 213.615 155.735C214.72 152.831 217.529 150.768 220.821 150.768C222.196 150.768 223.486 151.128 224.604 151.759C226.265 150.249 228.471 149.329 230.892 149.329C235.858 149.329 239.921 153.201 240.225 158.09C243.86 158.758 246.615 161.943 246.615 165.771C246.615 167.918 245.749 169.862 244.347 171.274C244.486 171.815 244.56 172.381 244.56 172.965C244.56 175.217 243.463 177.212 241.774 178.446C241.849 178.868 241.888 179.303 241.888 179.748C241.888 183.778 238.466 187.055 234.452 187.145Z" fill="#1F1845"/>
<path d="M234.452 187.145L234.694 182.419L234.489 178.898C232.405 177.741 230.995 175.518 230.995 172.965C230.995 172.396 231.065 171.842 231.197 171.314C231.096 171.319 230.994 171.321 230.892 171.321C227.452 171.321 224.619 168.721 224.252 165.378C223.219 165.893 222.054 166.183 220.821 166.183C218.988 166.183 217.305 165.543 215.983 164.475C215.401 164.778 214.74 164.949 214.038 164.949C213.099 164.949 212.231 164.642 211.53 164.121C210.495 165.582 209.761 167.272 209.422 169.1C207.782 167.705 206.742 165.626 206.742 163.305C206.742 159.352 209.758 156.104 213.615 155.735C214.72 152.831 217.529 150.768 220.821 150.768C222.196 150.768 223.486 151.128 224.604 151.759C226.265 150.249 228.471 149.329 230.892 149.329C235.858 149.329 239.921 153.201 240.225 158.09C243.86 158.758 246.615 161.943 246.615 165.771C246.615 167.918 245.749 169.862 244.347 171.274C244.486 171.815 244.56 172.381 244.56 172.965C244.56 175.217 243.463 177.212 241.774 178.446C241.849 178.868 241.888 179.303 241.888 179.748C241.888 183.778 238.466 187.055 234.452 187.145Z" fill="url(#paint14_linear)"/>
<path fill-rule="evenodd" clip-rule="evenodd" d="M231.478 175.427C231.288 175.43 230.97 175.431 230.891 175.431C227.452 175.431 224.619 172.831 224.252 169.489C223.219 170.003 222.053 170.293 220.82 170.293C218.988 170.293 217.305 169.653 215.982 168.585C215.4 168.888 214.739 169.06 214.038 169.06C213.098 169.06 212.23 168.752 211.529 168.232C210.494 169.692 209.761 171.381 209.421 173.208C209.358 172.671 209.287 172.076 209.208 171.423C209.208 168.703 210.067 166.183 211.529 164.121C212.23 164.641 213.098 164.949 214.038 164.949C214.739 164.949 215.4 164.778 215.982 164.475C217.305 165.543 218.988 166.182 220.82 166.182C222.053 166.182 223.219 165.893 224.252 165.378C224.619 168.72 227.452 171.32 230.891 171.32C230.994 171.32 231.095 171.318 231.197 171.314C231.064 171.842 231.152 172.42 231.197 172.989C231.399 175.558 231.537 175.426 231.478 175.427Z" fill="url(#paint15_linear)"/>
<defs>
<linearGradient id="paint0_linear" x1="134.74" y1="74.6118" x2="134.74" y2="196.877" gradientUnits="userSpaceOnUse">
<stop stop-color="#017EFC"/>
<stop offset="1" stop-color="#2B0092"/>
</linearGradient>
<linearGradient id="paint1_linear" x1="158.063" y1="52.1963" x2="158.063" y2="134.857" gradientUnits="userSpaceOnUse">
<stop stop-color="#403F9F" stop-opacity="0"/>
<stop offset="1" stop-opacity="0.2"/>
</linearGradient>
<linearGradient id="paint2_linear" x1="107.797" y1="196.877" x2="52.9175" y2="183.869" gradientUnits="userSpaceOnUse">
<stop stop-opacity="0"/>
<stop offset="1" stop-opacity="0.2"/>
</linearGradient>
<linearGradient id="paint3_linear" x1="73.0425" y1="121.715" x2="73.0425" y2="158.675" gradientUnits="userSpaceOnUse">
<stop stop-color="#F0F0F6" stop-opacity="0"/>
<stop offset="1" stop-opacity="0.03"/>
</linearGradient>
<linearGradient id="paint4_linear" x1="44.7653" y1="143.326" x2="44.7653" y2="161.301" gradientUnits="userSpaceOnUse">
<stop stop-color="#FFC62C" stop-opacity="0"/>
<stop offset="1" stop-color="#FF6663" stop-opacity="0.1"/>
</linearGradient>
<linearGradient id="paint5_linear" x1="48.9057" y1="145.548" x2="41.5059" y2="154.123" gradientUnits="userSpaceOnUse">
<stop stop-opacity="0.35"/>
<stop offset="1" stop-color="#FFC62C" stop-opacity="0"/>
</linearGradient>
<linearGradient id="paint6_linear" x1="43.3724" y1="112.649" x2="43.3724" y2="151.58" gradientUnits="userSpaceOnUse">
<stop stop-color="#403F9F" stop-opacity="0"/>
<stop offset="1" stop-opacity="0.2"/>
</linearGradient>
<linearGradient id="paint7_linear" x1="28.8711" y1="132.516" x2="55.4798" y2="162.381" gradientUnits="userSpaceOnUse">
<stop stop-opacity="0.3"/>
<stop offset="1" stop-color="#1F1845" stop-opacity="0"/>
</linearGradient>
<linearGradient id="paint8_linear" x1="43.3522" y1="130.603" x2="43.3522" y2="150.799" gradientUnits="userSpaceOnUse">
<stop stop-color="#FFC62C" stop-opacity="0"/>
<stop offset="1" stop-color="#FF6663" stop-opacity="0.1"/>
</linearGradient>
<linearGradient id="paint9_linear" x1="54.1549" y1="130.602" x2="46.7996" y2="146.095" gradientUnits="userSpaceOnUse">
<stop stop-opacity="0.2"/>
<stop offset="1" stop-color="#FFC62C" stop-opacity="0"/>
</linearGradient>
<linearGradient id="paint10_linear" x1="192.591" y1="161.329" x2="192.591" y2="202.763" gradientUnits="userSpaceOnUse">
<stop stop-color="#F0F0F6" stop-opacity="0"/>
<stop offset="1" stop-opacity="0.03"/>
</linearGradient>
<linearGradient id="paint11_linear" x1="227.707" y1="182.419" x2="227.707" y2="205.028" gradientUnits="userSpaceOnUse">
<stop stop-color="#FFC62C" stop-opacity="0"/>
<stop offset="1" stop-color="#FF6663" stop-opacity="0.1"/>
</linearGradient>
<linearGradient id="paint12_linear" x1="220.924" y1="194.513" x2="235.19" y2="183.035" gradientUnits="userSpaceOnUse">
<stop stop-opacity="0.1"/>
<stop offset="1" stop-color="#FF6663" stop-opacity="0"/>
</linearGradient>
<linearGradient id="paint13_linear" x1="223.39" y1="158.784" x2="223.39" y2="194.751" gradientUnits="userSpaceOnUse">
<stop stop-color="#FFC62C" stop-opacity="0"/>
<stop offset="1" stop-color="#FF6663" stop-opacity="0.1"/>
</linearGradient>
<linearGradient id="paint14_linear" x1="226.679" y1="149.329" x2="226.679" y2="187.145" gradientUnits="userSpaceOnUse">
<stop stop-color="#1F1845" stop-opacity="0"/>
<stop offset="1" stop-opacity="0.2"/>
</linearGradient>
<linearGradient id="paint15_linear" x1="223.473" y1="166.719" x2="218.199" y2="179.223" gradientUnits="userSpaceOnUse">
<stop stop-opacity="0.1"/>
<stop offset="1" stop-color="#FF6663" stop-opacity="0"/>
</linearGradient>
</defs>
</svg>
