<svg width="267" height="267" viewBox="0 0 267 267" fill="none" xmlns="http://www.w3.org/2000/svg">
<rect x="4" y="4" width="259" height="259" stroke="#017EFC" stroke-width="8"/>
<mask id="mask0" mask-type="alpha" maskUnits="userSpaceOnUse" x="27" y="59" width="138" height="142">
<path d="M87.5088 60.594C63.0912 66.6875 62.8917 83.5704 48.5975 98.3609C34.2744 113.056 16.62 129.114 35.2455 144.139C50.0065 155.579 33.4281 176.419 60.4235 195.258C87.6952 214.321 164.95 178.198 164.95 144.139C164.95 109.71 125.747 113.971 129.853 93.7831C133.846 73.6173 112.299 54.5117 87.5088 60.594Z" fill="white"/>
</mask>
<g mask="url(#mask0)">
<path d="M87.5088 60.594C63.0912 66.6875 62.8917 83.5704 48.5975 98.3609C34.2744 113.056 16.62 129.114 35.2455 144.139C50.0065 155.579 33.4281 176.419 60.4235 195.258C87.6952 214.321 164.95 178.198 164.95 144.139C164.95 109.71 125.747 113.971 129.853 93.7831C133.846 73.6173 112.299 54.5117 87.5088 60.594Z" fill="#464D89"/>
<path d="M87.5088 60.594C63.0912 66.6875 62.8917 83.5704 48.5975 98.3609C34.2744 113.056 16.62 129.114 35.2455 144.139C50.0065 155.579 33.4281 176.419 60.4235 195.258C87.6952 214.321 164.95 178.198 164.95 144.139C164.95 109.71 125.747 113.971 129.853 93.7831C133.846 73.6173 112.299 54.5117 87.5088 60.594Z" fill="url(#paint0_linear)"/>
<path fill-rule="evenodd" clip-rule="evenodd" d="M126.421 91.875C152.535 105.415 166.777 114.444 169.147 118.96C175.105 130.671 177.094 135.006 179.828 160.924C182.41 186.57 130.774 196.012 126.421 199.411C119.814 204.339 62.5179 200.927 66.6483 146.982C68.1009 126.522 74.2916 112.476 85.2203 104.845L126.421 91.875Z" fill="url(#paint1_linear)"/>
</g>
<path d="M117.267 139.179C133.84 139.179 148.176 157.847 150.456 177.327C152.753 196.655 156.015 202.304 148.167 201.361C138.001 199.109 100.647 139.179 117.267 139.179Z" fill="#A7A7EE"/>
<path d="M117.267 139.179C133.84 139.179 148.176 157.847 150.456 177.327C152.753 196.655 156.015 202.304 148.167 201.361C138.001 199.109 100.647 139.179 117.267 139.179Z" fill="url(#paint2_linear)"/>
<path d="M117.267 139.179C133.84 139.179 148.176 157.847 150.456 177.327C152.753 196.655 156.015 202.304 148.167 201.361C138.001 199.109 100.647 139.179 117.267 139.179Z" fill="url(#paint3_linear)"/>
<mask id="mask1" mask-type="alpha" maskUnits="userSpaceOnUse" x="79" y="138" width="59" height="70">
<path d="M79.1182 151.387C79.3008 164.029 80.2012 200.676 90.5627 205.176C101.13 209.414 127.675 207.466 132.907 205.176C137.899 202.752 142.314 147.29 126.422 141.087C110.937 135.044 79.3008 138.6 79.1182 151.387Z" fill="white"/>
</mask>
<g mask="url(#mask1)">
<path d="M79.1182 151.387C79.3008 164.029 80.2012 200.676 90.5627 205.176C101.13 209.414 127.675 207.466 132.907 205.176C137.899 202.752 142.314 147.29 126.422 141.087C110.937 135.044 79.3008 138.6 79.1182 151.387Z" fill="#A7A7EE"/>
<path d="M79.1182 151.387C79.3008 164.029 80.2012 200.676 90.5627 205.176C101.13 209.414 127.675 207.466 132.907 205.176C137.899 202.752 142.314 147.29 126.422 141.087C110.937 135.044 79.3008 138.6 79.1182 151.387Z" fill="url(#paint4_linear)"/>
<path fill-rule="evenodd" clip-rule="evenodd" d="M95.1374 208.61C91.9307 208.61 94.774 165.965 95.1374 165.503C102.508 164.508 97.5159 197.557 117.263 182.288C117.697 182.183 140.765 177.482 139.771 182.288C138.711 187.344 124.269 184.922 119.934 187.247C109.681 192.216 107.296 208.61 95.1374 208.61Z" fill="url(#paint5_linear)"/>
</g>
<path d="M96.0829 185.319C101.135 183.285 106.499 181.459 109.255 180.38C112.527 179.593 115.573 185.657 113.451 187.628C106.708 194.317 101.063 207.465 92.8508 207.465C90.1051 207.465 87.6507 205.965 85.9157 203.782C82.8065 200.294 80.4739 194.104 79.1174 185.339C76.1844 166.864 74.435 148.517 84.4581 144.139C94.5762 140.081 94.9897 166.171 95.1397 178.091C95.1094 180.476 95.5042 182.916 96.0829 185.319Z" fill="#A7A7EE"/>
<path d="M96.0829 185.319C101.135 183.285 106.499 181.459 109.255 180.38C112.527 179.593 115.573 185.657 113.451 187.628C106.708 194.317 101.063 207.465 92.8508 207.465C90.1051 207.465 87.6507 205.965 85.9157 203.782C82.8065 200.294 80.4739 194.104 79.1174 185.339C76.1844 166.864 74.435 148.517 84.4581 144.139C94.5762 140.081 94.9897 166.171 95.1397 178.091C95.1094 180.476 95.5042 182.916 96.0829 185.319Z" fill="url(#paint6_linear)"/>
<path d="M148.166 201.361C155.115 202.552 159.229 195.781 159.229 176.183C159.229 164.19 150.767 167.056 147.403 173.131C142.421 182.127 141.025 199.834 148.166 201.361Z" fill="#A7A7EE"/>
<path d="M148.166 201.361C155.115 202.552 159.229 195.781 159.229 176.183C159.229 164.19 150.767 167.056 147.403 173.131C142.421 182.127 141.025 199.834 148.166 201.361Z" fill="url(#paint7_linear)"/>
<path d="M190.89 118.198H140.916C140.284 118.198 139.771 118.71 139.771 119.342V169.317C139.771 169.949 140.284 170.461 140.916 170.461H190.89C191.522 170.461 192.035 169.949 192.035 169.317V119.342C192.035 118.71 191.522 118.198 190.89 118.198Z" fill="#D4527D"/>
<path d="M148.549 170.461C155.349 170.464 158.909 170.464 159.23 170.461C159.686 170.466 168.985 169.65 179.449 165.501C186.063 163.101 186.901 166.66 185.171 170.461C183.907 172.596 181.85 174.86 179.449 176.183C173.013 179.034 159.376 172.156 159.23 176.183C159.376 181.892 147.681 177.333 147.404 173.131C147.397 172.39 147.918 171.407 148.549 170.461Z" fill="#FFC62C"/>
<path d="M148.549 170.461C155.349 170.464 158.909 170.464 159.23 170.461C159.686 170.466 168.985 169.65 179.449 165.501C186.063 163.101 186.901 166.66 185.171 170.461C183.907 172.596 181.85 174.86 179.449 176.183C173.013 179.034 159.376 172.156 159.23 176.183C159.376 181.892 147.681 177.333 147.404 173.131C147.397 172.39 147.918 171.407 148.549 170.461Z" fill="url(#paint8_linear)"/>
<path d="M109.256 180.38C111.852 179.2 114.812 177.28 115.36 176.184C117.669 171.945 114.439 165.439 117.267 164.358C119.747 162.718 121.406 168.035 120.701 171.988C119.76 175.468 125.778 174.751 129.856 172.751C134.259 170.35 147.286 177.373 140.538 181.525C133.84 185.355 122.221 183.412 118.03 183.432C117.409 183.418 115.883 184.817 113.452 187.628C108.258 183.937 106.859 181.521 109.256 180.38Z" fill="#FFC62C"/>
<path d="M109.256 180.38C111.852 179.2 114.812 177.28 115.36 176.184C117.669 171.945 114.439 165.439 117.267 164.358C119.747 162.718 121.406 168.035 120.701 171.988C119.76 175.468 125.778 174.751 129.856 172.751C134.259 170.35 147.286 177.373 140.538 181.525C133.84 185.355 122.221 183.412 118.03 183.432C117.409 183.418 115.883 184.817 113.452 187.628C108.258 183.937 106.859 181.521 109.256 180.38Z" fill="url(#paint9_linear)"/>
<path d="M101.243 125.827H117.647V139.369C117.647 143.899 113.975 147.571 109.445 147.571C104.915 147.571 101.243 143.899 101.243 139.369V125.827Z" fill="#FFC62C"/>
<path d="M101.243 125.827H117.647V139.369C117.647 143.899 113.975 147.571 109.445 147.571C104.915 147.571 101.243 143.899 101.243 139.369V125.827Z" fill="url(#paint10_linear)"/>
<path fill-rule="evenodd" clip-rule="evenodd" d="M117.647 135.413C115.282 136.809 112.687 137.653 110.017 137.653C107.464 137.653 104.373 137.145 101.243 136.13V125.827H117.647V135.413V135.413Z" fill="url(#paint11_linear)"/>
<mask id="mask2" mask-type="alpha" maskUnits="userSpaceOnUse" x="80" y="90" width="49" height="44">
<path d="M86.4802 121.171C85.0814 121.058 83.7194 119.688 83.6951 116.292C83.7278 111.581 80.2617 110.122 80.2617 107.136C80.2617 103.986 83.4197 102.701 85.1176 104.718C85.1513 104.633 85.1858 104.549 85.221 104.466C86.7607 101.134 89.4227 102.354 100.862 99.1251C112.403 96.2217 116.897 87.7389 126.421 91.8769C126.472 93.6251 126.41 99.4348 126.421 101.414C126.41 103.225 128.71 105.604 128.71 114.003C128.71 122.34 119.874 133.84 110.017 133.84C102.653 133.84 90.8148 129.619 86.4802 121.171Z" fill="white"/>
</mask>
<g mask="url(#mask2)">
<path d="M86.4802 121.171C85.0814 121.058 83.7194 119.688 83.6951 116.292C83.7278 111.581 80.2617 110.122 80.2617 107.136C80.2617 103.986 83.4197 102.701 85.1176 104.718C85.1513 104.633 85.1858 104.549 85.221 104.466C86.7607 101.134 89.4227 102.354 100.862 99.1251C112.403 96.2217 116.897 87.7389 126.421 91.8769C126.472 93.6251 126.41 99.4348 126.421 101.414C126.41 103.225 128.71 105.604 128.71 114.003C128.71 122.34 119.874 133.84 110.017 133.84C102.653 133.84 90.8148 129.619 86.4802 121.171Z" fill="#FFC62C"/>
<path d="M86.4802 121.171C85.0814 121.058 83.7194 119.688 83.6951 116.292C83.7278 111.581 80.2617 110.122 80.2617 107.136C80.2617 103.986 83.4197 102.701 85.1176 104.718C85.1513 104.633 85.1858 104.549 85.221 104.466C86.7607 101.134 89.4227 102.354 100.862 99.1251C112.403 96.2217 116.897 87.7389 126.421 91.8769C126.472 93.6251 126.41 99.4348 126.421 101.414C126.41 103.225 128.71 105.604 128.71 114.003C128.71 122.34 119.874 133.84 110.017 133.84C102.653 133.84 90.8148 129.619 86.4802 121.171Z" fill="url(#paint12_linear)"/>
</g>
<mask id="mask3" mask-type="alpha" maskUnits="userSpaceOnUse" x="85" y="90" width="42" height="16">
<path d="M85.1387 104.664C85.1657 104.597 85.1932 104.53 85.2212 104.464C86.7609 101.133 89.423 102.353 100.862 99.1236C112.404 96.2202 116.898 87.7375 126.421 91.8754C126.449 92.8344 126.443 95.0156 126.434 97.1162C122.736 96.6247 118.79 97.7192 114.595 100.4C101.88 108.526 90.6109 105.649 85.1387 104.664Z" fill="white"/>
</mask>
<g mask="url(#mask3)">
<path d="M85.1387 104.664C85.1657 104.597 85.1932 104.53 85.2212 104.464C86.7609 101.133 89.423 102.353 100.862 99.1236C112.404 96.2202 116.898 87.7375 126.421 91.8754C126.449 92.8344 126.443 95.0156 126.434 97.1162C122.736 96.6247 118.79 97.7192 114.595 100.4C101.88 108.526 90.6109 105.649 85.1387 104.664Z" fill="url(#paint13_linear)"/>
</g>
<path d="M221.189 144.134C223.828 144.134 225.958 146.282 225.958 148.903C225.958 151.541 223.828 153.671 221.189 153.671C218.568 153.671 216.421 151.541 216.421 148.903C216.421 146.282 218.568 144.134 221.189 144.134Z" fill="#545C66"/>
<path d="M160.531 144.134C163.17 144.134 165.3 146.282 165.3 148.903C165.3 151.541 163.17 153.671 160.531 153.671C157.91 153.671 155.763 151.541 155.763 148.903C155.763 146.282 157.91 144.134 160.531 144.134Z" fill="#545C66"/>
<path d="M185.902 168.103V168.168H179.798V161.683H185.902V168.103Z" fill="#CCD1D9"/>
<path d="M189.28 146.423C189.28 145.087 188.222 144.007 186.91 144.007C185.614 144.007 184.539 145.087 184.539 146.423C184.539 147.76 185.614 148.84 186.91 148.84C188.222 148.84 189.28 147.76 189.28 146.423ZM197.183 146.423C197.183 145.087 196.124 144.007 194.812 144.007C193.5 144.007 192.441 145.087 192.441 146.423C192.441 147.76 193.5 148.84 194.812 148.84C196.124 148.84 197.183 147.76 197.183 146.423ZM201.924 139.175V153.672H179.798V139.175H201.924Z" fill="#CCD1D9"/>
<path d="M160.534 134.598C168.434 134.598 174.84 141.003 174.84 148.903C174.84 156.805 168.434 163.209 160.534 163.209C152.634 163.209 146.229 156.805 146.229 148.903C146.229 141.003 152.634 134.598 160.534 134.598ZM165.303 148.903C165.303 146.282 163.173 144.135 160.534 144.135C157.913 144.135 155.766 146.282 155.766 148.903C155.766 151.542 157.913 153.672 160.534 153.672C163.173 153.672 165.303 151.542 165.303 148.903Z" fill="#656D78"/>
<path d="M146.129 108.992H150.921V120.174H146.129V108.992Z" fill="#AAB2BD"/>
<path d="M230.798 108.992H235.59V120.174H230.798V108.992Z" fill="#AAB2BD"/>
<path d="M202.042 153.72V161.708H195.668H186.068H179.678V153.72H202.042Z" fill="white"/>
<path d="M186.855 144.134C188.227 144.134 189.334 145.242 189.334 146.614C189.334 147.986 188.227 149.094 186.855 149.094C185.499 149.094 184.375 147.986 184.375 146.614C184.375 145.242 185.499 144.134 186.855 144.134Z" fill="#656D78"/>
<path d="M201.923 129.638H240.453V168.168H201.923V161.746V153.719V139.271V129.656V129.638ZM235.636 148.903C235.636 140.924 229.167 134.454 221.188 134.454C213.209 134.454 206.739 140.924 206.739 148.903C206.739 156.884 213.209 163.352 221.188 163.352C229.167 163.352 235.636 156.884 235.636 148.903Z" fill="white"/>
<path d="M174.981 148.903C174.981 140.924 168.511 134.454 160.532 134.454C152.554 134.454 146.084 140.924 146.084 148.903C146.084 156.884 152.554 163.352 160.532 163.352C168.511 163.352 174.981 156.884 174.981 148.903ZM179.797 139.271V153.719V161.746V168.168H141.268V129.638H179.797V129.656V139.271Z" fill="white"/>
<path d="M221.19 134.598C229.09 134.598 235.496 141.003 235.496 148.903C235.496 156.805 229.09 163.209 221.19 163.209C213.291 163.209 206.885 156.805 206.885 148.903C206.885 141.003 213.291 134.598 221.19 134.598ZM225.959 148.903C225.959 146.282 223.829 144.135 221.19 144.135C218.569 144.135 216.422 146.282 216.422 148.903C216.422 151.542 218.569 153.672 221.19 153.672C223.829 153.672 225.959 151.542 225.959 148.903Z" fill="#656D78"/>
<path d="M201.921 161.683V168.168H195.817V168.103V161.683H201.921Z" fill="#CCD1D9"/>
<path d="M201.924 129.656V139.175H179.798V129.656V129.638H190.861H201.924V129.656Z" fill="white"/>
<path d="M194.867 149.094C196.237 149.094 197.347 147.983 197.347 146.614C197.347 145.244 196.237 144.134 194.867 144.134C193.498 144.134 192.388 145.244 192.388 146.614C192.388 147.983 193.498 149.094 194.867 149.094Z" fill="#656D78"/>
<path d="M235.496 102.553V109.038H230.713H151.011H146.229V102.553H235.496Z" fill="#21242C"/>
<path d="M195.82 168.103V168.168H185.901V168.103V161.683H195.82V168.103Z" fill="#CCD1D9"/>
<path d="M235.654 120.101H230.855H190.86H150.866H146.067H141.268V129.638H179.662H190.86H202.059H240.453V120.101H235.654Z" fill="white"/>
<path d="M240.379 169.694H141.337C140.453 169.694 139.739 168.98 139.739 168.097V120.173C139.739 119.291 140.453 118.576 141.337 118.576H240.379C241.263 118.576 241.977 119.291 241.977 120.173V168.097C241.977 168.98 241.263 169.694 240.379 169.694ZM142.934 166.5H238.782V121.771H142.934V166.5Z" fill="#D4527D"/>
<path d="M179.796 169.694C178.953 169.694 178.271 168.979 178.271 168.095V129.712C178.271 128.829 178.953 128.112 179.796 128.112C180.64 128.112 181.322 128.829 181.322 129.712V168.095C181.322 168.979 180.64 169.694 179.796 169.694Z" fill="black"/>
<path d="M202.115 169.694C201.166 169.694 200.398 168.979 200.398 168.095V129.712C200.398 128.829 201.166 128.112 202.115 128.112C203.064 128.112 203.832 128.829 203.832 129.712V168.095C203.832 168.979 203.064 169.694 202.115 169.694Z" fill="black"/>
<path d="M160.532 164.735C151.802 164.735 144.7 157.633 144.7 148.904C144.7 140.173 151.802 133.072 160.532 133.072C169.261 133.072 176.363 140.173 176.363 148.904C176.363 157.633 169.261 164.735 160.532 164.735ZM160.532 136.238C153.548 136.238 147.867 141.92 147.867 148.904C147.867 155.887 153.548 161.569 160.532 161.569C167.515 161.569 173.197 155.887 173.197 148.904C173.197 141.92 167.515 136.238 160.532 136.238Z" fill="black"/>
<path d="M160.535 155.198C157.063 155.198 154.24 152.375 154.24 148.903C154.24 145.432 157.063 142.609 160.535 142.609C164.006 142.609 166.829 145.432 166.829 148.903C166.829 152.375 164.006 155.198 160.535 155.198ZM160.535 145.756C158.799 145.756 157.387 147.168 157.387 148.903C157.387 150.639 158.799 152.051 160.535 152.051C162.27 152.051 163.682 150.639 163.682 148.903C163.682 147.168 162.27 145.756 160.535 145.756Z" fill="black"/>
<path d="M221.187 164.735C212.458 164.735 205.355 157.633 205.355 148.904C205.355 140.173 212.458 133.072 221.187 133.072C229.917 133.072 237.019 140.173 237.019 148.904C237.019 157.633 229.917 164.735 221.187 164.735ZM221.187 136.238C214.204 136.238 208.522 141.92 208.522 148.904C208.522 155.887 214.204 161.569 221.187 161.569C228.17 161.569 233.852 155.887 233.852 148.904C233.852 141.92 228.17 136.238 221.187 136.238Z" fill="black"/>
<path d="M221.187 155.198C217.716 155.198 214.893 152.375 214.893 148.903C214.893 145.432 217.716 142.609 221.187 142.609C224.658 142.609 227.482 145.432 227.482 148.903C227.482 152.375 224.658 155.198 221.187 155.198ZM221.187 145.756C219.451 145.756 218.04 147.168 218.04 148.903C218.04 150.639 219.451 152.051 221.187 152.051C222.923 152.051 224.334 150.639 224.334 148.903C224.334 147.168 222.923 145.756 221.187 145.756Z" fill="black"/>
<path d="M202.232 141.082H179.868C178.985 141.082 178.271 140.315 178.271 139.366C178.271 138.416 178.985 137.649 179.868 137.649H202.232C203.116 137.649 203.83 138.416 203.83 139.366C203.83 140.315 203.116 141.082 202.232 141.082Z" fill="black"/>
<path d="M202.232 155.196H179.868C178.985 155.196 178.271 154.514 178.271 153.67C178.271 152.826 178.985 152.144 179.868 152.144H202.232C203.116 152.144 203.83 152.826 203.83 153.67C203.83 154.514 203.116 155.196 202.232 155.196Z" fill="black"/>
<path d="M186.856 150.62C184.647 150.62 182.851 148.824 182.851 146.614C182.851 144.405 184.647 142.609 186.856 142.609C189.066 142.609 190.862 144.405 190.862 146.614C190.862 148.824 189.066 150.62 186.856 150.62ZM186.856 145.813C186.416 145.813 186.055 146.174 186.055 146.614C186.055 147.055 186.416 147.416 186.856 147.416C187.297 147.416 187.657 147.055 187.657 146.614C187.657 146.174 187.297 145.813 186.856 145.813Z" fill="black"/>
<path d="M194.865 150.62C192.655 150.62 190.859 148.824 190.859 146.614C190.859 144.405 192.655 142.609 194.865 142.609C197.074 142.609 198.871 144.405 198.871 146.614C198.871 148.824 197.074 150.62 194.865 150.62ZM194.865 145.813C194.424 145.813 194.064 146.174 194.064 146.614C194.064 147.055 194.424 147.416 194.865 147.416C195.306 147.416 195.666 147.055 195.666 146.614C195.666 146.174 195.306 145.813 194.865 145.813Z" fill="black"/>
<path d="M194.947 150.62H186.773C185.869 150.62 185.138 149.853 185.138 148.903C185.138 147.954 185.869 147.187 186.773 147.187H194.947C195.851 147.187 196.582 147.954 196.582 148.903C196.582 149.853 195.851 150.62 194.947 150.62Z" fill="black"/>
<path d="M202.232 163.209H179.868C178.985 163.209 178.271 162.527 178.271 161.683C178.271 160.839 178.985 160.157 179.868 160.157H202.232C203.116 160.157 203.83 160.839 203.83 161.683C203.83 162.527 203.116 163.209 202.232 163.209Z" fill="black"/>
<path d="M186.092 169.694C185.142 169.694 184.375 168.978 184.375 168.093V161.757C184.375 160.872 185.142 160.157 186.092 160.157C187.041 160.157 187.808 160.872 187.808 161.757V168.093C187.808 168.978 187.041 169.694 186.092 169.694Z" fill="black"/>
<path d="M195.626 169.694C194.677 169.694 193.909 168.978 193.909 168.093V161.757C193.909 160.872 194.677 160.157 195.626 160.157C196.575 160.157 197.343 160.872 197.343 161.757V168.093C197.343 168.978 196.575 169.694 195.626 169.694Z" fill="black"/>
<path d="M240.379 131.546H141.337C140.453 131.546 139.739 130.777 139.739 129.829C139.739 128.881 140.453 128.112 141.337 128.112H240.379C241.263 128.112 241.977 128.881 241.977 129.829C241.977 130.777 241.263 131.546 240.379 131.546Z" fill="black"/>
<path d="M147.758 126.587C146.917 126.587 146.229 125.903 146.229 125.061C146.229 124.218 146.901 123.535 147.742 123.535H147.758C148.598 123.535 149.28 124.218 149.28 125.061C149.28 125.903 148.598 126.587 147.758 126.587Z" fill="black"/>
<path d="M152.527 126.587C151.58 126.587 150.806 125.903 150.806 125.061C150.806 124.218 151.563 123.535 152.508 123.535H152.527C153.472 123.535 154.239 124.218 154.239 125.061C154.239 125.903 153.472 126.587 152.527 126.587Z" fill="black"/>
<path d="M157.292 126.587C156.451 126.587 155.763 125.903 155.763 125.061C155.763 124.218 156.435 123.535 157.276 123.535H157.292C158.133 123.535 158.815 124.218 158.815 125.061C158.815 125.903 158.133 126.587 157.292 126.587Z" fill="black"/>
<path d="M162.252 126.587C161.411 126.587 160.723 125.903 160.723 125.061C160.723 124.218 161.395 123.535 162.236 123.535H162.252C163.093 123.535 163.775 124.218 163.775 125.061C163.775 125.903 163.093 126.587 162.252 126.587Z" fill="black"/>
<path d="M235.494 126.587H232.442C231.598 126.587 230.916 125.903 230.916 125.061C230.916 124.218 231.598 123.535 232.442 123.535H235.494C236.338 123.535 237.02 124.218 237.02 125.061C237.02 125.903 236.338 126.587 235.494 126.587Z" fill="black"/>
<path d="M227.766 126.587H224.524C223.627 126.587 222.902 125.903 222.902 125.061C222.902 124.218 223.627 123.535 224.524 123.535H227.766C228.663 123.535 229.388 124.218 229.388 125.061C229.388 125.903 228.663 126.587 227.766 126.587Z" fill="black"/>
<path d="M219.756 126.587H216.514C215.617 126.587 214.893 125.903 214.893 125.061C214.893 124.218 215.617 123.535 216.514 123.535H219.756C220.653 123.535 221.378 124.218 221.378 125.061C221.378 125.903 220.653 126.587 219.756 126.587Z" fill="black"/>
<path d="M202.232 126.587H179.868C178.985 126.587 178.271 125.903 178.271 125.061C178.271 124.218 178.985 123.535 179.868 123.535H202.232C203.116 123.535 203.83 124.218 203.83 125.061C203.83 125.903 203.116 126.587 202.232 126.587Z" fill="black"/>
<path d="M190.859 128.113C190.015 128.113 189.333 127.387 189.333 126.492V123.249C189.333 122.354 190.015 121.628 190.859 121.628C191.703 121.628 192.385 122.354 192.385 123.249V126.492C192.385 127.387 191.703 128.113 190.859 128.113Z" fill="black"/>
<path d="M146.226 121.627C145.382 121.627 144.7 120.918 144.7 120.043V102.612C144.7 101.737 145.382 101.027 146.226 101.027C147.07 101.027 147.752 101.737 147.752 102.612V120.043C147.752 120.918 147.07 121.627 146.226 121.627Z" fill="black"/>
<path d="M150.996 121.628C150.047 121.628 149.279 120.925 149.279 120.059V109.081C149.279 108.215 150.047 107.513 150.996 107.513C151.945 107.513 152.713 108.215 152.713 109.081V120.059C152.713 120.925 151.945 121.628 150.996 121.628Z" fill="black"/>
<path d="M230.916 121.628C230.072 121.628 229.39 120.925 229.39 120.059V109.081C229.39 108.215 230.072 107.513 230.916 107.513C231.759 107.513 232.442 108.215 232.442 109.081V120.059C232.442 120.925 231.759 121.628 230.916 121.628Z" fill="black"/>
<path d="M235.496 121.627C234.652 121.627 233.97 120.918 233.97 120.043V102.612C233.97 101.737 234.652 101.027 235.496 101.027C236.34 101.027 237.022 101.737 237.022 102.612V120.043C237.022 120.918 236.34 121.627 235.496 121.627Z" fill="black"/>
<path d="M235.428 104.079H146.292C145.412 104.079 144.7 103.396 144.7 102.553C144.7 101.711 145.412 101.027 146.292 101.027H235.428C236.308 101.027 237.019 101.711 237.019 102.553C237.019 103.396 236.308 104.079 235.428 104.079Z" fill="black"/>
<path d="M235.428 110.565H146.292C145.412 110.565 144.7 109.881 144.7 109.039C144.7 108.196 145.412 107.513 146.292 107.513H190.86H235.428C236.308 107.513 237.019 108.196 237.019 109.039C237.019 109.881 236.308 110.565 235.428 110.565Z" fill="black"/>
<defs>
<linearGradient id="paint0_linear" x1="96.0765" y1="59.4458" x2="96.0765" y2="200.54" gradientUnits="userSpaceOnUse">
<stop stop-color="#403F9F" stop-opacity="0"/>
<stop offset="1" stop-opacity="0.2"/>
</linearGradient>
<linearGradient id="paint1_linear" x1="66.4355" y1="91.875" x2="175.508" y2="205.275" gradientUnits="userSpaceOnUse">
<stop stop-opacity="0.3"/>
<stop offset="1" stop-color="#1F1845" stop-opacity="0"/>
</linearGradient>
<linearGradient id="paint2_linear" x1="133.094" y1="139.179" x2="133.094" y2="201.459" gradientUnits="userSpaceOnUse">
<stop stop-color="#A7A7EE" stop-opacity="0"/>
<stop offset="1" stop-color="#4C55A0" stop-opacity="0.2"/>
</linearGradient>
<linearGradient id="paint3_linear" x1="117.45" y1="167.258" x2="153.188" y2="168.527" gradientUnits="userSpaceOnUse">
<stop stop-color="#464D89" stop-opacity="0.6"/>
<stop offset="1" stop-color="#A7A7EE" stop-opacity="0"/>
</linearGradient>
<linearGradient id="paint4_linear" x1="108.317" y1="138.222" x2="108.317" y2="207.677" gradientUnits="userSpaceOnUse">
<stop stop-color="#A7A7EE" stop-opacity="0"/>
<stop offset="1" stop-color="#4C55A0" stop-opacity="0.2"/>
</linearGradient>
<linearGradient id="paint5_linear" x1="93.6279" y1="165.48" x2="136.658" y2="211.547" gradientUnits="userSpaceOnUse">
<stop stop-color="#464D89" stop-opacity="0.3"/>
<stop offset="1" stop-color="#A7A7EE" stop-opacity="0"/>
</linearGradient>
<linearGradient id="paint6_linear" x1="95.4936" y1="143.714" x2="95.4936" y2="207.465" gradientUnits="userSpaceOnUse">
<stop stop-color="#A7A7EE" stop-opacity="0"/>
<stop offset="1" stop-color="#4C55A0" stop-opacity="0.2"/>
</linearGradient>
<linearGradient id="paint7_linear" x1="151.232" y1="167.881" x2="151.232" y2="201.492" gradientUnits="userSpaceOnUse">
<stop stop-color="#A7A7EE" stop-opacity="0"/>
<stop offset="1" stop-color="#4C55A0" stop-opacity="0.2"/>
</linearGradient>
<linearGradient id="paint8_linear" x1="166.677" y1="164.721" x2="166.677" y2="178.863" gradientUnits="userSpaceOnUse">
<stop stop-color="#FFC62C" stop-opacity="0"/>
<stop offset="1" stop-color="#FF6663" stop-opacity="0.1"/>
</linearGradient>
<linearGradient id="paint9_linear" x1="125.281" y1="164.053" x2="125.281" y2="187.628" gradientUnits="userSpaceOnUse">
<stop stop-color="#FFC62C" stop-opacity="0"/>
<stop offset="1" stop-color="#FF6663" stop-opacity="0.1"/>
</linearGradient>
<linearGradient id="paint10_linear" x1="109.445" y1="125.827" x2="109.445" y2="147.571" gradientUnits="userSpaceOnUse">
<stop stop-color="#FFC62C" stop-opacity="0"/>
<stop offset="1" stop-color="#FF6663" stop-opacity="0.1"/>
</linearGradient>
<linearGradient id="paint11_linear" x1="117.647" y1="125.827" x2="106.427" y2="141.39" gradientUnits="userSpaceOnUse">
<stop stop-opacity="0.2"/>
<stop offset="1" stop-color="#FFC42C" stop-opacity="0"/>
</linearGradient>
<linearGradient id="paint12_linear" x1="104.486" y1="90.7603" x2="104.486" y2="133.84" gradientUnits="userSpaceOnUse">
<stop stop-color="#FFC62C" stop-opacity="0"/>
<stop offset="1" stop-color="#FF6663" stop-opacity="0.1"/>
</linearGradient>
<linearGradient id="paint13_linear" x1="126.442" y1="90.7588" x2="116.577" y2="117.546" gradientUnits="userSpaceOnUse">
<stop stop-opacity="0.1"/>
<stop offset="1" stop-color="#FFC42C" stop-opacity="0"/>
</linearGradient>
</defs>
</svg>
