<svg width="260" height="260" viewBox="0 0 260 260" fill="none" xmlns="http://www.w3.org/2000/svg">
<rect x="4" y="4" width="252" height="252" stroke="#017EFC" stroke-width="8"/>
<path d="M94.3118 44.2783C54.2387 44.2783 19.6885 72.7563 19.6885 119.823C19.6885 160.528 53.6065 195.368 94.3118 195.368C135.017 195.368 169.856 160.528 169.856 119.823C169.856 79.1177 135.017 44.2783 94.3118 44.2783ZM94.3118 144.39C80.7662 144.39 69.7445 133.369 69.7445 119.823C69.7445 106.277 80.7662 95.2556 94.3118 95.2556C107.857 95.2556 118.879 106.277 118.879 119.823C118.879 133.369 107.857 144.39 94.3118 144.39Z" fill="#6289F7"/>
<path d="M143.623 150.029L135.436 154.123L131.339 162.312L127.245 154.123L119.056 150.029L127.245 145.936L131.339 137.745L135.436 145.936L143.623 150.029Z" fill="#FFE469"/>
<path d="M94.3134 95.2568C107.859 95.2568 118.881 106.279 118.881 119.824C118.881 133.37 107.859 144.392 94.3134 144.392C80.7678 144.392 69.7461 133.37 69.7461 119.824C69.7461 106.279 80.7678 95.2568 94.3134 95.2568ZM100.455 119.824C100.455 116.437 97.7011 113.682 94.3134 113.682C90.9258 113.682 88.1716 116.437 88.1716 119.824C88.1716 123.212 90.9258 125.966 94.3134 125.966C97.7011 125.966 100.455 123.212 100.455 119.824Z" fill="#FFCF1B"/>
<path d="M38.8836 67.0919L25.0645 62.4855L38.8836 57.8791L43.49 44.2783L48.0963 57.8791C66.3107 63.9514 60.8694 62.1364 61.9155 62.4855L48.0963 67.0919L43.49 80.911C43.0365 79.5495 39.3826 68.5902 38.8836 67.0919Z" fill="#FFE469"/>
<path d="M150.51 119.823C150.51 121.518 151.886 122.894 153.581 122.894C155.276 122.894 156.652 121.518 156.652 119.823C156.652 118.128 155.276 116.752 153.581 116.752C151.886 116.752 150.51 118.128 150.51 119.823Z" fill="black"/>
<path d="M51.3199 122.894C53.0149 122.894 54.3909 121.518 54.3909 119.823C54.3909 118.128 53.0149 116.752 51.3199 116.752C49.6249 116.752 48.249 118.128 48.249 119.823C48.249 121.518 49.6249 122.894 51.3199 122.894Z" fill="black"/>
<path d="M94.3134 198.439C136.663 198.439 172.929 162.296 172.929 119.824C172.929 77.4736 136.786 41.208 94.3134 41.208C78.6781 41.208 62.3734 45.9583 50.0298 54.0147L46.3987 43.2941C45.9764 42.0465 44.8056 41.208 43.4897 41.208C42.1737 41.208 41.003 42.0465 40.5807 43.2941L36.4638 55.4494L24.0937 59.5735C22.839 59.991 21.9932 61.1642 21.9932 62.4861C21.9932 63.8081 22.839 64.9812 24.0937 65.3999L33.7311 68.6124C22.1636 82.8094 16.6191 101.797 16.6191 119.824C16.6191 162.437 52.1986 198.439 94.3134 198.439ZM39.8538 60.7935C40.7666 60.4888 41.484 59.7763 41.7923 58.8646L43.4897 53.8528L45.1871 58.8646C45.4954 59.7763 46.2139 60.49 47.1268 60.7947L52.2046 62.4861L47.1244 64.1799C46.2079 64.4858 45.4882 65.2044 45.1823 66.122L43.4897 71.2011L42.0874 66.9929C41.9794 65.5846 40.8866 64.523 39.855 64.1799L34.7748 62.4861L39.8538 60.7935ZM37.7545 73.4167L40.5759 81.8833C40.9946 83.1369 42.1677 83.9826 43.4897 83.9826C44.8116 83.9826 45.9848 83.1369 46.4035 81.8833L50.524 69.5204L62.8857 65.3999C64.1404 64.9824 64.9861 63.8093 64.9861 62.4873C64.9861 61.1654 64.1404 59.9922 62.8869 59.5735L56.2892 57.3747C67.2497 51.035 81.0269 47.3498 94.3134 47.3498C133.598 47.3498 166.787 80.5386 166.787 119.824C166.787 159.109 133.598 192.297 94.3134 192.297C55.5274 192.297 22.761 159.109 22.761 119.824C22.761 102.46 28.2982 85.5228 37.7545 73.4167Z" fill="black"/>
<path d="M94.3137 182.163C96.0099 182.163 97.3846 180.788 97.3846 179.092C97.3846 177.396 96.0099 176.021 94.3137 176.021C63.3526 176.021 37.1946 150.285 37.1946 119.823C37.1946 118.127 35.8199 116.752 34.1237 116.752C32.4275 116.752 31.0527 118.127 31.0527 119.823C31.0527 153.947 60.7243 182.163 94.3137 182.163Z" fill="black"/>
<path d="M94.3131 63.6257C120.214 63.6257 143.851 82.8106 149.292 108.25C149.648 109.914 151.285 110.965 152.938 110.611C154.595 110.256 155.652 108.623 155.298 106.965C149.338 79.1003 123.616 57.4839 94.3131 57.4839C92.6169 57.4839 91.2422 58.8586 91.2422 60.5548C91.2422 62.251 92.6169 63.6257 94.3131 63.6257Z" fill="black"/>
<path d="M52.2007 129.04C50.574 129.52 49.6456 131.228 50.1254 132.855C55.713 151.774 73.276 165.887 94.313 165.887C96.0092 165.887 97.384 164.513 97.384 162.817C97.384 161.12 96.0092 159.746 94.313 159.746C76.7428 159.746 60.9948 147.972 56.0153 131.115C55.5355 129.487 53.8273 128.559 52.2007 129.04Z" fill="black"/>
<path d="M94.3131 79.9016C116.327 79.9016 134.235 97.8101 134.235 119.824C134.235 121.52 135.61 122.894 137.306 122.894C139.002 122.894 140.377 121.52 140.377 119.824C140.377 94.4237 119.713 73.7598 94.3131 73.7598C92.6169 73.7598 91.2422 75.1345 91.2422 76.8307C91.2422 78.5269 92.6169 79.9016 94.3131 79.9016Z" fill="black"/>
<path d="M94.3121 147.462C109.552 147.462 121.95 135.063 121.95 119.824C121.95 104.584 109.552 92.1855 94.3121 92.1855C79.0727 92.1855 66.6738 104.584 66.6738 119.824C66.6738 135.063 79.0727 147.462 94.3121 147.462ZM94.3121 98.3274C106.165 98.3274 115.809 107.971 115.809 119.824C115.809 131.677 106.165 141.32 94.3121 141.32C82.4591 141.32 72.8157 131.677 72.8157 119.824C72.8157 107.971 82.4591 98.3274 94.3121 98.3274Z" fill="black"/>
<path d="M94.3133 129.036C99.3936 129.036 103.526 124.903 103.526 119.823C103.526 114.743 99.3936 110.61 94.3133 110.61C89.2331 110.61 85.1006 114.743 85.1006 119.823C85.1006 124.903 89.2331 129.036 94.3133 129.036ZM94.3133 116.752C96.0071 116.752 97.3843 118.129 97.3843 119.823C97.3843 121.517 96.0071 122.894 94.3133 122.894C92.6195 122.894 91.2424 121.517 91.2424 119.823C91.2424 118.129 92.6195 116.752 94.3133 116.752Z" fill="black"/>
<path d="M144.995 147.282L137.723 143.646L134.084 136.372C133.564 135.332 132.5 134.674 131.337 134.674C130.174 134.674 129.11 135.333 128.591 136.373L124.955 143.647L117.681 147.282C116.641 147.802 115.983 148.867 115.983 150.029C115.983 151.193 116.641 152.257 117.681 152.776L124.955 156.412L128.591 163.686C129.11 164.726 130.174 165.384 131.337 165.384H131.338C132.5 165.384 133.564 164.727 134.084 163.687L137.723 156.412L144.994 152.776C146.035 152.257 146.693 151.193 146.693 150.03C146.693 148.867 146.035 147.802 144.995 147.282ZM134.061 151.376C133.467 151.674 132.985 152.155 132.689 152.75L131.339 155.446L129.991 152.75C129.695 152.155 129.212 151.674 128.617 151.376L125.923 150.029L128.617 148.683C129.212 148.385 129.695 147.903 129.991 147.309L131.339 144.613L132.689 147.309C132.985 147.904 133.467 148.385 134.061 148.683L136.755 150.03L134.061 151.376Z" fill="black"/>
<path d="M18.7682 192.297H21.8391V195.368C21.8391 197.064 23.2138 198.439 24.91 198.439C26.6062 198.439 27.9809 197.064 27.9809 195.368V192.297H31.0519C32.7481 192.297 34.1228 190.922 34.1228 189.226C34.1228 187.53 32.7481 186.155 31.0519 186.155H27.9809V183.084C27.9809 181.388 26.6062 180.013 24.91 180.013C23.2138 180.013 21.8391 181.388 21.8391 183.084V186.155H18.7682C17.072 186.155 15.6973 187.53 15.6973 189.226C15.6973 190.922 17.072 192.297 18.7682 192.297Z" fill="black"/>
<path d="M169.857 180.013H166.786V176.943C166.786 175.246 165.411 173.872 163.715 173.872C162.019 173.872 160.644 175.246 160.644 176.943V180.013H157.573C155.877 180.013 154.502 181.388 154.502 183.084C154.502 184.781 155.877 186.155 157.573 186.155H160.644V189.226C160.644 190.922 162.019 192.297 163.715 192.297C165.411 192.297 166.786 190.922 166.786 189.226V186.155H169.857C171.553 186.155 172.927 184.781 172.927 183.084C172.927 181.388 171.553 180.013 169.857 180.013Z" fill="black"/>
<path d="M238.976 177.949C228.811 217.56 164.07 223.329 134.014 196.799C103.554 170.585 99.1039 135.046 112.594 105.975C125.728 77.0061 152.593 62.7051 182.425 62.7051C212.597 62.7051 232.448 93.5532 210.701 109.403C188.655 125.177 249.35 138.61 238.976 177.949Z" fill="#1F1845"/>
<path d="M238.976 177.949C228.811 217.56 164.07 223.329 134.014 196.799C103.554 170.585 99.1039 135.046 112.594 105.975C125.728 77.0061 152.593 62.7051 182.425 62.7051C212.597 62.7051 232.448 93.5532 210.701 109.403C188.655 125.177 249.35 138.61 238.976 177.949Z" fill="url(#paint0_linear)"/>
<path fill-rule="evenodd" clip-rule="evenodd" d="M211.879 126.84C223.137 138.201 245.618 152.767 238.978 177.95C233.246 200.282 210.168 211.857 185.738 212.952C159.854 205.706 140.87 181.942 140.87 153.744C140.87 142.609 143.831 132.165 149.007 123.157C149.982 127.896 152.647 131.681 157.15 131.681C161.163 142.945 170.8 151.816 185.425 151.816C200.05 151.816 207.888 142.129 210.702 135.537C211.917 132.69 212.083 130.052 211.879 126.84Z" fill="url(#paint1_linear)"/>
<path d="M172.144 225.503C174.064 231.638 174.794 231.969 174.714 232.786C174.794 233.55 173.768 235.494 171.715 236.642C169.886 238.18 166.998 238.707 166.574 237.927C165.784 236.991 154.15 215.232 154.15 207.938C154.15 202.29 154.857 186.877 158.006 175.807C161.087 164.558 167.192 158.315 176.856 155.243C177.202 154.95 182.969 153.529 185.425 153.529C201.467 153.529 214.557 166.624 214.557 182.662C214.557 184.678 214.372 186.574 214.129 188.231L208.131 218.649C203.674 222.41 197.245 224.268 188.852 224.218C180.256 224.268 173.945 222.65 170.002 219.505C170.544 221.299 171.29 223.391 172.144 225.503Z" fill="#403F9F"/>
<path d="M172.144 225.503C174.064 231.638 174.794 231.969 174.714 232.786C174.794 233.55 173.768 235.494 171.715 236.642C169.886 238.18 166.998 238.707 166.574 237.927C165.784 236.991 154.15 215.232 154.15 207.938C154.15 202.29 154.857 186.877 158.006 175.807C161.087 164.558 167.192 158.315 176.856 155.243C177.202 154.95 182.969 153.529 185.425 153.529C201.467 153.529 214.557 166.624 214.557 182.662C214.557 184.678 214.372 186.574 214.129 188.231L208.131 218.649C203.674 222.41 197.245 224.268 188.852 224.218C180.256 224.268 173.945 222.65 170.002 219.505C170.544 221.299 171.29 223.391 172.144 225.503Z" fill="url(#paint2_linear)"/>
<path fill-rule="evenodd" clip-rule="evenodd" d="M169.937 219.465L167.428 208.693L171.536 188.737C180.466 212.364 184.931 224.177 184.931 224.177C178.728 224.177 173.729 222.607 169.937 219.465Z" fill="url(#paint3_linear)"/>
<mask id="mask0" mask-type="alpha" maskUnits="userSpaceOnUse" x="178" y="150" width="16" height="13">
<path d="M193.563 150.279L193.563 155.028C193.563 159.169 190.206 162.525 186.066 162.525C181.925 162.525 178.568 159.169 178.568 155.028V150.686C180.714 151.143 183 151.387 185.423 151.387C188.415 151.387 191.124 150.981 193.563 150.279Z" fill="white"/>
</mask>
<g mask="url(#mask0)">
<path d="M193.563 150.279L193.563 155.028C193.563 159.169 190.206 162.525 186.066 162.525C181.925 162.525 178.568 159.169 178.568 155.028V150.686C180.714 151.143 183 151.387 185.423 151.387C188.415 151.387 191.124 150.981 193.563 150.279Z" fill="#FF6663"/>
</g>
<mask id="mask1" mask-type="alpha" maskUnits="userSpaceOnUse" x="178" y="150" width="16" height="8">
<path d="M193.467 156.229C191.943 156.969 190.231 157.384 188.422 157.384C184.256 157.384 180.605 155.182 178.568 151.879L178.568 150.686C180.714 151.143 183 151.387 185.423 151.387C188.415 151.387 191.124 150.981 193.563 150.279L193.563 155.028C193.563 155.437 193.53 155.838 193.467 156.229Z" fill="white"/>
</mask>
<g mask="url(#mask1)">
<path d="M193.467 156.229C191.943 156.969 190.231 157.384 188.422 157.384C184.256 157.384 180.605 155.182 178.568 151.879L178.568 150.686C180.714 151.143 183 151.387 185.423 151.387C188.415 151.387 191.124 150.981 193.563 150.279L193.563 155.028C193.563 155.437 193.53 155.838 193.467 156.229Z" fill="url(#paint4_linear)"/>
</g>
<path fill-rule="evenodd" clip-rule="evenodd" d="M148.579 118.827C148.579 112.191 154.741 110.708 157.147 111.544C170.033 116.019 193.472 117.405 210.7 109.402C210.7 123.465 213.513 128.943 210.7 135.535C207.886 142.127 200.048 151.815 185.423 151.815C170.798 151.815 161.161 142.943 157.147 131.68C151.329 131.68 148.579 125.36 148.579 118.827Z" fill="#FF6663"/>
<path fill-rule="evenodd" clip-rule="evenodd" d="M157.147 111.545C170.034 116.019 193.471 117.405 210.697 109.402C210.697 115.436 211.215 119.89 211.584 123.529C211.574 123.532 211.564 123.536 211.554 123.54C194.581 129.585 171.987 125.171 157.147 111.545Z" fill="url(#paint5_linear)"/>
<path d="M155.22 125.253C157.468 125.253 159.29 123.431 159.29 121.183C159.29 118.935 157.468 117.113 155.22 117.113C152.973 117.113 151.15 118.935 151.15 121.183C151.15 123.431 152.973 125.253 155.22 125.253Z" fill="url(#paint6_linear)"/>
<path fill-rule="evenodd" clip-rule="evenodd" d="M200.85 184.802L199.992 183.945L200.732 182.218H201.968L200.85 184.802Z" fill="#E2E2E2"/>
<path fill-rule="evenodd" clip-rule="evenodd" d="M202.133 181.804H204.275L202.99 184.803H200.848L202.133 181.804Z" fill="white"/>
<path d="M182.69 168.749C180.856 166.999 173.102 160.642 172.138 159.801C167.197 155.491 163.66 151.542 160.961 146.881C157.625 141.121 155.863 134.611 155.863 126.966C155.863 126.729 156.055 126.538 156.292 126.538C156.528 126.538 156.72 126.729 156.72 126.966C156.72 134.46 158.442 140.821 161.702 146.451C164.348 151.019 167.825 154.902 172.701 159.155C173.644 159.977 181.419 166.353 183.281 168.129C185.923 170.649 187.577 172.874 188.399 175.236C188.527 179.452 188.545 180.519 188.678 189.084C188.839 199.554 189.022 203.594 189.618 206.899C190.298 210.664 191.468 212.221 193.564 212.221C196.227 212.221 197.295 209.188 198.435 200.33C198.5 199.825 198.725 198.048 198.74 197.925C198.866 196.942 198.966 196.175 199.069 195.422C199.333 193.488 199.591 191.831 199.884 190.247C200.288 188.067 200.747 186.09 201.293 184.252C201.361 184.025 201.599 183.896 201.826 183.963C202.053 184.031 202.182 184.269 202.115 184.496C201.578 186.303 201.125 188.25 200.727 190.403C200.437 191.972 200.181 193.617 199.918 195.538C199.815 196.288 199.715 197.053 199.59 198.033C199.575 198.155 199.35 199.933 199.285 200.439C198.703 204.958 198.279 207.328 197.595 209.268C196.713 211.772 195.441 213.078 193.564 213.078C190.95 213.078 189.519 211.174 188.775 207.051C188.167 203.68 187.984 199.625 187.821 189.097C187.689 180.583 187.67 179.482 187.568 175.455C186.791 173.267 185.218 171.161 182.69 168.749Z" fill="white"/>
<path d="M202.086 146.458C202.391 146.229 202.688 145.995 202.977 145.757C202.87 149.136 202.083 152.146 200.669 155.005C199.478 157.411 198.04 159.441 195.608 162.39C195.775 162.188 193.831 164.529 193.327 165.153C189.889 169.413 188.423 172.391 188.423 176.234C188.423 176.471 188.231 176.662 187.995 176.662C187.758 176.662 187.566 176.471 187.566 176.234C187.566 172.15 189.11 169.014 192.66 164.615C193.169 163.986 195.118 161.639 194.947 161.845C197.341 158.943 198.746 156.958 199.901 154.625C201.16 152.081 201.901 149.418 202.086 146.458Z" fill="white"/>
<path fill-rule="evenodd" clip-rule="evenodd" d="M157.578 123.679V125.681C157.578 126.391 157.003 126.967 156.293 126.967C155.583 126.967 155.008 126.391 155.008 125.681V123.679C155.397 123.864 155.833 123.968 156.293 123.968C156.753 123.968 157.189 123.864 157.578 123.679Z" fill="#E2E2E2"/>
<path d="M156.292 124.397C157.948 124.397 159.291 123.054 159.291 121.398C159.291 119.742 157.948 118.399 156.292 118.399C154.636 118.399 153.293 119.742 153.293 121.398C153.293 123.054 154.636 124.397 156.292 124.397Z" fill="white"/>
<path d="M187.993 177.948C189.413 177.948 190.564 176.797 190.564 175.377C190.564 173.957 189.413 172.807 187.993 172.807C186.574 172.807 185.423 173.957 185.423 175.377C185.423 176.797 186.574 177.948 187.993 177.948Z" fill="white"/>
<path fill-rule="evenodd" clip-rule="evenodd" d="M197.206 180.519V181.779L195.629 180.204C195.358 179.968 195.187 179.621 195.187 179.234C195.187 179.04 195.23 178.848 195.315 178.674L206.104 156.375C206.82 154.896 208.318 153.957 209.961 153.957H219.363C219.775 153.957 220.1 154.186 220.378 154.454C220.563 154.633 221.088 155.155 221.954 156.021L220.528 155.784C220.528 155.785 217.715 155.785 212.091 155.785C210.281 155.785 208.631 156.821 207.845 158.451L197.206 180.519Z" fill="#D6DFEA"/>
<path fill-rule="evenodd" clip-rule="evenodd" d="M211.675 155.671H221.076C221.786 155.671 222.362 156.246 222.362 156.956C222.362 157.15 222.318 157.341 222.233 157.516L211.444 179.815C210.728 181.293 209.23 182.233 207.587 182.233H198.186C197.476 182.233 196.9 181.657 196.9 180.947C196.9 180.754 196.944 180.562 197.029 180.388L207.818 158.089C208.534 156.61 210.032 155.671 211.675 155.671Z" fill="white"/>
<mask id="mask2" mask-type="alpha" maskUnits="userSpaceOnUse" x="199" y="160" width="22" height="54">
<path d="M202.134 178.807C199.99 175.197 199.061 173.011 199.135 171.095C199.255 169.204 200.016 163.294 201.705 161.242C203.855 159.336 206.834 160.787 210.274 163.812C212.13 165.807 214.182 170.034 215.415 170.667C216.304 170.734 216.85 167.273 217.557 167.239C218.487 167.313 217.115 176.017 217.128 176.665C216.773 180.928 215.816 182.54 216.7 186.518C216.542 186.067 226.25 212.219 215.415 213.508C204.884 214.528 208.108 201.562 208.132 188.66C205.503 183.784 204.287 182.243 202.134 178.807Z" fill="white"/>
</mask>
<g mask="url(#mask2)">
<path d="M202.134 178.807C199.99 175.197 199.061 173.011 199.135 171.095C199.255 169.204 200.016 163.294 201.705 161.242C203.855 159.336 206.834 160.787 210.274 163.812C212.13 165.807 214.182 170.034 215.415 170.667C216.304 170.734 216.85 167.273 217.557 167.239C218.487 167.313 217.115 176.017 217.128 176.665C216.773 180.928 215.816 182.54 216.7 186.518C216.542 186.067 226.25 212.219 215.415 213.508C204.884 214.528 208.108 201.562 208.132 188.66C205.503 183.784 204.287 182.243 202.134 178.807Z" fill="#FF6663"/>
<mask id="mask3" mask-type="alpha" maskUnits="userSpaceOnUse" x="206" y="186" width="15" height="28">
<path d="M215.416 213.936C204.062 214.877 206.809 196.858 208.133 188.66C209.602 189.094 210.91 189.061 212.846 188.627C214.648 188.039 215.822 187.213 216.701 186.518C216.658 186.274 227.175 212.559 215.416 213.936Z" fill="white"/>
</mask>
<g mask="url(#mask3)">
<path d="M215.416 213.936C204.062 214.877 206.809 196.858 208.133 188.66C209.602 189.094 210.91 189.061 212.846 188.627C214.648 188.039 215.822 187.213 216.701 186.518C216.658 186.274 227.175 212.559 215.416 213.936Z" fill="#403F9F"/>
<path d="M215.416 213.936C204.062 214.877 206.809 196.858 208.133 188.66C209.602 189.094 210.91 189.061 212.846 188.627C214.648 188.039 215.822 187.213 216.701 186.518C216.658 186.274 227.175 212.559 215.416 213.936Z" fill="url(#paint7_linear)"/>
</g>
<mask id="mask4" mask-type="alpha" maskUnits="userSpaceOnUse" x="208" y="188" width="13" height="27">
<path d="M220.555 208.795C219.904 211.695 217.92 214.365 214.129 214.365C211.806 214.365 210.235 213.508 209.416 211.794L208.131 188.66L220.555 208.795Z" fill="white"/>
</mask>
<g mask="url(#mask4)">
<path d="M220.556 208.795C219.905 211.695 217.921 214.365 214.13 214.365C211.807 214.365 210.236 213.508 209.417 211.794L208.132 188.66L220.556 208.795Z" fill="url(#paint8_linear)"/>
</g>
</g>
<path d="M167.003 238.784C166.766 238.784 166.574 238.592 166.574 238.355C166.574 238.119 166.766 237.927 167.003 237.927C168.85 237.927 170.805 237.349 172.34 236.094C174.395 234.415 175.571 231.663 175.571 227.645C175.571 227.408 175.763 227.216 175.999 227.216C176.236 227.216 176.428 227.408 176.428 227.645C176.428 231.909 175.146 234.907 172.883 236.758C171.18 238.149 169.034 238.784 167.003 238.784Z" fill="white"/>
<defs>
<linearGradient id="paint0_linear" x1="172.774" y1="62.7051" x2="172.774" y2="213.037" gradientUnits="userSpaceOnUse">
<stop stop-color="#1F1845" stop-opacity="0"/>
<stop offset="1" stop-opacity="0.2"/>
</linearGradient>
<linearGradient id="paint1_linear" x1="156.885" y1="115.518" x2="196.807" y2="223.828" gradientUnits="userSpaceOnUse">
<stop stop-opacity="0.646003"/>
<stop offset="1" stop-color="#1F1845" stop-opacity="0"/>
</linearGradient>
<linearGradient id="paint2_linear" x1="184.354" y1="153.529" x2="184.354" y2="238.285" gradientUnits="userSpaceOnUse">
<stop stop-color="#403F9F" stop-opacity="0"/>
<stop offset="1" stop-opacity="0.1"/>
</linearGradient>
<linearGradient id="paint3_linear" x1="169.714" y1="188.737" x2="196.44" y2="203.92" gradientUnits="userSpaceOnUse">
<stop stop-opacity="0.155089"/>
<stop offset="1" stop-opacity="0"/>
</linearGradient>
<linearGradient id="paint4_linear" x1="178.568" y1="150.279" x2="184.067" y2="161.884" gradientUnits="userSpaceOnUse">
<stop stop-opacity="0.2"/>
<stop offset="1" stop-color="#FF6663" stop-opacity="0"/>
</linearGradient>
<linearGradient id="paint5_linear" x1="211.584" y1="126.191" x2="202.127" y2="95.5292" gradientUnits="userSpaceOnUse">
<stop stop-opacity="0.1"/>
<stop offset="1" stop-color="#FF6663" stop-opacity="0"/>
</linearGradient>
<linearGradient id="paint6_linear" x1="155.22" y1="94.509" x2="155.22" y2="123.382" gradientUnits="userSpaceOnUse">
<stop/>
<stop offset="1" stop-opacity="0"/>
</linearGradient>
<linearGradient id="paint7_linear" x1="213.921" y1="186.516" x2="213.921" y2="213.972" gradientUnits="userSpaceOnUse">
<stop stop-color="#403F9F" stop-opacity="0"/>
<stop offset="1" stop-opacity="0.1"/>
</linearGradient>
<linearGradient id="paint8_linear" x1="213.377" y1="190.266" x2="200.784" y2="208.319" gradientUnits="userSpaceOnUse">
<stop stop-color="#403F9F" stop-opacity="0"/>
<stop offset="1" stop-opacity="0.2"/>
</linearGradient>
</defs>
</svg>
