<svg width="268" height="268" viewBox="0 0 268 268" fill="none" xmlns="http://www.w3.org/2000/svg">
<rect x="4" y="4" width="259.459" height="259.459" stroke="#017EFC" stroke-width="8"/>
<mask id="mask0" mask-type="alpha" maskUnits="userSpaceOnUse" x="41" y="32" width="130" height="193">
<path d="M47.0246 78.8853C47.0506 56.038 65.7662 41.1282 74.6031 36.7251C96.8991 25.0368 113.366 40.0177 115.495 41.48C117.917 42.5975 147.7 33.9893 161.142 67.1565C174.626 100.285 156.472 120.769 156.388 136.578C156.472 152.093 186.999 183.825 156.388 209.17C125.945 234.499 57.195 228.299 44.8057 194.588C32.487 161.076 56.668 144.574 57.1684 127.068C57.6599 111.086 47.0506 106.13 47.0246 78.8853Z" fill="white"/>
</mask>
<g mask="url(#mask0)">
<path d="M47.0246 78.8853C47.0506 56.038 65.7662 41.1282 74.6031 36.7251C96.8991 25.0368 113.366 40.0177 115.495 41.48C117.917 42.5975 147.7 33.9893 161.142 67.1565C174.626 100.285 156.472 120.769 156.388 136.578C156.472 152.093 186.999 183.825 156.388 209.17C125.945 234.499 57.195 228.299 44.8057 194.588C32.487 161.076 56.668 144.574 57.1684 127.068C57.6599 111.086 47.0506 106.13 47.0246 78.8853Z" fill="#1F1845"/>
<path d="M47.0246 78.8853C47.0506 56.038 65.7662 41.1282 74.6031 36.7251C96.8991 25.0368 113.366 40.0177 115.495 41.48C117.917 42.5975 147.7 33.9893 161.142 67.1565C174.626 100.285 156.472 120.769 156.388 136.578C156.472 152.093 186.999 183.825 156.388 209.17C125.945 234.499 57.195 228.299 44.8057 194.588C32.487 161.076 56.668 144.574 57.1684 127.068C57.6599 111.086 47.0506 106.13 47.0246 78.8853Z" fill="url(#paint0_linear)"/>
</g>
<mask id="mask1" mask-type="alpha" maskUnits="userSpaceOnUse" x="48" y="93" width="117" height="132">
<path d="M161.894 203.825C160.331 205.632 158.506 207.416 156.389 209.169C128.031 232.764 66.4317 229 48.1143 201.124C68.4476 164.874 78.6143 139.329 78.6143 124.489C78.6143 98.414 132.796 86.2258 135.467 98.8553C138.138 111.485 128.293 135.138 146.047 149.269C160.534 160.8 170.268 184.206 161.894 203.825Z" fill="white"/>
</mask>
<g mask="url(#mask1)">
<path d="M161.894 203.825C160.331 205.632 158.506 207.416 156.389 209.169C128.031 232.764 66.4317 229 48.1143 201.124C68.4476 164.874 78.6143 139.329 78.6143 124.489C78.6143 98.414 132.796 86.2258 135.467 98.8553C138.138 111.485 128.293 135.138 146.047 149.269C160.534 160.8 170.268 184.206 161.894 203.825Z" fill="url(#paint1_linear)"/>
</g>
<mask id="mask2" mask-type="alpha" maskUnits="userSpaceOnUse" x="50" y="146" width="90" height="94">
<path d="M130.394 150.209C145.766 152.405 138.954 228.254 130.394 234.529C121.833 240.804 92.085 242.721 66.044 234.529C40.0031 226.338 50.9689 147.391 66.044 146.405C81.0102 145.333 114.755 147.928 130.394 150.209Z" fill="white"/>
</mask>
<g mask="url(#mask2)">
<path d="M130.394 150.209C145.766 152.405 138.954 228.254 130.394 234.529C121.833 240.804 92.085 242.721 66.044 234.529C40.0031 226.338 50.9689 147.391 66.044 146.405C81.0102 145.333 114.755 147.928 130.394 150.209Z" fill="#403F9F"/>
<path d="M130.394 150.209C145.766 152.405 138.954 228.254 130.394 234.529C121.833 240.804 92.085 242.721 66.044 234.529C40.0031 226.338 50.9689 147.391 66.044 146.405C81.0102 145.333 114.755 147.928 130.394 150.209Z" fill="url(#paint2_linear)"/>
<path fill-rule="evenodd" clip-rule="evenodd" d="M57.1697 197.757C64.9005 200.293 71.4517 204.626 76.8234 210.754C84.9487 219.947 105.653 205.161 121.52 215.509C132.228 222.408 132.439 230.227 122.153 238.967C76.0837 241.08 53.0488 242.136 53.0488 242.136C53.0488 242.136 54.4225 227.343 57.1697 197.757Z" fill="url(#paint3_linear)"/>
</g>
<path d="M86.0127 134.993H110.421V150.05C110.421 156.791 104.957 162.255 98.217 162.255C91.4767 162.255 86.0127 156.791 86.0127 150.05V134.993Z" fill="#FF6663"/>
<path d="M86.0127 134.993H110.421V150.05C110.421 156.791 104.957 162.255 98.217 162.255C91.4767 162.255 86.0127 156.791 86.0127 150.05V134.993Z" fill="url(#paint4_linear)"/>
<path fill-rule="evenodd" clip-rule="evenodd" d="M90.7676 148.307C89.073 147.894 87.4901 147.375 86.0127 146.766V134.993H110.421V147.556C104.854 149.75 98.4527 150.269 90.7676 148.307Z" fill="url(#paint5_linear)"/>
<mask id="mask3" mask-type="alpha" maskUnits="userSpaceOnUse" x="66" y="150" width="80" height="100">
<path d="M130.392 150.209C146.822 152.647 145.903 173.055 145.924 196.173C145.903 219.543 141.391 249.745 127.856 249.745C114.362 249.745 67.2366 249.745 66.3589 234.529C65.933 223.975 67.2366 219.071 73.3327 220.264C79.5031 221.676 94.7188 222.944 118.98 224.068C124.893 204.639 127.852 191.853 127.856 185.712C127.96 156.835 122.126 149.224 130.392 150.209Z" fill="white"/>
</mask>
<g mask="url(#mask3)">
<path d="M130.392 150.209C146.822 152.647 145.903 173.055 145.924 196.173C145.903 219.543 141.391 249.745 127.856 249.745C114.362 249.745 67.2366 249.745 66.3589 234.529C65.933 223.975 67.2366 219.071 73.3327 220.264C79.5031 221.676 94.7188 222.944 118.98 224.068C124.893 204.639 127.852 191.853 127.856 185.712C127.96 156.835 122.126 149.224 130.392 150.209Z" fill="#403F9F"/>
<path d="M130.392 150.209C146.822 152.647 145.903 173.055 145.924 196.173C145.903 219.543 141.391 249.745 127.856 249.745C114.362 249.745 67.2366 249.745 66.3589 234.529C65.933 223.975 67.2366 219.071 73.3327 220.264C79.5031 221.676 94.7188 222.944 118.98 224.068C124.893 204.639 127.852 191.853 127.856 185.712C127.96 156.835 122.126 149.224 130.392 150.209Z" fill="url(#paint6_linear)"/>
<path fill-rule="evenodd" clip-rule="evenodd" d="M79.9902 245.307L108.837 231.676L86.7051 251.003L79.9902 245.307Z" fill="url(#paint7_linear)"/>
</g>
<path d="M119.12 223.572C119.043 223.823 118.778 223.965 118.527 223.889C118.275 223.812 118.134 223.547 118.21 223.295C119.736 218.282 121.065 213.712 122.196 209.586C125.44 197.758 127.063 189.577 127.065 185.077C127.066 184.815 127.279 184.602 127.541 184.602C127.804 184.602 128.017 184.815 128.016 185.078C128.013 189.689 126.379 197.93 123.113 209.837C121.979 213.973 120.648 218.551 119.12 223.572Z" fill="white"/>
<path d="M103.448 216.777C107.371 216.777 112.865 218.151 119.932 220.898L118.981 224.068C113.241 228.891 109.86 231.426 108.837 231.676C105.417 232.404 97.5647 216.777 103.448 216.777Z" fill="#FF6663"/>
<path d="M103.448 216.777C107.371 216.777 112.865 218.151 119.932 220.898L118.981 224.068C113.241 228.891 109.86 231.426 108.837 231.676C105.417 232.404 97.5647 216.777 103.448 216.777Z" fill="url(#paint8_linear)"/>
<path d="M66.6762 146.405C57.3966 146.981 47.1374 158.126 41.9506 185.079C36.7246 212.265 29.2924 243.806 41.9506 247.526C47.5824 249.224 67.9697 249.224 79.9899 245.307C96.3913 239.964 108.561 231.677 108.836 231.677C109.332 231.677 106.752 216.748 103.447 216.778C101.245 216.758 87.086 218.449 60.9703 221.85C60.8855 220.448 58.7722 211.15 54.6304 193.954C48.46 168.241 75.9557 145.83 66.6762 146.405Z" fill="#403F9F"/>
<path d="M66.6762 146.405C57.3966 146.981 47.1374 158.126 41.9506 185.079C36.7246 212.265 29.2924 243.806 41.9506 247.526C47.5824 249.224 67.9697 249.224 79.9899 245.307C96.3913 239.964 108.561 231.677 108.836 231.677C109.332 231.677 106.752 216.748 103.447 216.778C101.245 216.758 87.086 218.449 60.9703 221.85C60.8855 220.448 58.7722 211.15 54.6304 193.954C48.46 168.241 75.9557 145.83 66.6762 146.405Z" fill="url(#paint9_linear)"/>
<path d="M56.5326 199.848C56.5936 200.103 56.436 200.36 56.1806 200.421C55.9251 200.482 55.6686 200.324 55.6076 200.069C55.1585 198.188 54.6784 196.187 54.1674 194.065C52.0771 185.354 53.5693 176.527 57.7969 167.142C57.9048 166.903 58.1863 166.796 58.4257 166.904C58.6652 167.012 58.7718 167.293 58.664 167.533C54.5156 176.742 53.0578 185.366 55.092 193.843C55.6031 195.965 56.0833 197.966 56.5326 199.848Z" fill="white"/>
<path d="M73.3331 220.263C65.6616 206.646 60.2727 199.144 57.1664 197.757C52.2506 195.837 41.6577 193.455 38.7808 195.221C36.0778 196.91 33.3365 205.721 34.6599 209.485C36.0778 213.118 43.2591 219.484 48.2906 220.263C49.7662 220.492 53.9927 221.02 60.9704 221.848L73.3331 220.263Z" fill="#FF6663"/>
<path d="M73.3331 220.263C65.6616 206.646 60.2727 199.144 57.1664 197.757C52.2506 195.837 41.6577 193.455 38.7808 195.221C36.0778 196.91 33.3365 205.721 34.6599 209.485C36.0778 213.118 43.2591 219.484 48.2906 220.263C49.7662 220.492 53.9927 221.02 60.9704 221.848L73.3331 220.263Z" fill="url(#paint10_linear)"/>
<mask id="mask4" mask-type="alpha" maskUnits="userSpaceOnUse" x="67" y="66" width="78" height="75">
<path d="M135.464 98.8551C139.545 97.9186 147.027 101.087 143.389 111.218C140.669 118.641 135.013 125.164 128.491 123.264C118.967 134.989 108.129 143.292 90.7684 138.796C73.1566 134.585 67.5609 118.984 67.3108 110.267C65.6136 101.222 73.6657 71.1582 75.2357 68.1067C79.0983 61.318 92.7622 77.126 109.154 84.9074C125.409 92.8948 140.187 86.1002 135.464 98.8551Z" fill="white"/>
</mask>
<g mask="url(#mask4)">
<path d="M135.464 98.8551C139.545 97.9186 147.027 101.087 143.389 111.218C140.669 118.641 135.013 125.164 128.491 123.264C118.967 134.989 108.129 143.292 90.7684 138.796C73.1566 134.585 67.5609 118.984 67.3108 110.267C65.6136 101.222 73.6657 71.1582 75.2357 68.1067C79.0983 61.318 92.7622 77.126 109.154 84.9074C125.409 92.8948 140.187 86.1002 135.464 98.8551Z" fill="#FF6663"/>
<path d="M135.464 98.8551C139.545 97.9186 147.027 101.087 143.389 111.218C140.669 118.641 135.013 125.164 128.491 123.264C118.967 134.989 108.129 143.292 90.7684 138.796C73.1566 134.585 67.5609 118.984 67.3108 110.267C65.6136 101.222 73.6657 71.1582 75.2357 68.1067C79.0983 61.318 92.7622 77.126 109.154 84.9074C125.409 92.8948 140.187 86.1002 135.464 98.8551Z" fill="url(#paint11_linear)"/>
<path fill-rule="evenodd" clip-rule="evenodd" d="M74.6016 69.6924C77.9377 69.8178 85.4399 76.4747 97.1081 89.663C108.776 102.851 121.562 105.916 135.464 98.8558L145.291 83.0061L77.1375 55.7446L74.6016 69.6924Z" fill="url(#paint12_linear)"/>
</g>
<path d="M236.556 28.2937C235.773 28.4488 216.884 32.4471 216.183 32.585C215.483 32.7229 214.833 33.2054 214.833 33.9637V77.9279C214.833 78.2036 214.816 79.1687 214.433 79.9443C213.916 80.9611 213.016 81.7022 211.749 82.133C211.199 82.3226 210.448 82.4949 209.565 82.7017C205.547 83.6324 198.828 85.2179 198.828 91.629C198.828 96.8165 202.446 99.2982 204.663 99.7462C205.497 99.9186 206.497 99.9186 206.964 99.9186C208.331 99.9186 212.966 99.3499 215.5 97.6437C217.334 96.4028 219.518 93.9556 219.518 89.4058V49.8191C219.518 49.1642 219.968 48.5955 220.585 48.4748L236.056 45.2004C237.29 44.9418 238.19 43.8044 238.19 42.4946V29.6035C238.173 28.8624 237.556 28.0869 236.556 28.2937Z" fill="#017EFC"/>
<defs>
<linearGradient id="paint0_linear" x1="105.662" y1="32.2969" x2="105.662" y2="224.702" gradientUnits="userSpaceOnUse">
<stop stop-color="#1F1845" stop-opacity="0"/>
<stop offset="1" stop-opacity="0.2"/>
</linearGradient>
<linearGradient id="paint1_linear" x1="66.962" y1="82.7048" x2="134.688" y2="231.084" gradientUnits="userSpaceOnUse">
<stop stop-opacity="0.646003"/>
<stop offset="1" stop-color="#1F1845" stop-opacity="0"/>
</linearGradient>
<linearGradient id="paint2_linear" x1="94.952" y1="146.156" x2="94.952" y2="239.978" gradientUnits="userSpaceOnUse">
<stop stop-color="#403F9F" stop-opacity="0"/>
<stop offset="1" stop-opacity="0.1"/>
</linearGradient>
<linearGradient id="paint3_linear" x1="53.0488" y1="197.757" x2="91.5332" y2="264.238" gradientUnits="userSpaceOnUse">
<stop stop-opacity="0.155089"/>
<stop offset="1" stop-opacity="0"/>
</linearGradient>
<linearGradient id="paint4_linear" x1="99.0774" y1="134.993" x2="98.0044" y2="162.246" gradientUnits="userSpaceOnUse">
<stop stop-color="#C74D75" stop-opacity="0"/>
<stop offset="1" stop-color="#AF3B6E" stop-opacity="0.2"/>
</linearGradient>
<linearGradient id="paint5_linear" x1="86.0127" y1="134.993" x2="98.7888" y2="156.452" gradientUnits="userSpaceOnUse">
<stop stop-opacity="0.2"/>
<stop offset="1" stop-color="#FF6663" stop-opacity="0"/>
</linearGradient>
<linearGradient id="paint6_linear" x1="106.107" y1="150.126" x2="106.107" y2="249.745" gradientUnits="userSpaceOnUse">
<stop stop-color="#403F9F" stop-opacity="0"/>
<stop offset="1" stop-opacity="0.1"/>
</linearGradient>
<linearGradient id="paint7_linear" x1="83.7588" y1="231.676" x2="98.5174" y2="257.014" gradientUnits="userSpaceOnUse">
<stop stop-opacity="0.155089"/>
<stop offset="1" stop-opacity="0"/>
</linearGradient>
<linearGradient id="paint8_linear" x1="111.284" y1="216.777" x2="110.862" y2="231.707" gradientUnits="userSpaceOnUse">
<stop stop-color="#C74D75" stop-opacity="0"/>
<stop offset="1" stop-color="#AF3B6E" stop-opacity="0.2"/>
</linearGradient>
<linearGradient id="paint9_linear" x1="71.9365" y1="146.395" x2="71.9365" y2="248.607" gradientUnits="userSpaceOnUse">
<stop stop-color="#403F9F" stop-opacity="0"/>
<stop offset="1" stop-opacity="0.1"/>
</linearGradient>
<linearGradient id="paint10_linear" x1="55.2002" y1="194.602" x2="54.529" y2="221.866" gradientUnits="userSpaceOnUse">
<stop stop-color="#C74D75" stop-opacity="0"/>
<stop offset="1" stop-color="#AF3B6E" stop-opacity="0.2"/>
</linearGradient>
<linearGradient id="paint11_linear" x1="108.442" y1="66.4531" x2="105.972" y2="140.045" gradientUnits="userSpaceOnUse">
<stop stop-color="#C74D75" stop-opacity="0"/>
<stop offset="1" stop-color="#AF3B6E" stop-opacity="0.2"/>
</linearGradient>
<linearGradient id="paint12_linear" x1="74.6016" y1="55.7446" x2="117.69" y2="120.823" gradientUnits="userSpaceOnUse">
<stop stop-opacity="0.2"/>
<stop offset="1" stop-color="#FF6663" stop-opacity="0"/>
</linearGradient>
</defs>
</svg>
