<svg width="210" height="146" viewBox="0 0 210 146" fill="none" xmlns="http://www.w3.org/2000/svg">
<path d="M26.6904 0.848633H185.153C187.79 0.848633 189.929 2.98707 189.929 5.62498V102.838H21.9141V5.62498C21.9141 2.98707 24.0525 0.848633 26.6904 0.848633Z" fill="#393E41"/>
<path d="M26.6904 0.848633H185.153C187.79 0.848633 189.929 2.98707 189.929 5.62498V102.838H21.9141V5.62498C21.9141 2.98707 24.0525 0.848633 26.6904 0.848633Z" fill="url(#paint0_linear)"/>
<mask id="mask0" mask-type="alpha" maskUnits="userSpaceOnUse" x="30" y="9" width="152" height="86">
<path d="M180.659 9.27686H31.1876C30.7221 9.27686 30.3447 9.65423 30.3447 10.1197V93.5652C30.3447 94.0308 30.7221 94.4081 31.1876 94.4081H180.659C181.125 94.4081 181.502 94.0308 181.502 93.5652V10.1197C181.502 9.65423 181.125 9.27686 180.659 9.27686Z" fill="white"/>
</mask>
<g mask="url(#mask0)">
<path d="M180.659 9.27686H31.1876C30.7221 9.27686 30.3447 9.65423 30.3447 10.1197V93.5652C30.3447 94.0308 30.7221 94.4081 31.1876 94.4081H180.659C181.125 94.4081 181.502 94.0308 181.502 93.5652V10.1197C181.502 9.65423 181.125 9.27686 180.659 9.27686Z" fill="#7BC1EB"/>
<path d="M-11.2383 94.4075C8.14805 42.336 27.5344 16.3003 46.9207 16.3003C66.307 16.3003 85.6934 42.336 105.08 94.4075H-11.2383Z" fill="#818194"/>
<path d="M-11.2383 94.4075C8.14805 42.336 27.5344 16.3003 46.9207 16.3003C66.307 16.3003 85.6934 42.336 105.08 94.4075H-11.2383Z" fill="url(#paint1_linear)"/>
<path fill-rule="evenodd" clip-rule="evenodd" d="M74.7371 34.2817C84.8814 47.2641 94.9812 67.306 105.081 94.4075H36.5264C49.2781 63.782 62.0299 43.7401 74.7371 34.2817Z" fill="url(#paint2_linear)"/>
<mask id="mask1" mask-type="alpha" maskUnits="userSpaceOnUse" x="115" y="35" width="106" height="60">
<path d="M115.194 94.4097C132.708 55.4497 150.221 35.9697 167.734 35.9697C185.247 35.9697 202.761 55.4497 220.274 94.4097H115.194Z" fill="white"/>
</mask>
<g mask="url(#mask1)">
<path d="M115.194 94.4097C132.708 55.4497 150.221 35.9697 167.734 35.9697C185.247 35.9697 202.761 55.4497 220.274 94.4097H115.194Z" fill="#818194"/>
<path d="M115.194 94.4097C132.708 55.4497 150.221 35.9697 167.734 35.9697C185.247 35.9697 202.761 55.4497 220.274 94.4097H115.194Z" fill="url(#paint3_linear)"/>
</g>
<mask id="mask2" mask-type="alpha" maskUnits="userSpaceOnUse" x="143" y="35" width="51" height="16">
<path d="M143.963 47.9331C151.887 39.9572 159.811 35.9692 167.735 35.9692C176.29 35.9692 184.844 40.6172 193.399 49.9131C192.021 50.3405 190.571 50.5792 189.088 50.5792C179.783 50.5792 176.399 43.1254 169.983 42.9933C161.167 43.1254 157.061 50.5792 150.877 50.5792C148.219 50.5792 145.828 49.654 143.963 47.9331Z" fill="white"/>
</mask>
<g mask="url(#mask2)">
<path d="M143.963 47.9326C151.887 39.9567 159.811 35.9688 167.735 35.9688C176.29 35.9688 184.844 40.6167 193.399 49.9127C192.021 50.34 190.571 50.5787 189.088 50.5787C179.783 50.5787 176.399 43.1249 169.983 42.9928C161.167 43.1249 157.061 50.5787 150.877 50.5787C148.219 50.5787 145.828 49.6535 143.963 47.9326Z" fill="white"/>
</g>
<mask id="mask3" mask-type="alpha" maskUnits="userSpaceOnUse" x="115" y="44" width="61" height="51">
<path d="M147.786 44.3979C156.885 55.5173 166.102 72.1877 175.32 94.4091H115.194C126.019 70.283 136.843 53.6127 147.786 44.3979Z" fill="white"/>
</mask>
<g mask="url(#mask3)">
<path d="M147.786 44.3979C156.885 55.5173 166.102 72.1877 175.32 94.4091H115.194C126.019 70.283 136.843 53.6127 147.786 44.3979Z" fill="url(#paint4_linear)"/>
</g>
<mask id="mask4" mask-type="alpha" maskUnits="userSpaceOnUse" x="50" y="27" width="112" height="68">
<path d="M50.5742 94.4076C69.024 50.0158 87.4738 27.8198 105.924 27.8198C124.373 27.8198 142.823 50.0158 161.273 94.4076H50.5742Z" fill="white"/>
</mask>
<g mask="url(#mask4)">
<path d="M50.5742 94.4076C69.024 50.0158 87.4738 27.8198 105.924 27.8198C124.373 27.8198 142.823 50.0158 161.273 94.4076H50.5742Z" fill="#656579"/>
<path fill-rule="evenodd" clip-rule="evenodd" d="M69.9092 56.0111C81.9139 37.2169 93.9186 27.8198 105.923 27.8198C119.882 27.8198 133.84 40.5246 147.799 65.9342C146.138 68.2708 143.368 69.723 139.358 69.6831C128.251 69.7914 121.565 55.5865 114.352 55.635C106.872 55.5865 106.872 63.7813 95.5278 69.6831C84.7927 75.3461 71.7859 67.74 69.9092 56.0111Z" fill="#C3E1F5"/>
<path fill-rule="evenodd" clip-rule="evenodd" d="M74.2344 49.7408C84.7979 35.1268 95.3615 27.8198 105.925 27.8198C116.994 27.8198 128.063 35.843 139.132 51.8892C136.494 53.6905 133.491 54.7921 130.369 54.7921C118.917 54.7921 114.761 43.1335 106.768 43.2727C96.055 43.1335 91.0129 54.7921 83.4481 54.7921C79.8282 54.7921 76.6153 53.0265 74.2344 49.7408Z" fill="white"/>
</g>
<path d="M181.503 69.1218V93.5654C181.503 94.0305 181.126 94.4083 180.66 94.4083H31.1886C30.7231 94.4083 30.3457 94.0305 30.3457 93.5654V57.8833C30.4283 57.8837 30.5111 57.8833 30.6267 57.8833C60.484 57.8833 75.4449 79.6862 107.048 79.7983C134.779 79.6862 156.828 71.2374 181.503 69.1218Z" fill="#52C883"/>
<path d="M181.503 69.1218V93.5654C181.503 94.0305 181.126 94.4083 180.66 94.4083H31.1886C30.7231 94.4083 30.3457 94.0305 30.3457 93.5654V57.8833C30.4283 57.8837 30.5111 57.8833 30.6267 57.8833C60.484 57.8833 75.445 79.6862 107.048 79.7983C134.779 79.6862 156.828 71.2374 181.503 69.1218Z" fill="url(#paint5_linear)"/>
<path d="M181.502 80.0788V93.565C181.502 94.0336 181.124 94.4078 180.659 94.4078H153.968C165.448 90.5741 172.761 83.8879 181.502 80.0788ZM114.633 94.4078H31.1876C30.7222 94.4078 30.3447 94.0305 30.3447 93.565V73.8977C32.0949 73.7342 33.9532 73.6167 35.964 73.6167C67.48 73.6167 90.8886 88.0508 114.633 94.4078Z" fill="#00A07D"/>
<path d="M181.502 80.0788V93.565C181.502 94.0336 181.124 94.4078 180.659 94.4078H153.968C165.448 90.5741 172.761 83.8879 181.502 80.0788ZM114.633 94.4078H31.1876C30.7222 94.4078 30.3447 94.0305 30.3447 93.565V73.8977C32.0949 73.7342 33.9532 73.6167 35.964 73.6167C67.48 73.6167 90.8886 88.0508 114.633 94.4078Z" fill="url(#paint6_linear)"/>
</g>
<path d="M21.9141 102.838H189.929V116.605C189.929 119.243 187.79 121.381 185.153 121.381H26.6904C24.0525 121.381 21.9141 119.243 21.9141 116.605V102.838Z" fill="#E6E6EF"/>
<path d="M21.9141 102.838H189.929V116.605C189.929 119.243 187.79 121.381 185.153 121.381H26.6904C24.0525 121.381 21.9141 119.243 21.9141 116.605V102.838Z" fill="url(#paint7_linear)"/>
<path d="M105.922 116.323C108.25 116.323 110.137 114.436 110.137 112.108C110.137 109.781 108.25 107.894 105.922 107.894C103.595 107.894 101.708 109.781 101.708 112.108C101.708 114.436 103.595 116.323 105.922 116.323Z" fill="#393E41"/>
<path d="M87.3789 121.381H124.466L127.275 139.362H84.5693L87.3789 121.381Z" fill="#E6E6EF"/>
<path d="M87.3789 121.381H124.466L127.275 139.362H84.5693L87.3789 121.381Z" fill="url(#paint8_linear)"/>
<path d="M87.3789 121.381H124.466L127.275 139.362H84.5693L87.3789 121.381Z" fill="url(#paint9_linear)"/>
<path d="M129.664 139.363H82.1813C80.3968 139.363 78.9502 140.809 78.9502 142.594C78.9502 144.378 80.3968 145.825 82.1813 145.825H129.664C131.448 145.825 132.895 144.378 132.895 142.594C132.895 140.809 131.448 139.363 129.664 139.363Z" fill="#E6E6EF"/>
<path d="M129.664 139.363H82.1813C80.3968 139.363 78.9502 140.809 78.9502 142.594C78.9502 144.378 80.3968 145.825 82.1813 145.825H129.664C131.448 145.825 132.895 144.378 132.895 142.594C132.895 140.809 131.448 139.363 129.664 139.363Z" fill="url(#paint10_linear)"/>
<path d="M9.55268 49.1743C4.27688 49.1743 0 44.8974 0 39.6216C0 34.3458 4.27688 30.069 9.55268 30.069C11.9065 30.069 14.0614 30.9203 15.7264 32.3318C17.3469 26.9583 22.3348 23.0449 28.2366 23.0449C33.5144 23.0449 38.0612 26.1745 40.1227 30.679C41.9054 29.2429 44.1721 28.3832 46.6396 28.3832C52.3809 28.3832 57.0351 33.0374 57.0351 38.7788C57.0351 44.5201 52.3809 49.1743 46.6396 49.1743C43.0948 49.1743 13.1815 49.1743 9.55268 49.1743Z" fill="#E6E6EF"/>
<path d="M9.55268 49.1743C4.27688 49.1743 0 44.8974 0 39.6216C0 34.3458 4.27688 30.069 9.55268 30.069C11.9065 30.069 14.0614 30.9203 15.7264 32.3318C17.3469 26.9583 22.3348 23.0449 28.2366 23.0449C33.5144 23.0449 38.0612 26.1745 40.1227 30.679C41.9054 29.2429 44.1721 28.3832 46.6396 28.3832C52.3809 28.3832 57.0351 33.0374 57.0351 38.7788C57.0351 44.5201 52.3809 49.1743 46.6396 49.1743C43.0948 49.1743 13.1815 49.1743 9.55268 49.1743Z" fill="url(#paint11_linear)"/>
<path d="M175.039 31.7546C171.112 31.7546 168.015 28.6734 168.015 25.0115C168.015 21.0717 171.112 17.9905 175.039 17.9875C176.637 17.9905 178.197 18.6038 179.534 19.6732C180.576 15.7495 184.188 12.9302 188.525 12.9302C192.284 12.9302 195.576 15.1848 196.954 18.5494C198.36 17.3954 200.001 16.776 201.73 16.8636C205.946 16.776 209.316 20.1291 209.316 24.1686C209.316 28.4015 205.946 31.7546 201.73 31.7546C199.221 31.7546 177.56 31.7546 175.039 31.7546Z" fill="#E6E6EF"/>
<path d="M175.039 31.7546C171.112 31.7546 168.015 28.6734 168.015 25.0115C168.015 21.0717 171.112 17.9905 175.039 17.9875C176.637 17.9905 178.197 18.6038 179.534 19.6732C180.576 15.7495 184.188 12.9302 188.525 12.9302C192.284 12.9302 195.576 15.1848 196.954 18.5494C198.36 17.3954 200.001 16.776 201.73 16.8636C205.946 16.776 209.316 20.1291 209.316 24.1686C209.316 28.4015 205.946 31.7546 201.73 31.7546C199.221 31.7546 177.56 31.7546 175.039 31.7546Z" fill="url(#paint12_linear)"/>
<defs>
<linearGradient id="paint0_linear" x1="105.921" y1="0.848633" x2="105.921" y2="102.838" gradientUnits="userSpaceOnUse">
<stop stop-color="#393E41" stop-opacity="0"/>
<stop offset="1" stop-opacity="0.3"/>
</linearGradient>
<linearGradient id="paint1_linear" x1="46.9207" y1="16.3003" x2="46.9207" y2="94.4075" gradientUnits="userSpaceOnUse">
<stop stop-color="#818194" stop-opacity="0"/>
<stop offset="1" stop-opacity="0.2"/>
</linearGradient>
<linearGradient id="paint2_linear" x1="65.7868" y1="34.2817" x2="65.7868" y2="94.4075" gradientUnits="userSpaceOnUse">
<stop stop-color="#818194" stop-opacity="0"/>
<stop offset="1" stop-opacity="0.3"/>
</linearGradient>
<linearGradient id="paint3_linear" x1="167.734" y1="35.9697" x2="167.734" y2="94.4097" gradientUnits="userSpaceOnUse">
<stop stop-color="#818194" stop-opacity="0"/>
<stop offset="1" stop-opacity="0.2"/>
</linearGradient>
<linearGradient id="paint4_linear" x1="140.857" y1="44.3979" x2="140.857" y2="94.4091" gradientUnits="userSpaceOnUse">
<stop stop-color="#818194" stop-opacity="0"/>
<stop offset="1" stop-opacity="0.3"/>
</linearGradient>
<linearGradient id="paint5_linear" x1="105.924" y1="57.8833" x2="105.924" y2="94.4083" gradientUnits="userSpaceOnUse">
<stop stop-color="#52C883" stop-opacity="0"/>
<stop offset="1" stop-opacity="0.05"/>
</linearGradient>
<linearGradient id="paint6_linear" x1="105.923" y1="73.6167" x2="105.923" y2="94.4078" gradientUnits="userSpaceOnUse">
<stop stop-color="#00A07D" stop-opacity="0"/>
<stop offset="1" stop-opacity="0.1"/>
</linearGradient>
<linearGradient id="paint7_linear" x1="105.921" y1="102.838" x2="105.921" y2="121.381" gradientUnits="userSpaceOnUse">
<stop stop-color="#E6E6EF" stop-opacity="0"/>
<stop offset="1" stop-opacity="0.05"/>
</linearGradient>
<linearGradient id="paint8_linear" x1="105.922" y1="121.381" x2="105.922" y2="139.362" gradientUnits="userSpaceOnUse">
<stop stop-color="#E6E6EF" stop-opacity="0"/>
<stop offset="1" stop-opacity="0.05"/>
</linearGradient>
<linearGradient id="paint9_linear" x1="105.922" y1="121.381" x2="105.922" y2="139.362" gradientUnits="userSpaceOnUse">
<stop stop-opacity="0.2"/>
<stop offset="1" stop-color="#E6E6EF" stop-opacity="0"/>
</linearGradient>
<linearGradient id="paint10_linear" x1="105.922" y1="139.363" x2="105.922" y2="145.825" gradientUnits="userSpaceOnUse">
<stop stop-color="#E6E6EF" stop-opacity="0"/>
<stop offset="1" stop-opacity="0.05"/>
</linearGradient>
<linearGradient id="paint11_linear" x1="28.5176" y1="23.0449" x2="28.5176" y2="49.1743" gradientUnits="userSpaceOnUse">
<stop stop-color="#E6E6EF" stop-opacity="0"/>
<stop offset="1" stop-opacity="0.0487149"/>
</linearGradient>
<linearGradient id="paint12_linear" x1="188.665" y1="12.9302" x2="188.665" y2="31.7546" gradientUnits="userSpaceOnUse">
<stop stop-color="#E6E6EF" stop-opacity="0"/>
<stop offset="1" stop-opacity="0.0487149"/>
</linearGradient>
</defs>
</svg>
