<svg width="128" height="151" viewBox="0 0 128 151" fill="none" xmlns="http://www.w3.org/2000/svg">
<mask id="mask0" mask-type="alpha" maskUnits="userSpaceOnUse" x="55" y="30" width="73" height="121">
<path d="M93.5047 45.1026C93.4715 37.6422 93.8372 30.7163 101.864 30.7163C102.272 30.7163 102.317 31.3151 102.447 31.6884C103.11 39.3095 105.161 54.2941 113.14 73.4863C115.716 79.6108 111.623 94.0732 113.14 102.064C114.706 110.119 117.123 112.159 126.554 128.504C135.94 144.697 94.4678 161.036 89.2277 141.724C83.8039 122.343 83.4151 116.67 74.8414 110.813C69.2495 106.926 62.7044 99.8627 55.2061 89.6223H85.7283C90.902 62.3542 93.4941 47.5143 93.5047 45.1026Z" fill="white"/>
</mask>
<g mask="url(#mask0)">
<path d="M93.5047 45.1026C93.4715 37.6422 93.8372 30.7163 101.864 30.7163C102.272 30.7163 102.317 31.3151 102.447 31.6884C103.11 39.3095 105.161 54.2941 113.14 73.4863C115.716 79.6108 111.623 94.0732 113.14 102.064C114.706 110.119 117.123 112.159 126.554 128.504C135.94 144.697 94.4678 161.036 89.2277 141.724C83.8039 122.343 83.4151 116.67 74.8414 110.813C69.2495 106.926 62.7044 99.8627 55.2061 89.6223H85.7283C90.902 62.3542 93.4941 47.5143 93.5047 45.1026Z" fill="#FF6663"/>
<path d="M93.5047 45.1026C93.4715 37.6422 93.8372 30.7163 101.864 30.7163C102.272 30.7163 102.317 31.3151 102.447 31.6884C103.11 39.3095 105.161 54.2941 113.14 73.4863C115.716 79.6108 111.623 94.0732 113.14 102.064C114.706 110.119 117.123 112.159 126.554 128.504C135.94 144.697 94.4678 161.036 89.2277 141.724C83.8039 122.343 83.4151 116.67 74.8414 110.813C69.2495 106.926 62.7044 99.8627 55.2061 89.6223H85.7283C90.902 62.3542 93.4941 47.5143 93.5047 45.1026Z" fill="url(#paint0_linear)"/>
<path fill-rule="evenodd" clip-rule="evenodd" d="M75.4253 100.703C67.5055 100.703 62.9792 95.5337 59.7178 89.622H86.5066C88.344 89.622 90.2056 89.477 91.4299 88.2935C90.2751 95.1858 85.6887 100.703 75.4253 100.703Z" fill="url(#paint1_linear)"/>
</g>
<path d="M56.566 0H87.4771C91.235 0 94.2814 3.0464 94.2814 6.80432V82.8183C94.2814 86.5762 91.235 89.6226 87.4771 89.6226H56.566C52.8081 89.6226 49.7617 86.5762 49.7617 82.8183V6.80432C49.7617 3.0464 52.8081 0 56.566 0Z" fill="#393E41"/>
<path d="M56.566 0H87.4771C91.235 0 94.2814 3.0464 94.2814 6.80432V82.8183C94.2814 86.5762 91.235 89.6226 87.4771 89.6226H56.566C52.8081 89.6226 49.7617 86.5762 49.7617 82.8183V6.80432C49.7617 3.0464 52.8081 0 56.566 0Z" fill="url(#paint2_linear)"/>
<mask id="mask1" mask-type="alpha" maskUnits="userSpaceOnUse" x="52" y="2" width="40" height="85">
<path d="M60.4561 2.72168C60.8449 2.72168 61.0394 2.91609 61.0394 3.30491C61.0394 5.07797 62.2002 5.83223 63.9555 5.83223C66.8268 5.83223 78.0046 5.83223 80.0915 5.83223C81.9691 5.83223 83.0076 5.07797 83.0076 3.30491C83.0076 2.91609 83.202 2.72168 83.5908 2.72168H87.6734C89.8208 2.72168 91.5616 4.46248 91.5616 6.60986V83.0127C91.5616 85.1601 89.8208 86.9009 87.6734 86.9009H56.3735C54.2262 86.9009 52.4854 85.1601 52.4854 83.0127V6.60986C52.4854 4.46248 54.2262 2.72168 56.3735 2.72168H60.4561Z" fill="white"/>
</mask>
<g mask="url(#mask1)">
<path d="M60.4542 2.72217C60.843 2.72217 61.0374 2.91658 61.0374 3.3054C61.0374 5.07846 62.1983 5.83271 63.9535 5.83271C66.8248 5.83271 78.0026 5.83271 80.0895 5.83271C81.9671 5.83271 83.0056 5.07846 83.0056 3.3054C83.0056 2.91658 83.2 2.72217 83.5889 2.72217H87.6715C89.8188 2.72217 91.5596 4.46297 91.5596 6.61035V83.0132C91.5596 85.1605 89.8188 86.9013 87.6715 86.9013H56.3716C54.2242 86.9013 52.4834 85.1605 52.4834 83.0132V6.61035C52.4834 4.46297 54.2242 2.72217 56.3716 2.72217H60.4542Z" fill="white"/>
<path fill-rule="evenodd" clip-rule="evenodd" d="M55.4017 82.4292H88.6457C89.1825 82.4292 89.6177 82.8644 89.6177 83.4012C89.6177 83.9381 89.1825 84.3733 88.6457 84.3733H55.4017C54.8649 84.3733 54.4297 83.9381 54.4297 83.4012C54.4297 82.8644 54.8649 82.4292 55.4017 82.4292Z" fill="#ECDFF7"/>
<path fill-rule="evenodd" clip-rule="evenodd" d="M55.4017 77.5679H88.6457C89.1825 77.5679 89.6177 78.0031 89.6177 78.5399C89.6177 79.0768 89.1825 79.512 88.6457 79.512H55.4017C54.8649 79.512 54.4297 79.0768 54.4297 78.5399C54.4297 78.0031 54.8649 77.5679 55.4017 77.5679Z" fill="#ECDFF7"/>
<path fill-rule="evenodd" clip-rule="evenodd" d="M55.4017 72.7085H88.6457C89.1825 72.7085 89.6177 73.1437 89.6177 73.6805C89.6177 74.2174 89.1825 74.6526 88.6457 74.6526H55.4017C54.8649 74.6526 54.4297 74.2174 54.4297 73.6805C54.4297 73.1437 54.8649 72.7085 55.4017 72.7085Z" fill="#ECDFF7"/>
<path fill-rule="evenodd" clip-rule="evenodd" d="M55.4017 67.8477H88.6457C89.1825 67.8477 89.6177 68.2829 89.6177 68.8197C89.6177 69.3565 89.1825 69.7917 88.6457 69.7917H55.4017C54.8649 69.7917 54.4297 69.3565 54.4297 68.8197C54.4297 68.2829 54.8649 67.8477 55.4017 67.8477Z" fill="#ECDFF7"/>
<path fill-rule="evenodd" clip-rule="evenodd" d="M55.4017 62.9878H88.6457C89.1825 62.9878 89.6177 63.423 89.6177 63.9598C89.6177 64.4967 89.1825 64.9319 88.6457 64.9319H55.4017C54.8649 64.9319 54.4297 64.4967 54.4297 63.9598C54.4297 63.423 54.8649 62.9878 55.4017 62.9878Z" fill="#ECDFF7"/>
<path fill-rule="evenodd" clip-rule="evenodd" d="M55.4017 58.1274H88.6457C89.1825 58.1274 89.6177 58.5626 89.6177 59.0995C89.6177 59.6363 89.1825 60.0715 88.6457 60.0715H55.4017C54.8649 60.0715 54.4297 59.6363 54.4297 59.0995C54.4297 58.5626 54.8649 58.1274 55.4017 58.1274Z" fill="#ECDFF7"/>
<path fill-rule="evenodd" clip-rule="evenodd" d="M56.7626 50.5464H87.2848C88.5733 50.5464 89.6177 51.5909 89.6177 52.8793C89.6177 54.1677 88.5733 55.2122 87.2848 55.2122H56.7626C55.4742 55.2122 54.4297 54.1677 54.4297 52.8793C54.4297 51.5909 55.4742 50.5464 56.7626 50.5464Z" fill="#7E5A9B"/>
<path fill-rule="evenodd" clip-rule="evenodd" d="M67.0648 42.7695H78.9238C79.4606 42.7695 79.8958 43.2047 79.8958 43.7416C79.8958 44.2784 79.4606 44.7136 78.9238 44.7136H67.0648C66.528 44.7136 66.0928 44.2784 66.0928 43.7416C66.0928 43.2047 66.528 42.7695 67.0648 42.7695Z" fill="#ECDFF7"/>
<path fill-rule="evenodd" clip-rule="evenodd" d="M67.0648 38.8809H88.6442C89.1811 38.8809 89.6163 39.3161 89.6163 39.8529C89.6163 40.3898 89.1811 40.825 88.6442 40.825H67.0648C66.528 40.825 66.0928 40.3898 66.0928 39.8529C66.0928 39.3161 66.528 38.8809 67.0648 38.8809Z" fill="#ECDFF7"/>
<mask id="mask2" mask-type="alpha" maskUnits="userSpaceOnUse" x="54" y="36" width="11" height="11">
<path d="M59.288 46.658C61.9722 46.658 64.1482 44.482 64.1482 41.7977C64.1482 39.1135 61.9722 36.9375 59.288 36.9375C56.6037 36.9375 54.4277 39.1135 54.4277 41.7977C54.4277 44.482 56.6037 46.658 59.288 46.658Z" fill="white"/>
</mask>
<g mask="url(#mask2)">
<path d="M59.288 46.658C61.9722 46.658 64.1482 44.482 64.1482 41.7977C64.1482 39.1135 61.9722 36.9375 59.288 36.9375C56.6037 36.9375 54.4277 39.1135 54.4277 41.7977C54.4277 44.482 56.6037 46.658 59.288 46.658Z" fill="#ECDFF7"/>
<path d="M64.0387 46.509C63.1601 49.9327 57.5642 50.4314 54.9663 48.1383C52.3334 45.8725 51.9488 42.8007 53.1148 40.2879C54.2501 37.784 56.5721 36.5479 59.1507 36.5479C61.7586 36.5479 63.4744 39.2142 61.5947 40.5842C59.6891 41.9477 64.9354 43.1087 64.0387 46.509Z" fill="#1F1845"/>
<path d="M64.0387 46.509C63.1601 49.9327 57.5642 50.4314 54.9663 48.1383C52.3334 45.8725 51.9488 42.8007 53.1148 40.2879C54.2501 37.784 56.5721 36.5479 59.1507 36.5479C61.7586 36.5479 63.4744 39.2142 61.5947 40.5842C59.6891 41.9477 64.9354 43.1087 64.0387 46.509Z" fill="url(#paint3_linear)"/>
<path fill-rule="evenodd" clip-rule="evenodd" d="M61.6963 42.0927C62.6693 43.0747 64.6125 44.3338 64.0385 46.5104C63.5432 48.4407 61.5484 49.4412 59.4368 49.5359C57.1995 48.9095 55.5586 46.8555 55.5586 44.4182C55.5586 43.4557 55.8145 42.553 56.2619 41.7744C56.3462 42.184 56.5765 42.5112 56.9657 42.5112C57.3127 43.4848 58.1456 44.2516 59.4097 44.2516C60.6739 44.2516 61.3513 43.4142 61.5945 42.8444C61.6995 42.5984 61.7139 42.3703 61.6963 42.0927Z" fill="url(#paint4_linear)"/>
<path d="M58.2613 50.621C58.4273 51.1513 58.4904 51.1799 58.4835 51.2505C58.4904 51.3165 58.4017 51.4845 58.2243 51.5838C58.0662 51.7167 57.8165 51.7623 57.7799 51.6949C57.7116 51.6139 56.7061 49.7332 56.7061 49.1028C56.7061 48.6145 56.7671 47.2824 57.0393 46.3255C57.3056 45.3532 57.8333 44.8136 58.6687 44.548C58.6985 44.5227 59.197 44.3999 59.4093 44.3999C60.7959 44.3999 61.9273 45.5317 61.9273 46.918C61.9273 47.0922 61.9113 47.2562 61.8903 47.3994L61.3719 50.0285C60.9866 50.3537 60.431 50.5142 59.7055 50.5099C58.9625 50.5142 58.417 50.3744 58.0762 50.1026C58.123 50.2576 58.1875 50.4384 58.2613 50.621Z" fill="#403F9F"/>
<path d="M58.2613 50.621C58.4273 51.1513 58.4904 51.1799 58.4835 51.2505C58.4904 51.3165 58.4017 51.4845 58.2243 51.5838C58.0662 51.7167 57.8165 51.7623 57.7799 51.6949C57.7116 51.6139 56.7061 49.7332 56.7061 49.1028C56.7061 48.6145 56.7671 47.2824 57.0393 46.3255C57.3056 45.3532 57.8333 44.8136 58.6687 44.548C58.6985 44.5227 59.197 44.3999 59.4093 44.3999C60.7959 44.3999 61.9273 45.5317 61.9273 46.918C61.9273 47.0922 61.9113 47.2562 61.8903 47.3994L61.3719 50.0285C60.9866 50.3537 60.431 50.5142 59.7055 50.5099C58.9625 50.5142 58.417 50.3744 58.0762 50.1026C58.123 50.2576 58.1875 50.4384 58.2613 50.621Z" fill="url(#paint5_linear)"/>
<mask id="mask3" mask-type="alpha" maskUnits="userSpaceOnUse" x="58" y="44" width="3" height="2">
<path d="M60.1125 44.1191L60.1125 44.5296C60.1125 44.8875 59.8223 45.1776 59.4644 45.1776C59.1065 45.1776 58.8164 44.8875 58.8164 44.5296V44.1543C59.0019 44.1938 59.1995 44.2148 59.4089 44.2148C59.6675 44.2148 59.9016 44.1798 60.1125 44.1191Z" fill="white"/>
</mask>
<g mask="url(#mask3)">
<path d="M60.1125 44.1191L60.1125 44.5296C60.1125 44.8875 59.8223 45.1776 59.4644 45.1776C59.1065 45.1776 58.8164 44.8875 58.8164 44.5296V44.1543C59.0019 44.1938 59.1995 44.2148 59.4089 44.2148C59.6675 44.2148 59.9016 44.1798 60.1125 44.1191Z" fill="#FF6663"/>
</g>
<mask id="mask4" mask-type="alpha" maskUnits="userSpaceOnUse" x="58" y="44" width="3" height="1">
<path d="M60.1042 44.6334C59.9724 44.6974 59.8244 44.7333 59.6681 44.7333C59.308 44.7333 58.9924 44.5429 58.8164 44.2574L58.8164 44.1543C59.0019 44.1938 59.1995 44.2148 59.4089 44.2148C59.6675 44.2148 59.9016 44.1798 60.1125 44.1191L60.1125 44.5296C60.1125 44.5649 60.1096 44.5996 60.1042 44.6334Z" fill="white"/>
</mask>
<g mask="url(#mask4)">
<path d="M60.1042 44.6334C59.9724 44.6974 59.8244 44.7333 59.6681 44.7333C59.308 44.7333 58.9924 44.5429 58.8164 44.2574L58.8164 44.1543C59.0019 44.1938 59.1995 44.2148 59.4089 44.2148C59.6675 44.2148 59.9016 44.1798 60.1125 44.1191L60.1125 44.5296C60.1125 44.5649 60.1096 44.5996 60.1042 44.6334Z" fill="url(#paint6_linear)"/>
</g>
<path fill-rule="evenodd" clip-rule="evenodd" d="M56.2246 41.4016C56.2246 40.828 56.7572 40.6998 56.9652 40.7721C58.079 41.1588 60.1049 41.2787 61.594 40.5869C61.594 41.8024 61.8372 42.276 61.594 42.8458C61.3508 43.4156 60.6733 44.2529 59.4092 44.2529C58.1451 44.2529 57.3121 43.4861 56.9652 42.5125C56.4623 42.5125 56.2246 41.9663 56.2246 41.4016Z" fill="#FF6663"/>
<path fill-rule="evenodd" clip-rule="evenodd" d="M56.9668 40.7707C58.0806 41.1574 60.1064 41.2772 61.5954 40.5854C61.5954 41.107 61.6401 41.492 61.672 41.8065C61.6712 41.8068 61.6703 41.8071 61.6694 41.8074C60.2024 42.33 58.2495 41.9485 56.9668 40.7707Z" fill="url(#paint7_linear)"/>
<path d="M56.7991 41.9565C56.9933 41.9565 57.1508 41.799 57.1508 41.6047C57.1508 41.4104 56.9933 41.2529 56.7991 41.2529C56.6048 41.2529 56.4473 41.4104 56.4473 41.6047C56.4473 41.799 56.6048 41.9565 56.7991 41.9565Z" fill="url(#paint8_linear)"/>
</g>
<mask id="mask5" mask-type="alpha" maskUnits="userSpaceOnUse" x="52" y="2" width="40" height="30">
<path d="M91.5606 2.72168H52.4844V31.8831H91.5606V2.72168Z" fill="white"/>
</mask>
<g mask="url(#mask5)">
<path d="M91.5606 2.72168H52.4844V31.8831H91.5606V2.72168Z" fill="#D8D8D8"/>
<path d="M64.8293 37.326C75.8346 37.326 84.7562 28.4045 84.7562 17.3991C84.7562 6.39376 75.8346 -2.52783 64.8293 -2.52783C53.8239 -2.52783 44.9023 6.39376 44.9023 17.3991C44.9023 28.4045 53.8239 37.326 64.8293 37.326Z" fill="#E478A3"/>
<path d="M89.9085 23.7174C98.2296 23.7174 104.975 16.9718 104.975 8.65069C104.975 0.32958 98.2296 -6.41602 89.9085 -6.41602C81.5874 -6.41602 74.8418 0.32958 74.8418 8.65069C74.8418 16.9718 81.5874 23.7174 89.9085 23.7174Z" fill="#AF3B6E"/>
<path d="M84.1727 51.907C95.4465 51.907 104.586 42.7678 104.586 31.494C104.586 20.2202 95.4465 11.0811 84.1727 11.0811C72.899 11.0811 63.7598 20.2202 63.7598 31.494C63.7598 42.7678 72.899 51.907 84.1727 51.907Z" fill="#7E5A9B"/>
<path fill-rule="evenodd" clip-rule="evenodd" d="M70.7735 14.1327L75.6923 17.1239C76.0593 17.3471 76.1759 17.8254 75.9527 18.1924C75.888 18.2988 75.7987 18.3881 75.6923 18.4528L70.7735 21.444C70.4065 21.6671 69.9282 21.5505 69.705 21.1836C69.631 21.0618 69.5918 20.9221 69.5918 20.7795V14.7972C69.5918 14.3677 69.94 14.0195 70.3694 14.0195C70.5119 14.0195 70.6517 14.0587 70.7735 14.1327Z" fill="white"/>
</g>
<path d="M91.5606 31.8833H52.4844V32.8553H91.5606V31.8833Z" fill="#ECDFF7"/>
<path d="M69.398 31.8833H52.4844V32.8553H69.398V31.8833Z" fill="#AF3B6E"/>
<path d="M67.7443 34.0213C68.6569 34.0213 69.3968 33.2814 69.3968 32.3688C69.3968 31.4561 68.6569 30.7163 67.7443 30.7163C66.8316 30.7163 66.0918 31.4561 66.0918 32.3688C66.0918 33.2814 66.8316 34.0213 67.7443 34.0213Z" fill="#AF3B6E"/>
</g>
<path d="M49.7622 46.4634C44.742 47.3137 40.8193 50.8076 40.8193 54.2397C40.8193 57.776 46.1149 61.8097 48.4013 63.377C50.6606 64.8817 54.993 63.4852 54.6224 59.2944C54.1428 54.9663 49.7457 52.1326 49.7622 50.3516C49.7457 48.5661 49.7457 49.0654 49.7622 46.4634Z" fill="#FF6663"/>
<path d="M49.7622 46.4634C44.742 47.3137 40.8193 50.8076 40.8193 54.2397C40.8193 57.776 46.1149 61.8097 48.4013 63.377C50.6606 64.8817 54.993 63.4852 54.6224 59.2944C54.1428 54.9663 49.7457 52.1326 49.7622 50.3516C49.7457 48.5661 49.7457 49.0654 49.7622 46.4634Z" fill="url(#paint9_linear)"/>
<path d="M49.7635 30.3274C47.2681 30.0289 43.4534 29.6763 42.1815 32.4659C40.724 35.436 43.6386 38.43 49.7635 41.6031V30.3274Z" fill="#FF6663"/>
<path d="M49.7635 30.3274C47.2681 30.0289 43.4534 29.6763 42.1815 32.4659C40.724 35.436 43.6386 38.43 49.7635 41.6031V30.3274Z" fill="url(#paint10_linear)"/>
<path fill-rule="evenodd" clip-rule="evenodd" d="M102.449 31.6884C103.221 39.3178 105.277 54.3184 113.142 73.4863C115.863 79.6622 111.758 94.1401 113.142 102.064C113.304 102.269 85.6715 99.2544 89.8127 75.6248C94.1568 52.0749 93.582 48.8485 93.5064 45.1026C93.582 37.7079 93.9448 30.81 101.866 30.7163C102.382 30.7432 102.428 31.3234 102.449 31.6884Z" fill="#FF6663"/>
<path fill-rule="evenodd" clip-rule="evenodd" d="M97.8418 31.529C98.9041 31.0054 100.224 30.7163 101.864 30.7163C102.272 30.7163 102.317 31.3151 102.447 31.6884C103.11 39.3095 105.161 54.2941 113.14 73.4863C115.716 79.6108 111.623 94.0732 113.14 102.064C114.706 110.119 117.123 112.159 126.554 128.504C129.011 132.743 127.983 136.992 125.032 140.609C117.335 127.801 111.543 117.903 107.655 110.918C101.106 99.1527 109.122 88.8216 104.633 76.1108C100.503 64.4163 98.1859 39.3927 97.8418 31.529Z" fill="url(#paint11_linear)"/>
<mask id="mask6" mask-type="alpha" maskUnits="userSpaceOnUse" x="0" y="38" width="85" height="113">
<path d="M39.0705 125.977C43.2684 119.248 55.4017 117.734 61.6219 108.675C67.7047 99.6666 79.0258 73.4043 78.1467 70.7652C77.176 68.1135 69.8439 67.8157 66.0934 74.8478C62.4859 81.9028 58.9724 89.8963 57.5394 89.234C56.0671 88.5667 63.4564 73.7349 66.0934 69.0155C68.8733 64.2227 86.0608 46.774 84.3678 41.215C82.8529 35.6223 76.8895 39.9735 68.8151 48.0193C60.8572 55.9862 56.3213 60.9887 54.4288 61.6279C52.6241 62.0804 47.5164 59.591 42.181 62.7944C37.0347 65.838 36.0672 68.0552 33.2382 69.0155C30.5737 69.9024 23.8372 70.7589 21.1848 77.9583C18.3396 85.1796 15.1713 110.412 13.4085 113.535C11.5479 116.569 1.77913 129.297 0.188656 135.892C-2.51167 146.939 24.5275 157.507 33.2382 144.446C38.0863 137.291 34.9576 132.762 39.0705 125.977Z" fill="white"/>
</mask>
<g mask="url(#mask6)">
<path d="M39.0705 125.977C43.2684 119.248 55.4017 117.734 61.6219 108.675C67.7047 99.6666 79.0258 73.4043 78.1467 70.7652C77.176 68.1135 69.8439 67.8157 66.0934 74.8478C62.4859 81.9028 58.9724 89.8963 57.5394 89.234C56.0671 88.5667 63.4564 73.7349 66.0934 69.0155C68.8733 64.2227 86.0608 46.774 84.3678 41.215C82.8529 35.6223 76.8895 39.9735 68.8151 48.0193C60.8572 55.9862 56.3213 60.9887 54.4288 61.6279C52.6241 62.0804 47.5164 59.591 42.181 62.7944C37.0347 65.838 36.0672 68.0552 33.2382 69.0155C30.5737 69.9024 23.8372 70.7589 21.1848 77.9583C18.3396 85.1796 15.1713 110.412 13.4085 113.535C11.5479 116.569 1.77913 129.297 0.188656 135.892C-2.51167 146.939 24.5275 157.507 33.2382 144.446C38.0863 137.291 34.9576 132.762 39.0705 125.977Z" fill="#FF6663"/>
<path d="M39.0705 125.977C43.2684 119.248 55.4017 117.734 61.6219 108.675C67.7047 99.6666 79.0258 73.4043 78.1467 70.7652C77.176 68.1135 69.8439 67.8157 66.0934 74.8478C62.4859 81.9028 58.9724 89.8963 57.5394 89.234C56.0671 88.5667 63.4564 73.7349 66.0934 69.0155C68.8733 64.2227 86.0608 46.774 84.3678 41.215C82.8529 35.6223 76.8895 39.9735 68.8151 48.0193C60.8572 55.9862 56.3213 60.9887 54.4288 61.6279C52.6241 62.0804 47.5164 59.591 42.181 62.7944C37.0347 65.838 36.0672 68.0552 33.2382 69.0155C30.5737 69.9024 23.8372 70.7589 21.1848 77.9583C18.3396 85.1796 15.1713 110.412 13.4085 113.535C11.5479 116.569 1.77913 129.297 0.188656 135.892C-2.51167 146.939 24.5275 157.507 33.2382 144.446C38.0863 137.291 34.9576 132.762 39.0705 125.977Z" fill="url(#paint12_linear)"/>
<path fill-rule="evenodd" clip-rule="evenodd" d="M23.2432 150.296C27.2507 134.969 30.9711 124.983 34.4043 120.338C41.2089 111.366 51.6079 108.566 55.9837 104.202C59.8309 100.222 69.7191 78.7473 77.6853 70.0552C77.8941 70.2656 78.0509 70.5034 78.1463 70.764C79.0254 73.4031 67.7043 99.6655 61.6215 108.674C55.4013 117.733 43.268 119.247 39.0701 125.976C34.9571 132.761 38.0858 137.29 33.2378 144.445C30.9096 147.936 27.2722 149.739 23.2432 150.296Z" fill="url(#paint13_linear)"/>
<path fill-rule="evenodd" clip-rule="evenodd" d="M66.0922 69.0146C63.6767 73.3039 57.7644 86.1395 57.5382 89.2331C54.2987 89.2331 57.0585 75.8071 63.7593 66.4873C68.2324 60.2147 76.8588 48.4257 84.3667 41.9917C84.5548 48.2282 68.6794 64.4889 66.0922 69.0146Z" fill="url(#paint14_linear)"/>
<path d="M56.6085 59.0529C56.7659 58.9069 57.012 58.9162 57.158 59.0737C57.304 59.2311 57.2947 59.4771 57.1372 59.6231C57.024 59.7281 56.9073 59.835 56.7861 59.9447C56.8194 59.9145 53.0974 63.1422 51.9142 64.2824C49.8636 66.2586 48.0624 68.3621 46.2904 70.9675C46.1697 71.1451 45.9278 71.1912 45.7503 71.0704C45.5727 70.9496 45.5267 70.7078 45.6474 70.5302C47.4507 67.8787 49.2866 65.7346 51.3746 63.7225C52.5753 62.5654 56.3109 59.3259 56.2642 59.3682C56.3831 59.2605 56.4976 59.1557 56.6085 59.0529Z" fill="white"/>
<path d="M37.8215 65.7459C35.506 67.6932 33.5399 69.6723 31.6242 72.1093C31.4915 72.2781 31.247 72.3074 31.0782 72.1747C30.9094 72.042 30.8801 71.7975 31.0128 71.6287C32.9639 69.1468 34.9669 67.1305 37.321 65.1508C38.2919 64.3342 38.7766 64.9427 37.8215 65.7459Z" fill="white"/>
</g>
<defs>
<linearGradient id="paint0_linear" x1="91.5688" y1="101.859" x2="91.5688" y2="150.485" gradientUnits="userSpaceOnUse">
<stop stop-color="#C74D75" stop-opacity="0"/>
<stop offset="1" stop-color="#AF3B6E" stop-opacity="0.28943"/>
</linearGradient>
<linearGradient id="paint1_linear" x1="91.4299" y1="100.703" x2="82.7082" y2="78.8582" gradientUnits="userSpaceOnUse">
<stop stop-color="#FF6663" stop-opacity="0"/>
<stop offset="1" stop-opacity="0.3"/>
</linearGradient>
<linearGradient id="paint2_linear" x1="72.0216" y1="0" x2="72.0216" y2="89.6226" gradientUnits="userSpaceOnUse">
<stop stop-color="#393E41" stop-opacity="0"/>
<stop offset="1" stop-opacity="0.3"/>
</linearGradient>
<linearGradient id="paint3_linear" x1="58.3165" y1="36.5479" x2="58.3165" y2="49.5419" gradientUnits="userSpaceOnUse">
<stop stop-color="#1F1845" stop-opacity="0"/>
<stop offset="1" stop-opacity="0.2"/>
</linearGradient>
<linearGradient id="paint4_linear" x1="56.9429" y1="41.1141" x2="60.3935" y2="50.476" gradientUnits="userSpaceOnUse">
<stop stop-opacity="0.646003"/>
<stop offset="1" stop-color="#1F1845" stop-opacity="0"/>
</linearGradient>
<linearGradient id="paint5_linear" x1="59.3167" y1="44.3999" x2="59.3167" y2="51.7258" gradientUnits="userSpaceOnUse">
<stop stop-color="#403F9F" stop-opacity="0"/>
<stop offset="1" stop-opacity="0.1"/>
</linearGradient>
<linearGradient id="paint6_linear" x1="58.8164" y1="44.1191" x2="59.2917" y2="45.1222" gradientUnits="userSpaceOnUse">
<stop stop-opacity="0.2"/>
<stop offset="1" stop-color="#FF6663" stop-opacity="0"/>
</linearGradient>
<linearGradient id="paint7_linear" x1="56.9668" y1="40.5854" x2="57.7842" y2="43.2357" gradientUnits="userSpaceOnUse">
<stop stop-opacity="0.2"/>
<stop offset="1" stop-color="#FF6663" stop-opacity="0"/>
</linearGradient>
<linearGradient id="paint8_linear" x1="56.7991" y1="39.2991" x2="56.7991" y2="41.7948" gradientUnits="userSpaceOnUse">
<stop/>
<stop offset="1" stop-opacity="0"/>
</linearGradient>
<linearGradient id="paint9_linear" x1="47.732" y1="56.8588" x2="47.732" y2="63.9642" gradientUnits="userSpaceOnUse">
<stop stop-color="#C74D75" stop-opacity="0"/>
<stop offset="1" stop-color="#AF3B6E" stop-opacity="0.28943"/>
</linearGradient>
<linearGradient id="paint10_linear" x1="45.7875" y1="36.9445" x2="45.7875" y2="41.6031" gradientUnits="userSpaceOnUse">
<stop stop-color="#C74D75" stop-opacity="0"/>
<stop offset="1" stop-color="#AF3B6E" stop-opacity="0.28943"/>
</linearGradient>
<linearGradient id="paint11_linear" x1="97.8418" y1="30.7163" x2="153.824" y2="46.0447" gradientUnits="userSpaceOnUse">
<stop stop-color="#FF6663" stop-opacity="0"/>
<stop offset="1" stop-opacity="0.1"/>
</linearGradient>
<linearGradient id="paint12_linear" x1="42.2424" y1="105.1" x2="42.2424" y2="150.489" gradientUnits="userSpaceOnUse">
<stop stop-color="#C74D75" stop-opacity="0"/>
<stop offset="1" stop-color="#AF3B6E" stop-opacity="0.28943"/>
</linearGradient>
<linearGradient id="paint13_linear" x1="23.2432" y1="70.0552" x2="98.0581" y2="121.291" gradientUnits="userSpaceOnUse">
<stop stop-color="#FF6663" stop-opacity="0"/>
<stop offset="1" stop-opacity="0.1"/>
</linearGradient>
<linearGradient id="paint14_linear" x1="84.3683" y1="89.2331" x2="42.7955" y2="64.4295" gradientUnits="userSpaceOnUse">
<stop stop-color="#FF6663" stop-opacity="0"/>
<stop offset="1" stop-opacity="0.1"/>
</linearGradient>
</defs>
</svg>
