<svg width="85" height="152" viewBox="0 0 85 152" fill="none" xmlns="http://www.w3.org/2000/svg">
<path d="M40.0362 151.386C33.7638 151.386 27.4914 150.935 21.2694 150.135C18.5884 149.654 16.5807 147.487 16.4734 144.922C15.8402 136.418 14.3845 127.709 13.3456 125.53C12.5035 123.558 11.1356 122.03 5.83887 118.857H74.2335C68.9367 122.03 67.5689 123.558 66.7268 125.53C65.6878 127.709 64.2321 136.418 63.599 144.922C63.4916 147.487 61.4839 149.654 58.803 150.135C52.5809 150.935 46.3086 151.386 40.0362 151.386Z" fill="#D6DFEA"/>
<path d="M40.0362 151.386C33.7638 151.386 27.4914 150.935 21.2694 150.135C18.5884 149.654 16.5807 147.487 16.4734 144.922C15.8402 136.418 14.3845 127.709 13.3456 125.53C12.5035 123.558 11.1356 122.03 5.83887 118.857H74.2335C68.9367 122.03 67.5689 123.558 66.7268 125.53C65.6878 127.709 64.2321 136.418 63.599 144.922C63.4916 147.487 61.4839 149.654 58.803 150.135C52.5809 150.935 46.3086 151.386 40.0362 151.386Z" fill="url(#paint0_linear)"/>
<path d="M40.0362 0C46.3086 0 52.5809 0.451234 58.803 1.25112C61.4839 1.7322 63.4916 3.89875 63.599 6.46413C64.2321 14.9677 65.6878 23.6772 66.7268 25.8565C67.5689 27.8276 68.9367 29.3565 74.2335 32.5291H5.83887C11.1356 29.3565 12.5035 27.8276 13.3456 25.8565C14.3845 23.6772 15.8402 14.9677 16.4734 6.46413C16.5807 3.89875 18.5884 1.7322 21.2694 1.25112C27.4914 0.451234 33.7638 0 40.0362 0Z" fill="#D6DFEA"/>
<path d="M40.0362 0C46.3086 0 52.5809 0.451234 58.803 1.25112C61.4839 1.7322 63.4916 3.89875 63.599 6.46413C64.2321 14.9677 65.6878 23.6772 66.7268 25.8565C67.5689 27.8276 68.9367 29.3565 74.2335 32.5291H5.83887C11.1356 29.3565 12.5035 27.8276 13.3456 25.8565C14.3845 23.6772 15.8402 14.9677 16.4734 6.46413C16.5807 3.89875 18.5884 1.7322 21.2694 1.25112C27.4914 0.451234 33.7638 0 40.0362 0Z" fill="url(#paint1_linear)"/>
<path d="M14.5964 29.6099H65.4753C73.5367 29.6099 80.0717 36.1449 80.0717 44.2063V107.179C80.0717 115.241 73.5367 121.776 65.4753 121.776H14.5964C6.53504 121.776 0 115.241 0 107.179V44.2063C0 36.1449 6.53504 29.6099 14.5964 29.6099Z" fill="#F2F5F9"/>
<path d="M14.5964 29.6099H65.4753C73.5367 29.6099 80.0717 36.1449 80.0717 44.2063V107.179C80.0717 115.241 73.5367 121.776 65.4753 121.776H14.5964C6.53504 121.776 0 115.241 0 107.179V44.2063C0 36.1449 6.53504 29.6099 14.5964 29.6099Z" fill="url(#paint2_linear)"/>
<path d="M17.5154 32.9463H62.5557C70.6171 32.9463 77.1521 39.4813 77.1521 47.5427V103.843C77.1521 111.905 70.6171 118.44 62.5557 118.44H17.5154C9.45398 118.44 2.91895 111.905 2.91895 103.843V47.5427C2.91895 39.4813 9.45398 32.9463 17.5154 32.9463Z" fill="#393E41"/>
<path d="M17.5154 32.9463H62.5557C70.6171 32.9463 77.1521 39.4813 77.1521 47.5427V103.843C77.1521 111.905 70.6171 118.44 62.5557 118.44H17.5154C9.45398 118.44 2.91895 111.905 2.91895 103.843V47.5427C2.91895 39.4813 9.45398 32.9463 17.5154 32.9463Z" fill="url(#paint3_linear)"/>
<path d="M80.0713 77.7778C80.6471 77.7778 81.1139 78.2446 81.1139 78.8204V100.715C81.1139 101.291 80.6471 101.758 80.0713 101.758V77.7778Z" fill="#E6E6EF"/>
<path d="M80.0713 77.7778C80.6471 77.7778 81.1139 78.2446 81.1139 78.8204V100.715C81.1139 101.291 80.6471 101.758 80.0713 101.758V77.7778Z" fill="url(#paint4_linear)"/>
<path d="M40.0358 85.8054C33.6442 85.8054 28.4629 80.6241 28.4629 74.2325C28.4629 67.841 33.6442 62.6597 40.0358 62.6597C46.4273 62.6597 51.6086 67.841 51.6086 74.2325C51.6086 80.6241 46.4273 85.8054 40.0358 85.8054ZM40.0358 81.4265C44.0089 81.4265 47.2297 78.2056 47.2297 74.2325C47.2297 70.2594 44.0089 67.0386 40.0358 67.0386C36.0627 67.0386 32.8418 70.2594 32.8418 74.2325C32.8418 78.2056 36.0627 81.4265 40.0358 81.4265Z" fill="#52C883"/>
<path d="M48.1118 82.521C47.2459 83.365 45.8597 83.3471 45.0157 82.4811C44.1718 81.6152 44.1896 80.229 45.0556 79.385C46.4377 78.0381 47.2291 76.2009 47.2291 74.2325C47.2291 70.2594 44.0083 67.0386 40.0352 67.0386C38.826 67.0386 37.8457 66.0583 37.8457 64.8491C37.8457 63.6399 38.826 62.6597 40.0352 62.6597C46.4267 62.6597 51.608 67.841 51.608 74.2325C51.608 77.3941 50.3312 80.3581 48.1118 82.521Z" fill="#00A07D"/>
<path d="M40.0359 91.0195C30.7653 91.0195 23.25 83.5042 23.25 74.2336C23.25 64.963 30.7653 57.4478 40.0359 57.4478C49.3065 57.4478 56.8217 64.963 56.8217 74.2336C56.8217 83.5042 49.3065 91.0195 40.0359 91.0195ZM40.0359 86.6406C46.888 86.6406 52.4428 81.0858 52.4428 74.2336C52.4428 67.3815 46.888 61.8267 40.0359 61.8267C33.1837 61.8267 27.6289 67.3815 27.6289 74.2336C27.6289 81.0858 33.1837 86.6406 40.0359 86.6406Z" fill="#FEEC80"/>
<path d="M26.2039 83.7451C25.518 82.7493 25.7693 81.3859 26.7651 80.7C27.761 80.0141 29.1243 80.2654 29.8102 81.2613C32.1132 84.6049 35.9013 86.6406 40.0366 86.6406C46.8887 86.6406 52.4435 81.0858 52.4435 74.2336C52.4435 67.3815 46.8887 61.8267 40.0366 61.8267C38.8273 61.8267 37.8471 60.8464 37.8471 59.6372C37.8471 58.428 38.8273 57.4478 40.0366 57.4478C49.3071 57.4478 56.8224 64.963 56.8224 74.2336C56.8224 83.5042 49.3071 91.0195 40.0366 91.0195C34.4452 91.0195 29.3156 88.263 26.2039 83.7451Z" fill="#FFC62C"/>
<path d="M40.035 96.2321C27.8854 96.2321 18.0361 86.3829 18.0361 74.2333C18.0361 62.0836 27.8854 52.2344 40.035 52.2344C52.1847 52.2344 62.0339 62.0836 62.0339 74.2333C62.0339 86.3829 52.1847 96.2321 40.035 96.2321ZM40.035 91.8532C49.7662 91.8532 57.655 83.9645 57.655 74.2333C57.655 64.502 49.7662 56.6133 40.035 56.6133C30.3038 56.6133 22.4151 64.502 22.4151 74.2333C22.4151 83.9645 30.3038 91.8532 40.035 91.8532Z" fill="#E8799D"/>
<path d="M18.0361 74.2333C18.0361 73.024 19.0164 72.0438 20.2256 72.0438C21.4348 72.0438 22.4151 73.024 22.4151 74.2333C22.4151 83.9645 30.3038 91.8532 40.035 91.8532C49.7662 91.8532 57.655 83.9645 57.655 74.2333C57.655 64.502 49.7662 56.6133 40.035 56.6133C38.8258 56.6133 37.8456 55.633 37.8456 54.4238C37.8456 53.2146 38.8258 52.2344 40.035 52.2344C52.1847 52.2344 62.0339 62.0836 62.0339 74.2333C62.0339 86.3829 52.1847 96.2321 40.035 96.2321C27.8854 96.2321 18.0361 86.3829 18.0361 74.2333Z" fill="#C74D75"/>
<path d="M40.0365 100.82C25.3533 100.82 13.4502 88.9165 13.4502 74.2333C13.4502 59.5501 25.3533 47.647 40.0365 47.647C54.7197 47.647 66.6228 59.5501 66.6228 74.2333C66.6228 88.9165 54.7197 100.82 40.0365 100.82ZM40.0365 98.5259C53.4529 98.5259 64.3291 87.6497 64.3291 74.2333C64.3291 60.8169 53.4529 49.9407 40.0365 49.9407C26.6201 49.9407 15.7439 60.8169 15.7439 74.2333C15.7439 87.6497 26.6201 98.5259 40.0365 98.5259Z" fill="#6F7981"/>
<path d="M61.5138 51.5036C64.3928 51.5036 66.7268 49.1697 66.7268 46.2906C66.7268 43.4116 64.3928 41.0776 61.5138 41.0776C58.6347 41.0776 56.3008 43.4116 56.3008 46.2906C56.3008 49.1697 58.6347 51.5036 61.5138 51.5036Z" fill="#6F7981"/>
<path d="M18.5587 51.5036C21.4378 51.5036 23.7717 49.1697 23.7717 46.2906C23.7717 43.4116 21.4378 41.0776 18.5587 41.0776C15.6796 41.0776 13.3457 43.4116 13.3457 46.2906C13.3457 49.1697 15.6796 51.5036 18.5587 51.5036Z" fill="#6F7981"/>
<path fill-rule="evenodd" clip-rule="evenodd" d="M37.9133 72.7554L40.2049 74.3011L39.8551 74.8197L37.5635 73.274C37.2529 73.5041 36.8188 73.5262 36.4801 73.2978L28.3551 67.8174C27.9255 67.5276 27.8121 66.9444 28.1019 66.5148C28.3917 66.0852 28.9749 65.9718 29.4046 66.2616L37.5295 71.7419C37.8682 71.9704 38.0103 72.3812 37.9133 72.7554Z" fill="#E6E6EF"/>
<path fill-rule="evenodd" clip-rule="evenodd" d="M42.4311 73.2371L40.1948 74.8619L39.8271 74.3558L42.0634 72.7311C41.9534 72.3605 42.0811 71.9449 42.4116 71.7048L58.7752 59.816C59.1944 59.5114 59.7813 59.6043 60.0859 60.0236C60.3905 60.4428 60.2975 61.0297 59.8783 61.3343L43.5147 73.2231C43.1842 73.4632 42.7495 73.4563 42.4311 73.2371Z" fill="#E6E6EF"/>
<path fill-rule="evenodd" clip-rule="evenodd" d="M15.9522 103.635H64.1204C65.5599 103.635 66.7269 104.802 66.7269 106.241C66.7269 107.681 65.5599 108.848 64.1204 108.848H15.9522C14.5127 108.848 13.3457 107.681 13.3457 106.241C13.3457 104.802 14.5127 103.635 15.9522 103.635Z" fill="#6F7981"/>
<path fill-rule="evenodd" clip-rule="evenodd" d="M40.0342 69.8545C40.2646 69.8545 40.4513 70.0412 40.4513 70.2715V99.8814C40.4513 100.112 40.2646 100.298 40.0342 100.298C39.8039 100.298 39.6172 100.112 39.6172 99.8814V70.2715C39.6172 70.0412 39.8039 69.8545 40.0342 69.8545Z" fill="#FF6663"/>
<path d="M40.0358 75.6932C40.842 75.6932 41.4955 75.0397 41.4955 74.2336C41.4955 73.4274 40.842 72.7739 40.0358 72.7739C39.2297 72.7739 38.5762 73.4274 38.5762 74.2336C38.5762 75.0397 39.2297 75.6932 40.0358 75.6932Z" fill="#E6E6EF" stroke="#FF6663" stroke-width="3"/>
<path d="M80.0725 50.0449H81.7407C83.2378 50.0449 84.4514 51.2586 84.4514 52.7557V64.0158C84.4514 65.5129 83.2378 66.7265 81.7407 66.7265H80.0725C78.6824 65.36 77.9873 62.5797 77.9873 58.3857C77.9873 54.1917 78.6824 51.4114 80.0725 50.0449Z" fill="#E6E6EF"/>
<path d="M80.0725 50.0449H81.7407C83.2378 50.0449 84.4514 51.2586 84.4514 52.7557V64.0158C84.4514 65.5129 83.2378 66.7265 81.7407 66.7265H80.0725C78.6824 65.36 77.9873 62.5797 77.9873 58.3857C77.9873 54.1917 78.6824 51.4114 80.0725 50.0449Z" fill="url(#paint5_linear)"/>
<defs>
<linearGradient id="paint0_linear" x1="40.0362" y1="118.857" x2="40.0362" y2="151.386" gradientUnits="userSpaceOnUse">
<stop stop-color="#B6C5D9" stop-opacity="0.8"/>
<stop offset="1" stop-color="#D6DFEA" stop-opacity="0"/>
</linearGradient>
<linearGradient id="paint1_linear" x1="45.6932" y1="32.5291" x2="45.6932" y2="5.68654e-08" gradientUnits="userSpaceOnUse">
<stop stop-color="#B6C5D9" stop-opacity="0.8"/>
<stop offset="1" stop-color="#D6DFEA" stop-opacity="0"/>
</linearGradient>
<linearGradient id="paint2_linear" x1="40.0359" y1="29.6099" x2="40.0359" y2="121.776" gradientUnits="userSpaceOnUse">
<stop stop-color="#F2F5F9" stop-opacity="0"/>
<stop offset="1" stop-color="#D6DFEA"/>
</linearGradient>
<linearGradient id="paint3_linear" x1="40.0355" y1="32.9463" x2="40.0355" y2="118.44" gradientUnits="userSpaceOnUse">
<stop stop-color="#393E41" stop-opacity="0"/>
<stop offset="1" stop-opacity="0.2"/>
</linearGradient>
<linearGradient id="paint4_linear" x1="81.1139" y1="89.7677" x2="80.0713" y2="89.7677" gradientUnits="userSpaceOnUse">
<stop stop-color="white" stop-opacity="0"/>
<stop offset="1" stop-color="#B6C5D9"/>
</linearGradient>
<linearGradient id="paint5_linear" x1="84.4514" y1="58.3857" x2="77.9873" y2="58.3857" gradientUnits="userSpaceOnUse">
<stop stop-color="white" stop-opacity="0"/>
<stop offset="1" stop-color="#B6C5D9"/>
</linearGradient>
</defs>
</svg>
