<svg width="119" height="213" viewBox="0 0 119 213" fill="none" xmlns="http://www.w3.org/2000/svg">
<path d="M56.0881 212.081C47.3009 212.081 38.5138 211.449 29.7971 210.328C26.0413 209.654 23.2288 206.619 23.0784 203.025C22.1913 191.112 20.152 178.911 18.6965 175.858C17.5168 173.096 15.6006 170.954 8.18018 166.51H103.996C96.5755 170.954 94.6593 173.096 93.4796 175.858C92.0241 178.911 89.9848 191.112 89.0978 203.025C88.9474 206.619 86.1348 209.654 82.379 210.328C73.6623 211.449 64.8752 212.081 56.0881 212.081Z" fill="#D6DFEA"/>
<path d="M56.0881 212.081C47.3009 212.081 38.5138 211.449 29.7971 210.328C26.0413 209.654 23.2288 206.619 23.0784 203.025C22.1913 191.112 20.152 178.911 18.6965 175.858C17.5168 173.096 15.6006 170.954 8.18018 166.51H103.996C96.5755 170.954 94.6593 173.096 93.4796 175.858C92.0241 178.911 89.9848 191.112 89.0978 203.025C88.9474 206.619 86.1348 209.654 82.379 210.328C73.6623 211.449 64.8752 212.081 56.0881 212.081Z" fill="url(#paint0_linear)"/>
<path d="M56.0881 0C64.8752 0 73.6623 0.632145 82.379 1.75273C86.1348 2.42668 88.9474 5.46186 89.0978 9.05576C89.9848 20.9686 92.0241 33.1699 93.4796 36.223C94.6593 38.9844 96.5755 41.1263 103.996 45.5709H8.18018C15.6006 41.1263 17.5168 38.9844 18.6965 36.223C20.152 33.1699 22.1913 20.9686 23.0784 9.05576C23.2288 5.46186 26.0413 2.42668 29.7971 1.75273C38.5138 0.632145 47.3009 0 56.0881 0Z" fill="#D6DFEA"/>
<path d="M56.0881 0C64.8752 0 73.6623 0.632145 82.379 1.75273C86.1348 2.42668 88.9474 5.46186 89.0978 9.05576C89.9848 20.9686 92.0241 33.1699 93.4796 36.223C94.6593 38.9844 96.5755 41.1263 103.996 45.5709H8.18018C15.6006 41.1263 17.5168 38.9844 18.6965 36.223C20.152 33.1699 22.1913 20.9686 23.0784 9.05576C23.2288 5.46186 26.0413 2.42668 29.7971 1.75273C38.5138 0.632145 47.3009 0 56.0881 0Z" fill="url(#paint1_linear)"/>
<path d="M20.4485 41.4814H91.7261C103.019 41.4814 112.175 50.6365 112.175 61.9299V150.151C112.175 161.444 103.019 170.599 91.7261 170.599H20.4485C9.1551 170.599 0 161.444 0 150.151V61.9299C0 50.6365 9.1551 41.4814 20.4485 41.4814Z" fill="#F2F5F9"/>
<path d="M20.4485 41.4814H91.7261C103.019 41.4814 112.175 50.6365 112.175 61.9299V150.151C112.175 161.444 103.019 170.599 91.7261 170.599H20.4485C9.1551 170.599 0 161.444 0 150.151V61.9299C0 50.6365 9.1551 41.4814 20.4485 41.4814Z" fill="url(#paint2_linear)"/>
<path d="M24.5376 46.1558H87.6358C98.9292 46.1558 108.084 55.3109 108.084 66.6042V145.477C108.084 156.77 98.9292 165.925 87.6358 165.925H24.5376C13.2442 165.925 4.08911 156.77 4.08911 145.477V66.6042C4.08911 55.3109 13.2442 46.1558 24.5376 46.1558Z" fill="#393E41"/>
<path d="M24.5376 46.1558H87.6358C98.9292 46.1558 108.084 55.3109 108.084 66.6042V145.477C108.084 156.77 98.9292 165.925 87.6358 165.925H24.5376C13.2442 165.925 4.08911 156.77 4.08911 145.477V66.6042C4.08911 55.3109 13.2442 46.1558 24.5376 46.1558Z" fill="url(#paint3_linear)"/>
<path d="M112.175 108.96C112.981 108.96 113.635 109.614 113.635 110.421V141.094C113.635 141.9 112.981 142.554 112.175 142.554V108.96Z" fill="#E6E6EF"/>
<path d="M112.175 108.96C112.981 108.96 113.635 109.614 113.635 110.421V141.094C113.635 141.9 112.981 142.554 112.175 142.554V108.96Z" fill="url(#paint4_linear)"/>
<path d="M56.0872 120.207C47.1332 120.207 39.8745 112.949 39.8745 103.994C39.8745 95.0404 47.1332 87.7817 56.0872 87.7817C65.0413 87.7817 72.3 95.0404 72.3 103.994C72.3 112.949 65.0413 120.207 56.0872 120.207ZM56.0872 114.073C61.6533 114.073 66.1654 109.56 66.1654 103.994C66.1654 98.4284 61.6533 93.9163 56.0872 93.9163C50.5212 93.9163 46.0091 98.4284 46.0091 103.994C46.0091 109.56 50.5212 114.073 56.0872 114.073Z" fill="#52C883"/>
<path d="M67.4016 115.606C66.1885 116.788 64.2465 116.763 63.0642 115.55C61.8819 114.337 61.9069 112.395 63.1201 111.213C65.0563 109.326 66.165 106.752 66.165 103.994C66.165 98.4284 61.6528 93.9163 56.0868 93.9163C54.3928 93.9163 53.0195 92.543 53.0195 90.849C53.0195 89.155 54.3928 87.7817 56.0868 87.7817C65.0408 87.7817 72.2995 95.0404 72.2995 103.994C72.2995 108.424 70.5108 112.576 67.4016 115.606Z" fill="#00A07D"/>
<path d="M56.0878 127.511C43.1004 127.511 32.572 116.983 32.572 103.995C32.572 91.0079 43.1004 80.4795 56.0878 80.4795C69.0752 80.4795 79.6035 91.0079 79.6035 103.995C79.6035 116.983 69.0752 127.511 56.0878 127.511ZM56.0878 121.376C65.6872 121.376 73.469 113.595 73.469 103.995C73.469 94.3959 65.6872 86.614 56.0878 86.614C46.4884 86.614 38.7066 94.3959 38.7066 103.995C38.7066 113.595 46.4884 121.376 56.0878 121.376Z" fill="#FEEC80"/>
<path d="M36.7094 117.32C35.7486 115.925 36.1006 114.015 37.4957 113.054C38.8908 112.093 40.8007 112.445 41.7616 113.84C44.9879 118.525 50.2948 121.376 56.088 121.376C65.6874 121.376 73.4692 113.595 73.4692 103.995C73.4692 94.3959 65.6874 86.614 56.088 86.614C54.394 86.614 53.0207 85.2408 53.0207 83.5468C53.0207 81.8528 54.394 80.4795 56.088 80.4795C69.0754 80.4795 79.6037 91.0079 79.6037 103.995C79.6037 116.983 69.0754 127.511 56.088 127.511C48.2549 127.511 41.0687 123.649 36.7094 117.32Z" fill="#FFC62C"/>
<path d="M56.0864 134.814C39.0656 134.814 25.2676 121.016 25.2676 103.996C25.2676 86.9748 39.0656 73.1768 56.0864 73.1768C73.1071 73.1768 86.9052 86.9748 86.9052 103.996C86.9052 121.016 73.1071 134.814 56.0864 134.814ZM56.0864 128.68C69.7191 128.68 80.7706 117.628 80.7706 103.996C80.7706 90.3628 69.7191 79.3113 56.0864 79.3113C42.4536 79.3113 31.4021 90.3628 31.4021 103.996C31.4021 117.628 42.4536 128.68 56.0864 128.68Z" fill="#E8799D"/>
<path d="M25.2676 103.996C25.2676 102.302 26.6408 100.928 28.3349 100.928C30.0289 100.928 31.4021 102.302 31.4021 103.996C31.4021 117.628 42.4536 128.68 56.0864 128.68C69.7191 128.68 80.7706 117.628 80.7706 103.996C80.7706 90.3628 69.7191 79.3113 56.0864 79.3113C54.3924 79.3113 53.0191 77.938 53.0191 76.244C53.0191 74.55 54.3924 73.1768 56.0864 73.1768C73.1071 73.1768 86.9052 86.9748 86.9052 103.996C86.9052 121.016 73.1071 134.814 56.0864 134.814C39.0656 134.814 25.2676 121.016 25.2676 103.996Z" fill="#C74D75"/>
<path d="M56.0882 141.241C35.5181 141.241 18.8428 124.566 18.8428 103.995C18.8428 83.4254 35.5181 66.75 56.0882 66.75C76.6583 66.75 93.3337 83.4254 93.3337 103.995C93.3337 124.566 76.6583 141.241 56.0882 141.241ZM56.0882 138.028C74.8837 138.028 90.1204 122.791 90.1204 103.995C90.1204 85.2 74.8837 69.9633 56.0882 69.9633C37.2928 69.9633 22.0561 85.2 22.0561 103.995C22.0561 122.791 37.2928 138.028 56.0882 138.028Z" fill="#6F7981"/>
<path d="M86.1766 72.1534C90.2099 72.1534 93.4796 68.8837 93.4796 64.8504C93.4796 60.817 90.2099 57.5474 86.1766 57.5474C82.1432 57.5474 78.8735 60.817 78.8735 64.8504C78.8735 68.8837 82.1432 72.1534 86.1766 72.1534Z" fill="#6F7981"/>
<path d="M25.9991 72.1534C30.0324 72.1534 33.3021 68.8837 33.3021 64.8504C33.3021 60.817 30.0324 57.5474 25.9991 57.5474C21.9657 57.5474 18.696 60.817 18.696 64.8504C18.696 68.8837 21.9657 72.1534 25.9991 72.1534Z" fill="#6F7981"/>
<path fill-rule="evenodd" clip-rule="evenodd" d="M53.1135 101.924L56.3238 104.09L55.8338 104.816L52.6234 102.651C52.1883 102.973 51.5801 103.004 51.1056 102.684L39.7231 95.0065C39.1213 94.6006 38.9625 93.7835 39.3684 93.1816C39.7744 92.5798 40.5914 92.4209 41.1933 92.8269L52.5758 100.504C53.0503 100.825 53.2494 101.4 53.1135 101.924Z" fill="#E6E6EF"/>
<path fill-rule="evenodd" clip-rule="evenodd" d="M59.4431 102.6L56.3103 104.876L55.7952 104.167L58.928 101.891C58.7739 101.372 58.9528 100.79 59.4158 100.453L82.34 83.798C82.9273 83.3713 83.7494 83.5015 84.1761 84.0888C84.6029 84.6762 84.4726 85.4983 83.8853 85.925L60.9612 102.58C60.4981 102.917 59.8892 102.907 59.4431 102.6Z" fill="#E6E6EF"/>
<path fill-rule="evenodd" clip-rule="evenodd" d="M22.3476 145.185H89.8276C91.8442 145.185 93.4791 146.819 93.4791 148.836C93.4791 150.853 91.8442 152.488 89.8276 152.488H22.3476C20.3309 152.488 18.696 150.853 18.696 148.836C18.696 146.819 20.3309 145.185 22.3476 145.185Z" fill="#6F7981"/>
<path fill-rule="evenodd" clip-rule="evenodd" d="M56.0862 97.8608C56.4089 97.8608 56.6704 98.1224 56.6704 98.4451V139.926C56.6704 140.249 56.4089 140.511 56.0862 140.511C55.7635 140.511 55.502 140.249 55.502 139.926V98.4451C55.502 98.1224 55.7635 97.8608 56.0862 97.8608Z" fill="#FF6663"/>
<path d="M56.0866 106.041C57.2159 106.041 58.1314 105.125 58.1314 103.996C58.1314 102.867 57.2159 101.951 56.0866 101.951C54.9573 101.951 54.0417 102.867 54.0417 103.996C54.0417 105.125 54.9573 106.041 56.0866 106.041Z" fill="#E6E6EF" stroke="#FF6663" stroke-width="3"/>
<path d="M112.176 70.1089H114.513C116.61 70.1089 118.31 71.8091 118.31 73.9065V89.681C118.31 91.7784 116.61 93.4786 114.513 93.4786H112.176C110.228 91.5642 109.254 87.6692 109.254 81.7937C109.254 75.9182 110.228 72.0233 112.176 70.1089Z" fill="#E6E6EF"/>
<path d="M112.176 70.1089H114.513C116.61 70.1089 118.31 71.8091 118.31 73.9065V89.681C118.31 91.7784 116.61 93.4786 114.513 93.4786H112.176C110.228 91.5642 109.254 87.6692 109.254 81.7937C109.254 75.9182 110.228 72.0233 112.176 70.1089Z" fill="url(#paint5_linear)"/>
<defs>
<linearGradient id="paint0_linear" x1="56.0881" y1="166.51" x2="56.0881" y2="212.081" gradientUnits="userSpaceOnUse">
<stop stop-color="#B6C5D9" stop-opacity="0.8"/>
<stop offset="1" stop-color="#D6DFEA" stop-opacity="0"/>
</linearGradient>
<linearGradient id="paint1_linear" x1="64.0132" y1="45.5709" x2="64.0132" y2="7.96642e-08" gradientUnits="userSpaceOnUse">
<stop stop-color="#B6C5D9" stop-opacity="0.8"/>
<stop offset="1" stop-color="#D6DFEA" stop-opacity="0"/>
</linearGradient>
<linearGradient id="paint2_linear" x1="56.0873" y1="41.4814" x2="56.0873" y2="170.599" gradientUnits="userSpaceOnUse">
<stop stop-color="#F2F5F9" stop-opacity="0"/>
<stop offset="1" stop-color="#D6DFEA"/>
</linearGradient>
<linearGradient id="paint3_linear" x1="56.0867" y1="46.1558" x2="56.0867" y2="165.925" gradientUnits="userSpaceOnUse">
<stop stop-color="#393E41" stop-opacity="0"/>
<stop offset="1" stop-opacity="0.2"/>
</linearGradient>
<linearGradient id="paint4_linear" x1="113.635" y1="125.757" x2="112.175" y2="125.757" gradientUnits="userSpaceOnUse">
<stop stop-color="white" stop-opacity="0"/>
<stop offset="1" stop-color="#B6C5D9"/>
</linearGradient>
<linearGradient id="paint5_linear" x1="118.31" y1="81.7937" x2="109.254" y2="81.7937" gradientUnits="userSpaceOnUse">
<stop stop-color="white" stop-opacity="0"/>
<stop offset="1" stop-color="#B6C5D9"/>
</linearGradient>
</defs>
</svg>
