<svg width="181" height="188" viewBox="0 0 181 188" fill="none" xmlns="http://www.w3.org/2000/svg">
<path d="M89.7422 87.8147L96.48 79.2915L95.2896 93.6031L117.18 79.2915L106.78 97.4117L104.69 101.052L106.5 104.852L115.5 123.682L95.06 119.392L90.94 118.522L87.94 121.432L48.06 187.652L70.59 115.102L70.14 110.922L66.44 108.922L48.06 98.9816L67.5123 65.7313L89.7422 87.8147L106.5 104.852L0 74.1617L67.2 64.8967L89.7422 87.8147ZM70.55 46.6516L64.5 84.6516L181 118.522L62.63 115.962L129.8 20.6516L93.49 127.262L129.8 134.892L105.28 121.537L0 135.832L89.7422 87.8147L71.9422 0L70.55 46.6516Z" fill="#F2C74E"/>
<rect x="74" y="78.6523" width="20" height="38" fill="#F2C74E"/>
<rect x="64" y="65.6523" width="20" height="40" fill="#F2C74E"/>
<rect x="84" y="88.6523" width="20" height="40" fill="#F2C74E"/>
</svg>
