<svg width="179" height="241" viewBox="0 0 179 241" fill="none" xmlns="http://www.w3.org/2000/svg">
<rect width="79.0425" height="5.30552" transform="matrix(0.660734 -0.75062 0.84913 0.528184 39.3047 161.811)" fill="#FF9482"/>
<rect width="74.3634" height="7.0608" transform="matrix(0.225289 -0.974292 0.986912 0.161262 35.0156 163.422)" fill="#FF9482"/>
<rect width="59.5069" height="7.09493" transform="matrix(-0.0725667 -0.997364 0.998681 -0.0513469 35.0312 163.451)" fill="#FF9482"/>
<rect width="75.4141" height="6.98758" transform="matrix(0.379044 -0.925379 0.96057 0.278037 36.7871 165.139)" fill="#FF9482"/>
<path d="M116.23 19.3428C121.571 19.3428 125.901 15.0128 125.901 9.6714C125.901 4.33003 121.571 0 116.23 0C110.889 0 106.559 4.33003 106.559 9.6714C106.559 15.0128 110.889 19.3428 116.23 19.3428Z" fill="#F6D264"/>
<path d="M95.9484 34.8166C101.809 34.8166 106.561 30.0653 106.561 24.2042C106.561 18.3431 101.809 13.5918 95.9484 13.5918C90.0873 13.5918 85.3359 18.3431 85.3359 24.2042C85.3359 30.0653 90.0873 34.8166 95.9484 34.8166Z" fill="#F6D264"/>
<path d="M72.7366 23.4732C76.5477 23.4732 79.6372 20.3837 79.6372 16.5726C79.6372 12.7614 76.5477 9.67188 72.7366 9.67188C68.9254 9.67188 65.8359 12.7614 65.8359 16.5726C65.8359 20.3837 68.9254 23.4732 72.7366 23.4732Z" fill="#F6D264"/>
<path d="M79.8984 39.5213C82.4969 39.5213 84.6034 37.4148 84.6034 34.8163C84.6034 32.2178 82.4969 30.1113 79.8984 30.1113C77.2999 30.1113 75.1934 32.2178 75.1934 34.8163C75.1934 37.4148 77.2999 39.5213 79.8984 39.5213Z" fill="#F6D264"/>
<path d="M117.904 41.0896C121.369 41.0896 124.178 38.281 124.178 34.8163C124.178 31.3516 121.369 28.543 117.904 28.543C114.44 28.543 111.631 31.3516 111.631 34.8163C111.631 38.281 114.44 41.0896 117.904 41.0896Z" fill="#F6D264"/>
<path d="M138.451 39.9915C143.908 39.9915 148.331 35.5678 148.331 30.111C148.331 24.6541 143.908 20.2305 138.451 20.2305C132.994 20.2305 128.57 24.6541 128.57 30.111C128.57 35.5678 132.994 39.9915 138.451 39.9915Z" fill="#F6D264"/>
<path d="M157.583 33.6672C161.249 33.6672 164.222 30.6947 164.222 27.028C164.222 23.3612 161.249 20.3887 157.583 20.3887C153.916 20.3887 150.943 23.3612 150.943 27.028C150.943 30.6947 153.916 33.6672 157.583 33.6672Z" fill="#F6D264"/>
<path d="M164.223 48.618C165.06 48.618 165.739 47.9393 165.739 47.102C165.739 46.2647 165.06 45.5859 164.223 45.5859C163.386 45.5859 162.707 46.2647 162.707 47.102C162.707 47.9393 163.386 48.618 164.223 48.618Z" fill="#F6D264"/>
<path d="M150.997 53.0092C153.422 53.0092 155.388 51.0432 155.388 48.6179C155.388 46.1926 153.422 44.2266 150.997 44.2266C148.571 44.2266 146.605 46.1926 146.605 48.6179C146.605 51.0432 148.571 53.0092 150.997 53.0092Z" fill="#F6D264"/>
<path d="M136.358 55.5705C137.773 55.5705 138.92 54.4236 138.92 53.0089C138.92 51.5942 137.773 50.4473 136.358 50.4473C134.944 50.4473 133.797 51.5942 133.797 53.0089C133.797 54.4236 134.944 55.5705 136.358 55.5705Z" fill="#F6D264"/>
<path d="M117.905 58.1843C119.983 58.1843 121.669 56.499 121.669 54.4202C121.669 52.3414 119.983 50.6562 117.905 50.6562C115.826 50.6562 114.141 52.3414 114.141 54.4202C114.141 56.499 115.826 58.1843 117.905 58.1843Z" fill="#F6D264"/>
<path d="M125.902 69.4241C127.375 69.4241 128.569 68.2305 128.569 66.758C128.569 65.2855 127.375 64.0918 125.902 64.0918C124.43 64.0918 123.236 65.2855 123.236 66.758C123.236 68.2305 124.43 69.4241 125.902 69.4241Z" fill="#F6D264"/>
<path d="M137.143 75.3843C137.836 75.3843 138.398 74.8226 138.398 74.1297C138.398 73.4367 137.836 72.875 137.143 72.875C136.45 72.875 135.889 73.4367 135.889 74.1297C135.889 74.8226 136.45 75.3843 137.143 75.3843Z" fill="#F6D264"/>
<path d="M161.714 101.681C163.1 101.681 164.224 100.557 164.224 99.1714C164.224 97.7856 163.1 96.6621 161.714 96.6621C160.329 96.6621 159.205 97.7856 159.205 99.1714C159.205 100.557 160.329 101.681 161.714 101.681Z" fill="#F6D264"/>
<path d="M168.405 111.927C169.473 111.927 170.339 111.061 170.339 109.993C170.339 108.925 169.473 108.059 168.405 108.059C167.337 108.059 166.471 108.925 166.471 109.993C166.471 111.061 167.337 111.927 168.405 111.927Z" fill="#F6D264"/>
<path d="M159.256 128.133C160.238 128.133 161.033 127.337 161.033 126.356C161.033 125.374 160.238 124.578 159.256 124.578C158.274 124.578 157.479 125.374 157.479 126.356C157.479 127.337 158.274 128.133 159.256 128.133Z" fill="#F6D264"/>
<path d="M171.907 94.622C174.101 94.622 175.88 92.8432 175.88 90.6489C175.88 88.4546 174.101 86.6758 171.907 86.6758C169.712 86.6758 167.934 88.4546 167.934 90.6489C167.934 92.8432 169.712 94.622 171.907 94.622Z" fill="#F6D264"/>
<path d="M173.999 71.3073C176.511 71.3073 178.548 69.271 178.548 66.7591C178.548 64.2472 176.511 62.2109 173.999 62.2109C171.487 62.2109 169.451 64.2472 169.451 66.7591C169.451 69.271 171.487 71.3073 173.999 71.3073Z" fill="#F6D264"/>
<path d="M168.406 56.3543C170.542 56.3543 172.274 54.6223 172.274 52.4858C172.274 50.3492 170.542 48.6172 168.406 48.6172C166.269 48.6172 164.537 50.3492 164.537 52.4858C164.537 54.6223 166.269 56.3543 168.406 56.3543Z" fill="#F6D264"/>
<path d="M104.992 64.3007C105.858 64.3007 106.56 63.5986 106.56 62.7324C106.56 61.8662 105.858 61.1641 104.992 61.1641C104.126 61.1641 103.424 61.8662 103.424 62.7324C103.424 63.5986 104.126 64.3007 104.992 64.3007Z" fill="#F6D264"/>
<path d="M84.6046 60.5373C87.3763 60.5373 89.6233 58.2904 89.6233 55.5187C89.6233 52.7469 87.3763 50.5 84.6046 50.5C81.8329 50.5 79.5859 52.7469 79.5859 55.5187C79.5859 58.2904 81.8329 60.5373 84.6046 60.5373Z" fill="#F6D264"/>
<path d="M70.1242 50.2386C72.0297 50.2386 73.5745 48.6938 73.5745 46.7882C73.5745 44.8826 72.0297 43.3379 70.1242 43.3379C68.2186 43.3379 66.6738 44.8826 66.6738 46.7882C66.6738 48.6938 68.2186 50.2386 70.1242 50.2386Z" fill="#F6D264"/>
<path d="M58.2542 52.5903C59.3513 52.5903 60.2407 51.7009 60.2407 50.6038C60.2407 49.5066 59.3513 48.6172 58.2542 48.6172C57.157 48.6172 56.2676 49.5066 56.2676 50.6038C56.2676 51.7009 57.157 52.5903 58.2542 52.5903Z" fill="#F6D264"/>
<path d="M58.2551 35.5491C59.2945 35.5491 60.1371 34.7066 60.1371 33.6672C60.1371 32.6278 59.2945 31.7852 58.2551 31.7852C57.2157 31.7852 56.373 32.6278 56.373 33.6672C56.373 34.7066 57.2157 35.5491 58.2551 35.5491Z" fill="#F6D264"/>
<path d="M72.7356 73.5024C73.3997 73.5024 73.938 72.9641 73.938 72.3001C73.938 71.636 73.3997 71.0977 72.7356 71.0977C72.0716 71.0977 71.5332 71.636 71.5332 72.3001C71.5332 72.9641 72.0716 73.5024 72.7356 73.5024Z" fill="#F6D264"/>
<path d="M149.691 24.99C153.156 24.99 155.965 22.1814 155.965 18.7167C155.965 15.252 153.156 12.4434 149.691 12.4434C146.227 12.4434 143.418 15.252 143.418 18.7167C143.418 22.1814 146.227 24.99 149.691 24.99Z" fill="white"/>
<path d="M125.906 29.0679C127.032 29.0679 127.945 28.1551 127.945 27.0291C127.945 25.903 127.032 24.9902 125.906 24.9902C124.78 24.9902 123.867 25.903 123.867 27.0291C123.867 28.1551 124.78 29.0679 125.906 29.0679Z" fill="white"/>
<path d="M113.673 28.3871C116.936 28.3871 119.58 25.7422 119.58 22.4797C119.58 19.2171 116.936 16.5723 113.673 16.5723C110.41 16.5723 107.766 19.2171 107.766 22.4797C107.766 25.7422 110.41 28.3871 113.673 28.3871Z" fill="white"/>
<path d="M130.087 20.807C134.707 20.807 138.452 17.0621 138.452 12.4426C138.452 7.82302 134.707 4.07812 130.087 4.07812C125.468 4.07812 121.723 7.82302 121.723 12.4426C121.723 17.0621 125.468 20.807 130.087 20.807Z" fill="white"/>
<path d="M143.418 44.3318C146.883 44.3318 149.691 41.5232 149.691 38.0585C149.691 34.5938 146.883 31.7852 143.418 31.7852C139.953 31.7852 137.145 34.5938 137.145 38.0585C137.145 41.5232 139.953 44.3318 143.418 44.3318Z" fill="white"/>
<path d="M157.586 45.6385C158.827 45.6385 159.834 44.632 159.834 43.3905C159.834 42.149 158.827 41.1426 157.586 41.1426C156.344 41.1426 155.338 42.149 155.338 43.3905C155.338 44.632 156.344 45.6385 157.586 45.6385Z" fill="white"/>
<path d="M155.34 59.492C156.581 59.492 157.588 58.4855 157.588 57.244C157.588 56.0025 156.581 54.9961 155.34 54.9961C154.098 54.9961 153.092 56.0025 153.092 57.244C153.092 58.4855 154.098 59.492 155.34 59.492Z" fill="white"/>
<path d="M159.834 83.9584C160.469 83.9584 160.984 83.4435 160.984 82.8083C160.984 82.1731 160.469 81.6582 159.834 81.6582C159.198 81.6582 158.684 82.1731 158.684 82.8083C158.684 83.4435 159.198 83.9584 159.834 83.9584Z" fill="white"/>
<path d="M164.224 76.6398C165.61 76.6398 166.734 75.5163 166.734 74.1304C166.734 72.7446 165.61 71.6211 164.224 71.6211C162.838 71.6211 161.715 72.7446 161.715 74.1304C161.715 75.5163 162.838 76.6398 164.224 76.6398Z" fill="white"/>
<path d="M146.084 72.3015C147.297 72.3015 148.28 71.3184 148.28 70.1058C148.28 68.8932 147.297 67.9102 146.084 67.9102C144.872 67.9102 143.889 68.8932 143.889 70.1058C143.889 71.3184 144.872 72.3015 146.084 72.3015Z" fill="white"/>
<path d="M134.009 59.6493C135.28 59.6493 136.309 58.6194 136.309 57.349C136.309 56.0787 135.28 55.0488 134.009 55.0488C132.739 55.0488 131.709 56.0787 131.709 57.349C131.709 58.6194 132.739 59.6493 134.009 59.6493Z" fill="white"/>
<path d="M113.673 54.4213C114.741 54.4213 115.607 53.5553 115.607 52.487C115.607 51.4187 114.741 50.5527 113.673 50.5527C112.604 50.5527 111.738 51.4187 111.738 52.487C111.738 53.5553 112.604 54.4213 113.673 54.4213Z" fill="white"/>
<path d="M117.175 68.6415C117.579 68.6415 117.907 68.3138 117.907 67.9096C117.907 67.5054 117.579 67.1777 117.175 67.1777C116.771 67.1777 116.443 67.5054 116.443 67.9096C116.443 68.3138 116.771 68.6415 117.175 68.6415Z" fill="white"/>
<path d="M97.3084 66.8121C98.4344 66.8121 99.3472 65.8992 99.3472 64.7732C99.3472 63.6472 98.4344 62.7344 97.3084 62.7344C96.1824 62.7344 95.2695 63.6472 95.2695 64.7732C95.2695 65.8992 96.1824 66.8121 97.3084 66.8121Z" fill="white"/>
<path d="M95.271 58.1338C98.3892 58.1338 100.917 55.606 100.917 52.4878C100.917 49.3696 98.3892 46.8418 95.271 46.8418C92.1528 46.8418 89.625 49.3696 89.625 52.4878C89.625 55.606 92.1528 58.1338 95.271 58.1338Z" fill="white"/>
<path d="M79.5351 45.6385C80.7766 45.6385 81.7831 44.632 81.7831 43.3905C81.7831 42.149 80.7766 41.1426 79.5351 41.1426C78.2936 41.1426 77.2871 42.149 77.2871 43.3905C77.2871 44.632 78.2936 45.6385 79.5351 45.6385Z" fill="white"/>
<path d="M89.6239 36.0719C90.8077 36.0719 91.7673 35.1123 91.7673 33.9285C91.7673 32.7448 90.8077 31.7852 89.6239 31.7852C88.4401 31.7852 87.4805 32.7448 87.4805 33.9285C87.4805 35.1123 88.4401 36.0719 89.6239 36.0719Z" fill="white"/>
<path d="M74.9877 29.329C76.2581 29.329 77.2879 28.2991 77.2879 27.0287C77.2879 25.7584 76.2581 24.7285 74.9877 24.7285C73.7174 24.7285 72.6875 25.7584 72.6875 27.0287C72.6875 28.2991 73.7174 29.329 74.9877 29.329Z" fill="white"/>
<path d="M89.6241 24.2052C94.9944 24.2052 99.3478 19.8517 99.3478 14.4815C99.3478 9.11125 94.9944 4.75781 89.6241 4.75781C84.2539 4.75781 79.9004 9.11125 79.9004 14.4815C79.9004 19.8517 84.2539 24.2052 89.6241 24.2052Z" fill="white"/>
<path d="M104.993 15.2133C106.524 15.2133 107.764 13.9728 107.764 12.4426C107.764 10.9124 106.524 9.67188 104.993 9.67188C103.463 9.67188 102.223 10.9124 102.223 12.4426C102.223 13.9728 103.463 15.2133 104.993 15.2133Z" fill="white"/>
<path d="M102.172 44.3318C105.636 44.3318 108.445 41.5232 108.445 38.0585C108.445 34.5938 105.636 31.7852 102.172 31.7852C98.7071 31.7852 95.8984 34.5938 95.8984 38.0585C95.8984 41.5232 98.7071 44.3318 102.172 44.3318Z" fill="white"/>
<path d="M64.531 40.0972C65.6571 40.0972 66.5698 39.1844 66.5698 38.0584C66.5698 36.9323 65.6571 36.0195 64.531 36.0195C63.405 36.0195 62.4922 36.9323 62.4922 38.0584C62.4922 39.1844 63.405 40.0972 64.531 40.0972Z" fill="white"/>
<path d="M117.907 39.7305C118.831 39.7305 119.58 38.9816 119.58 38.0577C119.58 37.1338 118.831 36.3848 117.907 36.3848C116.983 36.3848 116.234 37.1338 116.234 38.0577C116.234 38.9816 116.983 39.7305 117.907 39.7305Z" fill="white"/>
<path d="M127.944 47.155C130.022 47.155 131.708 45.4697 131.708 43.3909C131.708 41.3121 130.022 39.627 127.944 39.627C125.865 39.627 124.18 41.3121 124.18 43.3909C124.18 45.4697 125.865 47.155 127.944 47.155Z" fill="white"/>
<path d="M155.912 37.5881C159.117 37.5881 161.715 34.9901 161.715 31.7853C161.715 28.5804 159.117 25.9824 155.912 25.9824C152.707 25.9824 150.109 28.5804 150.109 31.7853C150.109 34.9901 152.707 37.5881 155.912 37.5881Z" fill="white"/>
<path d="M176.456 67.6477C175.097 60.6948 168.353 56.1466 161.452 57.5058C154.499 58.865 149.951 65.5566 151.31 72.5095C151.363 72.7187 155.388 94.8322 148.801 123.01C140.175 160.179 118.009 190.082 82.9309 211.882C75.6643 216.43 66.9862 216.326 59.7718 211.621C52.7143 207.02 49.1595 199.336 50.3096 191.023C52.6621 173.876 70.1229 154.22 99.4507 135.713C100.914 134.772 102.692 134.406 104.417 134.72C105.776 134.929 106.926 135.504 107.92 136.341C113.095 129.806 120.362 125.467 127.21 120.71C122.819 114.855 116.441 110.725 108.495 109.418C100.601 108.163 92.5501 109.784 85.8062 114.07C67.0385 125.937 52.3484 138.327 42.1542 150.979C32.4306 163.002 26.68 175.288 24.9548 187.521C22.4455 205.661 30.444 223.122 45.866 233.107C53.7599 238.23 62.6994 240.844 71.6389 240.844C80.2648 240.844 88.8383 238.439 96.5754 233.63C119.264 219.515 137.666 202.002 151.153 181.666C162.027 165.303 169.764 147.11 174.156 127.61C181.475 94.4139 176.665 68.7456 176.456 67.6477Z" fill="#84CEBE"/>
<path d="M71.5334 240.844C62.5939 240.844 53.7067 238.283 45.7605 233.107C30.3385 223.122 22.34 205.661 24.8494 187.521C26.5222 175.288 32.3251 163.002 42.0488 150.979C52.2429 138.327 66.933 125.937 85.7007 114.07C92.4446 109.784 100.495 108.163 108.389 109.418C124.073 111.927 133.535 125.519 133.849 141.359C133.901 145.803 130.973 148.103 128.987 152.129C123.445 163.264 108.285 185.325 83.0869 195.101C76.4999 197.663 69.0764 194.369 66.5148 187.782C63.9531 181.195 67.2466 173.772 73.8336 171.21C93.281 163.682 107.448 147.946 110.062 142.666C110.219 142.353 110.324 141.987 110.324 141.621C110.271 138.17 107.762 135.243 104.364 134.72C102.639 134.459 100.914 134.825 99.3975 135.713C70.0697 154.22 52.6089 173.876 50.2564 191.023C49.1063 199.336 52.6611 207.02 59.7186 211.621C66.933 216.326 75.6111 216.43 82.8777 211.882C117.956 190.03 140.122 160.127 148.748 123.01C155.283 94.8322 151.257 72.7187 151.257 72.5095C149.898 65.5566 154.446 58.865 161.399 57.5058C168.352 56.1466 175.096 60.6948 176.403 67.6477C176.612 68.7456 181.474 94.4139 173.998 127.61C169.607 147.11 161.869 165.303 150.996 181.666C137.456 202.002 119.106 219.515 96.4177 233.63C88.7329 238.439 80.1592 240.844 71.5334 240.844Z" fill="#0E9678"/>
<path d="M65.2428 32.2503V7.08594L45.7275 21.7651C45.7275 21.7651 23.7532 17.5711 11.8766 35.7628C-2.5946e-05 53.9545 0 63.5484 0 63.5484H2.45901C2.45901 63.5484 1.04637 87.2448 40.1293 81.7401L65.2428 76.7073L61.999 89.8137C60.4817 95.9999 65.1381 102.029 71.5212 102.029C75.8637 102.029 79.683 99.1455 80.9387 95.0039L85.4906 79.6431C85.4906 79.6431 92.4491 90.4952 123.527 84.2566L122.533 88.1361C121.277 93.0117 124.73 97.8873 129.805 98.2018C133.52 98.4639 136.921 96.1048 138.02 92.5398L141.368 81.6877H158.11H178.672L177.626 66.8512C176.108 45.881 164.493 26.798 146.286 16.4177C139.432 12.5382 131.951 9.96935 124.26 9.13054C110.97 7.71504 97.5764 9.44509 85.072 14.1634C76.3346 17.5187 69.2714 23.967 65.2428 32.2503Z" fill="#0E9678"/>
<path d="M115.03 129.964C113.514 131.009 108.286 134.355 108.443 136.551C108.495 137.544 110.168 139.06 110.429 140.262C110.795 141.726 110.743 143.347 110.482 144.811C109.279 152.443 103.79 158.821 97.3599 163.108C90.9297 167.395 83.5063 169.904 76.3442 172.727C73.9917 173.616 71.6392 174.609 69.7049 176.177C67.7706 177.746 66.2546 180.046 66.2023 182.555C66.1501 185.326 67.8752 187.94 70.2277 189.456C72.5802 190.972 75.4032 191.547 78.174 191.756C89.5705 192.593 100.706 187.469 109.802 180.516C120.885 172.047 129.824 160.285 132.961 146.745C133.954 142.301 134.373 137.701 133.536 133.205C133.066 130.539 132.125 127.925 130.765 125.572C130.243 124.684 129.197 122.645 128.204 122.174C126.949 121.599 126.008 122.697 124.858 123.429C121.617 125.677 118.271 127.768 115.03 129.964Z" fill="#0E9678"/>
<path d="M177.553 70.5758C176.194 63.6228 168.352 56.1994 161.399 57.5063C154.446 58.8655 149.898 65.5571 151.257 72.5101C151.31 72.7192 155.335 94.8327 148.748 123.01C140.122 160.18 117.956 190.083 82.8779 211.883C75.6113 216.431 66.9332 216.326 59.7188 211.621C57.7323 210.314 55.6412 209.112 54.2297 207.335C47.7995 212.981 41.0557 217.424 33.7891 221.92C37.0303 226.207 41.0557 230.023 45.813 233.108C53.7069 238.231 62.6464 240.845 71.586 240.845C80.2118 240.845 88.7853 238.44 96.5224 233.63C119.211 219.515 137.613 202.002 151.101 181.666C161.974 165.303 169.711 147.11 174.103 127.611C181.474 94.4145 177.762 71.6213 177.553 70.5758Z" fill="#0E9678"/>
<path d="M27.2866 50.4449C32.0347 50.4449 35.8838 46.7631 35.8838 42.2215C35.8838 37.6798 32.0347 33.998 27.2866 33.998C22.5385 33.998 18.6895 37.6798 18.6895 42.2215C18.6895 46.7631 22.5385 50.4449 27.2866 50.4449Z" fill="white"/>
<path d="M24.2953 45.9597C26.5661 45.9597 28.407 44.1189 28.407 41.848C28.407 39.5772 26.5661 37.7363 24.2953 37.7363C22.0245 37.7363 20.1836 39.5772 20.1836 41.848C20.1836 44.1189 22.0245 45.9597 24.2953 45.9597Z" fill="#0E4067"/>
<path d="M159.983 146.884C161.222 146.884 162.226 145.88 162.226 144.641C162.226 143.403 161.222 142.398 159.983 142.398C158.744 142.398 157.74 143.403 157.74 144.641C157.74 145.88 158.744 146.884 159.983 146.884Z" fill="#F5D4C5"/>
<path d="M116.23 19.3428C121.571 19.3428 125.901 15.0128 125.901 9.6714C125.901 4.33003 121.571 0 116.23 0C110.889 0 106.559 4.33003 106.559 9.6714C106.559 15.0128 110.889 19.3428 116.23 19.3428Z" fill="#E36162"/>
<path d="M95.9484 34.8166C101.809 34.8166 106.561 30.0653 106.561 24.2042C106.561 18.3431 101.809 13.5918 95.9484 13.5918C90.0873 13.5918 85.3359 18.3431 85.3359 24.2042C85.3359 30.0653 90.0873 34.8166 95.9484 34.8166Z" fill="#E36162"/>
<path d="M72.7366 23.4732C76.5477 23.4732 79.6372 20.3837 79.6372 16.5726C79.6372 12.7614 76.5477 9.67188 72.7366 9.67188C68.9254 9.67188 65.8359 12.7614 65.8359 16.5726C65.8359 20.3837 68.9254 23.4732 72.7366 23.4732Z" fill="#E36162"/>
<path d="M79.8984 39.5213C82.4969 39.5213 84.6034 37.4148 84.6034 34.8163C84.6034 32.2178 82.4969 30.1113 79.8984 30.1113C77.2999 30.1113 75.1934 32.2178 75.1934 34.8163C75.1934 37.4148 77.2999 39.5213 79.8984 39.5213Z" fill="#E36162"/>
<path d="M117.904 41.0896C121.369 41.0896 124.178 38.281 124.178 34.8163C124.178 31.3516 121.369 28.543 117.904 28.543C114.44 28.543 111.631 31.3516 111.631 34.8163C111.631 38.281 114.44 41.0896 117.904 41.0896Z" fill="#E36162"/>
<path d="M138.451 39.9915C143.908 39.9915 148.331 35.5678 148.331 30.111C148.331 24.6541 143.908 20.2305 138.451 20.2305C132.994 20.2305 128.57 24.6541 128.57 30.111C128.57 35.5678 132.994 39.9915 138.451 39.9915Z" fill="#E36162"/>
<path d="M157.583 33.6672C161.249 33.6672 164.222 30.6947 164.222 27.028C164.222 23.3612 161.249 20.3887 157.583 20.3887C153.916 20.3887 150.943 23.3612 150.943 27.028C150.943 30.6947 153.916 33.6672 157.583 33.6672Z" fill="#E36162"/>
<path d="M164.223 48.618C165.06 48.618 165.739 47.9393 165.739 47.102C165.739 46.2647 165.06 45.5859 164.223 45.5859C163.386 45.5859 162.707 46.2647 162.707 47.102C162.707 47.9393 163.386 48.618 164.223 48.618Z" fill="#E36162"/>
<path d="M150.997 53.0092C153.422 53.0092 155.388 51.0432 155.388 48.6179C155.388 46.1926 153.422 44.2266 150.997 44.2266C148.571 44.2266 146.605 46.1926 146.605 48.6179C146.605 51.0432 148.571 53.0092 150.997 53.0092Z" fill="#E36162"/>
<path d="M136.358 55.5705C137.773 55.5705 138.92 54.4236 138.92 53.0089C138.92 51.5942 137.773 50.4473 136.358 50.4473C134.944 50.4473 133.797 51.5942 133.797 53.0089C133.797 54.4236 134.944 55.5705 136.358 55.5705Z" fill="#E36162"/>
<path d="M117.905 58.1843C119.983 58.1843 121.669 56.499 121.669 54.4202C121.669 52.3414 119.983 50.6562 117.905 50.6562C115.826 50.6562 114.141 52.3414 114.141 54.4202C114.141 56.499 115.826 58.1843 117.905 58.1843Z" fill="#E36162"/>
<path d="M125.902 69.4241C127.375 69.4241 128.569 68.2305 128.569 66.758C128.569 65.2855 127.375 64.0918 125.902 64.0918C124.43 64.0918 123.236 65.2855 123.236 66.758C123.236 68.2305 124.43 69.4241 125.902 69.4241Z" fill="#E36162"/>
<path d="M137.143 75.3843C137.836 75.3843 138.398 74.8226 138.398 74.1297C138.398 73.4367 137.836 72.875 137.143 72.875C136.45 72.875 135.889 73.4367 135.889 74.1297C135.889 74.8226 136.45 75.3843 137.143 75.3843Z" fill="#E36162"/>
<path d="M161.714 101.681C163.1 101.681 164.224 100.557 164.224 99.1714C164.224 97.7856 163.1 96.6621 161.714 96.6621C160.329 96.6621 159.205 97.7856 159.205 99.1714C159.205 100.557 160.329 101.681 161.714 101.681Z" fill="#E36162"/>
<path d="M168.405 111.927C169.473 111.927 170.339 111.061 170.339 109.993C170.339 108.925 169.473 108.059 168.405 108.059C167.337 108.059 166.471 108.925 166.471 109.993C166.471 111.061 167.337 111.927 168.405 111.927Z" fill="#E36162"/>
<path d="M159.256 128.133C160.238 128.133 161.033 127.337 161.033 126.356C161.033 125.374 160.238 124.578 159.256 124.578C158.274 124.578 157.479 125.374 157.479 126.356C157.479 127.337 158.274 128.133 159.256 128.133Z" fill="#E36162"/>
<path d="M171.907 94.622C174.101 94.622 175.88 92.8432 175.88 90.6489C175.88 88.4546 174.101 86.6758 171.907 86.6758C169.712 86.6758 167.934 88.4546 167.934 90.6489C167.934 92.8432 169.712 94.622 171.907 94.622Z" fill="#E36162"/>
<path d="M173.999 71.3073C176.511 71.3073 178.548 69.271 178.548 66.7591C178.548 64.2472 176.511 62.2109 173.999 62.2109C171.487 62.2109 169.451 64.2472 169.451 66.7591C169.451 69.271 171.487 71.3073 173.999 71.3073Z" fill="#E36162"/>
<path d="M168.406 56.3543C170.542 56.3543 172.274 54.6223 172.274 52.4858C172.274 50.3492 170.542 48.6172 168.406 48.6172C166.269 48.6172 164.537 50.3492 164.537 52.4858C164.537 54.6223 166.269 56.3543 168.406 56.3543Z" fill="#E36162"/>
<path d="M104.992 64.3007C105.858 64.3007 106.56 63.5986 106.56 62.7324C106.56 61.8662 105.858 61.1641 104.992 61.1641C104.126 61.1641 103.424 61.8662 103.424 62.7324C103.424 63.5986 104.126 64.3007 104.992 64.3007Z" fill="#E36162"/>
<path d="M84.6046 60.5373C87.3763 60.5373 89.6233 58.2904 89.6233 55.5187C89.6233 52.7469 87.3763 50.5 84.6046 50.5C81.8329 50.5 79.5859 52.7469 79.5859 55.5187C79.5859 58.2904 81.8329 60.5373 84.6046 60.5373Z" fill="#E36162"/>
<path d="M70.1242 50.2386C72.0297 50.2386 73.5745 48.6938 73.5745 46.7882C73.5745 44.8826 72.0297 43.3379 70.1242 43.3379C68.2186 43.3379 66.6738 44.8826 66.6738 46.7882C66.6738 48.6938 68.2186 50.2386 70.1242 50.2386Z" fill="#E36162"/>
<path d="M58.2542 52.5903C59.3513 52.5903 60.2407 51.7009 60.2407 50.6038C60.2407 49.5066 59.3513 48.6172 58.2542 48.6172C57.157 48.6172 56.2676 49.5066 56.2676 50.6038C56.2676 51.7009 57.157 52.5903 58.2542 52.5903Z" fill="#E36162"/>
<path d="M58.2551 35.5491C59.2945 35.5491 60.1371 34.7066 60.1371 33.6672C60.1371 32.6278 59.2945 31.7852 58.2551 31.7852C57.2157 31.7852 56.373 32.6278 56.373 33.6672C56.373 34.7066 57.2157 35.5491 58.2551 35.5491Z" fill="#E36162"/>
<path d="M72.7356 73.5024C73.3997 73.5024 73.938 72.9641 73.938 72.3001C73.938 71.636 73.3997 71.0977 72.7356 71.0977C72.0716 71.0977 71.5332 71.636 71.5332 72.3001C71.5332 72.9641 72.0716 73.5024 72.7356 73.5024Z" fill="#E36162"/>
<path d="M149.691 24.99C153.156 24.99 155.965 22.1814 155.965 18.7167C155.965 15.252 153.156 12.4434 149.691 12.4434C146.227 12.4434 143.418 15.252 143.418 18.7167C143.418 22.1814 146.227 24.99 149.691 24.99Z" fill="#F5D4C5"/>
<path d="M125.906 29.0679C127.032 29.0679 127.945 28.1551 127.945 27.0291C127.945 25.903 127.032 24.9902 125.906 24.9902C124.78 24.9902 123.867 25.903 123.867 27.0291C123.867 28.1551 124.78 29.0679 125.906 29.0679Z" fill="#F5D4C5"/>
<path d="M113.673 28.3871C116.936 28.3871 119.58 25.7422 119.58 22.4797C119.58 19.2171 116.936 16.5723 113.673 16.5723C110.41 16.5723 107.766 19.2171 107.766 22.4797C107.766 25.7422 110.41 28.3871 113.673 28.3871Z" fill="#F5D4C5"/>
<path d="M130.087 20.807C134.707 20.807 138.452 17.0621 138.452 12.4426C138.452 7.82302 134.707 4.07812 130.087 4.07812C125.468 4.07812 121.723 7.82302 121.723 12.4426C121.723 17.0621 125.468 20.807 130.087 20.807Z" fill="#F5D4C5"/>
<path d="M143.418 44.3318C146.883 44.3318 149.691 41.5232 149.691 38.0585C149.691 34.5938 146.883 31.7852 143.418 31.7852C139.953 31.7852 137.145 34.5938 137.145 38.0585C137.145 41.5232 139.953 44.3318 143.418 44.3318Z" fill="#F5D4C5"/>
<path d="M157.586 45.6385C158.827 45.6385 159.834 44.632 159.834 43.3905C159.834 42.149 158.827 41.1426 157.586 41.1426C156.344 41.1426 155.338 42.149 155.338 43.3905C155.338 44.632 156.344 45.6385 157.586 45.6385Z" fill="#F5D4C5"/>
<path d="M155.34 59.492C156.581 59.492 157.588 58.4855 157.588 57.244C157.588 56.0025 156.581 54.9961 155.34 54.9961C154.098 54.9961 153.092 56.0025 153.092 57.244C153.092 58.4855 154.098 59.492 155.34 59.492Z" fill="#F5D4C5"/>
<path d="M159.834 83.9584C160.469 83.9584 160.984 83.4435 160.984 82.8083C160.984 82.1731 160.469 81.6582 159.834 81.6582C159.198 81.6582 158.684 82.1731 158.684 82.8083C158.684 83.4435 159.198 83.9584 159.834 83.9584Z" fill="#F5D4C5"/>
<path d="M164.224 76.6398C165.61 76.6398 166.734 75.5163 166.734 74.1304C166.734 72.7446 165.61 71.6211 164.224 71.6211C162.838 71.6211 161.715 72.7446 161.715 74.1304C161.715 75.5163 162.838 76.6398 164.224 76.6398Z" fill="#F5D4C5"/>
<path d="M146.084 72.3015C147.297 72.3015 148.28 71.3184 148.28 70.1058C148.28 68.8932 147.297 67.9102 146.084 67.9102C144.872 67.9102 143.889 68.8932 143.889 70.1058C143.889 71.3184 144.872 72.3015 146.084 72.3015Z" fill="#F5D4C5"/>
<path d="M134.009 59.6493C135.28 59.6493 136.309 58.6194 136.309 57.349C136.309 56.0787 135.28 55.0488 134.009 55.0488C132.739 55.0488 131.709 56.0787 131.709 57.349C131.709 58.6194 132.739 59.6493 134.009 59.6493Z" fill="#F5D4C5"/>
<path d="M113.673 54.4213C114.741 54.4213 115.607 53.5553 115.607 52.487C115.607 51.4187 114.741 50.5527 113.673 50.5527C112.604 50.5527 111.738 51.4187 111.738 52.487C111.738 53.5553 112.604 54.4213 113.673 54.4213Z" fill="#F5D4C5"/>
<path d="M117.175 68.6415C117.579 68.6415 117.907 68.3138 117.907 67.9096C117.907 67.5054 117.579 67.1777 117.175 67.1777C116.771 67.1777 116.443 67.5054 116.443 67.9096C116.443 68.3138 116.771 68.6415 117.175 68.6415Z" fill="#F5D4C5"/>
<path d="M97.3084 66.8121C98.4344 66.8121 99.3472 65.8992 99.3472 64.7732C99.3472 63.6472 98.4344 62.7344 97.3084 62.7344C96.1824 62.7344 95.2695 63.6472 95.2695 64.7732C95.2695 65.8992 96.1824 66.8121 97.3084 66.8121Z" fill="#F5D4C5"/>
<path d="M95.271 58.1338C98.3892 58.1338 100.917 55.606 100.917 52.4878C100.917 49.3696 98.3892 46.8418 95.271 46.8418C92.1528 46.8418 89.625 49.3696 89.625 52.4878C89.625 55.606 92.1528 58.1338 95.271 58.1338Z" fill="#F5D4C5"/>
<path d="M79.5351 45.6385C80.7766 45.6385 81.7831 44.632 81.7831 43.3905C81.7831 42.149 80.7766 41.1426 79.5351 41.1426C78.2936 41.1426 77.2871 42.149 77.2871 43.3905C77.2871 44.632 78.2936 45.6385 79.5351 45.6385Z" fill="#F5D4C5"/>
<path d="M89.6239 36.0719C90.8077 36.0719 91.7673 35.1123 91.7673 33.9285C91.7673 32.7448 90.8077 31.7852 89.6239 31.7852C88.4401 31.7852 87.4805 32.7448 87.4805 33.9285C87.4805 35.1123 88.4401 36.0719 89.6239 36.0719Z" fill="#F5D4C5"/>
<path d="M74.9877 29.329C76.2581 29.329 77.2879 28.2991 77.2879 27.0287C77.2879 25.7584 76.2581 24.7285 74.9877 24.7285C73.7174 24.7285 72.6875 25.7584 72.6875 27.0287C72.6875 28.2991 73.7174 29.329 74.9877 29.329Z" fill="#F5D4C5"/>
<path d="M89.6241 24.2052C94.9944 24.2052 99.3478 19.8517 99.3478 14.4815C99.3478 9.11125 94.9944 4.75781 89.6241 4.75781C84.2539 4.75781 79.9004 9.11125 79.9004 14.4815C79.9004 19.8517 84.2539 24.2052 89.6241 24.2052Z" fill="#F5D4C5"/>
<path d="M104.993 15.2133C106.524 15.2133 107.764 13.9728 107.764 12.4426C107.764 10.9124 106.524 9.67188 104.993 9.67188C103.463 9.67188 102.223 10.9124 102.223 12.4426C102.223 13.9728 103.463 15.2133 104.993 15.2133Z" fill="#F5D4C5"/>
<path d="M102.172 44.3318C105.636 44.3318 108.445 41.5232 108.445 38.0585C108.445 34.5938 105.636 31.7852 102.172 31.7852C98.7071 31.7852 95.8984 34.5938 95.8984 38.0585C95.8984 41.5232 98.7071 44.3318 102.172 44.3318Z" fill="#F5D4C5"/>
<path d="M64.531 40.0972C65.6571 40.0972 66.5698 39.1844 66.5698 38.0584C66.5698 36.9323 65.6571 36.0195 64.531 36.0195C63.405 36.0195 62.4922 36.9323 62.4922 38.0584C62.4922 39.1844 63.405 40.0972 64.531 40.0972Z" fill="#F5D4C5"/>
<path d="M117.907 39.7305C118.831 39.7305 119.58 38.9816 119.58 38.0577C119.58 37.1338 118.831 36.3848 117.907 36.3848C116.983 36.3848 116.234 37.1338 116.234 38.0577C116.234 38.9816 116.983 39.7305 117.907 39.7305Z" fill="#F5D4C5"/>
<path d="M127.944 47.155C130.022 47.155 131.708 45.4697 131.708 43.3909C131.708 41.3121 130.022 39.627 127.944 39.627C125.865 39.627 124.18 41.3121 124.18 43.3909C124.18 45.4697 125.865 47.155 127.944 47.155Z" fill="#F5D4C5"/>
<path d="M155.912 37.5881C159.117 37.5881 161.715 34.9901 161.715 31.7853C161.715 28.5804 159.117 25.9824 155.912 25.9824C152.707 25.9824 150.109 28.5804 150.109 31.7853C150.109 34.9901 152.707 37.5881 155.912 37.5881Z" fill="#F5D4C5"/>
<path d="M0 62.4062C0 62.4062 9.52141 62.4062 14.2041 62.4062" stroke="white" stroke-width="5" stroke-miterlimit="10"/>
</svg>
