<svg width="27" height="27" viewBox="0 0 27 27" fill="none" xmlns="http://www.w3.org/2000/svg">
<path d="M13.5 0C6.04688 0 0 6.04688 0 13.5C0 20.9602 6.04688 27 13.5 27C20.9531 27 27 20.9602 27 13.5C27 6.04688 20.9531 0 13.5 0ZM22.0711 6.22266C23.5898 8.00859 24.5531 10.2727 24.7219 12.7547C22.2891 12.6281 19.3781 12.6281 17.0437 12.8461C16.7484 12.1008 16.4461 11.3695 16.1156 10.6664C18.8086 9.49922 20.8828 7.96641 22.0711 6.22266ZM13.5 2.25C16.2281 2.25 18.7313 3.22031 20.6789 4.8375C19.4555 6.38438 17.5359 7.72734 15.1453 8.74687C13.8375 6.32812 12.3328 4.24687 10.7297 2.60859C11.6227 2.38359 12.5437 2.25 13.5 2.25ZM8.40938 3.48047C10.0336 5.09766 11.5594 7.15781 12.8953 9.56953C10.357 10.343 7.44609 10.7859 4.33828 10.7859C3.74766 10.7859 3.17109 10.7648 2.60156 10.7297C3.41016 7.55859 5.55469 4.92891 8.40938 3.48047ZM2.27109 12.9656C2.91094 12.9937 3.55781 13.0078 4.21172 13.0008C7.75547 12.9586 11.0531 12.4031 13.8867 11.4961C14.1539 12.0516 14.407 12.6211 14.6461 13.2047C14.2594 13.2961 13.9148 13.3945 13.6406 13.507C9.76641 15.1313 6.71484 17.7539 5.0625 20.925C3.31875 18.9422 2.25 16.3477 2.25 13.5C2.25 13.3172 2.25703 13.1414 2.27109 12.9656ZM13.5 24.75C10.8984 24.75 8.50781 23.8641 6.60234 22.3805C8.1 19.4133 10.7719 16.9594 14.1398 15.4336C14.4563 15.2859 14.8781 15.1664 15.3633 15.0609C15.7641 16.1719 16.1227 17.325 16.4391 18.5203C16.9242 20.3836 17.2688 22.2258 17.4797 24.0117C16.2422 24.4828 14.9062 24.75 13.5 24.75ZM19.582 22.957C19.3711 21.15 19.0266 19.2938 18.5344 17.4094C18.2953 16.4953 18.0211 15.6094 17.7258 14.7445C19.9336 14.5617 22.5773 14.5898 24.6797 14.7445C24.3 18.1969 22.3594 21.1641 19.582 22.957Z" fill="#212B3D"/>
</svg>
