<svg width="180" height="211" viewBox="0 0 180 211" fill="none" xmlns="http://www.w3.org/2000/svg">
<mask id="mask0" mask-type="alpha" maskUnits="userSpaceOnUse" x="77" y="43" width="103" height="168">
<path d="M130.993 63.1858C130.946 52.7344 131.459 43.0317 142.704 43.0317C143.275 43.0317 143.339 43.8705 143.521 44.3935C144.45 55.0702 147.322 76.0625 158.5 102.949C162.11 111.529 156.375 131.79 158.5 142.985C160.694 154.269 164.081 157.127 177.293 180.025C190.442 202.71 132.342 225.6 125.001 198.545C117.403 171.395 116.858 163.446 104.847 155.241C97.0132 149.796 87.844 139.901 77.3394 125.555H120.099C127.347 87.3541 130.978 66.5645 130.993 63.1858Z" fill="white"/>
</mask>
<g mask="url(#mask0)">
<path d="M130.993 63.1858C130.946 52.7344 131.459 43.0317 142.704 43.0317C143.275 43.0317 143.339 43.8705 143.521 44.3935C144.45 55.0702 147.322 76.0625 158.5 102.949C162.11 111.529 156.375 131.79 158.5 142.985C160.694 154.269 164.081 157.127 177.293 180.025C190.442 202.71 132.342 225.6 125.001 198.545C117.403 171.395 116.858 163.446 104.847 155.241C97.0132 149.796 87.844 139.901 77.3394 125.555H120.099C127.347 87.3541 130.978 66.5645 130.993 63.1858Z" fill="#FF6663"/>
<path d="M130.993 63.1858C130.946 52.7344 131.459 43.0317 142.704 43.0317C143.275 43.0317 143.339 43.8705 143.521 44.3935C144.45 55.0702 147.322 76.0625 158.5 102.949C162.11 111.529 156.375 131.79 158.5 142.985C160.694 154.269 164.081 157.127 177.293 180.025C190.442 202.71 132.342 225.6 125.001 198.545C117.403 171.395 116.858 163.446 104.847 155.241C97.0132 149.796 87.844 139.901 77.3394 125.555H120.099C127.347 87.3541 130.978 66.5645 130.993 63.1858Z" fill="url(#paint0_linear)"/>
<path fill-rule="evenodd" clip-rule="evenodd" d="M105.664 141.078C94.5687 141.078 88.2277 133.836 83.6587 125.554H121.188C123.762 125.554 126.37 125.351 128.085 123.693C126.467 133.349 120.042 141.078 105.664 141.078Z" fill="url(#paint1_linear)"/>
</g>
<path d="M79.246 0H122.55C127.815 0 132.082 4.26778 132.082 9.53235V116.022C132.082 121.287 127.815 125.555 122.55 125.555H79.246C73.9814 125.555 69.7136 121.287 69.7136 116.022V9.53235C69.7136 4.26778 73.9814 0 79.246 0Z" fill="#393E41"/>
<path d="M79.246 0H122.55C127.815 0 132.082 4.26778 132.082 9.53235V116.022C132.082 121.287 127.815 125.555 122.55 125.555H79.246C73.9814 125.555 69.7136 121.287 69.7136 116.022V9.53235C69.7136 4.26778 73.9814 0 79.246 0Z" fill="url(#paint2_linear)"/>
<mask id="mask1" mask-type="alpha" maskUnits="userSpaceOnUse" x="73" y="3" width="56" height="119">
<path d="M84.6936 3.81348C85.2383 3.81348 85.5106 4.08583 85.5106 4.63053C85.5106 7.11447 87.1369 8.17112 89.5959 8.17112C93.6184 8.17112 109.278 8.17112 112.201 8.17112C114.832 8.17112 116.286 7.11447 116.286 4.63053C116.286 4.08583 116.559 3.81348 117.104 3.81348H122.823C125.831 3.81348 128.27 6.25221 128.27 9.26053V116.295C128.27 119.304 125.831 121.742 122.823 121.742H78.9742C75.9658 121.742 73.5271 119.304 73.5271 116.295V9.26053C73.5271 6.25221 75.9658 3.81348 78.9742 3.81348H84.6936Z" fill="white"/>
</mask>
<g mask="url(#mask1)">
<path d="M84.6936 3.81348C85.2383 3.81348 85.5106 4.08583 85.5106 4.63053C85.5106 7.11447 87.1369 8.17112 89.5959 8.17112C93.6184 8.17112 109.278 8.17112 112.201 8.17112C114.832 8.17112 116.286 7.11447 116.286 4.63053C116.286 4.08583 116.559 3.81348 117.104 3.81348H122.823C125.831 3.81348 128.27 6.25221 128.27 9.26053V116.295C128.27 119.304 125.831 121.742 122.823 121.742H78.9742C75.9658 121.742 73.5271 119.304 73.5271 116.295V9.26053C73.5271 6.25221 75.9658 3.81348 78.9742 3.81348H84.6936Z" fill="white"/>
<path fill-rule="evenodd" clip-rule="evenodd" d="M77.612 115.478H124.184C124.936 115.478 125.546 116.087 125.546 116.839C125.546 117.591 124.936 118.201 124.184 118.201H77.612C76.8599 118.201 76.2502 117.591 76.2502 116.839C76.2502 116.087 76.8599 115.478 77.612 115.478Z" fill="#ECDFF7"/>
<path fill-rule="evenodd" clip-rule="evenodd" d="M77.612 108.668H124.184C124.936 108.668 125.546 109.278 125.546 110.03C125.546 110.782 124.936 111.392 124.184 111.392H77.612C76.8599 111.392 76.2502 110.782 76.2502 110.03C76.2502 109.278 76.8599 108.668 77.612 108.668Z" fill="#ECDFF7"/>
<path fill-rule="evenodd" clip-rule="evenodd" d="M77.612 101.86H124.184C124.936 101.86 125.546 102.47 125.546 103.222C125.546 103.974 124.936 104.583 124.184 104.583H77.612C76.8599 104.583 76.2502 103.974 76.2502 103.222C76.2502 102.47 76.8599 101.86 77.612 101.86Z" fill="#ECDFF7"/>
<path fill-rule="evenodd" clip-rule="evenodd" d="M77.612 95.0508H124.184C124.936 95.0508 125.546 95.6605 125.546 96.4125C125.546 97.1646 124.936 97.7743 124.184 97.7743H77.612C76.8599 97.7743 76.2502 97.1646 76.2502 96.4125C76.2502 95.6605 76.8599 95.0508 77.612 95.0508Z" fill="#ECDFF7"/>
<path fill-rule="evenodd" clip-rule="evenodd" d="M77.612 88.2422H124.184C124.936 88.2422 125.546 88.8519 125.546 89.604C125.546 90.356 124.936 90.9657 124.184 90.9657H77.612C76.8599 90.9657 76.2502 90.356 76.2502 89.604C76.2502 88.8519 76.8599 88.2422 77.612 88.2422Z" fill="#ECDFF7"/>
<path fill-rule="evenodd" clip-rule="evenodd" d="M77.612 81.4331H124.184C124.936 81.4331 125.546 82.0428 125.546 82.7949C125.546 83.547 124.936 84.1566 124.184 84.1566H77.612C76.8599 84.1566 76.2502 83.547 76.2502 82.7949C76.2502 82.0428 76.8599 81.4331 77.612 81.4331Z" fill="#ECDFF7"/>
<path fill-rule="evenodd" clip-rule="evenodd" d="M79.5185 70.8125H122.278C124.083 70.8125 125.546 72.2757 125.546 74.0807C125.546 75.8857 124.083 77.349 122.278 77.349H79.5185C77.7135 77.349 76.2502 75.8857 76.2502 74.0807C76.2502 72.2757 77.7135 70.8125 79.5185 70.8125Z" fill="#7E5A9B"/>
<path fill-rule="evenodd" clip-rule="evenodd" d="M93.9519 59.918H110.565C111.317 59.918 111.927 60.5277 111.927 61.2797C111.927 62.0318 111.317 62.6415 110.565 62.6415H93.9519C93.1998 62.6415 92.5901 62.0318 92.5901 61.2797C92.5901 60.5277 93.1998 59.918 93.9519 59.918Z" fill="#ECDFF7"/>
<path fill-rule="evenodd" clip-rule="evenodd" d="M93.9519 54.4707H124.183C124.935 54.4707 125.545 55.0804 125.545 55.8325C125.545 56.5845 124.935 57.1942 124.183 57.1942H93.9519C93.1998 57.1942 92.5901 56.5845 92.5901 55.8325C92.5901 55.0804 93.1998 54.4707 93.9519 54.4707Z" fill="#ECDFF7"/>
<mask id="mask2" mask-type="alpha" maskUnits="userSpaceOnUse" x="76" y="51" width="14" height="15">
<path d="M83.0591 65.3647C86.8195 65.3647 89.8679 62.3163 89.8679 58.5559C89.8679 54.7955 86.8195 51.7471 83.0591 51.7471C79.2987 51.7471 76.2502 54.7955 76.2502 58.5559C76.2502 62.3163 79.2987 65.3647 83.0591 65.3647Z" fill="white"/>
</mask>
<g mask="url(#mask2)">
<path d="M83.0591 65.3647C86.8195 65.3647 89.8679 62.3163 89.8679 58.5559C89.8679 54.7955 86.8195 51.7471 83.0591 51.7471C79.2987 51.7471 76.2502 54.7955 76.2502 58.5559C76.2502 62.3163 79.2987 65.3647 83.0591 65.3647Z" fill="#ECDFF7"/>
<path d="M89.7135 65.1575C88.4826 69.9539 80.6431 70.6525 77.0037 67.4401C73.3152 64.2658 72.7764 59.9624 74.4098 56.4422C76.0003 52.9343 79.2534 51.2026 82.8657 51.2026C86.5192 51.2026 88.9229 54.938 86.2896 56.8572C83.6201 58.7674 90.9696 60.3939 89.7135 65.1575Z" fill="#1F1845"/>
<path d="M89.7135 65.1575C88.4826 69.9539 80.6431 70.6525 77.0037 67.4401C73.3152 64.2658 72.7764 59.9624 74.4098 56.4422C76.0003 52.9343 79.2534 51.2026 82.8657 51.2026C86.5192 51.2026 88.9229 54.938 86.2896 56.8572C83.6201 58.7674 90.9696 60.3939 89.7135 65.1575Z" fill="url(#paint3_linear)"/>
<path fill-rule="evenodd" clip-rule="evenodd" d="M86.4304 58.9694C87.7936 60.345 90.5159 62.1089 89.7118 65.1582C89.0178 67.8624 86.2233 69.2641 83.2651 69.3966C80.1308 68.5192 77.832 65.6416 77.832 62.2272C77.832 60.8789 78.1905 59.6142 78.8173 58.5234C78.9354 59.0973 79.2581 59.5556 79.8033 59.5556C80.2893 60.9195 81.4563 61.9938 83.2272 61.9938C84.9981 61.9938 85.9472 60.8207 86.2879 60.0224C86.435 59.6778 86.4551 59.3583 86.4304 58.9694Z" fill="url(#paint4_linear)"/>
<path d="M81.6195 70.9165C81.852 71.6593 81.9404 71.6994 81.9308 71.7984C81.9404 71.8908 81.8162 72.1262 81.5676 72.2653C81.3461 72.4515 80.9964 72.5153 80.9451 72.4209C80.8494 72.3074 79.4407 69.6728 79.4407 68.7895C79.4407 68.1056 79.5262 66.2393 79.9076 64.8988C80.2806 63.5366 81.0198 62.7807 82.1901 62.4087C82.2319 62.3732 82.9303 62.2012 83.2277 62.2012C85.1702 62.2012 86.7553 63.7868 86.7553 65.7288C86.7553 65.9729 86.7328 66.2026 86.7034 66.4032L85.9771 70.0864C85.4374 70.5419 84.659 70.7669 83.6427 70.7608C82.6018 70.7669 81.8375 70.571 81.3601 70.1902C81.4258 70.4073 81.5161 70.6607 81.6195 70.9165Z" fill="#403F9F"/>
<path d="M81.6195 70.9165C81.852 71.6593 81.9404 71.6994 81.9308 71.7984C81.9404 71.8908 81.8162 72.1262 81.5676 72.2653C81.3461 72.4515 80.9964 72.5153 80.9451 72.4209C80.8494 72.3074 79.4407 69.6728 79.4407 68.7895C79.4407 68.1056 79.5262 66.2393 79.9076 64.8988C80.2806 63.5366 81.0198 62.7807 82.1901 62.4087C82.2319 62.3732 82.9303 62.2012 83.2277 62.2012C85.1702 62.2012 86.7553 63.7868 86.7553 65.7288C86.7553 65.9729 86.7328 66.2026 86.7034 66.4032L85.9771 70.0864C85.4374 70.5419 84.659 70.7669 83.6427 70.7608C82.6018 70.7669 81.8375 70.571 81.3601 70.1902C81.4258 70.4073 81.5161 70.6607 81.6195 70.9165Z" fill="url(#paint5_linear)"/>
<mask id="mask3" mask-type="alpha" maskUnits="userSpaceOnUse" x="82" y="61" width="3" height="3">
<path d="M84.2136 61.8071L84.2136 62.3822C84.2136 62.8835 83.8072 63.29 83.3058 63.29C82.8044 63.29 82.3979 62.8835 82.3979 62.3822V61.8563C82.6578 61.9117 82.9346 61.9412 83.228 61.9412C83.5903 61.9412 83.9183 61.8921 84.2136 61.8071Z" fill="white"/>
</mask>
<g mask="url(#mask3)">
<path d="M84.2136 61.8071L84.2136 62.3822C84.2136 62.8835 83.8072 63.29 83.3058 63.29C82.8044 63.29 82.3979 62.8835 82.3979 62.3822V61.8563C82.6578 61.9117 82.9346 61.9412 83.228 61.9412C83.5903 61.9412 83.9183 61.8921 84.2136 61.8071Z" fill="#FF6663"/>
</g>
<mask id="mask4" mask-type="alpha" maskUnits="userSpaceOnUse" x="82" y="61" width="3" height="2">
<path d="M84.2021 62.5276C84.0174 62.6172 83.8101 62.6675 83.5911 62.6675C83.0867 62.6675 82.6446 62.4008 82.3979 62.0008L82.3979 61.8563C82.6578 61.9117 82.9346 61.9412 83.228 61.9412C83.5903 61.9412 83.9183 61.8921 84.2136 61.8071L84.2136 62.3822C84.2136 62.4317 84.2097 62.4802 84.2021 62.5276Z" fill="white"/>
</mask>
<g mask="url(#mask4)">
<path d="M84.2021 62.5276C84.0174 62.6172 83.8101 62.6675 83.5911 62.6675C83.0867 62.6675 82.6446 62.4008 82.3979 62.0008L82.3979 61.8563C82.6578 61.9117 82.9346 61.9412 83.228 61.9412C83.5903 61.9412 83.9183 61.8921 84.2136 61.8071L84.2136 62.3822C84.2136 62.4317 84.2097 62.4802 84.2021 62.5276Z" fill="url(#paint6_linear)"/>
</g>
<path fill-rule="evenodd" clip-rule="evenodd" d="M78.7656 57.9987C78.7656 57.1952 79.5118 57.0156 79.8032 57.1168C81.3635 57.6586 84.2017 57.8265 86.2877 56.8574C86.2877 58.5603 86.6285 59.2237 86.2877 60.0219C85.947 60.8201 84.998 61.9932 83.227 61.9932C81.4561 61.9932 80.2892 60.919 79.8032 59.555C79.0986 59.555 78.7656 58.7898 78.7656 57.9987Z" fill="#FF6663"/>
<path fill-rule="evenodd" clip-rule="evenodd" d="M79.8049 57.1169C81.3653 57.6587 84.2033 57.8265 86.2892 56.8574C86.2892 57.5881 86.3519 58.1274 86.3966 58.568C86.3954 58.5685 86.3942 58.5689 86.3929 58.5694C84.3378 59.3014 81.6019 58.7669 79.8049 57.1169Z" fill="url(#paint7_linear)"/>
<path d="M79.5712 58.7776C79.8434 58.7776 80.064 58.557 80.064 58.2848C80.064 58.0126 79.8434 57.792 79.5712 57.792C79.299 57.792 79.0784 58.0126 79.0784 58.2848C79.0784 58.557 79.299 58.7776 79.5712 58.7776Z" fill="url(#paint8_linear)"/>
</g>
<mask id="mask5" mask-type="alpha" maskUnits="userSpaceOnUse" x="73" y="3" width="56" height="42">
<path d="M128.269 3.81348H73.5264V44.6664H128.269V3.81348Z" fill="white"/>
</mask>
<g mask="url(#mask5)">
<path d="M128.269 3.81348H73.5264V44.6664H128.269V3.81348Z" fill="#D8D8D8"/>
<path d="M90.8209 52.2918C106.239 52.2918 118.737 39.7933 118.737 24.3756C118.737 8.95796 106.239 -3.54053 90.8209 -3.54053C75.4033 -3.54053 62.9048 8.95796 62.9048 24.3756C62.9048 39.7933 75.4033 52.2918 90.8209 52.2918Z" fill="#E478A3"/>
<path d="M125.954 33.2274C137.611 33.2274 147.061 23.7773 147.061 12.12C147.061 0.462774 137.611 -8.9873 125.954 -8.9873C114.297 -8.9873 104.847 0.462774 104.847 12.12C104.847 23.7773 114.297 33.2274 125.954 33.2274Z" fill="#AF3B6E"/>
<path d="M117.918 72.719C133.712 72.719 146.515 59.9156 146.515 44.1219C146.515 28.3282 133.712 15.5249 117.918 15.5249C102.124 15.5249 89.321 28.3282 89.321 44.1219C89.321 59.9156 102.124 72.719 117.918 72.719Z" fill="#7E5A9B"/>
<path fill-rule="evenodd" clip-rule="evenodd" d="M99.1481 19.8002L106.039 23.9906C106.553 24.3032 106.716 24.9734 106.404 25.4875C106.313 25.6365 106.188 25.7616 106.039 25.8523L99.1481 30.0427C98.634 30.3553 97.9639 30.192 97.6513 29.6779C97.5475 29.5073 97.4927 29.3115 97.4927 29.1119V20.731C97.4927 20.1293 97.9804 19.6416 98.5821 19.6416C98.7817 19.6416 98.9775 19.6965 99.1481 19.8002Z" fill="white"/>
</g>
<path d="M128.27 44.6655H73.5273V46.0273H128.27V44.6655Z" fill="#ECDFF7"/>
<path d="M97.222 44.6655H73.5273V46.0273H97.222V44.6655Z" fill="#AF3B6E"/>
<path d="M94.9061 47.6612C96.1846 47.6612 97.2211 46.6248 97.2211 45.3462C97.2211 44.0677 96.1846 43.0312 94.9061 43.0312C93.6275 43.0312 92.5911 44.0677 92.5911 45.3462C92.5911 46.6248 93.6275 47.6612 94.9061 47.6612Z" fill="#AF3B6E"/>
</g>
<path d="M69.7138 65.0918C62.6809 66.2831 57.1855 71.1777 57.1855 75.9859C57.1855 80.9399 64.6043 86.5909 67.8073 88.7865C70.9725 90.8945 77.0417 88.9381 76.5226 83.0671C75.8507 77.0037 69.6907 73.034 69.7138 70.5389C69.6907 68.0376 69.6907 68.7371 69.7138 65.0918Z" fill="#FF6663"/>
<path d="M69.7138 65.0918C62.6809 66.2831 57.1855 71.1777 57.1855 75.9859C57.1855 80.9399 64.6043 86.5909 67.8073 88.7865C70.9725 90.8945 77.0417 88.9381 76.5226 83.0671C75.8507 77.0037 69.6907 73.034 69.7138 70.5389C69.6907 68.0376 69.6907 68.7371 69.7138 65.0918Z" fill="url(#paint9_linear)"/>
<path d="M69.7158 42.4865C66.22 42.0683 60.8759 41.5745 59.094 45.4824C57.0521 49.6433 61.1353 53.8377 69.7158 58.283V42.4865Z" fill="#FF6663"/>
<path d="M69.7158 42.4865C66.22 42.0683 60.8759 41.5745 59.094 45.4824C57.0521 49.6433 61.1353 53.8377 69.7158 58.283V42.4865Z" fill="url(#paint10_linear)"/>
<path fill-rule="evenodd" clip-rule="evenodd" d="M143.523 44.3935C144.603 55.0817 147.484 76.0965 158.502 102.949C162.314 111.601 156.563 131.884 158.502 142.985C158.729 143.272 120.018 139.049 125.82 105.945C131.905 72.9535 131.1 68.4336 130.994 63.1858C131.1 52.8265 131.609 43.163 142.706 43.0317C143.428 43.0694 143.493 43.8823 143.523 44.3935Z" fill="#FF6663"/>
<path fill-rule="evenodd" clip-rule="evenodd" d="M137.069 44.1703C138.558 43.4367 140.407 43.0317 142.704 43.0317C143.275 43.0317 143.339 43.8705 143.521 44.3935C144.45 55.0702 147.323 76.0625 158.501 102.949C162.11 111.529 156.375 131.79 158.501 142.985C160.695 154.269 164.081 157.127 177.293 180.025C180.735 185.964 179.295 191.917 175.16 196.984C164.378 179.04 156.263 165.174 150.816 155.388C141.642 138.906 152.873 124.433 146.584 106.626C140.797 90.2429 137.551 55.1867 137.069 44.1703Z" fill="url(#paint11_linear)"/>
<mask id="mask6" mask-type="alpha" maskUnits="userSpaceOnUse" x="0" y="54" width="119" height="157">
<path d="M54.7348 176.485C60.6158 167.058 77.6136 164.937 86.3278 152.246C94.8492 139.626 110.709 102.834 109.478 99.1368C108.118 95.4221 97.8461 95.0049 92.5919 104.856C87.538 114.74 82.6159 125.938 80.6084 125.01C78.5459 124.076 88.8978 103.297 92.5919 96.6857C96.4864 89.9714 120.565 65.527 118.193 57.7392C116.071 49.9043 107.716 56 96.4048 67.2716C85.2564 78.4326 78.902 85.4408 76.2507 86.3363C73.7225 86.9701 66.5669 83.4827 59.0925 87.9704C51.8829 92.2342 50.5274 95.3403 46.5643 96.6857C42.8315 97.9282 33.3941 99.128 29.6784 109.214C25.6924 119.33 21.2539 154.679 18.7843 159.054C16.1778 163.305 2.49243 181.136 0.264294 190.375C-3.51866 205.851 34.3612 220.655 46.5643 202.359C53.356 192.335 48.9729 185.99 54.7348 176.485Z" fill="white"/>
</mask>
<g mask="url(#mask6)">
<path d="M54.7348 176.485C60.6158 167.058 77.6136 164.937 86.3278 152.246C94.8492 139.626 110.709 102.834 109.478 99.1368C108.118 95.4221 97.8461 95.0049 92.5919 104.856C87.538 114.74 82.6159 125.938 80.6084 125.01C78.5459 124.076 88.8978 103.297 92.5919 96.6857C96.4864 89.9714 120.565 65.527 118.193 57.7392C116.071 49.9043 107.716 56 96.4048 67.2716C85.2564 78.4326 78.902 85.4408 76.2507 86.3363C73.7225 86.9701 66.5669 83.4827 59.0925 87.9704C51.8829 92.2342 50.5274 95.3403 46.5643 96.6857C42.8315 97.9282 33.3941 99.128 29.6784 109.214C25.6924 119.33 21.2539 154.679 18.7843 159.054C16.1778 163.305 2.49243 181.136 0.264294 190.375C-3.51866 205.851 34.3612 220.655 46.5643 202.359C53.356 192.335 48.9729 185.99 54.7348 176.485Z" fill="#FF6663"/>
<path d="M54.7348 176.485C60.6158 167.058 77.6136 164.937 86.3278 152.246C94.8492 139.626 110.709 102.834 109.478 99.1368C108.118 95.4221 97.8461 95.0049 92.5919 104.856C87.538 114.74 82.6159 125.938 80.6084 125.01C78.5459 124.076 88.8978 103.297 92.5919 96.6857C96.4864 89.9714 120.565 65.527 118.193 57.7392C116.071 49.9043 107.716 56 96.4048 67.2716C85.2564 78.4326 78.902 85.4408 76.2507 86.3363C73.7225 86.9701 66.5669 83.4827 59.0925 87.9704C51.8829 92.2342 50.5274 95.3403 46.5643 96.6857C42.8315 97.9282 33.3941 99.128 29.6784 109.214C25.6924 119.33 21.2539 154.679 18.7843 159.054C16.1778 163.305 2.49243 181.136 0.264294 190.375C-3.51866 205.851 34.3612 220.655 46.5643 202.359C53.356 192.335 48.9729 185.99 54.7348 176.485Z" fill="url(#paint12_linear)"/>
<path fill-rule="evenodd" clip-rule="evenodd" d="M32.5625 210.554C38.1768 189.082 43.3887 175.093 48.1984 168.586C57.7311 156.017 72.2994 152.093 78.4295 145.981C83.8192 140.405 97.6719 110.32 108.832 98.1431C109.124 98.4378 109.344 98.771 109.478 99.1361C110.709 102.833 94.8492 139.625 86.3278 152.245C77.6136 164.936 60.6158 167.058 54.7348 176.484C48.9729 185.99 53.356 192.334 46.5642 202.358C43.3027 207.248 38.2068 209.774 32.5625 210.554Z" fill="url(#paint13_linear)"/>
<path fill-rule="evenodd" clip-rule="evenodd" d="M92.5921 96.6852C89.2082 102.694 80.9255 120.676 80.6085 125.01C76.0702 125.01 79.9365 106.201 89.3238 93.1446C95.5903 84.3573 107.675 67.8418 118.193 58.8281C118.457 67.5649 96.2165 90.3451 92.5921 96.6852Z" fill="url(#paint14_linear)"/>
<path d="M79.3054 82.7298C79.526 82.5252 79.8707 82.5382 80.0752 82.7588C80.2798 82.9794 80.2668 83.3241 80.0462 83.5286C79.8875 83.6757 79.724 83.8254 79.5542 83.9791C79.6009 83.9368 74.3867 88.4586 72.7291 90.0559C69.8563 92.8243 67.333 95.7712 64.8506 99.4213C64.6815 99.67 64.3427 99.7345 64.0939 99.5653C63.8451 99.3962 63.7806 99.0574 63.9498 98.8086C66.4761 95.0941 69.0481 92.0902 71.9732 89.2715C73.6553 87.6504 78.8886 83.1122 78.8231 83.1714C78.9898 83.0206 79.1501 82.8738 79.3054 82.7298Z" fill="white"/>
<path d="M52.9854 92.1066C49.7416 94.8346 46.9873 97.6071 44.3035 101.021C44.1176 101.258 43.7752 101.299 43.5387 101.113C43.3022 100.927 43.2611 100.584 43.4471 100.348C46.1803 96.8709 48.9864 94.0462 52.2842 91.2728C53.6445 90.1288 54.3234 90.9813 52.9854 92.1066Z" fill="white"/>
</g>
<defs>
<linearGradient id="paint0_linear" x1="128.281" y1="142.697" x2="128.281" y2="210.819" gradientUnits="userSpaceOnUse">
<stop stop-color="#C74D75" stop-opacity="0"/>
<stop offset="1" stop-color="#AF3B6E" stop-opacity="0.28943"/>
</linearGradient>
<linearGradient id="paint1_linear" x1="128.085" y1="141.078" x2="115.867" y2="110.475" gradientUnits="userSpaceOnUse">
<stop stop-color="#FF6663" stop-opacity="0"/>
<stop offset="1" stop-opacity="0.3"/>
</linearGradient>
<linearGradient id="paint2_linear" x1="100.898" y1="0" x2="100.898" y2="125.555" gradientUnits="userSpaceOnUse">
<stop stop-color="#393E41" stop-opacity="0"/>
<stop offset="1" stop-opacity="0.3"/>
</linearGradient>
<linearGradient id="paint3_linear" x1="81.6971" y1="51.2026" x2="81.6971" y2="69.4063" gradientUnits="userSpaceOnUse">
<stop stop-color="#1F1845" stop-opacity="0"/>
<stop offset="1" stop-opacity="0.2"/>
</linearGradient>
<linearGradient id="paint4_linear" x1="79.7713" y1="57.5984" x2="84.6054" y2="70.7137" gradientUnits="userSpaceOnUse">
<stop stop-opacity="0.646003"/>
<stop offset="1" stop-color="#1F1845" stop-opacity="0"/>
</linearGradient>
<linearGradient id="paint5_linear" x1="83.098" y1="62.2012" x2="83.098" y2="72.4642" gradientUnits="userSpaceOnUse">
<stop stop-color="#403F9F" stop-opacity="0"/>
<stop offset="1" stop-opacity="0.1"/>
</linearGradient>
<linearGradient id="paint6_linear" x1="82.3979" y1="61.8071" x2="83.0638" y2="63.2123" gradientUnits="userSpaceOnUse">
<stop stop-opacity="0.2"/>
<stop offset="1" stop-color="#FF6663" stop-opacity="0"/>
</linearGradient>
<linearGradient id="paint7_linear" x1="79.8049" y1="56.8574" x2="80.95" y2="60.5702" gradientUnits="userSpaceOnUse">
<stop stop-opacity="0.2"/>
<stop offset="1" stop-color="#FF6663" stop-opacity="0"/>
</linearGradient>
<linearGradient id="paint8_linear" x1="79.5712" y1="55.0548" x2="79.5712" y2="58.5511" gradientUnits="userSpaceOnUse">
<stop/>
<stop offset="1" stop-opacity="0"/>
</linearGradient>
<linearGradient id="paint9_linear" x1="66.8697" y1="79.655" x2="66.8697" y2="89.6091" gradientUnits="userSpaceOnUse">
<stop stop-color="#C74D75" stop-opacity="0"/>
<stop offset="1" stop-color="#AF3B6E" stop-opacity="0.28943"/>
</linearGradient>
<linearGradient id="paint10_linear" x1="64.1457" y1="51.7567" x2="64.1457" y2="58.283" gradientUnits="userSpaceOnUse">
<stop stop-color="#C74D75" stop-opacity="0"/>
<stop offset="1" stop-color="#AF3B6E" stop-opacity="0.28943"/>
</linearGradient>
<linearGradient id="paint11_linear" x1="137.069" y1="43.0317" x2="215.496" y2="64.5057" gradientUnits="userSpaceOnUse">
<stop stop-color="#FF6663" stop-opacity="0"/>
<stop offset="1" stop-opacity="0.1"/>
</linearGradient>
<linearGradient id="paint12_linear" x1="59.1785" y1="147.237" x2="59.1785" y2="210.824" gradientUnits="userSpaceOnUse">
<stop stop-color="#C74D75" stop-opacity="0"/>
<stop offset="1" stop-color="#AF3B6E" stop-opacity="0.28943"/>
</linearGradient>
<linearGradient id="paint13_linear" x1="32.5625" y1="98.1431" x2="137.373" y2="169.921" gradientUnits="userSpaceOnUse">
<stop stop-color="#FF6663" stop-opacity="0"/>
<stop offset="1" stop-opacity="0.1"/>
</linearGradient>
<linearGradient id="paint14_linear" x1="118.196" y1="125.01" x2="59.9552" y2="90.2618" gradientUnits="userSpaceOnUse">
<stop stop-color="#FF6663" stop-opacity="0"/>
<stop offset="1" stop-opacity="0.1"/>
</linearGradient>
</defs>
</svg>
