<svg width="294" height="204" viewBox="0 0 294 204" fill="none" xmlns="http://www.w3.org/2000/svg">
<path d="M37.392 0H259.386C263.081 0 266.077 2.9958 266.077 6.6913V142.879H30.7007V6.6913C30.7007 2.9958 33.6965 0 37.392 0Z" fill="#393E41"/>
<path d="M37.392 0H259.386C263.081 0 266.077 2.9958 266.077 6.6913V142.879H30.7007V6.6913C30.7007 2.9958 33.6965 0 37.392 0Z" fill="url(#paint0_linear)"/>
<mask id="mask0" mask-type="alpha" maskUnits="userSpaceOnUse" x="42" y="11" width="213" height="121">
<path d="M253.089 11.8081H43.6908C43.0387 11.8081 42.51 12.3368 42.51 12.9889V129.89C42.51 130.542 43.0387 131.071 43.6908 131.071H253.089C253.741 131.071 254.27 130.542 254.27 129.89V12.9889C254.27 12.3368 253.741 11.8081 253.089 11.8081Z" fill="white"/>
</mask>
<g mask="url(#mask0)">
<path d="M253.089 11.8081H43.6908C43.0387 11.8081 42.51 12.3368 42.51 12.9889V129.89C42.51 130.542 43.0387 131.071 43.6908 131.071H253.089C253.741 131.071 254.27 130.542 254.27 129.89V12.9889C254.27 12.3368 253.741 11.8081 253.089 11.8081Z" fill="#7BC1EB"/>
<path d="M-15.7439 131.07C11.4149 58.1216 38.5737 21.6475 65.7325 21.6475C92.8913 21.6475 120.05 58.1216 147.209 131.07H-15.7439Z" fill="#818194"/>
<path d="M-15.7439 131.07C11.4149 58.1216 38.5737 21.6475 65.7325 21.6475C92.8913 21.6475 120.05 58.1216 147.209 131.07H-15.7439Z" fill="url(#paint1_linear)"/>
<path fill-rule="evenodd" clip-rule="evenodd" d="M104.699 46.8384C118.91 65.0257 133.059 93.1029 147.208 131.07H51.1682C69.0325 88.1661 86.8967 60.0888 104.699 46.8384Z" fill="url(#paint2_linear)"/>
<mask id="mask1" mask-type="alpha" maskUnits="userSpaceOnUse" x="161" y="49" width="148" height="83">
<path d="M161.38 131.072C185.915 76.4922 210.45 49.2021 234.984 49.2021C259.519 49.2021 284.054 76.4922 308.589 131.072H161.38Z" fill="white"/>
</mask>
<g mask="url(#mask1)">
<path d="M161.38 131.072C185.915 76.4922 210.45 49.2021 234.984 49.2021C259.519 49.2021 284.054 76.4922 308.589 131.072H161.38Z" fill="#818194"/>
<path d="M161.38 131.072C185.915 76.4922 210.45 49.2021 234.984 49.2021C259.519 49.2021 284.054 76.4922 308.589 131.072H161.38Z" fill="url(#paint3_linear)"/>
</g>
<mask id="mask2" mask-type="alpha" maskUnits="userSpaceOnUse" x="201" y="49" width="70" height="21">
<path d="M201.682 65.9621C212.783 54.7885 223.884 49.2017 234.985 49.2017C246.97 49.2017 258.954 55.7131 270.939 68.736C269.009 69.3347 266.977 69.6692 264.899 69.6692C251.864 69.6692 247.123 59.2269 238.134 59.0418C225.784 59.2269 220.032 69.6692 211.369 69.6692C207.645 69.6692 204.295 68.373 201.682 65.9621Z" fill="white"/>
</mask>
<g mask="url(#mask2)">
<path d="M201.681 65.9611C212.782 54.7875 223.883 49.2007 234.984 49.2007C246.968 49.2007 258.953 55.7121 270.937 68.7351C269.007 69.3337 266.976 69.6682 264.898 69.6682C251.863 69.6682 247.122 59.2259 238.133 59.0408C225.783 59.2259 220.031 69.6682 211.368 69.6682C207.644 69.6682 204.294 68.372 201.681 65.9611Z" fill="white"/>
</g>
<mask id="mask3" mask-type="alpha" maskUnits="userSpaceOnUse" x="161" y="61" width="85" height="71">
<path d="M207.038 61.0098C219.785 76.5872 232.698 99.9411 245.611 131.072H161.38C176.544 97.2728 191.708 73.9189 207.038 61.0098Z" fill="white"/>
</mask>
<g mask="url(#mask3)">
<path d="M207.038 61.0098C219.785 76.5872 232.698 99.9411 245.611 131.072H161.38C176.544 97.2728 191.708 73.9189 207.038 61.0098Z" fill="url(#paint4_linear)"/>
</g>
<mask id="mask4" mask-type="alpha" maskUnits="userSpaceOnUse" x="70" y="37" width="156" height="95">
<path d="M70.8499 131.07C96.6966 68.8805 122.543 37.7856 148.39 37.7856C174.237 37.7856 200.084 68.8805 225.931 131.07H70.8499Z" fill="white"/>
</mask>
<g mask="url(#mask4)">
<path d="M70.8499 131.07C96.6966 68.8805 122.543 37.7856 148.39 37.7856C174.237 37.7856 200.084 68.8805 225.931 131.07H70.8499Z" fill="#656579"/>
<path fill-rule="evenodd" clip-rule="evenodd" d="M97.9365 77.2796C114.754 50.9503 131.572 37.7856 148.39 37.7856C167.944 37.7856 187.499 55.5841 207.054 91.1811C204.727 94.4545 200.846 96.4888 195.229 96.4329C179.669 96.5847 170.302 76.6847 160.198 76.7526C149.719 76.6847 149.719 88.165 133.826 96.4329C118.787 104.366 100.566 93.7108 97.9365 77.2796Z" fill="#C3E1F5"/>
<path fill-rule="evenodd" clip-rule="evenodd" d="M103.995 68.4953C118.794 48.0222 133.592 37.7856 148.391 37.7856C163.898 37.7856 179.405 49.0255 194.912 71.5051C191.216 74.0286 187.008 75.5718 182.635 75.5718C166.592 75.5718 160.77 59.239 149.572 59.434C134.564 59.239 127.5 75.5718 116.903 75.5718C111.831 75.5718 107.33 73.0984 103.995 68.4953Z" fill="white"/>
</g>
<path d="M254.27 95.6466V129.89C254.27 130.542 253.742 131.071 253.09 131.071H43.6913C43.0392 131.071 42.5105 130.542 42.5105 129.89V79.9023C42.6262 79.9029 42.7422 79.9023 42.9041 79.9023C84.7321 79.9023 105.691 110.447 149.965 110.604C188.813 110.447 219.703 98.6105 254.27 95.6466Z" fill="#52C883"/>
<path d="M254.27 95.6466V129.89C254.27 130.542 253.742 131.071 253.09 131.071H43.6913C43.0392 131.071 42.5105 130.542 42.5105 129.89V79.9023C42.6262 79.9029 42.7422 79.9023 42.9041 79.9023C84.7321 79.9023 105.691 110.447 149.965 110.604C188.813 110.447 219.703 98.6105 254.27 95.6466Z" fill="url(#paint5_linear)"/>
<path d="M254.27 110.996V129.889C254.27 130.546 253.741 131.07 253.089 131.07H215.697C231.78 125.699 242.025 116.333 254.27 110.996ZM160.592 131.07H43.6911C43.039 131.07 42.5103 130.542 42.5103 129.889V102.337C44.9621 102.108 47.5655 101.943 50.3824 101.943C94.534 101.943 127.328 122.164 160.592 131.07Z" fill="#00A07D"/>
<path d="M254.27 110.996V129.889C254.27 130.546 253.741 131.07 253.089 131.07H215.697C231.78 125.699 242.025 116.333 254.27 110.996ZM160.592 131.07H43.6911C43.039 131.07 42.5103 130.542 42.5103 129.889V102.337C44.9621 102.108 47.5655 101.943 50.3824 101.943C94.534 101.943 127.328 122.164 160.592 131.07Z" fill="url(#paint6_linear)"/>
</g>
<path d="M30.7007 142.879H266.077V162.166C266.077 165.861 263.081 168.857 259.386 168.857H37.392C33.6965 168.857 30.7007 165.861 30.7007 162.166V142.879Z" fill="#E6E6EF"/>
<path d="M30.7007 142.879H266.077V162.166C266.077 165.861 263.081 168.857 259.386 168.857H37.392C33.6965 168.857 30.7007 165.861 30.7007 162.166V142.879Z" fill="url(#paint7_linear)"/>
<path d="M148.389 161.772C151.65 161.772 154.294 159.128 154.294 155.867C154.294 152.607 151.65 149.963 148.389 149.963C145.129 149.963 142.485 152.607 142.485 155.867C142.485 159.128 145.129 161.772 148.389 161.772Z" fill="#393E41"/>
<path d="M122.412 168.857H174.368L178.304 194.048H118.476L122.412 168.857Z" fill="#E6E6EF"/>
<path d="M122.412 168.857H174.368L178.304 194.048H118.476L122.412 168.857Z" fill="url(#paint8_linear)"/>
<path d="M122.412 168.857H174.368L178.304 194.048H118.476L122.412 168.857Z" fill="url(#paint9_linear)"/>
<path d="M181.649 194.048H115.13C112.63 194.048 110.604 196.074 110.604 198.574C110.604 201.074 112.63 203.101 115.13 203.101H181.649C184.149 203.101 186.176 201.074 186.176 198.574C186.176 196.074 184.149 194.048 181.649 194.048Z" fill="#E6E6EF"/>
<path d="M181.649 194.048H115.13C112.63 194.048 110.604 196.074 110.604 198.574C110.604 201.074 112.63 203.101 115.13 203.101H181.649C184.149 203.101 186.176 201.074 186.176 198.574C186.176 196.074 184.149 194.048 181.649 194.048Z" fill="url(#paint10_linear)"/>
<path d="M13.3826 67.7006C5.99159 67.7006 0 61.709 0 54.318C0 46.927 5.99159 40.9354 13.3826 40.9354C16.6801 40.9354 19.699 42.128 22.0316 44.1054C24.3018 36.5776 31.2893 31.0952 39.5574 31.0952C46.9512 31.0952 53.321 35.4795 56.2089 41.7901C58.7063 39.7781 61.8818 38.5737 65.3386 38.5737C73.3817 38.5737 79.902 45.094 79.902 53.1371C79.902 61.1803 73.3817 67.7006 65.3386 67.7006C60.3726 67.7006 18.4663 67.7006 13.3826 67.7006Z" fill="#E6E6EF"/>
<path d="M13.3826 67.7006C5.99159 67.7006 0 61.709 0 54.318C0 46.927 5.99159 40.9354 13.3826 40.9354C16.6801 40.9354 19.699 42.128 22.0316 44.1054C24.3018 36.5776 31.2893 31.0952 39.5574 31.0952C46.9512 31.0952 53.321 35.4795 56.2089 41.7901C58.7063 39.7781 61.8818 38.5737 65.3386 38.5737C73.3817 38.5737 79.902 45.094 79.902 53.1371C79.902 61.1803 73.3817 67.7006 65.3386 67.7006C60.3726 67.7006 18.4663 67.7006 13.3826 67.7006Z" fill="url(#paint11_linear)"/>
<path d="M245.216 43.2969C239.715 43.2969 235.376 38.9804 235.376 33.8503C235.376 28.331 239.715 24.0144 245.216 24.0102C247.455 24.0144 249.641 24.8736 251.514 26.3718C252.974 20.875 258.034 16.9253 264.109 16.9253C269.375 16.9253 273.988 20.0838 275.917 24.7974C277.887 23.1807 280.187 22.313 282.609 22.4358C288.514 22.313 293.236 27.0104 293.236 32.6695C293.236 38.5995 288.514 43.2969 282.609 43.2969C279.094 43.2969 248.748 43.2969 245.216 43.2969Z" fill="#E6E6EF"/>
<path d="M245.216 43.2969C239.715 43.2969 235.376 38.9804 235.376 33.8503C235.376 28.331 239.715 24.0144 245.216 24.0102C247.455 24.0144 249.641 24.8736 251.514 26.3718C252.974 20.875 258.034 16.9253 264.109 16.9253C269.375 16.9253 273.988 20.0838 275.917 24.7974C277.887 23.1807 280.187 22.313 282.609 22.4358C288.514 22.313 293.236 27.0104 293.236 32.6695C293.236 38.5995 288.514 43.2969 282.609 43.2969C279.094 43.2969 248.748 43.2969 245.216 43.2969Z" fill="url(#paint12_linear)"/>
<defs>
<linearGradient id="paint0_linear" x1="148.389" y1="0" x2="148.389" y2="142.879" gradientUnits="userSpaceOnUse">
<stop stop-color="#393E41" stop-opacity="0"/>
<stop offset="1" stop-opacity="0.3"/>
</linearGradient>
<linearGradient id="paint1_linear" x1="65.7325" y1="21.6475" x2="65.7325" y2="131.07" gradientUnits="userSpaceOnUse">
<stop stop-color="#818194" stop-opacity="0"/>
<stop offset="1" stop-opacity="0.2"/>
</linearGradient>
<linearGradient id="paint2_linear" x1="92.1599" y1="46.8384" x2="92.1599" y2="131.07" gradientUnits="userSpaceOnUse">
<stop stop-color="#818194" stop-opacity="0"/>
<stop offset="1" stop-opacity="0.3"/>
</linearGradient>
<linearGradient id="paint3_linear" x1="234.984" y1="49.2021" x2="234.984" y2="131.072" gradientUnits="userSpaceOnUse">
<stop stop-color="#818194" stop-opacity="0"/>
<stop offset="1" stop-opacity="0.2"/>
</linearGradient>
<linearGradient id="paint4_linear" x1="197.331" y1="61.0098" x2="197.331" y2="131.072" gradientUnits="userSpaceOnUse">
<stop stop-color="#818194" stop-opacity="0"/>
<stop offset="1" stop-opacity="0.3"/>
</linearGradient>
<linearGradient id="paint5_linear" x1="148.39" y1="79.9023" x2="148.39" y2="131.071" gradientUnits="userSpaceOnUse">
<stop stop-color="#52C883" stop-opacity="0"/>
<stop offset="1" stop-opacity="0.05"/>
</linearGradient>
<linearGradient id="paint6_linear" x1="148.39" y1="101.943" x2="148.39" y2="131.07" gradientUnits="userSpaceOnUse">
<stop stop-color="#00A07D" stop-opacity="0"/>
<stop offset="1" stop-opacity="0.1"/>
</linearGradient>
<linearGradient id="paint7_linear" x1="148.389" y1="142.879" x2="148.389" y2="168.857" gradientUnits="userSpaceOnUse">
<stop stop-color="#E6E6EF" stop-opacity="0"/>
<stop offset="1" stop-opacity="0.05"/>
</linearGradient>
<linearGradient id="paint8_linear" x1="148.39" y1="168.857" x2="148.39" y2="194.048" gradientUnits="userSpaceOnUse">
<stop stop-color="#E6E6EF" stop-opacity="0"/>
<stop offset="1" stop-opacity="0.05"/>
</linearGradient>
<linearGradient id="paint9_linear" x1="148.39" y1="168.857" x2="148.39" y2="194.048" gradientUnits="userSpaceOnUse">
<stop stop-opacity="0.2"/>
<stop offset="1" stop-color="#E6E6EF" stop-opacity="0"/>
</linearGradient>
<linearGradient id="paint10_linear" x1="148.39" y1="194.048" x2="148.39" y2="203.101" gradientUnits="userSpaceOnUse">
<stop stop-color="#E6E6EF" stop-opacity="0"/>
<stop offset="1" stop-opacity="0.05"/>
</linearGradient>
<linearGradient id="paint11_linear" x1="39.951" y1="31.0952" x2="39.951" y2="67.7006" gradientUnits="userSpaceOnUse">
<stop stop-color="#E6E6EF" stop-opacity="0"/>
<stop offset="1" stop-opacity="0.0487149"/>
</linearGradient>
<linearGradient id="paint12_linear" x1="264.306" y1="16.9253" x2="264.306" y2="43.2969" gradientUnits="userSpaceOnUse">
<stop stop-color="#E6E6EF" stop-opacity="0"/>
<stop offset="1" stop-opacity="0.0487149"/>
</linearGradient>
</defs>
</svg>
