<svg width="28" height="28" viewBox="0 0 28 28" fill="none" xmlns="http://www.w3.org/2000/svg">
<path d="M19.8333 2.33333C21.3792 2.33333 22.8448 2.94583 23.9531 4.04688C25.0615 5.14792 25.6667 6.62083 25.6667 8.16667V19.8333C25.6667 21.3792 25.0542 22.8448 23.9531 23.9531C22.8521 25.0615 21.3792 25.6667 19.8333 25.6667H8.16667C6.62083 25.6667 5.15521 25.0542 4.04688 23.9531C2.93854 22.8521 2.33333 21.3792 2.33333 19.8333V8.16667C2.33333 6.62083 2.94583 5.15521 4.04688 4.04688C5.14792 2.93854 6.62083 2.33333 8.16667 2.33333H19.8333ZM19.8333 0H8.16667C3.675 0 0 3.675 0 8.16667V19.8333C0 24.325 3.675 28 8.16667 28H19.8333C24.325 28 28 24.325 28 19.8333V8.16667C28 3.675 24.325 0 19.8333 0Z" fill="#212B3D"/>
<path d="M21.5833 8.16699C20.6135 8.16699 19.8333 7.38678 19.8333 6.41699C19.8333 5.4472 20.6135 4.66699 21.5833 4.66699C22.5458 4.66699 23.3333 5.4472 23.3333 6.41699C23.3333 7.38678 22.5458 8.16699 21.5833 8.16699ZM14 9.33366C16.574 9.33366 18.6667 11.4264 18.6667 14.0003C18.6667 16.5743 16.574 18.667 14 18.667C11.426 18.667 9.33333 16.5743 9.33333 14.0003C9.33333 11.4264 11.426 9.33366 14 9.33366ZM14 7.00033C10.1354 7.00033 7 10.1357 7 14.0003C7 17.8649 10.1354 21.0003 14 21.0003C17.8646 21.0003 21 17.8649 21 14.0003C21 10.1357 17.8646 7.00033 14 7.00033Z" fill="#212B3D"/>
</svg>
