<svg width="27" height="26" viewBox="0 0 27 26" fill="none" xmlns="http://www.w3.org/2000/svg">
<path d="M27 15.818V25.8001H21.213V16.4865C21.213 14.1469 20.376 12.5502 18.2813 12.5502C16.6823 12.5502 15.7307 13.6263 15.3121 14.6672C15.1594 15.0393 15.1201 15.5572 15.1201 16.0781V25.8001H9.33117C9.33117 25.8001 9.40914 10.026 9.33117 8.3917H15.1195V10.8593C15.1078 10.8777 15.0925 10.8976 15.0815 10.9155H15.1195V10.8593C15.8886 9.6748 17.262 7.98273 20.3361 7.98273C24.1448 7.98267 27 10.4708 27 15.818ZM3.27572 0C1.29533 0 0 1.29897 0 3.00717C0 4.67814 1.25786 6.01654 3.19888 6.01654H3.23755C5.25629 6.01654 6.51176 4.67839 6.51176 3.00717C6.47372 1.29897 5.25629 0 3.27572 0ZM0.343811 25.8001H6.13053V8.3917H0.343811V25.8001Z" fill="#212B3D"/>
</svg>
