<svg width="352" height="352" viewBox="0 0 352 352" fill="none" xmlns="http://www.w3.org/2000/svg">
<rect x="4" y="4" width="344" height="344" stroke="#017EFC" stroke-width="8"/>
<mask id="mask0" mask-type="alpha" maskUnits="userSpaceOnUse" x="54" y="42" width="170" height="254">
<path d="M61.8873 103.82C61.9214 73.7509 86.5529 54.1282 98.183 48.3333C127.527 32.9504 149.198 52.6667 152.001 54.5912C155.188 56.062 194.385 44.7328 212.077 88.3838C229.823 131.983 205.93 158.943 205.819 179.749C205.93 200.167 246.106 241.929 205.819 275.286C165.754 308.621 75.2724 300.462 58.967 256.095C42.7545 211.99 74.5788 190.272 75.2375 167.233C75.8842 146.199 61.9214 139.677 61.8873 103.82Z" fill="white"/>
</mask>
<g mask="url(#mask0)">
<path d="M61.8873 103.82C61.9214 73.7509 86.5529 54.1282 98.183 48.3333C127.527 32.9504 149.198 52.6667 152.001 54.5912C155.188 56.062 194.385 44.7328 212.077 88.3838C229.823 131.983 205.93 158.943 205.819 179.749C205.93 200.167 246.106 241.929 205.819 275.286C165.754 308.621 75.2724 300.462 58.967 256.095C42.7545 211.99 74.5788 190.272 75.2375 167.233C75.8842 146.199 61.9214 139.677 61.8873 103.82Z" fill="#1F1845"/>
<path d="M61.8873 103.82C61.9214 73.7509 86.5529 54.1282 98.183 48.3333C127.527 32.9504 149.198 52.6667 152.001 54.5912C155.188 56.062 194.385 44.7328 212.077 88.3838C229.823 131.983 205.93 158.943 205.819 179.749C205.93 200.167 246.106 241.929 205.819 275.286C165.754 308.621 75.2724 300.462 58.967 256.095C42.7545 211.99 74.5788 190.272 75.2375 167.233C75.8842 146.199 61.9214 139.677 61.8873 103.82Z" fill="url(#paint0_linear)"/>
</g>
<mask id="mask1" mask-type="alpha" maskUnits="userSpaceOnUse" x="63" y="123" width="155" height="173">
<path d="M213.065 268.252C211.008 270.63 208.606 272.978 205.819 275.285C168.498 306.338 87.4279 301.384 63.3206 264.697C90.0811 216.989 103.461 183.37 103.461 163.839C103.461 129.522 174.77 113.481 178.285 130.102C181.8 146.724 168.843 177.854 192.208 196.451C211.275 211.628 224.086 242.431 213.065 268.252Z" fill="white"/>
</mask>
<g mask="url(#mask1)">
<path d="M213.065 268.252C211.008 270.63 208.606 272.978 205.819 275.285C168.498 306.338 87.4279 301.384 63.3206 264.697C90.0811 216.989 103.461 183.37 103.461 163.839C103.461 129.522 174.77 113.481 178.285 130.102C181.8 146.724 168.843 177.854 192.208 196.451C211.275 211.628 224.086 242.431 213.065 268.252Z" fill="url(#paint1_linear)"/>
</g>
<mask id="mask2" mask-type="alpha" maskUnits="userSpaceOnUse" x="66" y="192" width="118" height="124">
<path d="M171.609 197.689C191.84 200.579 182.875 300.404 171.609 308.662C160.342 316.92 121.191 319.442 86.9187 308.662C52.6465 297.881 67.0785 193.98 86.9187 192.682C106.616 191.272 151.027 194.686 171.609 197.689Z" fill="white"/>
</mask>
<g mask="url(#mask2)">
<path d="M171.609 197.689C191.84 200.579 182.875 300.404 171.609 308.662C160.342 316.92 121.191 319.442 86.9187 308.662C52.6465 297.881 67.0785 193.98 86.9187 192.682C106.616 191.272 151.027 194.686 171.609 197.689Z" fill="#403F9F"/>
<path d="M171.609 197.689C191.84 200.579 182.875 300.404 171.609 308.662C160.342 316.92 121.191 319.442 86.9187 308.662C52.6465 297.881 67.0785 193.98 86.9187 192.682C106.616 191.272 151.027 194.686 171.609 197.689Z" fill="url(#paint2_linear)"/>
<path fill-rule="evenodd" clip-rule="evenodd" d="M75.2375 260.267C85.4118 263.604 94.0338 269.306 101.103 277.371C111.797 289.47 139.045 270.01 159.928 283.629C174.02 292.709 174.298 303 160.762 314.502C100.13 317.283 69.814 318.674 69.814 318.674C69.814 318.674 71.6218 299.205 75.2375 260.267Z" fill="url(#paint3_linear)"/>
</g>
<path d="M113.199 177.663H145.323V197.479C145.323 206.35 138.132 213.541 129.261 213.541C120.39 213.541 113.199 206.35 113.199 197.479V177.663Z" fill="#FF6663"/>
<path d="M113.199 177.663H145.323V197.479C145.323 206.35 138.132 213.541 129.261 213.541C120.39 213.541 113.199 206.35 113.199 197.479V177.663Z" fill="url(#paint4_linear)"/>
<path fill-rule="evenodd" clip-rule="evenodd" d="M119.457 195.185C117.227 194.641 115.143 193.958 113.199 193.156V177.663H145.323V194.196C137.996 197.084 129.571 197.767 119.457 195.185Z" fill="url(#paint5_linear)"/>
<mask id="mask3" mask-type="alpha" maskUnits="userSpaceOnUse" x="87" y="197" width="106" height="132">
<path d="M171.607 197.688C193.231 200.897 192.022 227.756 192.05 258.181C192.022 288.938 186.083 328.686 168.27 328.686C150.511 328.686 88.4896 328.686 87.3343 308.661C86.7738 294.771 88.4896 288.317 96.5126 289.887C104.633 291.745 124.659 293.413 156.588 294.894C164.371 269.322 168.265 252.496 168.27 244.414C168.407 206.409 160.728 196.392 171.607 197.688Z" fill="white"/>
</mask>
<g mask="url(#mask3)">
<path d="M171.607 197.688C193.231 200.897 192.022 227.756 192.05 258.181C192.022 288.938 186.083 328.686 168.27 328.686C150.511 328.686 88.4896 328.686 87.3343 308.661C86.7738 294.771 88.4896 288.317 96.5126 289.887C104.633 291.745 124.659 293.413 156.588 294.894C164.371 269.322 168.265 252.496 168.27 244.414C168.407 206.409 160.728 196.392 171.607 197.688Z" fill="#403F9F"/>
<path d="M171.607 197.688C193.231 200.897 192.022 227.756 192.05 258.181C192.022 288.938 186.083 328.686 168.27 328.686C150.511 328.686 88.4896 328.686 87.3343 308.661C86.7738 294.771 88.4896 288.317 96.5126 289.887C104.633 291.745 124.659 293.413 156.588 294.894C164.371 269.322 168.265 252.496 168.27 244.414C168.407 206.409 160.728 196.392 171.607 197.688Z" fill="url(#paint6_linear)"/>
<path fill-rule="evenodd" clip-rule="evenodd" d="M105.274 322.846L143.239 304.907L114.112 330.343L105.274 322.846Z" fill="url(#paint7_linear)"/>
</g>
<path d="M156.771 294.241C156.67 294.572 156.321 294.758 155.99 294.658C155.659 294.557 155.473 294.208 155.574 293.877C157.582 287.279 159.33 281.265 160.82 275.834C165.089 260.267 167.224 249.501 167.228 243.579C167.228 243.233 167.509 242.953 167.854 242.953C168.2 242.953 168.48 243.234 168.48 243.579C168.476 249.647 166.324 260.495 162.027 276.165C160.534 281.608 158.782 287.633 156.771 294.241Z" fill="white"/>
<path d="M136.146 285.298C141.308 285.298 148.539 287.106 157.84 290.721L156.588 294.893C149.034 301.24 144.584 304.577 143.238 304.906C138.736 305.863 128.403 285.298 136.146 285.298Z" fill="#FF6663"/>
<path d="M136.146 285.298C141.308 285.298 148.539 287.106 157.84 290.721L156.588 294.893C149.034 301.24 144.584 304.577 143.238 304.906C138.736 305.863 128.403 285.298 136.146 285.298Z" fill="url(#paint8_linear)"/>
<path d="M87.7496 192.683C75.5369 193.441 62.0349 208.108 55.2086 243.58C48.3307 279.36 38.5492 320.871 55.2086 325.767C62.6204 328.001 89.452 328.001 105.272 322.847C126.857 315.814 142.873 304.907 143.236 304.907C143.888 304.907 140.493 285.26 136.144 285.299C133.245 285.273 114.611 287.498 80.2401 291.975C80.1285 290.13 77.3472 277.892 71.8963 255.262C63.7756 221.421 99.9623 191.925 87.7496 192.683Z" fill="#403F9F"/>
<path d="M87.7496 192.683C75.5369 193.441 62.0349 208.108 55.2086 243.58C48.3307 279.36 38.5492 320.871 55.2086 325.767C62.6204 328.001 89.452 328.001 105.272 322.847C126.857 315.814 142.873 304.907 143.236 304.907C143.888 304.907 140.493 285.26 136.144 285.299C133.245 285.273 114.611 287.498 80.2401 291.975C80.1285 290.13 77.3472 277.892 71.8963 255.262C63.7756 221.421 99.9623 191.925 87.7496 192.683Z" fill="url(#paint9_linear)"/>
<path d="M74.4008 263.018C74.4811 263.354 74.2737 263.692 73.9375 263.772C73.6014 263.852 73.2638 263.645 73.1835 263.309C72.5923 260.833 71.9606 258.2 71.288 255.408C68.537 243.943 70.5009 232.326 76.0648 219.974C76.2067 219.659 76.5773 219.519 76.8924 219.661C77.2075 219.803 77.3479 220.173 77.2059 220.488C71.7463 232.608 69.8276 243.958 72.5049 255.115C73.1775 257.908 73.8095 260.542 74.4008 263.018Z" fill="white"/>
<path d="M96.5119 289.887C86.4155 271.966 79.3232 262.092 75.2351 260.266C68.7654 257.74 54.8242 254.605 51.0379 256.928C47.4805 259.152 43.8727 270.748 45.6144 275.702C47.4805 280.483 56.9318 288.861 63.5537 289.887C65.4956 290.187 71.0582 290.883 80.2414 291.973L96.5119 289.887Z" fill="#FF6663"/>
<path d="M96.5119 289.887C86.4155 271.966 79.3232 262.092 75.2351 260.266C68.7654 257.74 54.8242 254.605 51.0379 256.928C47.4805 259.152 43.8727 270.748 45.6144 275.702C47.4805 280.483 56.9318 288.861 63.5537 289.887C65.4956 290.187 71.0582 290.883 80.2414 291.973L96.5119 289.887Z" fill="url(#paint10_linear)"/>
<mask id="mask4" mask-type="alpha" maskUnits="userSpaceOnUse" x="88" y="87" width="102" height="98">
<path d="M178.281 130.103C183.652 128.87 193.499 133.04 188.711 146.373C185.132 156.142 177.688 164.727 169.103 162.227C156.569 177.658 142.305 188.585 119.457 182.669C96.2787 177.127 88.9143 156.594 88.5851 145.122C86.3515 133.218 96.9487 93.6513 99.0149 89.6352C104.099 80.7007 122.081 101.505 143.654 111.746C165.047 122.259 184.497 113.316 178.281 130.103Z" fill="white"/>
</mask>
<g mask="url(#mask4)">
<path d="M178.281 130.103C183.652 128.87 193.499 133.04 188.711 146.373C185.132 156.142 177.688 164.727 169.103 162.227C156.569 177.658 142.305 188.585 119.457 182.669C96.2787 177.127 88.9143 156.594 88.5851 145.122C86.3515 133.218 96.9487 93.6513 99.0149 89.6352C104.099 80.7007 122.081 101.505 143.654 111.746C165.047 122.259 184.497 113.316 178.281 130.103Z" fill="#FF6663"/>
<path d="M178.281 130.103C183.652 128.87 193.499 133.04 188.711 146.373C185.132 156.142 177.688 164.727 169.103 162.227C156.569 177.658 142.305 188.585 119.457 182.669C96.2787 177.127 88.9143 156.594 88.5851 145.122C86.3515 133.218 96.9487 93.6513 99.0149 89.6352C104.099 80.7007 122.081 101.505 143.654 111.746C165.047 122.259 184.497 113.316 178.281 130.103Z" fill="url(#paint11_linear)"/>
<path fill-rule="evenodd" clip-rule="evenodd" d="M98.1804 91.7217C102.571 91.8868 112.445 100.648 127.801 118.005C143.157 135.362 159.984 139.395 178.281 130.103L191.214 109.244L101.518 73.3652L98.1804 91.7217Z" fill="url(#paint12_linear)"/>
</g>
<path d="M311.329 37.2371C310.298 37.4412 285.438 42.7033 284.517 42.8848C283.595 43.0662 282.739 43.7013 282.739 44.6993V102.56C282.739 102.923 282.717 104.193 282.213 105.214C281.533 106.552 280.348 107.527 278.68 108.094C277.956 108.344 276.969 108.571 275.806 108.843C270.518 110.068 261.676 112.154 261.676 120.592C261.676 127.419 266.437 130.685 269.355 131.275C270.452 131.502 271.769 131.502 272.383 131.502C274.182 131.502 280.282 130.753 283.617 128.508C286.031 126.875 288.905 123.654 288.905 117.666V65.5664C288.905 64.7045 289.497 63.956 290.309 63.7972L310.671 59.4877C312.294 59.1475 313.479 57.6505 313.479 55.9267V38.9609C313.457 37.9856 312.646 36.9649 311.329 37.2371Z" fill="#017EFC"/>
<defs>
<linearGradient id="paint0_linear" x1="139.059" y1="42.5054" x2="139.059" y2="295.728" gradientUnits="userSpaceOnUse">
<stop stop-color="#1F1845" stop-opacity="0"/>
<stop offset="1" stop-opacity="0.2"/>
</linearGradient>
<linearGradient id="paint1_linear" x1="88.1259" y1="108.847" x2="177.259" y2="304.127" gradientUnits="userSpaceOnUse">
<stop stop-opacity="0.646003"/>
<stop offset="1" stop-color="#1F1845" stop-opacity="0"/>
</linearGradient>
<linearGradient id="paint2_linear" x1="124.964" y1="192.354" x2="124.964" y2="315.832" gradientUnits="userSpaceOnUse">
<stop stop-color="#403F9F" stop-opacity="0"/>
<stop offset="1" stop-opacity="0.1"/>
</linearGradient>
<linearGradient id="paint3_linear" x1="69.814" y1="260.267" x2="120.463" y2="347.761" gradientUnits="userSpaceOnUse">
<stop stop-opacity="0.155089"/>
<stop offset="1" stop-opacity="0"/>
</linearGradient>
<linearGradient id="paint4_linear" x1="130.393" y1="177.663" x2="128.981" y2="213.53" gradientUnits="userSpaceOnUse">
<stop stop-color="#C74D75" stop-opacity="0"/>
<stop offset="1" stop-color="#AF3B6E" stop-opacity="0.2"/>
</linearGradient>
<linearGradient id="paint5_linear" x1="113.199" y1="177.663" x2="130.014" y2="205.904" gradientUnits="userSpaceOnUse">
<stop stop-opacity="0.2"/>
<stop offset="1" stop-color="#FF6663" stop-opacity="0"/>
</linearGradient>
<linearGradient id="paint6_linear" x1="139.646" y1="197.58" x2="139.646" y2="328.686" gradientUnits="userSpaceOnUse">
<stop stop-color="#403F9F" stop-opacity="0"/>
<stop offset="1" stop-opacity="0.1"/>
</linearGradient>
<linearGradient id="paint7_linear" x1="110.234" y1="304.907" x2="129.658" y2="338.254" gradientUnits="userSpaceOnUse">
<stop stop-opacity="0.155089"/>
<stop offset="1" stop-opacity="0"/>
</linearGradient>
<linearGradient id="paint8_linear" x1="146.459" y1="285.298" x2="145.904" y2="304.947" gradientUnits="userSpaceOnUse">
<stop stop-color="#C74D75" stop-opacity="0"/>
<stop offset="1" stop-color="#AF3B6E" stop-opacity="0.2"/>
</linearGradient>
<linearGradient id="paint9_linear" x1="94.6727" y1="192.668" x2="94.6727" y2="327.189" gradientUnits="userSpaceOnUse">
<stop stop-color="#403F9F" stop-opacity="0"/>
<stop offset="1" stop-opacity="0.1"/>
</linearGradient>
<linearGradient id="paint10_linear" x1="72.6473" y1="256.114" x2="71.764" y2="291.995" gradientUnits="userSpaceOnUse">
<stop stop-color="#C74D75" stop-opacity="0"/>
<stop offset="1" stop-color="#AF3B6E" stop-opacity="0.2"/>
</linearGradient>
<linearGradient id="paint11_linear" x1="142.718" y1="87.459" x2="139.467" y2="184.313" gradientUnits="userSpaceOnUse">
<stop stop-color="#C74D75" stop-opacity="0"/>
<stop offset="1" stop-color="#AF3B6E" stop-opacity="0.2"/>
</linearGradient>
<linearGradient id="paint12_linear" x1="98.1804" y1="73.3652" x2="154.888" y2="159.014" gradientUnits="userSpaceOnUse">
<stop stop-opacity="0.2"/>
<stop offset="1" stop-color="#FF6663" stop-opacity="0"/>
</linearGradient>
</defs>
</svg>
