<svg width="347" height="347" viewBox="0 0 347 347" fill="none" xmlns="http://www.w3.org/2000/svg">
<rect x="4" y="4" width="339" height="339" stroke="#017EFC" stroke-width="8"/>
<mask id="mask0" mask-type="alpha" maskUnits="userSpaceOnUse" x="65" y="97" width="222" height="160">
<path d="M72.502 102.069L102.816 97.332L140.622 103.239H277.671C282.565 103.239 286.532 107.206 286.532 112.1V247.967C286.532 252.861 282.565 256.828 277.671 256.828H140.622L102.816 250.921L75.2379 255.23C70.4028 255.986 65.8707 252.678 65.1153 247.843C65.0445 247.391 65.009 246.933 65.009 246.475V110.823C65.009 106.458 68.1888 102.742 72.502 102.069Z" fill="white"/>
</mask>
<g mask="url(#mask0)">
<path d="M72.502 102.069L102.816 97.332L140.622 103.239H277.671C282.565 103.239 286.532 107.206 286.532 112.1V247.967C286.532 252.861 282.565 256.828 277.671 256.828H140.622L102.816 250.921L75.2379 255.23C70.4028 255.986 65.8707 252.678 65.1153 247.843C65.0445 247.391 65.009 246.933 65.009 246.475V110.823C65.009 106.458 68.1888 102.742 72.502 102.069Z" fill="#E6E6EF"/>
<path d="M72.502 102.069L102.816 97.332L140.622 103.239H277.671C282.565 103.239 286.532 107.206 286.532 112.1V247.967C286.532 252.861 282.565 256.828 277.671 256.828H140.622L102.816 250.921L75.2379 255.23C70.4028 255.986 65.8707 252.678 65.1153 247.843C65.0445 247.391 65.009 246.933 65.009 246.475V110.823C65.009 106.458 68.1888 102.742 72.502 102.069Z" fill="url(#paint0_linear)"/>
</g>
<mask id="mask1" mask-type="alpha" maskUnits="userSpaceOnUse" x="79" y="112" width="193" height="131">
<path d="M86.8263 115.44L102.816 112.1L140.622 116.913H262.903C267.797 116.913 271.764 120.88 271.764 125.774V233.199C271.764 238.092 267.797 242.06 262.903 242.06H140.622L102.816 237.246L90.4507 239.83C85.6603 240.831 80.9657 237.759 79.9649 232.968C79.8403 232.372 79.7776 231.765 79.7776 231.156V124.114C79.7776 119.919 82.7197 116.298 86.8263 115.44Z" fill="white"/>
</mask>
<g mask="url(#mask1)">
<path d="M86.8263 115.44L102.816 112.1L140.622 116.913H262.903C267.797 116.913 271.764 120.88 271.764 125.774V233.199C271.764 238.092 267.797 242.06 262.903 242.06H140.622L102.816 237.246L90.4507 239.83C85.6603 240.831 80.9657 237.759 79.9649 232.968C79.8403 232.372 79.7776 231.765 79.7776 231.156V124.114C79.7776 119.919 82.7197 116.298 86.8263 115.44Z" fill="#7BC1EB"/>
</g>
<mask id="mask2" mask-type="alpha" maskUnits="userSpaceOnUse" x="79" y="112" width="178" height="131">
<path d="M236.859 116.913C236.011 119.707 235.768 122.343 236.328 124.8C239.801 143.167 263.225 173.594 254.937 181.805C246.314 189.668 225.575 176.793 216.833 191.848C207.745 207.612 181.92 205.653 183.751 232.903C184.001 237.974 181.767 240.66 177.949 242.06H140.625L102.817 237.246L90.4506 239.83C85.6602 240.831 80.9656 237.759 79.9649 232.968C79.8403 232.372 79.7776 231.765 79.7776 231.156V124.114C79.7776 119.919 82.7198 116.298 86.8264 115.44L102.817 112.1L140.625 116.913H236.859Z" fill="white"/>
</mask>
<g mask="url(#mask2)">
<path d="M236.859 116.913C236.011 119.707 235.768 122.343 236.328 124.8C239.801 143.167 263.225 173.594 254.937 181.805C246.314 189.668 225.575 176.793 216.833 191.848C207.745 207.612 181.92 205.653 183.751 232.903C184.001 237.974 181.767 240.66 177.949 242.06H140.625L102.817 237.246L90.4506 239.83C85.6602 240.831 80.9656 237.759 79.9649 232.968C79.8403 232.372 79.7776 231.765 79.7776 231.156V124.114C79.7776 119.919 82.7198 116.298 86.8264 115.44L102.817 112.1L140.625 116.913H236.859Z" fill="#00A07D"/>
<path d="M147.711 256.237L140.032 251.512L159.821 219.022C161.521 216.331 162.609 213.505 163.07 210.456L166.91 190.962C168.633 181.907 173.843 174.036 181.383 169.105L200.582 156.109C208.766 150.66 212.993 141.048 211.51 131.299L204.717 88.1755L213.578 86.6987L220.371 130.117C222.274 143.1 216.555 156.104 205.603 163.493L186.404 176.194C180.745 180.074 176.894 185.892 175.771 192.439L171.931 212.228C171.116 216.204 169.643 220.027 167.501 223.452L147.711 256.237Z" fill="white"/>
</g>
<path d="M206.194 68.0908C184.077 68.2883 166.025 86.2899 166.025 108.556C166.025 131.653 197.237 167.128 204.717 175.308C205.475 176.128 206.914 176.128 207.671 175.308C215.151 167.128 246.364 131.653 246.364 108.556C246.364 86.2899 228.311 68.288 206.194 68.0908Z" fill="#3499FF" fill-opacity="0.985198"/>
<path d="M206.194 68.0908C184.077 68.2883 166.025 86.2899 166.025 108.556C166.025 131.653 197.237 167.128 204.717 175.308C205.475 176.128 206.914 176.128 207.671 175.308C215.151 167.128 246.364 131.653 246.364 108.556C246.364 86.2899 228.311 68.288 206.194 68.0908Z" fill="url(#paint1_linear)"/>
<path fill-rule="evenodd" clip-rule="evenodd" d="M102.816 97.332L140.623 103.239V256.828L102.816 250.921V97.332Z" fill="url(#paint2_linear)"/>
<path d="M132.17 158.779H58.3984C45.0843 158.779 34.291 169.573 34.291 182.887C34.291 196.201 45.0843 206.994 58.3984 206.994H132.17C145.484 206.994 156.277 196.201 156.277 182.887C156.277 169.573 145.484 158.779 132.17 158.779Z" fill="#F0F0F6"/>
<path d="M132.17 158.779H58.3984C45.0843 158.779 34.291 169.573 34.291 182.887C34.291 196.201 45.0843 206.994 58.3984 206.994H132.17C145.484 206.994 156.277 196.201 156.277 182.887C156.277 169.573 145.484 158.779 132.17 158.779Z" fill="url(#paint3_linear)"/>
<path d="M114.781 192.767H89.7519C88.6606 192.767 87.7759 193.651 87.7759 194.743C87.7759 195.834 88.6606 196.719 89.7519 196.719H114.781C115.873 196.719 116.757 195.834 116.757 194.743C116.757 193.651 115.873 192.767 114.781 192.767Z" fill="#DBDBE8"/>
<path d="M135.859 184.863H89.7519C88.6606 184.863 87.7759 185.747 87.7759 186.839C87.7759 187.93 88.6606 188.815 89.7519 188.815H135.859C136.95 188.815 137.835 187.93 137.835 186.839C137.835 185.747 136.95 184.863 135.859 184.863Z" fill="#DBDBE8"/>
<path d="M135.859 176.959H89.7519C88.6606 176.959 87.7759 177.844 87.7759 178.935C87.7759 180.026 88.6606 180.911 89.7519 180.911H135.859C136.95 180.911 137.835 180.026 137.835 178.935C137.835 177.844 136.95 176.959 135.859 176.959Z" fill="#DBDBE8"/>
<path d="M135.859 169.055H89.7519C88.6606 169.055 87.7759 169.94 87.7759 171.031C87.7759 172.123 88.6606 173.007 89.7519 173.007H135.859C136.95 173.007 137.835 172.123 137.835 171.031C137.835 169.94 136.95 169.055 135.859 169.055Z" fill="#DBDBE8"/>
<mask id="mask3" mask-type="alpha" maskUnits="userSpaceOnUse" x="39" y="164" width="39" height="38">
<path d="M58.4 201.725C68.804 201.725 77.238 193.291 77.238 182.887C77.238 172.483 68.804 164.049 58.4 164.049C47.9961 164.049 39.562 172.483 39.562 182.887C39.562 193.291 47.9961 201.725 58.4 201.725Z" fill="white"/>
</mask>
<g mask="url(#mask3)">
<path d="M58.4 201.725C68.804 201.725 77.238 193.291 77.238 182.887C77.238 172.483 68.804 164.049 58.4 164.049C47.9961 164.049 39.562 172.483 39.562 182.887C39.562 193.291 47.9961 201.725 58.4 201.725Z" fill="white"/>
<path d="M58.397 186.97C61.3799 186.97 63.7981 191.026 63.7981 196.03V201.359C63.7981 206.363 61.3799 210.419 58.397 210.419C55.414 210.419 52.9958 206.363 52.9958 201.359V196.03C52.9958 191.026 55.414 186.97 58.397 186.97Z" fill="#FFC62C"/>
<path d="M58.397 186.97C61.3799 186.97 63.7981 191.026 63.7981 196.03V201.359C63.7981 206.363 61.3799 210.419 58.397 210.419C55.414 210.419 52.9958 206.363 52.9958 201.359V196.03C52.9958 191.026 55.414 186.97 58.397 186.97Z" fill="url(#paint4_linear)"/>
<path fill-rule="evenodd" clip-rule="evenodd" d="M63.7981 199.383C63.0676 199.536 62.3246 199.617 61.5741 199.617C59.0659 199.617 56.0256 198.929 52.9958 197.631V194.612C52.9958 191.992 55.1191 189.869 57.7383 189.869H59.0556C61.6748 189.869 63.7981 191.992 63.7981 194.612V199.383Z" fill="url(#paint5_linear)"/>
</g>
<mask id="mask4" mask-type="alpha" maskUnits="userSpaceOnUse" x="27" y="146" width="59" height="52">
<path d="M38.1401 157.417C42.0286 146.496 58.1664 143.34 66.6563 151.711C75.2217 160.223 79.2238 154.821 83.7661 158.605C88.3392 162.505 83.7815 169.633 79.251 173.583C74.7631 177.593 85.1266 184.943 82.3403 194.505C79.5886 204.046 63.3534 188.725 46.379 195.859C29.4046 202.994 21.8842 182.853 32.1992 175.723C42.5143 168.593 34.4011 168.457 38.1401 157.417Z" fill="white"/>
</mask>
<g mask="url(#mask4)">
<path d="M38.1401 157.417C42.0286 146.496 58.1664 143.34 66.6563 151.711C75.2217 160.223 79.2238 154.821 83.7661 158.605C88.3392 162.505 83.7815 169.633 79.251 173.583C74.7631 177.593 85.1266 184.943 82.3403 194.505C79.5886 204.046 63.3534 188.725 46.379 195.859C29.4046 202.994 21.8842 182.853 32.1992 175.723C42.5143 168.593 34.4011 168.457 38.1401 157.417Z" fill="#464D89"/>
<path d="M38.1401 157.417C42.0286 146.496 58.1664 143.34 66.6563 151.711C75.2217 160.223 79.2238 154.821 83.7661 158.605C88.3392 162.505 83.7815 169.633 79.251 173.583C74.7631 177.593 85.1266 184.943 82.3403 194.505C79.5886 204.046 63.3534 188.725 46.379 195.859C29.4046 202.994 21.8842 182.853 32.1992 175.723C42.5143 168.593 34.4011 168.457 38.1401 157.417Z" fill="url(#paint6_linear)"/>
<path fill-rule="evenodd" clip-rule="evenodd" d="M64.3055 204.544C63.6459 204.982 63.073 205.508 62.6154 206.154C61.5806 207.571 60.2269 207.97 58.5984 207.76C54.6724 207.049 49.1278 202.276 41.4187 200.383C33.5275 191.518 39.8393 171.985 44.3174 180.002C47.7948 186.157 56.4259 183.779 70.2197 172.87C76.5386 183.104 78.3696 191.291 75.6853 197.357C74.9239 199.102 74.2547 200.468 73.5652 201.606C70.2348 202.47 66.7129 202.925 64.3055 204.544Z" fill="url(#paint7_linear)"/>
</g>
<path d="M41.8725 182.239C39.6855 178.542 42.9953 176.3 44.0051 177.966C44.5091 178.683 44.6726 179.366 44.7159 180.102C46.6541 183.399 53.9934 176.368 56.3267 173.693C58.8732 170.872 59.2386 167.901 61.0658 173.693C62.3535 177.526 66.9845 176.01 70.544 172.981C70.5823 174.103 70.5439 175.302 70.544 176.542C70.5439 177.661 71.9657 179.142 71.9657 184.375C71.9657 189.56 66.5036 196.719 60.3549 196.719C55.6703 196.719 48.4968 193.563 45.1898 188.173C42.4345 188.17 44.156 185.925 41.8725 182.239Z" fill="#FFC62C"/>
<path d="M41.8725 182.239C39.6855 178.542 42.9953 176.3 44.0051 177.966C44.5091 178.683 44.6726 179.366 44.7159 180.102C46.6541 183.399 53.9934 176.368 56.3267 173.693C58.8732 170.872 59.2386 167.901 61.0658 173.693C62.3535 177.526 66.9845 176.01 70.544 172.981C70.5823 174.103 70.5439 175.302 70.544 176.542C70.5439 177.661 71.9657 179.142 71.9657 184.375C71.9657 189.56 66.5036 196.719 60.3549 196.719C55.6703 196.719 48.4968 193.563 45.1898 188.173C42.4345 188.17 44.156 185.925 41.8725 182.239Z" fill="url(#paint8_linear)"/>
<path d="M43.9061 186.707C44.0516 186.707 44.1695 186.825 44.1695 186.97C44.1695 187.116 44.0516 187.234 43.9061 187.234C43.8063 187.234 43.6412 187.434 43.5027 187.829C43.3414 188.29 43.2474 188.925 43.2474 189.605C43.2474 190.285 43.3414 190.92 43.5027 191.381C43.6412 191.777 43.8063 191.976 43.9061 191.976C44.0058 191.976 44.171 191.777 44.3094 191.381C44.4708 190.92 44.5647 190.285 44.5647 189.605C44.5647 189.399 44.5562 189.196 44.5393 189C44.5269 188.855 44.6344 188.727 44.7794 188.715C44.9244 188.702 45.052 188.81 45.0644 188.955C45.0825 189.166 45.0917 189.384 45.0917 189.605C45.0917 191.202 44.636 192.503 43.9061 192.503C43.1761 192.503 42.7205 191.202 42.7205 189.605C42.7205 188.009 43.1761 186.707 43.9061 186.707Z" fill="white"/>
<path fill-rule="evenodd" clip-rule="evenodd" d="M61.0716 178.486C59.2259 172.668 58.8575 175.664 56.2869 178.486C53.9375 181.205 47.8205 185.611 44.5645 180.156C46.5379 183.508 53.9375 176.419 56.2869 173.717C58.8575 170.877 59.2259 167.882 61.0716 173.717C62.3664 177.586 67.0354 176.057 70.641 173.001C70.6628 174.135 70.6241 175.343 70.641 176.578C70.6241 177.722 62.3664 182.373 61.0716 178.486Z" fill="url(#paint9_linear)"/>
<path d="M220.941 91.7429C220.364 91.8535 196.151 96.558 195.636 96.6562C195.121 96.7545 194.642 97.0984 194.642 97.6389V127.131C194.642 127.327 194.63 128.015 194.347 128.568C193.967 129.293 193.304 129.821 192.372 130.128C191.967 130.263 191.414 130.386 190.764 130.533C187.806 131.197 182.861 132.327 182.861 136.896C182.861 140.716 185.61 142.436 187.978 142.731C188.236 142.768 188.53 142.817 188.849 142.817C189.672 142.817 193.267 142.411 195.133 141.195C196.483 140.311 198.09 138.567 198.09 135.324V109.222C198.09 108.755 198.422 108.35 198.876 108.264L217.53 104.493C218.143 104.37 218.708 104.837 218.708 105.451V121.53C218.708 122.033 218.683 122.623 218.401 123.176C218.02 123.9 217.358 124.429 216.413 124.736C216.008 124.871 215.333 124.994 214.682 125.141C211.725 125.804 206.779 126.922 206.779 131.492C206.779 135.631 209.896 137.289 211.909 137.424C212.707 137.473 213.283 137.461 214.29 137.314C215.296 137.166 217.174 136.638 218.769 135.717C220.966 134.452 222.144 132.425 222.144 129.796V92.6887C222.132 92.1483 221.678 91.5955 220.941 91.7429Z" fill="#E8EDFB"/>
<path d="M292.588 210.456H209.887C194.961 210.456 182.861 222.555 182.861 237.481C182.861 252.407 194.961 264.507 209.887 264.507H292.588C307.514 264.507 319.614 252.407 319.614 237.481C319.614 222.555 307.514 210.456 292.588 210.456Z" fill="#F0F0F6"/>
<path d="M292.588 210.456H209.887C194.961 210.456 182.861 222.555 182.861 237.481C182.861 252.407 194.961 264.507 209.887 264.507H292.588C307.514 264.507 319.614 252.407 319.614 237.481C319.614 222.555 307.514 210.456 292.588 210.456Z" fill="url(#paint10_linear)"/>
<mask id="mask5" mask-type="alpha" maskUnits="userSpaceOnUse" x="268" y="216" width="43" height="43">
<path d="M289.633 258.601C301.296 258.601 310.751 249.146 310.751 237.482C310.751 225.819 301.296 216.364 289.633 216.364C277.969 216.364 268.514 225.819 268.514 237.482C268.514 249.146 277.969 258.601 289.633 258.601Z" fill="white"/>
</mask>
<g mask="url(#mask5)">
<path d="M289.633 258.601C301.296 258.601 310.751 249.146 310.751 237.482C310.751 225.819 301.296 216.364 289.633 216.364C277.969 216.364 268.514 225.819 268.514 237.482C268.514 249.146 277.969 258.601 289.633 258.601Z" fill="white"/>
<path d="M288.998 237.968H306.158L305.085 258.881C304.981 263.685 301.006 267.461 296.237 267.461C291.619 267.461 287.926 263.79 287.926 259.149C287.926 259.138 287.929 259.014 287.926 258.881L288.998 237.968Z" fill="#FFC62C"/>
<path d="M288.998 237.968H306.158L305.085 258.881C304.981 263.685 301.006 267.461 296.237 267.461C291.619 267.461 287.926 263.79 287.926 259.149C287.926 259.138 287.929 259.014 287.926 258.881L288.998 237.968Z" fill="url(#paint11_linear)"/>
<path fill-rule="evenodd" clip-rule="evenodd" d="M305.622 248.425C302.089 253.373 295.918 256.736 291.948 256.736C290.943 256.736 289.607 256.444 288.194 255.932L288.999 237.968H306.158L305.622 248.425Z" fill="url(#paint12_linear)"/>
</g>
<path d="M230.857 239.697H205.751C204.527 239.697 203.536 240.689 203.536 241.912C203.536 243.135 204.527 244.127 205.751 244.127H230.857C232.08 244.127 233.072 243.135 233.072 241.912C233.072 240.689 232.08 239.697 230.857 239.697Z" fill="#DBDBE8"/>
<path d="M257.44 230.835H205.751C204.527 230.835 203.536 231.827 203.536 233.05C203.536 234.274 204.527 235.265 205.751 235.265H257.44C258.663 235.265 259.655 234.274 259.655 233.05C259.655 231.827 258.663 230.835 257.44 230.835Z" fill="#DBDBE8"/>
<path d="M257.44 221.975H205.751C204.527 221.975 203.536 222.966 203.536 224.19C203.536 225.413 204.527 226.405 205.751 226.405H257.44C258.663 226.405 259.655 225.413 259.655 224.19C259.655 222.966 258.663 221.975 257.44 221.975Z" fill="#DBDBE8"/>
<path d="M305.892 228.106C308.297 228.927 309.957 231.19 309.913 233.679C309.863 236.584 308.08 238.884 305.712 239.608C304.282 247.751 294.66 254.056 289.402 254.056C283.713 254.056 272.913 246.673 272.913 237.566C273.45 233.36 273.718 231.098 273.718 230.779C273.718 230.461 273.45 228.076 272.913 223.624C272.913 214.518 280.296 207.135 289.402 207.135C298.509 207.135 305.892 214.518 305.892 223.624V228.106Z" fill="#FFC62C"/>
<path d="M305.892 228.106C308.297 228.927 309.957 231.19 309.913 233.679C309.863 236.584 308.08 238.884 305.712 239.608C304.282 247.751 294.66 254.056 289.402 254.056C283.713 254.056 272.913 246.673 272.913 237.566C273.45 233.36 273.718 231.098 273.718 230.779C273.718 230.461 273.45 228.076 272.913 223.624C272.913 214.518 280.296 207.135 289.402 207.135C298.509 207.135 305.892 214.518 305.892 223.624V228.106Z" fill="url(#paint13_linear)"/>
<path d="M305.844 244.133L306.16 237.968L305.892 233.375C303.173 231.865 301.334 228.965 301.334 225.635C301.334 224.892 301.425 224.171 301.598 223.481C301.466 223.487 301.333 223.49 301.2 223.49C296.712 223.49 293.017 220.098 292.538 215.738C291.19 216.41 289.67 216.787 288.062 216.787C285.671 216.787 283.476 215.953 281.75 214.56C280.992 214.955 280.129 215.179 279.214 215.179C277.988 215.179 276.856 214.777 275.942 214.099C274.591 216.004 273.635 218.208 273.192 220.593C271.053 218.773 269.696 216.062 269.696 213.034C269.696 207.877 273.631 203.639 278.661 203.159C280.103 199.37 283.768 196.679 288.062 196.679C289.855 196.679 291.539 197.148 292.997 197.971C295.163 196.002 298.041 194.802 301.2 194.802C307.678 194.802 312.978 199.852 313.375 206.231C318.117 207.102 321.711 211.257 321.711 216.251C321.711 219.051 320.581 221.588 318.752 223.429C318.933 224.135 319.029 224.874 319.029 225.635C319.029 228.572 317.598 231.175 315.395 232.785C315.493 233.336 315.544 233.903 315.544 234.483C315.544 239.74 311.08 244.016 305.844 244.133Z" fill="#1F1845"/>
<path d="M305.844 244.133L306.16 237.968L305.892 233.375C303.173 231.865 301.334 228.965 301.334 225.635C301.334 224.892 301.425 224.171 301.598 223.481C301.466 223.487 301.333 223.49 301.2 223.49C296.712 223.49 293.017 220.098 292.538 215.738C291.19 216.41 289.67 216.787 288.062 216.787C285.671 216.787 283.476 215.953 281.75 214.56C280.992 214.955 280.129 215.179 279.214 215.179C277.988 215.179 276.856 214.777 275.942 214.099C274.591 216.004 273.635 218.208 273.192 220.593C271.053 218.773 269.696 216.062 269.696 213.034C269.696 207.877 273.631 203.639 278.661 203.159C280.103 199.37 283.768 196.679 288.062 196.679C289.855 196.679 291.539 197.148 292.997 197.971C295.163 196.002 298.041 194.802 301.2 194.802C307.678 194.802 312.978 199.852 313.375 206.231C318.117 207.102 321.711 211.257 321.711 216.251C321.711 219.051 320.581 221.588 318.752 223.429C318.933 224.135 319.029 224.874 319.029 225.635C319.029 228.572 317.598 231.175 315.395 232.785C315.493 233.336 315.544 233.903 315.544 234.483C315.544 239.74 311.08 244.016 305.844 244.133Z" fill="url(#paint14_linear)"/>
<path fill-rule="evenodd" clip-rule="evenodd" d="M301.965 228.847C301.717 228.85 301.302 228.852 301.2 228.852C296.712 228.852 293.017 225.46 292.538 221.1C291.19 221.772 289.67 222.149 288.062 222.149C285.671 222.149 283.476 221.315 281.75 219.922C280.991 220.317 280.129 220.54 279.214 220.54C277.988 220.54 276.856 220.139 275.942 219.46C274.591 221.365 273.635 223.569 273.192 225.953C273.109 225.252 273.016 224.476 272.913 223.624C272.913 220.075 274.034 216.788 275.942 214.098C276.856 214.777 277.988 215.178 279.214 215.178C280.129 215.178 280.991 214.955 281.75 214.559C283.476 215.953 285.671 216.787 288.062 216.787C289.67 216.787 291.19 216.409 292.538 215.738C293.017 220.098 296.712 223.49 301.2 223.49C301.333 223.49 301.466 223.487 301.598 223.481C301.425 224.17 301.539 224.924 301.598 225.666C301.862 229.018 302.042 228.846 301.965 228.847Z" fill="url(#paint15_linear)"/>
<defs>
<linearGradient id="paint0_linear" x1="175.77" y1="97.332" x2="175.77" y2="256.828" gradientUnits="userSpaceOnUse">
<stop stop-color="#017EFC"/>
<stop offset="1" stop-color="#2B0092"/>
</linearGradient>
<linearGradient id="paint1_linear" x1="206.194" y1="68.0908" x2="206.194" y2="175.923" gradientUnits="userSpaceOnUse">
<stop stop-color="#403F9F" stop-opacity="0"/>
<stop offset="1" stop-opacity="0.2"/>
</linearGradient>
<linearGradient id="paint2_linear" x1="140.623" y1="256.828" x2="69.0323" y2="239.859" gradientUnits="userSpaceOnUse">
<stop stop-opacity="0"/>
<stop offset="1" stop-opacity="0.2"/>
</linearGradient>
<linearGradient id="paint3_linear" x1="95.284" y1="158.779" x2="95.284" y2="206.994" gradientUnits="userSpaceOnUse">
<stop stop-color="#F0F0F6" stop-opacity="0"/>
<stop offset="1" stop-opacity="0.03"/>
</linearGradient>
<linearGradient id="paint4_linear" x1="58.397" y1="186.97" x2="58.397" y2="210.419" gradientUnits="userSpaceOnUse">
<stop stop-color="#FFC62C" stop-opacity="0"/>
<stop offset="1" stop-color="#FF6663" stop-opacity="0.1"/>
</linearGradient>
<linearGradient id="paint5_linear" x1="63.7981" y1="189.869" x2="54.145" y2="201.055" gradientUnits="userSpaceOnUse">
<stop stop-opacity="0.35"/>
<stop offset="1" stop-color="#FFC62C" stop-opacity="0"/>
</linearGradient>
<linearGradient id="paint6_linear" x1="56.5815" y1="146.953" x2="56.5815" y2="197.739" gradientUnits="userSpaceOnUse">
<stop stop-color="#403F9F" stop-opacity="0"/>
<stop offset="1" stop-opacity="0.2"/>
</linearGradient>
<linearGradient id="paint7_linear" x1="37.6643" y1="172.87" x2="72.3756" y2="211.828" gradientUnits="userSpaceOnUse">
<stop stop-opacity="0.3"/>
<stop offset="1" stop-color="#1F1845" stop-opacity="0"/>
</linearGradient>
<linearGradient id="paint8_linear" x1="56.5528" y1="170.372" x2="56.5528" y2="196.719" gradientUnits="userSpaceOnUse">
<stop stop-color="#FFC62C" stop-opacity="0"/>
<stop offset="1" stop-color="#FF6663" stop-opacity="0.1"/>
</linearGradient>
<linearGradient id="paint9_linear" x1="70.6479" y1="170.372" x2="61.0528" y2="190.583" gradientUnits="userSpaceOnUse">
<stop stop-opacity="0.2"/>
<stop offset="1" stop-color="#FFC62C" stop-opacity="0"/>
</linearGradient>
<linearGradient id="paint10_linear" x1="251.238" y1="210.456" x2="251.238" y2="264.507" gradientUnits="userSpaceOnUse">
<stop stop-color="#F0F0F6" stop-opacity="0"/>
<stop offset="1" stop-opacity="0.03"/>
</linearGradient>
<linearGradient id="paint11_linear" x1="297.042" y1="237.968" x2="297.042" y2="267.461" gradientUnits="userSpaceOnUse">
<stop stop-color="#FFC62C" stop-opacity="0"/>
<stop offset="1" stop-color="#FF6663" stop-opacity="0.1"/>
</linearGradient>
<linearGradient id="paint12_linear" x1="288.194" y1="253.745" x2="306.804" y2="238.772" gradientUnits="userSpaceOnUse">
<stop stop-opacity="0.1"/>
<stop offset="1" stop-color="#FF6663" stop-opacity="0"/>
</linearGradient>
<linearGradient id="paint13_linear" x1="291.414" y1="207.135" x2="291.414" y2="254.056" gradientUnits="userSpaceOnUse">
<stop stop-color="#FFC62C" stop-opacity="0"/>
<stop offset="1" stop-color="#FF6663" stop-opacity="0.1"/>
</linearGradient>
<linearGradient id="paint14_linear" x1="295.703" y1="194.802" x2="295.703" y2="244.133" gradientUnits="userSpaceOnUse">
<stop stop-color="#1F1845" stop-opacity="0"/>
<stop offset="1" stop-opacity="0.2"/>
</linearGradient>
<linearGradient id="paint15_linear" x1="291.523" y1="217.487" x2="284.643" y2="233.799" gradientUnits="userSpaceOnUse">
<stop stop-opacity="0.1"/>
<stop offset="1" stop-color="#FF6663" stop-opacity="0"/>
</linearGradient>
</defs>
</svg>
