<svg width="343" height="343" viewBox="0 0 343 343" fill="none" xmlns="http://www.w3.org/2000/svg">
<rect x="4" y="4" width="335" height="335" stroke="#017EFC" stroke-width="8"/>
<path d="M124.421 58.4133C71.5556 58.4133 25.9758 95.9824 25.9758 158.074C25.9758 211.774 70.7216 257.735 124.421 257.735C178.121 257.735 224.082 211.774 224.082 158.074C224.082 104.374 178.121 58.4133 124.421 58.4133ZM124.421 190.484C106.551 190.484 92.0112 175.944 92.0112 158.074C92.0112 140.204 106.551 125.664 124.421 125.664C142.291 125.664 156.831 140.204 156.831 158.074C156.831 175.944 142.291 190.484 124.421 190.484Z" fill="#6289F7"/>
<path d="M189.473 197.922L178.672 203.323L173.268 214.127L167.867 203.323L157.063 197.922L167.867 192.522L173.268 181.717L178.672 192.522L189.473 197.922Z" fill="#FFE469"/>
<path d="M124.422 125.665C142.292 125.665 156.832 140.205 156.832 158.075C156.832 175.945 142.292 190.485 124.422 190.485C106.553 190.485 92.0125 175.945 92.0125 158.075C92.0125 140.205 106.553 125.665 124.422 125.665ZM132.525 158.075C132.525 153.606 128.891 149.972 124.422 149.972C119.953 149.972 116.32 153.606 116.32 158.075C116.32 162.544 119.953 166.177 124.422 166.177C128.891 166.177 132.525 162.544 132.525 158.075Z" fill="#FFCF1B"/>
<path d="M51.2975 88.5097L33.0669 82.4328L51.2975 76.3559L57.3744 58.4133L63.4513 76.3559C87.4803 84.3667 80.3019 81.9723 81.6819 82.4328L63.4513 88.5097L57.3744 106.74C56.7762 104.944 51.9559 90.4863 51.2975 88.5097Z" fill="#FFE469"/>
<path d="M198.56 158.074C198.56 160.31 200.375 162.125 202.612 162.125C204.848 162.125 206.663 160.31 206.663 158.074C206.663 155.838 204.848 154.023 202.612 154.023C200.375 154.023 198.56 155.838 198.56 158.074Z" fill="black"/>
<path d="M67.7046 162.125C69.9407 162.125 71.7558 160.31 71.7558 158.074C71.7558 155.838 69.9407 154.023 67.7046 154.023C65.4685 154.023 63.6533 155.838 63.6533 158.074C63.6533 160.31 65.4685 162.125 67.7046 162.125Z" fill="black"/>
<path d="M124.423 261.786C180.292 261.786 228.135 214.105 228.135 158.074C228.135 102.205 180.453 54.3623 124.423 54.3623C103.796 54.3623 82.2865 60.6291 66.0024 71.2573L61.2121 57.1143C60.655 55.4685 59.1105 54.3623 57.3745 54.3623C55.6385 54.3623 54.0939 55.4685 53.5369 57.1143L48.1057 73.15L31.7867 78.5907C30.1314 79.1414 29.0157 80.6891 29.0157 82.433C29.0157 84.177 30.1314 85.7247 31.7867 86.277L44.5007 90.515C29.2404 109.244 21.926 134.294 21.926 158.074C21.926 214.292 68.8636 261.786 124.423 261.786ZM52.5779 80.2001C53.7822 79.7981 54.7285 78.8581 55.1352 77.6554L57.3745 71.0436L59.6137 77.6554C60.0205 78.8581 60.9684 79.7997 62.1727 80.2017L68.8715 82.433L62.1695 84.6676C60.9605 85.0711 60.011 86.019 59.6074 87.2297L57.3745 93.9301L55.5245 88.3786C55.3821 86.5207 53.9404 85.1202 52.5794 84.6676L45.8775 82.433L52.5779 80.2001ZM49.8084 96.853L53.5305 108.022C54.0828 109.676 55.6305 110.792 57.3745 110.792C59.1184 110.792 60.6661 109.676 61.2184 108.022L66.6544 91.7129L82.9622 86.277C84.6176 85.7263 85.7332 84.1786 85.7332 82.4346C85.7332 80.6907 84.6176 79.143 82.9638 78.5907L74.26 75.6899C88.7195 67.3263 106.895 62.4648 124.423 62.4648C176.249 62.4648 220.032 106.248 220.032 158.074C220.032 209.9 176.249 253.684 124.423 253.684C73.2551 253.684 30.0285 209.9 30.0285 158.074C30.0285 135.167 37.3334 112.824 49.8084 96.853Z" fill="black"/>
<path d="M124.423 240.314C126.66 240.314 128.474 238.501 128.474 236.263C128.474 234.025 126.66 232.212 124.423 232.212C83.5777 232.212 49.0693 198.26 49.0693 158.074C49.0693 155.836 47.2557 154.023 45.018 154.023C42.7804 154.023 40.9668 155.836 40.9668 158.074C40.9668 203.09 80.1104 240.314 124.423 240.314Z" fill="black"/>
<path d="M124.423 83.9365C158.593 83.9365 189.775 109.246 196.953 142.806C197.423 145.001 199.581 146.387 201.762 145.921C203.949 145.452 205.343 143.298 204.877 141.111C197.013 104.351 163.081 75.834 124.423 75.834C122.185 75.834 120.372 77.6476 120.372 79.8852C120.372 82.1229 122.185 83.9365 124.423 83.9365Z" fill="black"/>
<path d="M68.8657 170.233C66.7198 170.866 65.4949 173.119 66.1279 175.265C73.4993 200.225 96.6689 218.843 124.422 218.843C126.659 218.843 128.473 217.03 128.473 214.792C128.473 212.554 126.659 210.741 124.422 210.741C101.242 210.741 80.4671 195.208 73.8981 172.971C73.2651 170.823 71.0116 169.598 68.8657 170.233Z" fill="black"/>
<path d="M124.423 105.408C153.464 105.408 177.089 129.034 177.089 158.074C177.089 160.312 178.903 162.126 181.14 162.126C183.378 162.126 185.192 160.312 185.192 158.074C185.192 124.566 157.931 97.3057 124.423 97.3057C122.185 97.3057 120.372 99.1192 120.372 101.357C120.372 103.595 122.185 105.408 124.423 105.408Z" fill="black"/>
<path d="M124.421 194.536C144.526 194.536 160.882 178.179 160.882 158.075C160.882 137.97 144.526 121.614 124.421 121.614C104.317 121.614 87.96 137.97 87.96 158.075C87.96 178.179 104.317 194.536 124.421 194.536ZM124.421 129.716C140.058 129.716 152.78 142.438 152.78 158.075C152.78 173.712 140.058 186.434 124.421 186.434C108.784 186.434 96.0625 173.712 96.0625 158.075C96.0625 142.438 108.784 129.716 124.421 129.716Z" fill="black"/>
<path d="M124.423 170.228C131.125 170.228 136.577 164.776 136.577 158.074C136.577 151.372 131.125 145.92 124.423 145.92C117.721 145.92 112.269 151.372 112.269 158.074C112.269 164.776 117.721 170.228 124.423 170.228ZM124.423 154.023C126.658 154.023 128.474 155.84 128.474 158.074C128.474 160.309 126.658 162.125 124.423 162.125C122.189 162.125 120.372 160.309 120.372 158.074C120.372 155.84 122.189 154.023 124.423 154.023Z" fill="black"/>
<path d="M191.284 194.298L181.691 189.501L176.889 179.905C176.204 178.533 174.8 177.666 173.265 177.666C171.732 177.666 170.328 178.535 169.643 179.907L164.846 189.503L155.25 194.298C153.878 194.985 153.011 196.389 153.011 197.922C153.011 199.457 153.878 200.861 155.25 201.546L164.846 206.343L169.643 215.939C170.328 217.311 171.732 218.178 173.265 218.178H173.267C174.8 218.178 176.204 217.313 176.889 215.941L181.691 206.343L191.282 201.546C192.656 200.861 193.523 199.457 193.523 197.924C193.523 196.389 192.656 194.985 191.284 194.298ZM176.859 199.699C176.076 200.092 175.44 200.726 175.049 201.511L173.269 205.069L171.49 201.511C171.099 200.726 170.463 200.092 169.678 199.699L166.124 197.922L169.678 196.146C170.463 195.754 171.099 195.118 171.49 194.334L173.269 190.777L175.049 194.334C175.44 195.119 176.076 195.754 176.859 196.146L180.414 197.924L176.859 199.699Z" fill="black"/>
<path d="M24.7612 253.684H28.8125V257.735C28.8125 259.972 30.626 261.786 32.8637 261.786C35.1014 261.786 36.915 259.972 36.915 257.735V253.684H40.9662C43.2039 253.684 45.0175 251.87 45.0175 249.632C45.0175 247.395 43.2039 245.581 40.9662 245.581H36.915V241.53C36.915 239.292 35.1014 237.479 32.8637 237.479C30.626 237.479 28.8125 239.292 28.8125 241.53V245.581H24.7612C22.5235 245.581 20.71 247.395 20.71 249.632C20.71 251.87 22.5235 253.684 24.7612 253.684Z" fill="black"/>
<path d="M224.082 237.479H220.031V233.427C220.031 231.19 218.218 229.376 215.98 229.376C213.742 229.376 211.929 231.19 211.929 233.427V237.479H207.877C205.64 237.479 203.826 239.292 203.826 241.53C203.826 243.768 205.64 245.581 207.877 245.581H211.929V249.632C211.929 251.87 213.742 253.684 215.98 253.684C218.218 253.684 220.031 251.87 220.031 249.632V245.581H224.082C226.32 245.581 228.134 243.768 228.134 241.53C228.134 239.292 226.32 237.479 224.082 237.479Z" fill="black"/>
<path d="M315.267 234.755C301.857 287.01 216.448 294.621 176.798 259.623C136.613 225.04 130.743 178.156 148.539 139.804C165.866 101.588 201.307 82.7212 240.663 82.7212C280.466 82.7212 306.654 123.417 277.965 144.326C248.881 165.136 328.952 182.857 315.267 234.755Z" fill="#1F1845"/>
<path d="M315.267 234.755C301.857 287.01 216.448 294.621 176.798 259.623C136.613 225.04 130.743 178.156 148.539 139.804C165.866 101.588 201.307 82.7212 240.663 82.7212C280.466 82.7212 306.654 123.417 277.965 144.326C248.881 165.136 328.952 182.857 315.267 234.755Z" fill="url(#paint0_linear)"/>
<path fill-rule="evenodd" clip-rule="evenodd" d="M279.519 167.329C294.371 182.317 324.029 201.533 315.268 234.755C307.708 264.216 277.262 279.486 245.033 280.931C210.886 271.371 185.842 240.021 185.842 202.822C185.842 188.132 189.747 174.355 196.577 162.471C197.863 168.723 201.379 173.715 207.319 173.715C212.614 188.575 225.327 200.279 244.621 200.279C263.915 200.279 274.254 187.499 277.966 178.802C279.569 175.047 279.788 171.566 279.519 167.329Z" fill="url(#paint1_linear)"/>
<path d="M227.099 297.489C229.632 305.582 230.595 306.019 230.49 307.097C230.595 308.104 229.242 310.669 226.534 312.183C224.121 314.212 220.31 314.908 219.752 313.879C218.709 312.643 203.361 283.939 203.361 274.316C203.361 266.865 204.294 246.532 208.448 231.928C212.512 217.088 220.566 208.852 233.316 204.799C233.771 204.413 241.379 202.538 244.619 202.538C265.783 202.538 283.052 219.813 283.052 240.971C283.052 243.63 282.807 246.132 282.487 248.318L274.574 288.446C268.694 293.408 260.213 295.859 249.141 295.793C237.801 295.859 229.474 293.725 224.273 289.576C224.988 291.942 225.973 294.702 227.099 297.489Z" fill="#403F9F"/>
<path d="M227.099 297.489C229.632 305.582 230.595 306.019 230.49 307.097C230.595 308.104 229.242 310.669 226.534 312.183C224.121 314.212 220.31 314.908 219.752 313.879C218.709 312.643 203.361 283.939 203.361 274.316C203.361 266.865 204.294 246.532 208.448 231.928C212.512 217.088 220.566 208.852 233.316 204.799C233.771 204.413 241.379 202.538 244.619 202.538C265.783 202.538 283.052 219.813 283.052 240.971C283.052 243.63 282.807 246.132 282.487 248.318L274.574 288.446C268.694 293.408 260.213 295.859 249.141 295.793C237.801 295.859 229.474 293.725 224.273 289.576C224.988 291.942 225.973 294.702 227.099 297.489Z" fill="url(#paint2_linear)"/>
<path fill-rule="evenodd" clip-rule="evenodd" d="M224.189 289.522L220.88 275.311L226.299 248.985C238.08 280.154 243.971 295.739 243.971 295.739C235.787 295.739 229.193 293.667 224.189 289.522Z" fill="url(#paint3_linear)"/>
<mask id="mask0" mask-type="alpha" maskUnits="userSpaceOnUse" x="235" y="198" width="21" height="17">
<path d="M255.357 198.252L255.357 204.517C255.357 209.979 250.929 214.408 245.466 214.408C240.004 214.408 235.576 209.979 235.576 204.517V198.788C238.407 199.392 241.422 199.713 244.619 199.713C248.566 199.713 252.139 199.178 255.357 198.252Z" fill="white"/>
</mask>
<g mask="url(#mask0)">
<path d="M255.357 198.252L255.357 204.517C255.357 209.979 250.929 214.408 245.466 214.408C240.004 214.408 235.576 209.979 235.576 204.517V198.788C238.407 199.392 241.422 199.713 244.619 199.713C248.566 199.713 252.139 199.178 255.357 198.252Z" fill="#FF6663"/>
</g>
<mask id="mask1" mask-type="alpha" maskUnits="userSpaceOnUse" x="235" y="198" width="21" height="10">
<path d="M255.231 206.101C253.219 207.078 250.961 207.625 248.575 207.625C243.079 207.625 238.262 204.72 235.576 200.362L235.576 198.788C238.407 199.392 241.422 199.713 244.619 199.713C248.566 199.713 252.139 199.178 255.357 198.252L255.357 204.517C255.357 205.056 255.314 205.585 255.231 206.101Z" fill="white"/>
</mask>
<g mask="url(#mask1)">
<path d="M255.231 206.101C253.219 207.078 250.961 207.625 248.575 207.625C243.079 207.625 238.262 204.72 235.576 200.362L235.576 198.788C238.407 199.392 241.422 199.713 244.619 199.713C248.566 199.713 252.139 199.178 255.357 198.252L255.357 204.517C255.357 205.056 255.314 205.585 255.231 206.101Z" fill="url(#paint4_linear)"/>
</g>
<path fill-rule="evenodd" clip-rule="evenodd" d="M196.012 156.759C196.012 148.005 204.141 146.049 207.316 147.151C224.315 153.054 255.236 154.883 277.963 144.325C277.963 162.877 281.675 170.105 277.963 178.801C274.251 187.498 263.911 200.278 244.618 200.278C225.324 200.278 212.611 188.574 207.316 173.715C199.64 173.715 196.012 165.378 196.012 156.759Z" fill="#FF6663"/>
<path fill-rule="evenodd" clip-rule="evenodd" d="M207.317 147.152C224.317 153.054 255.236 154.882 277.961 144.325C277.961 152.285 278.645 158.16 279.132 162.961C279.119 162.966 279.105 162.971 279.092 162.976C256.701 170.951 226.895 165.128 207.317 147.152Z" fill="url(#paint5_linear)"/>
<path d="M204.774 165.236C207.739 165.236 210.143 162.832 210.143 159.867C210.143 156.901 207.739 154.497 204.774 154.497C201.808 154.497 199.405 156.901 199.405 159.867C199.405 162.832 201.808 165.236 204.774 165.236Z" fill="url(#paint6_linear)"/>
<path fill-rule="evenodd" clip-rule="evenodd" d="M264.97 243.795L263.839 242.665L264.815 240.386H266.445L264.97 243.795Z" fill="#E2E2E2"/>
<path fill-rule="evenodd" clip-rule="evenodd" d="M266.662 239.839H269.488L267.792 243.795H264.966L266.662 239.839Z" fill="white"/>
<path d="M241.011 222.618C238.592 220.309 228.364 211.923 227.091 210.813C220.573 205.128 215.907 199.918 212.346 193.769C207.946 186.17 205.621 177.582 205.621 167.496C205.621 167.184 205.874 166.931 206.187 166.931C206.499 166.931 206.752 167.184 206.752 167.496C206.752 177.382 209.023 185.775 213.324 193.202C216.814 199.228 221.401 204.351 227.834 209.961C229.078 211.046 239.335 219.456 241.792 221.8C245.277 225.125 247.46 228.06 248.544 231.176C248.712 236.738 248.736 238.145 248.911 249.444C249.125 263.256 249.365 268.587 250.152 272.946C251.049 277.913 252.593 279.967 255.357 279.967C258.871 279.967 260.28 275.966 261.783 264.28C261.869 263.614 262.165 261.27 262.186 261.108C262.351 259.811 262.484 258.799 262.62 257.806C262.968 255.255 263.309 253.069 263.695 250.979C264.227 248.102 264.833 245.494 265.554 243.07C265.643 242.77 265.957 242.6 266.257 242.689C266.556 242.778 266.726 243.092 266.637 243.391C265.929 245.775 265.332 248.344 264.807 251.184C264.424 253.255 264.086 255.424 263.739 257.959C263.604 258.948 263.472 259.957 263.307 261.251C263.287 261.412 262.99 263.757 262.904 264.425C262.137 270.385 261.577 273.512 260.675 276.071C259.512 279.375 257.833 281.098 255.357 281.098C251.909 281.098 250.022 278.586 249.04 273.147C248.237 268.7 247.995 263.35 247.781 249.461C247.607 238.23 247.582 236.777 247.447 231.465C246.422 228.578 244.347 225.799 241.011 222.618Z" fill="white"/>
<path d="M266.6 193.211C267.001 192.908 267.393 192.6 267.775 192.286C267.634 196.744 266.596 200.714 264.73 204.486C263.159 207.66 261.262 210.339 258.054 214.229C258.274 213.962 255.709 217.051 255.044 217.874C250.509 223.494 248.575 227.422 248.575 232.492C248.575 232.804 248.322 233.058 248.01 233.058C247.698 233.058 247.445 232.804 247.445 232.492C247.445 227.105 249.482 222.967 254.165 217.164C254.835 216.334 257.407 213.237 257.182 213.51C260.339 209.681 262.194 207.063 263.717 203.985C265.377 200.628 266.355 197.116 266.6 193.211Z" fill="white"/>
<path fill-rule="evenodd" clip-rule="evenodd" d="M207.885 163.159V165.801C207.885 166.737 207.126 167.496 206.189 167.496C205.253 167.496 204.494 166.737 204.494 165.801V163.159C205.008 163.404 205.582 163.54 206.189 163.54C206.796 163.54 207.371 163.404 207.885 163.159Z" fill="#E2E2E2"/>
<path d="M206.187 164.106C208.372 164.106 210.144 162.335 210.144 160.15C210.144 157.965 208.372 156.194 206.187 156.194C204.002 156.194 202.231 157.965 202.231 160.15C202.231 162.335 204.002 164.106 206.187 164.106Z" fill="white"/>
<path d="M248.009 234.752C249.882 234.752 251.4 233.234 251.4 231.361C251.4 229.488 249.882 227.97 248.009 227.97C246.136 227.97 244.618 229.488 244.618 231.361C244.618 233.234 246.136 234.752 248.009 234.752Z" fill="white"/>
<path fill-rule="evenodd" clip-rule="evenodd" d="M260.163 238.145V239.807L258.082 237.729C257.724 237.418 257.499 236.96 257.499 236.449C257.499 236.193 257.556 235.941 257.668 235.711L271.902 206.294C272.846 204.343 274.822 203.104 276.989 203.104H289.392C289.937 203.104 290.365 203.405 290.732 203.759C290.976 203.995 291.669 204.684 292.811 205.826L290.93 205.514C290.929 205.515 287.219 205.516 279.799 205.515C277.411 205.514 275.235 206.881 274.198 209.032L260.163 238.145Z" fill="#D6DFEA"/>
<path fill-rule="evenodd" clip-rule="evenodd" d="M279.249 205.364H291.652C292.589 205.364 293.348 206.123 293.348 207.06C293.348 207.315 293.29 207.568 293.178 207.798L278.944 237.215C278 239.166 276.024 240.405 273.857 240.405H261.454C260.517 240.405 259.758 239.646 259.758 238.71C259.758 238.454 259.816 238.201 259.928 237.971L274.162 208.554C275.106 206.603 277.082 205.364 279.249 205.364Z" fill="white"/>
<mask id="mask2" mask-type="alpha" maskUnits="userSpaceOnUse" x="262" y="211" width="29" height="71">
<path d="M266.663 235.885C263.835 231.124 262.608 228.24 262.707 225.712C262.865 223.216 263.868 215.421 266.098 212.713C268.934 210.199 272.864 212.112 277.401 216.104C279.849 218.735 282.557 224.311 284.183 225.147C285.356 225.235 286.077 220.67 287.009 220.625C288.237 220.722 286.427 232.204 286.444 233.059C285.975 238.683 284.713 240.81 285.879 246.058C285.67 245.463 298.477 279.963 284.183 281.665C270.291 283.009 274.545 265.905 274.575 248.884C271.108 242.452 269.503 240.418 266.663 235.885Z" fill="white"/>
</mask>
<g mask="url(#mask2)">
<path d="M266.663 235.885C263.835 231.124 262.608 228.24 262.707 225.712C262.865 223.216 263.868 215.421 266.098 212.713C268.934 210.199 272.864 212.112 277.401 216.104C279.849 218.735 282.557 224.311 284.183 225.147C285.356 225.235 286.077 220.67 287.009 220.625C288.237 220.722 286.427 232.204 286.444 233.059C285.975 238.683 284.713 240.81 285.879 246.058C285.67 245.463 298.477 279.963 284.183 281.665C270.291 283.009 274.545 265.905 274.575 248.884C271.108 242.452 269.503 240.418 266.663 235.885Z" fill="#FF6663"/>
<mask id="mask3" mask-type="alpha" maskUnits="userSpaceOnUse" x="272" y="246" width="20" height="37">
<path d="M284.183 282.23C269.204 283.471 272.828 259.699 274.575 248.884C276.513 249.457 278.239 249.413 280.792 248.841C283.169 248.066 284.719 246.976 285.879 246.058C285.822 245.736 299.696 280.413 284.183 282.23Z" fill="white"/>
</mask>
<g mask="url(#mask3)">
<path d="M284.183 282.23C269.204 283.471 272.828 259.699 274.575 248.884C276.513 249.457 278.239 249.413 280.792 248.841C283.169 248.066 284.719 246.976 285.879 246.058C285.822 245.736 299.696 280.413 284.183 282.23Z" fill="#403F9F"/>
<path d="M284.183 282.23C269.204 283.471 272.828 259.699 274.575 248.884C276.513 249.457 278.239 249.413 280.792 248.841C283.169 248.066 284.719 246.976 285.879 246.058C285.822 245.736 299.696 280.413 284.183 282.23Z" fill="url(#paint7_linear)"/>
</g>
<mask id="mask4" mask-type="alpha" maskUnits="userSpaceOnUse" x="274" y="248" width="17" height="35">
<path d="M290.964 275.447C290.106 279.272 287.488 282.794 282.486 282.794C279.422 282.794 277.349 281.664 276.27 279.403L274.574 248.883L290.964 275.447Z" fill="white"/>
</mask>
<g mask="url(#mask4)">
<path d="M290.964 275.447C290.106 279.272 287.488 282.794 282.486 282.794C279.422 282.794 277.349 281.664 276.27 279.403L274.574 248.883L290.964 275.447Z" fill="url(#paint8_linear)"/>
</g>
</g>
<path d="M220.318 315.009C220.006 315.009 219.753 314.756 219.753 314.444C219.753 314.132 220.006 313.879 220.318 313.879C222.755 313.879 225.334 313.116 227.36 311.461C230.07 309.246 231.621 305.615 231.621 300.314C231.621 300.002 231.875 299.749 232.187 299.749C232.499 299.749 232.752 300.002 232.752 300.314C232.752 305.94 231.062 309.895 228.075 312.336C225.829 314.172 222.998 315.009 220.318 315.009Z" fill="white"/>
<defs>
<linearGradient id="paint0_linear" x1="227.931" y1="82.7212" x2="227.931" y2="281.044" gradientUnits="userSpaceOnUse">
<stop stop-color="#1F1845" stop-opacity="0"/>
<stop offset="1" stop-opacity="0.2"/>
</linearGradient>
<linearGradient id="paint1_linear" x1="206.97" y1="152.393" x2="259.636" y2="295.279" gradientUnits="userSpaceOnUse">
<stop stop-opacity="0.646003"/>
<stop offset="1" stop-color="#1F1845" stop-opacity="0"/>
</linearGradient>
<linearGradient id="paint2_linear" x1="243.207" y1="202.538" x2="243.207" y2="314.35" gradientUnits="userSpaceOnUse">
<stop stop-color="#403F9F" stop-opacity="0"/>
<stop offset="1" stop-opacity="0.1"/>
</linearGradient>
<linearGradient id="paint3_linear" x1="223.896" y1="248.985" x2="259.153" y2="269.015" gradientUnits="userSpaceOnUse">
<stop stop-opacity="0.155089"/>
<stop offset="1" stop-opacity="0"/>
</linearGradient>
<linearGradient id="paint4_linear" x1="235.576" y1="198.252" x2="242.83" y2="213.561" gradientUnits="userSpaceOnUse">
<stop stop-opacity="0.2"/>
<stop offset="1" stop-color="#FF6663" stop-opacity="0"/>
</linearGradient>
<linearGradient id="paint5_linear" x1="279.132" y1="166.474" x2="266.656" y2="126.024" gradientUnits="userSpaceOnUse">
<stop stop-opacity="0.1"/>
<stop offset="1" stop-color="#FF6663" stop-opacity="0"/>
</linearGradient>
<linearGradient id="paint6_linear" x1="204.774" y1="124.677" x2="204.774" y2="162.768" gradientUnits="userSpaceOnUse">
<stop/>
<stop offset="1" stop-opacity="0"/>
</linearGradient>
<linearGradient id="paint7_linear" x1="282.21" y1="246.056" x2="282.21" y2="282.277" gradientUnits="userSpaceOnUse">
<stop stop-color="#403F9F" stop-opacity="0"/>
<stop offset="1" stop-opacity="0.1"/>
</linearGradient>
<linearGradient id="paint8_linear" x1="281.494" y1="251.002" x2="264.88" y2="274.819" gradientUnits="userSpaceOnUse">
<stop stop-color="#403F9F" stop-opacity="0"/>
<stop offset="1" stop-opacity="0.2"/>
</linearGradient>
</defs>
</svg>
