<svg width="345" height="345" viewBox="0 0 345 345" fill="none" xmlns="http://www.w3.org/2000/svg">
<rect x="4" y="4" width="337" height="337" stroke="#017EFC" stroke-width="8"/>
<mask id="mask0" mask-type="alpha" maskUnits="userSpaceOnUse" x="35" y="76" width="179" height="184">
<path d="M113.074 78.2951C81.523 86.1688 81.2653 107.984 62.7952 127.095C44.2879 146.083 21.4761 166.832 45.5428 186.246C64.6159 201.028 43.1944 227.957 78.076 252.299C113.315 276.932 213.138 230.255 213.138 186.246C213.138 141.76 162.482 147.265 167.789 121.18C172.948 95.123 145.106 70.436 113.074 78.2951Z" fill="white"/>
</mask>
<g mask="url(#mask0)">
<path d="M113.074 78.2951C81.523 86.1688 81.2653 107.984 62.7952 127.095C44.2879 146.083 21.4761 166.832 45.5428 186.246C64.6159 201.028 43.1944 227.957 78.076 252.299C113.315 276.932 213.138 230.255 213.138 186.246C213.138 141.76 162.482 147.265 167.789 121.18C172.948 95.123 145.106 70.436 113.074 78.2951Z" fill="#464D89"/>
<path d="M113.074 78.2951C81.523 86.1688 81.2653 107.984 62.7952 127.095C44.2879 146.083 21.4761 166.832 45.5428 186.246C64.6159 201.028 43.1944 227.957 78.076 252.299C113.315 276.932 213.138 230.255 213.138 186.246C213.138 141.76 162.482 147.265 167.789 121.18C172.948 95.123 145.106 70.436 113.074 78.2951Z" fill="url(#paint0_linear)"/>
<path fill-rule="evenodd" clip-rule="evenodd" d="M163.352 118.714C197.096 136.21 215.498 147.876 218.56 153.712C226.26 168.844 228.829 174.445 232.362 207.934C235.699 241.073 168.978 253.274 163.352 257.665C154.816 264.033 80.7817 259.625 86.1187 189.92C87.9956 163.483 95.9948 145.334 110.116 135.474L163.352 118.714Z" fill="url(#paint1_linear)"/>
</g>
<path d="M151.524 179.838C172.939 179.838 191.462 203.96 194.409 229.131C197.377 254.106 201.592 261.405 191.452 260.186C178.315 257.277 130.049 179.838 151.524 179.838Z" fill="#A7A7EE"/>
<path d="M151.524 179.838C172.939 179.838 191.462 203.96 194.409 229.131C197.377 254.106 201.592 261.405 191.452 260.186C178.315 257.277 130.049 179.838 151.524 179.838Z" fill="url(#paint2_linear)"/>
<path d="M151.524 179.838C172.939 179.838 191.462 203.96 194.409 229.131C197.377 254.106 201.592 261.405 191.452 260.186C178.315 257.277 130.049 179.838 151.524 179.838Z" fill="url(#paint3_linear)"/>
<mask id="mask1" mask-type="alpha" maskUnits="userSpaceOnUse" x="102" y="178" width="76" height="91">
<path d="M102.232 195.613C102.468 211.947 103.631 259.3 117.02 265.116C130.674 270.591 164.974 268.074 171.735 265.116C178.184 261.983 183.89 190.318 163.355 182.304C143.347 174.495 102.468 179.089 102.232 195.613Z" fill="white"/>
</mask>
<g mask="url(#mask1)">
<path d="M102.232 195.613C102.468 211.947 103.631 259.3 117.02 265.116C130.674 270.591 164.974 268.074 171.735 265.116C178.184 261.983 183.89 190.318 163.355 182.304C143.347 174.495 102.468 179.089 102.232 195.613Z" fill="#A7A7EE"/>
<path d="M102.232 195.613C102.468 211.947 103.631 259.3 117.02 265.116C130.674 270.591 164.974 268.074 171.735 265.116C178.184 261.983 183.89 190.318 163.355 182.304C143.347 174.495 102.468 179.089 102.232 195.613Z" fill="url(#paint4_linear)"/>
<path fill-rule="evenodd" clip-rule="evenodd" d="M122.933 269.552C118.79 269.552 122.464 214.448 122.933 213.851C132.458 212.565 126.006 255.269 151.523 235.54C152.084 235.404 181.889 229.329 180.606 235.54C179.236 242.073 160.575 238.944 154.973 241.948C141.726 248.369 138.644 269.552 122.933 269.552Z" fill="url(#paint5_linear)"/>
</g>
<path d="M124.152 239.457C130.679 236.828 137.611 234.469 141.171 233.075C145.4 232.058 149.336 239.894 146.594 242.44C137.881 251.083 130.587 268.072 119.975 268.072C116.428 268.072 113.256 266.134 111.014 263.314C106.997 258.806 103.983 250.808 102.23 239.483C98.4403 215.611 96.1798 191.904 109.131 186.246C122.205 181.003 122.739 214.715 122.933 230.117C122.894 233.199 123.404 236.352 124.152 239.457Z" fill="#A7A7EE"/>
<path d="M124.152 239.457C130.679 236.828 137.611 234.469 141.171 233.075C145.4 232.058 149.336 239.894 146.594 242.44C137.881 251.083 130.587 268.072 119.975 268.072C116.428 268.072 113.256 266.134 111.014 263.314C106.997 258.806 103.983 250.808 102.23 239.483C98.4403 215.611 96.1798 191.904 109.131 186.246C122.205 181.003 122.739 214.715 122.933 230.117C122.894 233.199 123.404 236.352 124.152 239.457Z" fill="url(#paint6_linear)"/>
<path d="M191.45 260.186C200.43 261.725 205.745 252.976 205.745 227.652C205.745 212.157 194.812 215.859 190.465 223.709C184.027 235.332 182.224 258.213 191.45 260.186Z" fill="#A7A7EE"/>
<path d="M191.45 260.186C200.43 261.725 205.745 252.976 205.745 227.652C205.745 212.157 194.812 215.859 190.465 223.709C184.027 235.332 182.224 258.213 191.45 260.186Z" fill="url(#paint7_linear)"/>
<path d="M246.657 152.728H182.083C181.266 152.728 180.604 153.39 180.604 154.206V218.78C180.604 219.597 181.266 220.259 182.083 220.259H246.657C247.473 220.259 248.135 219.597 248.135 218.78V154.206C248.135 153.39 247.473 152.728 246.657 152.728Z" fill="#D4527D"/>
<path d="M191.946 220.258C200.733 220.263 205.333 220.263 205.748 220.258C206.337 220.265 218.352 219.21 231.874 213.85C240.419 210.749 241.503 215.346 239.268 220.258C237.634 223.017 234.976 225.942 231.874 227.652C223.558 231.336 205.936 222.449 205.748 227.652C205.936 235.029 190.825 229.138 190.468 223.709C190.458 222.75 191.131 221.48 191.946 220.258Z" fill="#FFC62C"/>
<path d="M191.946 220.258C200.733 220.263 205.333 220.263 205.748 220.258C206.337 220.265 218.352 219.21 231.874 213.85C240.419 210.749 241.503 215.346 239.268 220.258C237.634 223.017 234.976 225.942 231.874 227.652C223.558 231.336 205.936 222.449 205.748 227.652C205.936 235.029 190.825 229.138 190.468 223.709C190.458 222.75 191.131 221.48 191.946 220.258Z" fill="url(#paint8_linear)"/>
<path d="M141.173 233.075C144.528 231.549 148.352 229.068 149.06 227.653C152.043 222.176 147.87 213.769 151.525 212.372C154.729 210.253 156.873 217.123 155.961 222.23C154.746 226.728 162.522 225.801 167.792 223.216C173.48 220.115 190.313 229.189 181.594 234.554C172.939 239.502 157.925 236.992 152.511 237.018C151.708 237.001 149.736 238.808 146.596 242.44C139.884 237.671 138.077 234.549 141.173 233.075Z" fill="#FFC62C"/>
<path d="M141.173 233.075C144.528 231.549 148.352 229.068 149.06 227.653C152.043 222.176 147.87 213.769 151.525 212.372C154.729 210.253 156.873 217.123 155.961 222.23C154.746 226.728 162.522 225.801 167.792 223.216C173.48 220.115 190.313 229.189 181.594 234.554C172.939 239.502 157.925 236.992 152.511 237.018C151.708 237.001 149.736 238.808 146.596 242.44C139.884 237.671 138.077 234.549 141.173 233.075Z" fill="url(#paint9_linear)"/>
<path d="M130.82 162.584H152.016V180.083C152.016 185.937 147.271 190.681 141.418 190.681C135.565 190.681 130.82 185.937 130.82 180.083V162.584Z" fill="#FFC62C"/>
<path d="M130.82 162.584H152.016V180.083C152.016 185.937 147.271 190.681 141.418 190.681C135.565 190.681 130.82 185.937 130.82 180.083V162.584Z" fill="url(#paint10_linear)"/>
<path fill-rule="evenodd" clip-rule="evenodd" d="M152.016 174.971C148.96 176.775 145.607 177.865 142.157 177.865C138.858 177.865 134.864 177.21 130.82 175.898V162.584H152.016V174.971V174.971Z" fill="url(#paint11_linear)"/>
<mask id="mask2" mask-type="alpha" maskUnits="userSpaceOnUse" x="103" y="117" width="64" height="56">
<path d="M111.744 156.569C109.937 156.423 108.177 154.653 108.145 150.264C108.188 144.177 103.709 142.292 103.709 138.434C103.709 134.364 107.789 132.703 109.983 135.309C110.027 135.199 110.072 135.091 110.117 134.983C112.107 130.678 115.546 132.255 130.327 128.082C145.24 124.331 151.047 113.37 163.353 118.717C163.419 120.976 163.339 128.483 163.353 131.04C163.339 133.38 166.311 136.454 166.311 147.307C166.311 158.079 154.894 172.939 142.157 172.939C132.642 172.939 117.345 167.485 111.744 156.569Z" fill="white"/>
</mask>
<g mask="url(#mask2)">
<path d="M111.744 156.569C109.937 156.423 108.177 154.653 108.145 150.264C108.188 144.177 103.709 142.292 103.709 138.434C103.709 134.364 107.789 132.703 109.983 135.309C110.027 135.199 110.072 135.091 110.117 134.983C112.107 130.678 115.546 132.255 130.327 128.082C145.24 124.331 151.047 113.37 163.353 118.717C163.419 120.976 163.339 128.483 163.353 131.04C163.339 133.38 166.311 136.454 166.311 147.307C166.311 158.079 154.894 172.939 142.157 172.939C132.642 172.939 117.345 167.485 111.744 156.569Z" fill="#FFC62C"/>
<path d="M111.744 156.569C109.937 156.423 108.177 154.653 108.145 150.264C108.188 144.177 103.709 142.292 103.709 138.434C103.709 134.364 107.789 132.703 109.983 135.309C110.027 135.199 110.072 135.091 110.117 134.983C112.107 130.678 115.546 132.255 130.327 128.082C145.24 124.331 151.047 113.37 163.353 118.717C163.419 120.976 163.339 128.483 163.353 131.04C163.339 133.38 166.311 136.454 166.311 147.307C166.311 158.079 154.894 172.939 142.157 172.939C132.642 172.939 117.345 167.485 111.744 156.569Z" fill="url(#paint12_linear)"/>
</g>
<mask id="mask3" mask-type="alpha" maskUnits="userSpaceOnUse" x="110" y="117" width="54" height="20">
<path d="M110.012 135.241C110.047 135.154 110.082 135.068 110.119 134.982C112.108 130.677 115.548 132.254 130.329 128.081C145.242 124.33 151.049 113.369 163.355 118.716C163.391 119.955 163.383 122.773 163.371 125.488C158.593 124.852 153.494 126.267 148.074 129.73C131.644 140.231 117.083 136.513 110.012 135.241Z" fill="white"/>
</mask>
<g mask="url(#mask3)">
<path d="M110.012 135.241C110.047 135.154 110.082 135.068 110.119 134.982C112.108 130.677 115.548 132.254 130.329 128.081C145.242 124.33 151.049 113.369 163.355 118.716C163.391 119.955 163.383 122.773 163.371 125.488C158.593 124.852 153.494 126.267 148.074 129.73C131.644 140.231 117.083 136.513 110.012 135.241Z" fill="url(#paint13_linear)"/>
</g>
<path d="M285.806 186.241C289.215 186.241 291.967 189.016 291.967 192.403C291.967 195.812 289.215 198.564 285.806 198.564C282.419 198.564 279.644 195.812 279.644 192.403C279.644 189.016 282.419 186.241 285.806 186.241Z" fill="#545C66"/>
<path d="M207.428 186.241C210.838 186.241 213.59 189.016 213.59 192.403C213.59 195.812 210.838 198.564 207.428 198.564C204.041 198.564 201.267 195.812 201.267 192.403C201.267 189.016 204.041 186.241 207.428 186.241Z" fill="#545C66"/>
<path d="M240.211 217.212V217.296H232.324V208.916H240.211V217.212Z" fill="#CCD1D9"/>
<path d="M244.577 189.199C244.577 187.472 243.208 186.077 241.513 186.077C239.839 186.077 238.45 187.472 238.45 189.199C238.45 190.927 239.839 192.321 241.513 192.321C243.208 192.321 244.577 190.927 244.577 189.199ZM254.787 189.199C254.787 187.472 253.419 186.077 251.724 186.077C250.029 186.077 248.661 187.472 248.661 189.199C248.661 190.927 250.029 192.321 251.724 192.321C253.419 192.321 254.787 190.927 254.787 189.199ZM260.914 179.833V198.565H232.324V179.833H260.914Z" fill="#CCD1D9"/>
<path d="M207.432 173.917C217.64 173.917 225.917 182.195 225.917 192.402C225.917 202.612 217.64 210.887 207.432 210.887C197.224 210.887 188.947 202.612 188.947 192.402C188.947 182.195 197.224 173.917 207.432 173.917ZM213.593 192.402C213.593 189.015 210.841 186.241 207.432 186.241C204.045 186.241 201.27 189.015 201.27 192.402C201.27 195.812 204.045 198.564 207.432 198.564C210.841 198.564 213.593 195.812 213.593 192.402Z" fill="#656D78"/>
<path d="M188.819 140.832H195.011V155.281H188.819V140.832Z" fill="#AAB2BD"/>
<path d="M298.22 140.832H304.413V155.281H298.22V140.832Z" fill="#AAB2BD"/>
<path d="M261.066 198.627V208.948H252.83H240.424H232.168V198.627H261.066Z" fill="white"/>
<path d="M241.442 186.241C243.215 186.241 244.646 187.672 244.646 189.445C244.646 191.218 243.215 192.649 241.442 192.649C239.691 192.649 238.238 191.218 238.238 189.445C238.238 187.672 239.691 186.241 241.442 186.241Z" fill="#656D78"/>
<path d="M260.912 167.51H310.698V217.296H260.912V208.998V198.626V179.956V167.533V167.51ZM304.474 192.403C304.474 182.093 296.115 173.733 285.805 173.733C275.495 173.733 267.135 182.093 267.135 192.403C267.135 202.715 275.495 211.072 285.805 211.072C296.115 211.072 304.474 202.715 304.474 192.403Z" fill="white"/>
<path d="M226.099 192.403C226.099 182.093 217.739 173.733 207.429 173.733C197.12 173.733 188.76 182.093 188.76 192.403C188.76 202.715 197.12 211.072 207.429 211.072C217.739 211.072 226.099 202.715 226.099 192.403ZM232.322 179.956V198.626V208.998V217.296H182.537V167.51H232.322V167.533V179.956Z" fill="white"/>
<path d="M285.807 173.917C296.015 173.917 304.292 182.195 304.292 192.402C304.292 202.612 296.015 210.887 285.807 210.887C275.599 210.887 267.322 202.612 267.322 192.402C267.322 182.195 275.599 173.917 285.807 173.917ZM291.968 192.402C291.968 189.015 289.216 186.241 285.807 186.241C282.42 186.241 279.645 189.015 279.645 192.402C279.645 195.812 282.42 198.564 285.807 198.564C289.216 198.564 291.968 195.812 291.968 192.402Z" fill="#656D78"/>
<path d="M260.911 208.916V217.296H253.024V217.212V208.916H260.911Z" fill="#CCD1D9"/>
<path d="M260.914 167.532V179.833H232.324V167.532V167.51H246.619H260.914V167.532Z" fill="white"/>
<path d="M251.794 192.649C253.563 192.649 254.998 191.215 254.998 189.445C254.998 187.676 253.563 186.241 251.794 186.241C250.024 186.241 248.59 187.676 248.59 189.445C248.59 191.215 250.024 192.649 251.794 192.649Z" fill="#656D78"/>
<path d="M304.292 132.512V140.891H298.113H195.126H188.947V132.512H304.292Z" fill="#21242C"/>
<path d="M253.025 217.212V217.296H240.209V217.212V208.916H253.025V217.212Z" fill="#CCD1D9"/>
<path d="M304.497 155.187H298.295H246.617H194.939H188.738H182.537V167.51H232.147H246.617H261.087H310.698V155.187H304.497Z" fill="white"/>
<path d="M310.604 219.268H182.628C181.486 219.268 180.563 218.346 180.563 217.204V155.28C180.563 154.141 181.486 153.216 182.628 153.216H310.604C311.746 153.216 312.668 154.141 312.668 155.28V217.204C312.668 218.346 311.746 219.268 310.604 219.268ZM184.692 215.14H308.54V157.344H184.692V215.14Z" fill="#D4527D"/>
<path d="M232.322 219.267C231.232 219.267 230.351 218.343 230.351 217.201V167.605C230.351 166.464 231.232 165.538 232.322 165.538C233.413 165.538 234.294 166.464 234.294 167.605V217.201C234.294 218.343 233.413 219.267 232.322 219.267Z" fill="black"/>
<path d="M261.159 219.267C259.933 219.267 258.941 218.343 258.941 217.201V167.605C258.941 166.464 259.933 165.538 261.159 165.538C262.386 165.538 263.378 166.464 263.378 167.605V217.201C263.378 218.343 262.386 219.267 261.159 219.267Z" fill="black"/>
<path d="M207.43 212.86C196.151 212.86 186.974 203.683 186.974 192.404C186.974 181.123 196.151 171.947 207.43 171.947C218.71 171.947 227.887 181.123 227.887 192.404C227.887 203.683 218.71 212.86 207.43 212.86ZM207.43 176.038C198.407 176.038 191.065 183.379 191.065 192.404C191.065 201.427 198.407 208.769 207.43 208.769C216.454 208.769 223.796 201.427 223.796 192.404C223.796 183.379 216.454 176.038 207.43 176.038Z" fill="black"/>
<path d="M207.432 200.536C202.946 200.536 199.299 196.888 199.299 192.402C199.299 187.917 202.946 184.269 207.432 184.269C211.917 184.269 215.565 187.917 215.565 192.402C215.565 196.888 211.917 200.536 207.432 200.536ZM207.432 188.336C205.189 188.336 203.365 190.16 203.365 192.402C203.365 194.645 205.189 196.469 207.432 196.469C209.675 196.469 211.499 194.645 211.499 192.402C211.499 190.16 209.675 188.336 207.432 188.336Z" fill="black"/>
<path d="M285.803 212.86C274.523 212.86 265.346 203.683 265.346 192.404C265.346 181.123 274.523 171.947 285.803 171.947C297.083 171.947 306.259 181.123 306.259 192.404C306.259 203.683 297.083 212.86 285.803 212.86ZM285.803 176.038C276.78 176.038 269.438 183.379 269.438 192.404C269.438 201.427 276.78 208.769 285.803 208.769C294.826 208.769 302.168 201.427 302.168 192.404C302.168 183.379 294.826 176.038 285.803 176.038Z" fill="black"/>
<path d="M285.804 200.536C281.319 200.536 277.671 196.888 277.671 192.402C277.671 187.917 281.319 184.269 285.804 184.269C290.29 184.269 293.938 187.917 293.938 192.402C293.938 196.888 290.29 200.536 285.804 200.536ZM285.804 188.336C283.562 188.336 281.738 190.16 281.738 192.402C281.738 194.645 283.562 196.469 285.804 196.469C288.047 196.469 289.871 194.645 289.871 192.402C289.871 190.16 288.047 188.336 285.804 188.336Z" fill="black"/>
<path d="M261.313 182.298H232.415C231.273 182.298 230.351 181.306 230.351 180.08C230.351 178.853 231.273 177.861 232.415 177.861H261.313C262.454 177.861 263.377 178.853 263.377 180.08C263.377 181.306 262.454 182.298 261.313 182.298Z" fill="black"/>
<path d="M261.313 200.535H232.415C231.273 200.535 230.351 199.653 230.351 198.563C230.351 197.473 231.273 196.591 232.415 196.591H261.313C262.454 196.591 263.377 197.473 263.377 198.563C263.377 199.653 262.454 200.535 261.313 200.535Z" fill="black"/>
<path d="M241.443 194.621C238.588 194.621 236.268 192.3 236.268 189.445C236.268 186.59 238.588 184.269 241.443 184.269C244.298 184.269 246.619 186.59 246.619 189.445C246.619 192.3 244.298 194.621 241.443 194.621ZM241.443 188.41C240.874 188.41 240.408 188.875 240.408 189.445C240.408 190.014 240.874 190.48 241.443 190.48C242.013 190.48 242.478 190.014 242.478 189.445C242.478 188.875 242.013 188.41 241.443 188.41Z" fill="black"/>
<path d="M251.792 194.621C248.937 194.621 246.616 192.3 246.616 189.445C246.616 186.59 248.937 184.269 251.792 184.269C254.647 184.269 256.968 186.59 256.968 189.445C256.968 192.3 254.647 194.621 251.792 194.621ZM251.792 188.41C251.223 188.41 250.757 188.875 250.757 189.445C250.757 190.014 251.223 190.48 251.792 190.48C252.362 190.48 252.827 190.014 252.827 189.445C252.827 188.875 252.362 188.41 251.792 188.41Z" fill="black"/>
<path d="M251.897 194.621H241.335C240.167 194.621 239.222 193.629 239.222 192.403C239.222 191.176 240.167 190.185 241.335 190.185H251.897C253.065 190.185 254.01 191.176 254.01 192.403C254.01 193.629 253.065 194.621 251.897 194.621Z" fill="black"/>
<path d="M261.313 210.887H232.415C231.273 210.887 230.351 210.006 230.351 208.916C230.351 207.825 231.273 206.944 232.415 206.944H261.313C262.454 206.944 263.377 207.825 263.377 208.916C263.377 210.006 262.454 210.887 261.313 210.887Z" fill="black"/>
<path d="M240.456 219.267C239.23 219.267 238.238 218.343 238.238 217.199V209.012C238.238 207.868 239.23 206.944 240.456 206.944C241.683 206.944 242.674 207.868 242.674 209.012V217.199C242.674 218.343 241.683 219.267 240.456 219.267Z" fill="black"/>
<path d="M252.776 219.267C251.549 219.267 250.558 218.343 250.558 217.199V209.012C250.558 207.868 251.549 206.944 252.776 206.944C254.003 206.944 254.994 207.868 254.994 209.012V217.199C254.994 218.343 254.003 219.267 252.776 219.267Z" fill="black"/>
<path d="M310.604 169.974H182.628C181.486 169.974 180.563 168.981 180.563 167.756C180.563 166.532 181.486 165.538 182.628 165.538H310.604C311.746 165.538 312.668 166.532 312.668 167.756C312.668 168.981 311.746 169.974 310.604 169.974Z" fill="black"/>
<path d="M190.924 163.567C189.836 163.567 188.947 162.684 188.947 161.595C188.947 160.507 189.816 159.624 190.902 159.624H190.924C192.009 159.624 192.89 160.507 192.89 161.595C192.89 162.684 192.009 163.567 190.924 163.567Z" fill="black"/>
<path d="M197.085 163.567C195.861 163.567 194.861 162.684 194.861 161.595C194.861 160.507 195.839 159.624 197.061 159.624H197.085C198.306 159.624 199.298 160.507 199.298 161.595C199.298 162.684 198.306 163.567 197.085 163.567Z" fill="black"/>
<path d="M203.243 163.567C202.156 163.567 201.267 162.684 201.267 161.595C201.267 160.507 202.136 159.624 203.222 159.624H203.243C204.329 159.624 205.21 160.507 205.21 161.595C205.21 162.684 204.329 163.567 203.243 163.567Z" fill="black"/>
<path d="M209.653 163.567C208.566 163.567 207.677 162.684 207.677 161.595C207.677 160.507 208.546 159.624 209.632 159.624H209.653C210.739 159.624 211.62 160.507 211.62 161.595C211.62 162.684 210.739 163.567 209.653 163.567Z" fill="black"/>
<path d="M304.289 163.567H300.346C299.255 163.567 298.374 162.684 298.374 161.595C298.374 160.507 299.255 159.624 300.346 159.624H304.289C305.38 159.624 306.261 160.507 306.261 161.595C306.261 162.684 305.38 163.567 304.289 163.567Z" fill="black"/>
<path d="M294.305 163.567H290.115C288.956 163.567 288.02 162.684 288.02 161.595C288.02 160.507 288.956 159.624 290.115 159.624H294.305C295.463 159.624 296.4 160.507 296.4 161.595C296.4 162.684 295.463 163.567 294.305 163.567Z" fill="black"/>
<path d="M283.956 163.567H279.766C278.608 163.567 277.671 162.684 277.671 161.595C277.671 160.507 278.608 159.624 279.766 159.624H283.956C285.114 159.624 286.051 160.507 286.051 161.595C286.051 162.684 285.114 163.567 283.956 163.567Z" fill="black"/>
<path d="M261.313 163.567H232.415C231.273 163.567 230.351 162.684 230.351 161.595C230.351 160.507 231.273 159.624 232.415 159.624H261.313C262.454 159.624 263.377 160.507 263.377 161.595C263.377 162.684 262.454 163.567 261.313 163.567Z" fill="black"/>
<path d="M246.618 165.539C245.527 165.539 244.646 164.601 244.646 163.445V159.255C244.646 158.098 245.527 157.16 246.618 157.16C247.708 157.16 248.589 158.098 248.589 159.255V163.445C248.589 164.601 247.708 165.539 246.618 165.539Z" fill="black"/>
<path d="M188.946 157.159C187.855 157.159 186.974 156.242 186.974 155.112V132.589C186.974 131.458 187.855 130.541 188.946 130.541C190.036 130.541 190.917 131.458 190.917 132.589V155.112C190.917 156.242 190.036 157.159 188.946 157.159Z" fill="black"/>
<path d="M195.106 157.159C193.88 157.159 192.888 156.251 192.888 155.132V140.947C192.888 139.828 193.88 138.92 195.106 138.92C196.333 138.92 197.325 139.828 197.325 140.947V155.132C197.325 156.251 196.333 157.159 195.106 157.159Z" fill="black"/>
<path d="M298.375 157.159C297.285 157.159 296.404 156.251 296.404 155.132V140.947C296.404 139.828 297.285 138.92 298.375 138.92C299.466 138.92 300.347 139.828 300.347 140.947V155.132C300.347 156.251 299.466 157.159 298.375 157.159Z" fill="black"/>
<path d="M304.292 157.159C303.202 157.159 302.321 156.242 302.321 155.112V132.588C302.321 131.458 303.202 130.541 304.292 130.541C305.383 130.541 306.264 131.458 306.264 132.588V155.112C306.264 156.242 305.383 157.159 304.292 157.159Z" fill="black"/>
<path d="M304.206 134.484H189.031C187.893 134.484 186.974 133.601 186.974 132.513C186.974 131.424 187.893 130.541 189.031 130.541H304.206C305.343 130.541 306.262 131.424 306.262 132.513C306.262 133.601 305.343 134.484 304.206 134.484Z" fill="black"/>
<path d="M304.206 142.864H189.031C187.893 142.864 186.974 141.981 186.974 140.892C186.974 139.804 187.893 138.92 189.031 138.92H246.618H304.206C305.343 138.92 306.262 139.804 306.262 140.892C306.262 141.981 305.343 142.864 304.206 142.864Z" fill="black"/>
<defs>
<linearGradient id="paint0_linear" x1="124.145" y1="76.8115" x2="124.145" y2="259.125" gradientUnits="userSpaceOnUse">
<stop stop-color="#403F9F" stop-opacity="0"/>
<stop offset="1" stop-opacity="0.2"/>
</linearGradient>
<linearGradient id="paint1_linear" x1="85.8438" y1="118.714" x2="226.78" y2="265.243" gradientUnits="userSpaceOnUse">
<stop stop-opacity="0.3"/>
<stop offset="1" stop-color="#1F1845" stop-opacity="0"/>
</linearGradient>
<linearGradient id="paint2_linear" x1="171.975" y1="179.838" x2="171.975" y2="260.313" gradientUnits="userSpaceOnUse">
<stop stop-color="#A7A7EE" stop-opacity="0"/>
<stop offset="1" stop-color="#4C55A0" stop-opacity="0.2"/>
</linearGradient>
<linearGradient id="paint3_linear" x1="151.76" y1="216.12" x2="197.939" y2="217.76" gradientUnits="userSpaceOnUse">
<stop stop-color="#464D89" stop-opacity="0.6"/>
<stop offset="1" stop-color="#A7A7EE" stop-opacity="0"/>
</linearGradient>
<linearGradient id="paint4_linear" x1="139.96" y1="178.602" x2="139.96" y2="268.346" gradientUnits="userSpaceOnUse">
<stop stop-color="#A7A7EE" stop-opacity="0"/>
<stop offset="1" stop-color="#4C55A0" stop-opacity="0.2"/>
</linearGradient>
<linearGradient id="paint5_linear" x1="120.983" y1="213.822" x2="176.583" y2="273.347" gradientUnits="userSpaceOnUse">
<stop stop-color="#464D89" stop-opacity="0.3"/>
<stop offset="1" stop-color="#A7A7EE" stop-opacity="0"/>
</linearGradient>
<linearGradient id="paint6_linear" x1="123.39" y1="185.698" x2="123.39" y2="268.072" gradientUnits="userSpaceOnUse">
<stop stop-color="#A7A7EE" stop-opacity="0"/>
<stop offset="1" stop-color="#4C55A0" stop-opacity="0.2"/>
</linearGradient>
<linearGradient id="paint7_linear" x1="195.412" y1="216.926" x2="195.412" y2="260.356" gradientUnits="userSpaceOnUse">
<stop stop-color="#A7A7EE" stop-opacity="0"/>
<stop offset="1" stop-color="#4C55A0" stop-opacity="0.2"/>
</linearGradient>
<linearGradient id="paint8_linear" x1="215.371" y1="212.842" x2="215.371" y2="231.115" gradientUnits="userSpaceOnUse">
<stop stop-color="#FFC62C" stop-opacity="0"/>
<stop offset="1" stop-color="#FF6663" stop-opacity="0.1"/>
</linearGradient>
<linearGradient id="paint9_linear" x1="161.88" y1="211.978" x2="161.88" y2="242.44" gradientUnits="userSpaceOnUse">
<stop stop-color="#FFC62C" stop-opacity="0"/>
<stop offset="1" stop-color="#FF6663" stop-opacity="0.1"/>
</linearGradient>
<linearGradient id="paint10_linear" x1="141.418" y1="162.584" x2="141.418" y2="190.681" gradientUnits="userSpaceOnUse">
<stop stop-color="#FFC62C" stop-opacity="0"/>
<stop offset="1" stop-color="#FF6663" stop-opacity="0.1"/>
</linearGradient>
<linearGradient id="paint11_linear" x1="152.016" y1="162.584" x2="137.518" y2="182.694" gradientUnits="userSpaceOnUse">
<stop stop-opacity="0.2"/>
<stop offset="1" stop-color="#FFC42C" stop-opacity="0"/>
</linearGradient>
<linearGradient id="paint12_linear" x1="135.01" y1="117.274" x2="135.01" y2="172.939" gradientUnits="userSpaceOnUse">
<stop stop-color="#FFC62C" stop-opacity="0"/>
<stop offset="1" stop-color="#FF6663" stop-opacity="0.1"/>
</linearGradient>
<linearGradient id="paint13_linear" x1="163.381" y1="117.273" x2="150.635" y2="151.886" gradientUnits="userSpaceOnUse">
<stop stop-opacity="0.1"/>
<stop offset="1" stop-color="#FFC42C" stop-opacity="0"/>
</linearGradient>
</defs>
</svg>
