<svg width="156" height="34" viewBox="0 0 156 34" fill="none" xmlns="http://www.w3.org/2000/svg">
<path d="M20.208 15.28L32.064 31.936H36.048V34H24.816L14.976 20.752L11.616 24.496V34H0V31.936H4.128V0.447997H11.616V14.224L24.288 0.447997H33.552L20.208 15.28ZM55.9661 31.936V34H34.0781V31.936H43.8701V16.576H42.3341L42.6221 12.544L39.2141 14.896L36.7661 10.528L40.7981 8.512L36.7181 6.496L39.2141 2.224L42.6221 4.48L42.3341 0.447997H47.7101L47.4221 4.48L50.8301 2.224L53.3261 6.496L49.2461 8.512L53.2781 10.528L50.8301 14.896L47.4221 12.544L47.7101 16.576H46.1261V31.936H55.9661ZM60.0968 31.936V0.447997H72.8168C78.0328 0.447997 81.7448 1.328 83.9528 3.088C86.1928 4.848 87.3128 7.68 87.3128 11.584C87.3128 16.96 85.1848 20.432 80.9288 22L87.9368 31.936H92.4488V34H80.2087L72.7688 23.296H67.5848V34H55.4407V31.936H60.0968ZM73.0568 16.816C75.6168 16.816 77.3608 16.4 78.2888 15.568C79.2168 14.736 79.6808 13.424 79.6808 11.632C79.6808 9.808 79.2008 8.56 78.2408 7.888C77.2808 7.216 75.6008 6.88 73.2008 6.88H67.5848V16.816H73.0568ZM94.9718 31.936V0.447997H107.692C112.908 0.447997 116.62 1.328 118.828 3.088C121.068 4.848 122.188 7.68 122.188 11.584C122.188 16.96 120.06 20.432 115.804 22L122.812 31.936H127.324V34H115.084L107.644 23.296H102.46V34H90.3157V31.936H94.9718ZM107.932 16.816C110.492 16.816 112.236 16.4 113.164 15.568C114.092 14.736 114.556 13.424 114.556 11.632C114.556 9.808 114.076 8.56 113.116 7.888C112.156 7.216 110.476 6.88 108.076 6.88H102.46V16.816H107.932ZM155.383 31.936V34H125.719V31.936H136.807V20.752L125.191 0.447997H133.303L140.551 12.928L147.799 0.447997H155.911L144.295 20.752V31.936H155.383Z" fill="#FF9482"/>
</svg>
