<svg width="31" height="27" viewBox="0 0 31 27" fill="none" xmlns="http://www.w3.org/2000/svg">
<path d="M10.3281 4.89357V25.1859C10.3281 25.4738 10.2553 25.7205 10.113 25.9198C9.97061 26.1191 9.75867 26.2235 9.48031 26.2235C9.28418 26.2235 9.09439 26.176 8.91092 26.0843L0.863571 22.0543C0.62 21.9404 0.417551 21.7443 0.249898 21.4754C0.0822449 21.2065 0 20.9377 0 20.6719V0.948979C0 0.718061 0.0569388 0.521939 0.17398 0.360612C0.287857 0.199286 0.45551 0.117041 0.676939 0.117041C0.838265 0.117041 1.09133 0.202449 1.43929 0.376429L10.2806 4.805C10.3091 4.84296 10.3281 4.87143 10.3281 4.89357ZM11.4352 6.64286L20.6719 21.6241L11.4352 17.0215V6.64286ZM31 6.95286V25.1859C31 25.4738 30.9178 25.7079 30.7564 25.885C30.5951 26.0653 30.3768 26.1539 30.0985 26.1539C29.8201 26.1539 29.5512 26.078 29.2855 25.9293L21.6589 22.1239L31 6.95286ZM30.9494 4.87775C30.9494 4.91255 29.469 7.33245 26.5113 12.1343C23.5537 16.9393 21.8202 19.7483 21.3141 20.5676L14.5668 9.60051L20.1721 0.48398C20.3683 0.161327 20.6688 0 21.0705 0C21.2318 0 21.3805 0.034796 21.5197 0.104388L30.8798 4.77653C30.9241 4.79551 30.9494 4.83031 30.9494 4.87775Z" fill="#212B3D"/>
</svg>
