<svg width="16" height="26" viewBox="0 0 16 26" fill="none" xmlns="http://www.w3.org/2000/svg">
<path d="M12.0672 21.7687C11.3294 21.7687 10.6667 21.5938 10.0977 21.25C9.66628 20.9937 9.37866 20.65 9.22235 20.225C9.05979 19.7938 8.99726 18.8313 8.99726 17.325V11H14.9996V7H8.99726V0H5.127C4.95819 1.34375 4.65807 2.79375 4.2204 3.6625C3.78273 4.53125 3.34506 5.275 2.61977 5.89375C1.89449 6.5125 1.01915 7.0125 0 7.35V11H3.00117V19.775C3.00117 20.9625 3.12622 21.8687 3.37007 22.4937C3.62016 23.1187 4.06409 23.7125 4.70809 24.2687C5.35209 24.825 6.13365 25.25 7.04025 25.55C7.95311 25.85 9.00352 26 10.1915 26C11.2356 26 12.086 25.8937 12.9863 25.6812C13.8867 25.4688 14.8933 25.1 16 24.5812V20.4813C14.6932 21.3375 13.3865 21.7687 12.0672 21.7687Z" fill="#212B3D"/>
</svg>
