<svg width="30" height="25" viewBox="0 0 30 25" fill="none" xmlns="http://www.w3.org/2000/svg">
<path d="M30 2.96224C28.8938 3.46354 27.7114 3.80208 26.4654 3.95833C27.7368 3.17708 28.7158 1.9401 29.1736 0.46875C27.9847 1.19141 26.6688 1.71875 25.2638 1.9987C24.1386 0.768229 22.5366 0 20.7692 0C17.3681 0 14.6154 2.82552 14.6154 6.30859C14.6154 6.80338 14.6662 7.28516 14.7743 7.7474C9.65671 7.48698 5.11761 4.97396 2.08519 1.15234C1.55753 2.08333 1.25238 3.17057 1.25238 4.32292C1.25238 6.51042 2.34584 8.44401 3.99873 9.57682C2.98156 9.55078 2.02797 9.26432 1.20153 8.78906V8.86719C1.20153 11.9271 3.32486 14.4727 6.14113 15.0521C5.62619 15.1953 5.07947 15.2734 4.52003 15.2734C4.12587 15.2734 3.73808 15.2344 3.363 15.1562C4.14495 17.6628 6.42085 19.4857 9.11634 19.5378C7.01208 21.2305 4.35474 22.2396 1.46853 22.2396C0.972664 22.2396 0.483153 22.207 0 22.1484C2.71456 23.9583 5.95041 25 9.42149 25C20.7565 25 26.9485 15.3841 26.9485 7.04427C26.9485 6.77083 26.9422 6.4974 26.9294 6.23047C28.131 5.33854 29.1736 4.23177 30 2.96224Z" fill="#212B3D"/>
</svg>
