<svg width="34" height="34" viewBox="0 0 34 34" fill="none" xmlns="http://www.w3.org/2000/svg">
<path fill-rule="evenodd" clip-rule="evenodd" d="M17.0001 32.5832C8.39364 32.5832 1.41675 25.6063 1.41675 16.9998C1.41675 8.3934 8.39364 1.4165 17.0001 1.4165C25.6065 1.4165 32.5834 8.3934 32.5834 16.9998C32.5834 25.6063 25.6065 32.5832 17.0001 32.5832ZM17 29.7499C24.0416 29.7499 29.75 24.0415 29.75 16.9999C29.75 9.95826 24.0416 4.24989 17 4.24989C9.95835 4.24989 4.24998 9.95826 4.24998 16.9999C4.24998 24.0415 9.95835 29.7499 17 29.7499ZM20.9533 20.9532L24.9066 9.09332L13.0467 13.0466L9.09336 24.9065L20.9533 20.9532ZM18.7134 18.7134L13.5734 20.4268L15.2867 15.2867L20.4268 13.5734L18.7134 18.7134Z" fill="white"/>
</svg>
