<svg width="585" height="585" viewBox="0 0 585 585" fill="none" xmlns="http://www.w3.org/2000/svg">
<circle cx="384.795" cy="40.2307" r="5.20631" fill="url(#paint0_linear)"/>
<circle cx="290.608" cy="285.874" r="195.393" stroke="#CB89FF" stroke-width="3" stroke-miterlimit="2.3662" stroke-dasharray="8.2 8.2"/>
<circle cx="292.5" cy="292.5" r="291" stroke="#A7ACEC" stroke-width="3" stroke-miterlimit="2.3662" stroke-dasharray="8.2 8.2"/>
<path d="M369.937 324.657C368.527 326.976 367.102 329.297 365.663 331.62L364.387 330.831C363.669 331.991 362.947 333.151 362.221 334.312C361.496 335.473 360.769 336.631 360.042 337.785L361.311 338.585C359.853 340.897 358.392 343.195 356.926 345.479L355.664 344.669C354.187 346.971 352.706 349.259 351.222 351.532L352.478 352.352C350.986 354.638 349.491 356.908 347.992 359.164L346.742 358.334C345.226 360.616 343.706 362.883 342.184 365.134L343.427 365.974C341.896 368.237 340.363 370.484 338.827 372.714L337.592 371.863C336.039 374.119 334.484 376.358 332.926 378.58L334.155 379.441C332.583 381.683 331.009 383.908 329.434 386.115L328.213 385.243C326.626 387.467 325.037 389.673 323.447 391.86L324.66 392.742C323.046 394.963 321.43 397.165 319.813 399.347L318.608 398.454C316.984 400.647 315.359 402.819 313.735 404.971L314.932 405.875C313.275 408.07 311.618 410.243 309.961 412.396L308.773 411.481C307.102 413.65 305.433 415.798 303.764 417.923L304.944 418.85C303.253 421.003 301.563 423.134 299.874 425.241L298.704 424.303C296.984 426.448 295.267 428.569 293.551 430.665L294.712 431.615C292.975 433.738 291.24 435.835 289.508 437.905L288.357 436.943C286.599 439.045 284.844 441.121 283.092 443.168L284.232 444.143C282.439 446.239 280.651 448.305 278.867 450.342L277.738 449.354C275.932 451.415 274.131 453.447 272.335 455.448L273.451 456.45C271.615 458.495 269.784 460.509 267.959 462.489L266.856 461.473C264.987 463.501 263.125 465.495 261.271 467.453L262.36 468.485C260.464 470.487 258.576 472.452 256.696 474.38L255.622 473.333C253.707 475.297 251.801 477.222 249.905 479.106L250.963 480.17C249.001 482.121 247.049 484.028 245.109 485.893L244.07 484.811C242.076 486.727 240.095 488.596 238.127 490.418L239.146 491.518C237.112 493.402 235.092 495.235 233.088 497.016L232.092 495.895C230.028 497.73 227.981 499.509 225.952 501.232L226.923 502.375C224.808 504.172 222.712 505.908 220.637 507.581L219.695 506.414C217.541 508.151 215.41 509.821 213.305 511.421L214.213 512.616C211.991 514.304 209.796 515.917 207.631 517.451L206.763 516.227C204.491 517.837 202.253 519.36 200.05 520.793L200.869 522.051C198.506 523.588 196.183 525.024 193.902 526.357L193.145 525.062C190.721 526.478 188.349 527.775 186.031 528.949L186.709 530.287C184.168 531.574 181.688 532.717 179.274 533.713L178.702 532.327C176.108 533.397 173.6 534.29 171.181 535.005L171.605 536.443C168.83 537.263 166.16 537.854 163.604 538.211L163.397 536.725C160.634 537.11 158.031 537.207 155.593 537.017L155.476 538.512C152.636 538.29 149.985 537.693 147.538 536.708L148.099 535.316C146.908 534.837 145.771 534.26 144.689 533.583C143.607 532.907 142.589 532.138 141.637 531.278L140.632 532.392C138.674 530.625 136.975 528.504 135.53 526.049L136.823 525.288C135.583 523.181 134.53 520.798 133.664 518.146L132.238 518.611C131.438 516.158 130.799 513.499 130.319 510.645L131.798 510.396C131.38 507.909 131.083 505.262 130.908 502.462L129.411 502.555C129.248 499.949 129.189 497.219 129.231 494.371L130.731 494.394C130.77 491.796 130.896 489.095 131.106 486.296L129.61 486.183C129.808 483.549 130.081 480.831 130.427 478.034L131.916 478.218C132.238 475.61 132.626 472.931 133.077 470.183L131.596 469.94C132.026 467.321 132.514 464.641 133.058 461.904L134.529 462.197C135.044 459.603 135.611 456.956 136.228 454.258L134.766 453.923C135.361 451.325 136.002 448.68 136.69 445.991L138.143 446.363C138.802 443.784 139.504 441.164 140.248 438.505L138.804 438.101C139.526 435.518 140.288 432.899 141.09 430.246L142.526 430.679C143.3 428.112 144.112 425.512 144.96 422.88L143.532 422.42C144.357 419.86 145.216 417.269 146.109 414.65L147.529 415.134C148.392 412.604 149.286 410.047 150.212 407.465L148.8 406.959C149.709 404.424 150.647 401.866 151.616 399.284L153.02 399.811C153.967 397.285 154.943 394.738 155.947 392.169L154.55 391.623C155.53 389.115 156.537 386.587 157.571 384.04L158.961 384.604C159.971 382.112 161.008 379.603 162.069 377.076L160.686 376.495C161.735 373.998 162.808 371.485 163.906 368.955L165.282 369.552C166.354 367.08 167.45 364.593 168.569 362.091L167.199 361.478C168.301 359.014 169.425 356.535 170.572 354.044L171.934 354.671C173.066 352.21 174.219 349.736 175.394 347.251L174.038 346.61C175.191 344.169 176.365 341.716 177.56 339.252L178.91 339.906C180.088 337.474 181.287 335.032 182.505 332.58L181.161 331.912C182.369 329.48 183.597 327.038 184.843 324.587L186.18 325.266C187.402 322.863 188.643 320.45 189.901 318.029L188.57 317.337C189.823 314.928 191.094 312.51 192.382 310.085L193.707 310.789C194.976 308.401 196.261 306.007 197.564 303.605L196.246 302.89C197.539 300.506 198.849 298.117 200.175 295.721L201.487 296.448C202.802 294.074 204.132 291.695 205.479 289.31L204.173 288.572C205.504 286.214 206.851 283.851 208.214 281.484L209.514 282.232C210.87 279.877 212.241 277.518 213.628 275.155L212.334 274.396C213.704 272.06 215.089 269.72 216.489 267.377L217.777 268.147C219.17 265.816 220.577 263.483 221.998 261.146L220.717 260.366C222.128 258.048 223.553 255.727 224.992 253.403L226.267 254.193C226.985 253.033 227.707 251.873 228.433 250.712C229.158 249.551 229.885 248.393 230.612 247.239L229.344 246.439C230.801 244.127 232.263 241.829 233.728 239.544L234.991 240.354C236.467 238.052 237.948 235.765 239.432 233.491L238.176 232.671C239.668 230.386 241.164 228.115 242.662 225.86L243.912 226.69C245.428 224.408 246.948 222.141 248.47 219.89L247.228 219.05C248.758 216.787 250.291 214.54 251.827 212.31L253.062 213.16C254.615 210.905 256.171 208.666 257.728 206.444L256.5 205.583C258.071 203.341 259.645 201.116 261.22 198.909L262.441 199.78C264.028 197.557 265.617 195.351 267.207 193.164L265.994 192.282C267.609 190.061 269.225 187.859 270.841 185.677L272.046 186.57C273.67 184.377 275.295 182.205 276.92 180.053L275.723 179.149C277.379 176.954 279.036 174.78 280.693 172.628L281.882 173.543C283.552 171.373 285.222 169.226 286.89 167.1L285.711 166.174C287.402 164.02 289.092 161.89 290.78 159.783L291.951 160.721C293.67 158.575 295.388 156.455 297.103 154.359L295.942 153.409C297.679 151.286 299.414 149.189 301.146 147.118L302.297 148.081C304.055 145.978 305.811 143.903 307.562 141.855L306.423 140.88C308.215 138.785 310.004 136.719 311.788 134.682L312.916 135.67C314.722 133.608 316.523 131.577 318.319 129.576L317.203 128.574C319.04 126.529 320.87 124.515 322.695 122.535L323.798 123.551C325.667 121.523 327.529 119.529 329.383 117.57L328.294 116.539C330.19 114.537 332.078 112.572 333.958 110.644L335.032 111.691C336.947 109.727 338.853 107.802 340.749 105.918L339.692 104.854C341.654 102.903 343.605 100.995 345.545 99.1312L346.585 100.213C348.578 98.2971 350.56 96.4279 352.527 94.6063L351.508 93.5056C353.542 91.6222 355.562 89.7893 357.566 88.0078L358.563 89.1289C360.627 87.2943 362.674 85.5149 364.702 83.792L363.731 82.6487C365.847 80.8522 367.942 79.1163 370.017 77.4425L370.959 78.61C373.113 76.8725 375.244 75.2028 377.349 73.6024L376.442 72.4083C378.663 70.7196 380.858 69.107 383.024 67.5725L383.891 68.7963C386.163 67.1863 388.401 65.6637 390.604 64.2305L389.786 62.9732C392.148 61.436 394.471 59.9996 396.752 58.6667L397.509 59.9618C399.933 58.5454 402.305 57.2489 404.623 56.0749L403.946 54.7367C406.486 53.4499 408.966 52.3065 411.38 51.3105L411.952 52.6971C414.546 51.6271 417.055 50.7334 419.474 50.0191L419.049 48.5805C421.824 47.761 424.494 47.1694 427.05 46.8133L427.257 48.2989C430.02 47.914 432.624 47.8165 435.061 48.0071L435.178 46.5117C438.018 46.7339 440.67 47.3306 443.116 48.3161L442.556 49.7075C443.746 50.187 444.883 50.764 445.965 51.4404C447.048 52.1168 448.065 52.8857 449.018 53.7454L450.022 52.6317C451.981 54.3986 453.679 56.5198 455.124 58.9751L453.831 59.7358C455.071 61.8431 456.125 64.2261 456.99 66.8779L458.416 66.4127C459.216 68.8662 459.855 71.5252 460.335 74.3791L458.856 74.6279C459.274 77.1151 459.571 79.7619 459.746 82.5622L461.243 82.4685C461.406 85.0749 461.466 87.8048 461.423 90.6524L459.923 90.6299C459.884 93.2279 459.759 95.9287 459.548 98.7281L461.044 98.8405C460.846 101.475 460.573 104.193 460.227 106.99L458.739 106.806C458.416 109.414 458.029 112.093 457.578 114.841L459.058 115.084C458.628 117.703 458.141 120.383 457.597 123.12L456.125 122.827C455.61 125.421 455.043 128.068 454.426 130.766L455.888 131.1C455.293 133.699 454.652 136.344 453.965 139.033L452.511 138.661C451.852 141.24 451.15 143.86 450.406 146.519L451.85 146.923C451.128 149.506 450.366 152.124 449.565 154.778L448.129 154.345C447.354 156.912 446.542 159.512 445.695 162.143L447.122 162.603C446.297 165.164 445.438 167.755 444.545 170.373L443.125 169.889C442.263 172.419 441.368 174.976 440.442 177.559L441.854 178.065C440.946 180.599 440.007 183.158 439.039 185.74L437.634 185.213C436.687 187.738 435.711 190.286 434.707 192.855L436.104 193.401C435.124 195.909 434.117 198.437 433.084 200.984L431.694 200.42C430.683 202.911 429.646 205.421 428.585 207.948L429.968 208.529C428.919 211.026 427.846 213.539 426.749 216.068L425.373 215.471C424.3 217.944 423.204 220.431 422.086 222.933L423.455 223.545C422.353 226.01 421.229 228.488 420.083 230.98L418.72 230.353C417.588 232.814 416.435 235.287 415.26 237.773L416.616 238.414C415.463 240.855 414.289 243.308 413.094 245.772L411.745 245.118C410.566 247.549 409.368 249.992 408.15 252.444L409.493 253.111C408.285 255.544 407.058 257.986 405.811 260.437L404.474 259.757C403.252 262.161 402.012 264.574 400.753 266.994L402.084 267.686C400.831 270.096 399.56 272.513 398.272 274.938L396.947 274.235C395.679 276.622 394.393 279.017 393.09 281.419L394.408 282.134C393.115 284.517 391.806 286.907 390.479 289.303L389.167 288.576C387.853 290.95 386.522 293.329 385.176 295.714L386.482 296.451C385.15 298.809 383.803 301.172 382.44 303.54L381.14 302.791C379.784 305.146 378.413 307.506 377.027 309.869L378.32 310.628C376.95 312.964 375.565 315.304 374.165 317.647L372.877 316.877C371.485 319.208 370.077 321.541 368.656 323.878L369.937 324.657Z" stroke="#D7968B" stroke-width="3" stroke-miterlimit="2.3662" stroke-dasharray="8.2 8.2"/>
<path d="M216.829 326.347C218.238 328.657 219.66 330.971 221.095 333.287L222.37 332.496C223.087 333.653 223.807 334.81 224.53 335.967C225.254 337.125 225.978 338.279 226.703 339.431L225.434 340.23C226.886 342.535 228.342 344.828 229.801 347.107L231.065 346.298C232.535 348.594 234.008 350.877 235.485 353.146L234.228 353.964C235.712 356.245 237.199 358.512 238.689 360.764L239.94 359.937C241.447 362.215 242.956 364.479 244.468 366.727L243.223 367.564C244.742 369.823 246.263 372.067 247.786 374.295L249.025 373.449C250.566 375.704 252.109 377.943 253.654 380.166L252.422 381.022C253.98 383.263 255.538 385.487 257.098 387.693L258.323 386.828C259.896 389.054 261.47 391.262 263.045 393.453L261.827 394.329C263.425 396.55 265.022 398.754 266.62 400.938L267.831 400.052C269.435 402.246 271.04 404.421 272.645 406.576L271.441 407.472C273.08 409.673 274.719 411.855 276.357 414.015L277.552 413.109C279.2 415.283 280.847 417.436 282.492 419.567L281.305 420.483C282.975 422.647 284.644 424.789 286.311 426.907L287.49 425.98C289.184 428.132 290.875 430.261 292.564 432.366L291.394 433.305C293.103 435.435 294.81 437.54 296.513 439.621L297.673 438.67C299.408 440.79 301.14 442.883 302.867 444.949L301.716 445.911C303.477 448.017 305.234 450.096 306.985 452.146L308.126 451.172C309.899 453.247 311.666 455.293 313.428 457.308L312.298 458.295C314.108 460.365 315.911 462.404 317.707 464.41L318.824 463.41C320.657 465.456 322.481 467.469 324.298 469.447L323.193 470.462C325.05 472.483 326.898 474.469 328.737 476.419L329.828 475.39C331.706 477.38 333.575 479.332 335.432 481.246L334.356 482.291C336.283 484.275 338.199 486.218 340.102 488.118L341.162 487.056C343.111 489.001 345.047 490.901 346.969 492.755L345.927 493.835C347.913 495.751 349.885 497.618 351.841 499.435L352.862 498.337C354.876 500.208 356.873 502.027 358.852 503.79L357.853 504.91C359.916 506.749 361.959 508.528 363.981 510.248L364.953 509.105C367.064 510.901 369.152 512.63 371.214 514.291L370.273 515.46C372.445 517.209 374.59 518.884 376.705 520.483L377.609 519.286C379.825 520.961 382.008 522.55 384.154 524.053L383.294 525.282C385.59 526.888 387.846 528.397 390.061 529.805L390.866 528.54C393.224 530.039 395.53 531.421 397.783 532.683L397.049 533.992C399.538 535.387 401.965 536.639 404.325 537.745L404.962 536.387C407.515 537.584 409.982 538.602 412.357 539.44L411.858 540.854C414.58 541.814 417.193 542.544 419.691 543.038L419.981 541.566C422.738 542.111 425.323 542.352 427.73 542.29L427.768 543.79C430.646 543.716 433.314 543.23 435.753 542.314L435.226 540.91C436.416 540.464 437.544 539.908 438.61 539.242C439.677 538.575 440.671 537.805 441.594 536.931L442.625 538.02C444.517 536.23 446.123 534.045 447.451 531.49L446.12 530.799C447.231 528.663 448.147 526.233 448.866 523.517L450.316 523.901C450.967 521.44 451.457 518.771 451.787 515.904L450.297 515.732C450.585 513.231 450.751 510.567 450.795 507.747L452.295 507.771C452.336 505.164 452.274 502.434 452.111 499.585L450.613 499.671C450.466 497.093 450.235 494.414 449.921 491.638L451.412 491.469C451.117 488.861 450.75 486.172 450.312 483.404L448.831 483.638C448.421 481.05 447.949 478.392 447.415 475.666L448.887 475.378C448.378 472.776 447.813 470.114 447.192 467.395L445.73 467.729C445.141 465.147 444.502 462.513 443.813 459.828L445.266 459.455C444.607 456.884 443.903 454.268 443.155 451.608L441.711 452.014C440.993 449.463 440.234 446.871 439.435 444.24L440.87 443.804C440.094 441.249 439.28 438.659 438.429 436.034L437.002 436.496C436.178 433.956 435.319 431.383 434.425 428.779L435.843 428.292C434.97 425.748 434.064 423.175 433.125 420.573L431.714 421.082C430.809 418.574 429.873 416.039 428.907 413.478L430.311 412.949C429.365 410.441 428.39 407.909 427.387 405.354L425.991 405.903C425.009 403.402 424 400.88 422.964 398.336L424.353 397.77C423.337 395.276 422.295 392.762 421.228 390.229L419.845 390.811C418.806 388.344 417.742 385.859 416.655 383.356L418.03 382.758C416.955 380.285 415.857 377.794 414.736 375.288L413.367 375.901C412.267 373.443 411.145 370.969 410 368.481L411.363 367.854C410.24 365.411 409.096 362.955 407.93 360.485L406.574 361.125C405.422 358.685 404.25 356.231 403.058 353.765L404.408 353.112C403.235 350.685 402.042 348.246 400.829 345.796L399.485 346.461C398.291 344.048 397.078 341.624 395.846 339.19L397.185 338.513C395.961 336.094 394.719 333.665 393.458 331.227L392.126 331.916C390.892 329.529 389.641 327.133 388.373 324.729L389.699 324.029C388.436 321.636 387.157 319.234 385.86 316.824L384.539 317.535C383.26 315.159 381.966 312.776 380.654 310.386L381.969 309.665C380.67 307.296 379.354 304.92 378.023 302.538L376.714 303.27C375.393 300.907 374.057 298.538 372.706 296.164L374.009 295.422C372.674 293.077 371.324 290.726 369.959 288.37L368.661 289.122C367.303 286.778 365.931 284.429 364.544 282.076L365.836 281.314C364.464 278.988 363.079 276.657 361.679 274.323L360.393 275.094C359.001 272.773 357.595 270.448 356.176 268.12L357.456 267.339C356.048 265.029 354.626 262.715 353.19 260.399L351.915 261.189C351.199 260.033 350.478 258.876 349.755 257.718C349.032 256.561 348.307 255.406 347.582 254.255L348.851 253.456C347.399 251.15 345.943 248.858 344.484 246.579L343.221 247.388C341.751 245.091 340.277 242.809 338.801 240.54L340.058 239.722C338.574 237.441 337.086 235.174 335.597 232.921L334.346 233.749C332.839 231.471 331.329 229.207 329.818 226.959L331.063 226.122C329.543 223.863 328.022 221.619 326.499 219.391L325.261 220.237C323.719 217.982 322.176 215.742 320.632 213.52L321.863 212.664C320.306 210.423 318.747 208.199 317.188 205.992L315.963 206.858C314.389 204.632 312.815 202.423 311.24 200.233L312.458 199.357C310.861 197.135 309.263 194.932 307.666 192.748L306.455 193.633C304.85 191.44 303.245 189.265 301.641 187.11L302.844 186.214C301.205 184.012 299.567 181.831 297.929 179.671L296.734 180.577C295.086 178.403 293.439 176.25 291.794 174.119L292.981 173.203C291.31 171.039 289.641 168.897 287.974 166.778L286.795 167.706C285.102 165.553 283.41 163.424 281.721 161.32L282.891 160.381C281.182 158.251 279.476 156.145 277.773 154.065L276.612 155.015C274.877 152.896 273.146 150.803 271.419 148.737L272.57 147.775C270.809 145.668 269.052 143.59 267.3 141.539L266.16 142.514C264.387 140.439 262.62 138.393 260.858 136.378L261.987 135.39C260.178 133.321 258.375 131.282 256.579 129.276L255.461 130.276C253.629 128.23 251.804 126.217 249.987 124.239L251.092 123.224C249.236 121.202 247.387 119.216 245.548 117.267L244.457 118.296C242.579 116.306 240.711 114.353 238.853 112.44L239.93 111.395C238.003 109.411 236.087 107.468 234.183 105.568L233.124 106.63C231.175 104.685 229.239 102.784 227.317 100.93L228.358 99.8509C226.372 97.9348 224.401 96.0676 222.445 94.2504L221.424 95.3492C219.41 93.4773 217.413 91.659 215.434 89.8955L216.432 88.7758C214.369 86.9371 212.326 85.1573 210.305 83.4378L209.333 84.5804C207.221 82.7846 205.133 81.0554 203.071 79.3943L204.012 78.2261C201.84 76.4767 199.696 74.8017 197.581 73.2032L196.677 74.3999C194.46 72.7249 192.278 71.1354 190.132 69.6332L190.992 68.4042C188.696 66.7973 186.439 65.2885 184.225 63.8804L183.42 65.1462C181.062 63.6471 178.755 62.2649 176.503 61.0024L177.236 59.694C174.748 58.299 172.321 57.0464 169.96 55.9404L169.324 57.2987C166.77 56.1022 164.303 55.0835 161.928 54.2461L162.427 52.8315C159.706 51.8719 157.092 51.1415 154.595 50.6481L154.304 52.1196C151.548 51.575 148.963 51.3336 146.556 51.3953L146.518 49.8958C143.639 49.9696 140.972 50.4558 138.533 51.3712L139.06 52.7756C137.87 53.2221 136.742 53.7775 135.675 54.4439C134.609 55.1103 133.615 55.881 132.692 56.7546L131.661 55.6653C129.769 57.4562 128.162 59.6407 126.834 62.1953L128.165 62.8872C127.055 65.0231 126.138 67.4525 125.42 70.1687L123.97 69.785C123.318 72.2459 122.829 74.915 122.499 77.7816L123.989 77.9534C123.7 80.4552 123.534 83.119 123.49 85.9386L121.991 85.9152C121.95 88.5217 122.012 91.252 122.175 94.1004L123.672 94.0148C123.819 96.5928 124.051 99.2719 124.364 102.048L122.874 102.217C123.169 104.824 123.536 107.514 123.973 110.282L125.455 110.048C125.864 112.635 126.336 115.294 126.87 118.02L125.398 118.308C125.908 120.91 126.473 123.571 127.093 126.29L128.556 125.957C129.145 128.538 129.784 131.173 130.472 133.858L129.019 134.231C129.678 136.802 130.383 139.418 131.131 142.078L132.575 141.672C133.293 144.223 134.051 146.815 134.851 149.446L133.416 149.882C134.192 152.437 135.006 155.027 135.857 157.652L137.284 157.189C138.108 159.73 138.967 162.303 139.861 164.907L138.442 165.394C139.315 167.938 140.222 170.511 141.16 173.113L142.571 172.604C143.477 175.112 144.412 177.647 145.378 180.207L143.975 180.737C144.921 183.245 145.896 185.776 146.899 188.331L148.295 187.783C149.277 190.283 150.286 192.806 151.322 195.35L149.933 195.915C150.949 198.409 151.99 200.924 153.058 203.457L154.44 202.875C155.479 205.342 156.543 207.827 157.631 210.33L156.255 210.928C157.33 213.401 158.428 215.891 159.55 218.398L160.919 217.785C162.019 220.243 163.141 222.717 164.285 225.205L162.923 225.832C164.046 228.274 165.19 230.731 166.355 233.201L167.712 232.561C168.863 235.001 170.035 237.455 171.228 239.921L169.877 240.574C171.051 243.001 172.244 245.44 173.456 247.89L174.801 247.225C175.995 249.638 177.208 252.061 178.439 254.495L177.101 255.173C178.325 257.592 179.567 260.02 180.827 262.459L182.16 261.77C183.393 264.157 184.645 266.552 185.913 268.957L184.586 269.656C185.849 272.05 187.129 274.452 188.426 276.861L189.747 276.151C191.025 278.526 192.32 280.909 193.631 283.299L192.316 284.021C193.616 286.39 194.931 288.766 196.263 291.148L197.572 290.416C198.893 292.779 200.229 295.147 201.58 297.521L200.276 298.263C201.611 300.609 202.961 302.96 204.326 305.316L205.624 304.564C206.982 306.908 208.355 309.257 209.742 311.61L208.45 312.372C209.821 314.698 211.207 317.029 212.606 319.363L213.893 318.591C215.285 320.913 216.69 323.238 218.11 325.566L216.829 326.347Z" stroke="#C1A7EC" stroke-width="3" stroke-miterlimit="2.3662" stroke-dasharray="8.2 8.2"/>
<path d="M304.113 343.277C301.464 343.374 298.805 343.462 296.135 343.541L296.091 342.042C294.757 342.081 293.422 342.118 292.084 342.154C290.745 342.189 289.41 342.221 288.076 342.252L288.11 343.751C285.44 343.812 282.78 343.863 280.129 343.905L280.106 342.405C277.429 342.447 274.763 342.48 272.109 342.503L272.122 344.003C269.45 344.027 266.789 344.04 264.14 344.045L264.137 342.545C261.462 342.549 258.799 342.544 256.149 342.53L256.141 344.029C253.461 344.015 250.794 343.99 248.141 343.956L248.16 342.456C245.493 342.422 242.84 342.378 240.202 342.325L240.171 343.824C237.485 343.77 234.814 343.706 232.159 343.632L232.201 342.132C229.525 342.058 226.865 341.973 224.222 341.879L224.169 343.378C221.497 343.283 218.842 343.178 216.206 343.063L216.271 341.564C213.586 341.447 210.92 341.32 208.273 341.183L208.196 342.681C205.515 342.542 202.855 342.392 200.215 342.233L200.306 340.736C197.639 340.575 194.993 340.404 192.37 340.222L192.267 341.719C189.577 341.533 186.91 341.336 184.268 341.129L184.385 339.634C181.707 339.424 179.054 339.203 176.427 338.972L176.296 340.466C173.621 340.231 170.974 339.985 168.354 339.728L168.5 338.235C165.827 337.973 163.183 337.7 160.569 337.416L160.406 338.907C157.72 338.615 155.066 338.311 152.444 337.996L152.623 336.507C149.95 336.186 147.311 335.853 144.707 335.509L144.511 336.996C141.838 336.642 139.202 336.277 136.605 335.899L136.821 334.415C134.161 334.028 131.542 333.629 128.964 333.218L128.728 334.699C126.049 334.271 123.415 333.831 120.828 333.377L121.087 331.9C118.419 331.432 115.802 330.951 113.236 330.456L112.952 331.929C110.282 331.415 107.667 330.886 105.11 330.343L105.421 328.875C102.766 328.311 100.175 327.733 97.6482 327.139L97.3053 328.599C94.6462 327.975 92.0586 327.334 89.5451 326.678L89.924 325.227C87.2861 324.538 84.7313 323.832 82.2627 323.11L81.8415 324.549C79.2022 323.777 76.6595 322.986 74.2169 322.177L74.6887 320.753C72.089 319.891 69.6063 319.01 67.2446 318.11L66.7103 319.511C64.0947 318.514 61.6232 317.493 59.3018 316.449L59.9171 315.081C57.3736 313.936 55.0195 312.767 52.8615 311.576L52.1364 312.889C49.6283 311.504 47.3713 310.084 45.3775 308.632L46.2606 307.42C43.9661 305.749 42.0584 304.054 40.5413 302.343L39.4191 303.339C37.4634 301.134 36.088 298.867 35.3296 296.546L36.7554 296.08C36.3777 294.924 36.1734 293.763 36.1428 292.594C36.1122 291.424 36.2554 290.254 36.5721 289.08L35.1238 288.689C35.7597 286.332 37.0147 283.996 38.8523 281.692L40.0251 282.627C41.4506 280.839 43.2669 279.047 45.4708 277.258L44.5255 276.093C46.4406 274.539 48.6202 273.003 51.0524 271.489L51.8452 272.762C53.9379 271.459 56.2276 270.169 58.7078 268.893L58.0216 267.559C60.2853 266.395 62.6999 265.246 65.2597 264.113L65.8666 265.485C68.1779 264.462 70.6112 263.452 73.1622 262.455L72.6165 261.058C75.0134 260.122 77.5113 259.199 80.1065 258.29L80.6025 259.706C83.0299 258.855 85.5442 258.017 88.1425 257.191L87.6881 255.761C90.1639 254.974 92.7144 254.199 95.3371 253.436L95.756 254.876C98.2479 254.152 100.806 253.438 103.428 252.736L103.04 251.287C105.565 250.611 108.148 249.946 110.788 249.292L111.149 250.748C113.685 250.12 116.274 249.502 118.914 248.896L118.578 247.434C121.138 246.846 123.745 246.268 126.398 245.701L126.711 247.167C129.263 246.622 131.858 246.086 134.494 245.561L134.201 244.09C136.775 243.577 139.388 243.074 142.038 242.581L142.312 244.056C144.894 243.575 147.512 243.105 150.165 242.644L149.909 241.166C152.51 240.715 155.145 240.273 157.812 239.84L158.052 241.321C160.648 240.9 163.274 240.489 165.93 240.087L165.706 238.604C168.309 238.211 170.94 237.826 173.598 237.451L173.808 238.937C176.419 238.568 179.057 238.209 181.72 237.86L181.525 236.372C184.153 236.027 186.805 235.691 189.482 235.365L189.663 236.854C192.274 236.535 194.906 236.226 197.561 235.926L197.392 234.435C200.02 234.138 202.669 233.85 205.339 233.571L205.495 235.062C208.13 234.787 210.786 234.52 213.461 234.263L213.318 232.77C215.945 232.517 218.59 232.273 221.254 232.038L221.385 233.532C224.02 233.3 226.671 233.076 229.34 232.862L229.219 231.367C231.867 231.154 234.531 230.95 237.211 230.755L237.319 232.251C239.951 232.06 242.599 231.877 245.26 231.703L245.163 230.206C247.81 230.033 250.472 229.869 253.147 229.714L253.234 231.212C255.88 231.059 258.539 230.914 261.211 230.779L261.135 229.28C263.78 229.146 266.438 229.021 269.108 228.904L269.173 230.403C271.826 230.287 274.49 230.18 277.165 230.082L277.11 228.583C279.758 228.486 282.418 228.398 285.088 228.319L285.132 229.819C286.465 229.779 287.801 229.742 289.139 229.707C290.477 229.672 291.813 229.639 293.146 229.609L293.112 228.109C295.783 228.048 298.443 227.997 301.093 227.955L301.117 229.455C303.793 229.413 306.459 229.38 309.114 229.357L309.101 227.857C311.773 227.834 314.434 227.82 317.083 227.815L317.086 229.315C319.761 229.311 322.424 229.316 325.074 229.331L325.082 227.831C327.762 227.845 330.428 227.87 333.082 227.904L333.062 229.404C335.729 229.438 338.383 229.482 341.021 229.535L341.051 228.036C343.738 228.09 346.409 228.154 349.064 228.228L349.022 229.728C351.698 229.802 354.357 229.887 357 229.981L357.054 228.482C359.726 228.577 362.38 228.682 365.017 228.797L364.952 230.296C367.637 230.413 370.303 230.54 372.949 230.677L373.027 229.179C375.707 229.318 378.368 229.468 381.008 229.627L380.917 231.124C383.584 231.285 386.229 231.456 388.853 231.638L388.956 230.141C391.646 230.327 394.312 230.524 396.955 230.731L396.838 232.226C399.516 232.436 402.168 232.657 404.796 232.888L404.927 231.394C407.601 231.629 410.249 231.875 412.869 232.132L412.722 233.625C415.396 233.887 418.04 234.16 420.654 234.445L420.816 232.953C423.502 233.245 426.157 233.549 428.779 233.864L428.6 235.353C431.273 235.674 433.912 236.007 436.516 236.352L436.712 234.864C439.385 235.218 442.02 235.584 444.617 235.961L444.402 237.446C447.062 237.832 449.681 238.231 452.258 238.643L452.495 237.161C455.174 237.589 457.807 238.03 460.394 238.483L460.135 239.96C462.803 240.428 465.421 240.909 467.987 241.404L468.271 239.931C470.941 240.446 473.556 240.975 476.113 241.518L475.801 242.985C478.456 243.549 481.048 244.128 483.574 244.721L483.917 243.261C486.576 243.885 489.164 244.526 491.678 245.182L491.299 246.634C493.937 247.322 496.491 248.028 498.96 248.75L499.381 247.311C502.02 248.083 504.563 248.874 507.006 249.683L506.534 251.107C509.134 251.969 511.616 252.85 513.978 253.75L514.512 252.349C517.128 253.346 519.599 254.367 521.921 255.412L521.306 256.78C523.849 257.924 526.203 259.093 528.361 260.284L529.086 258.971C531.594 260.356 533.851 261.776 535.845 263.228L534.962 264.44C537.257 266.111 539.164 267.806 540.681 269.517L541.804 268.522C543.759 270.727 545.135 272.993 545.893 275.314L544.467 275.78C544.845 276.936 545.049 278.097 545.08 279.267C545.111 280.436 544.967 281.606 544.651 282.78L546.099 283.171C545.463 285.528 544.208 287.864 542.37 290.168L541.198 289.233C539.772 291.021 537.956 292.813 535.752 294.602L536.697 295.767C534.782 297.321 532.603 298.857 530.17 300.371L529.378 299.098C527.285 300.401 524.995 301.691 522.515 302.967L523.201 304.301C520.937 305.465 518.523 306.615 515.963 307.747L515.356 306.376C513.045 307.398 510.612 308.408 508.061 309.405L508.606 310.802C506.209 311.738 503.711 312.661 501.116 313.57L500.62 312.155C498.193 313.005 495.679 313.844 493.08 314.67L493.535 316.099C491.059 316.886 488.508 317.661 485.886 318.424L485.467 316.984C482.975 317.709 480.417 318.422 477.795 319.124L478.183 320.573C475.658 321.249 473.074 321.915 470.434 322.568L470.074 321.112C467.538 321.74 464.949 322.358 462.309 322.965L462.645 324.426C460.085 325.015 457.478 325.593 454.825 326.16L454.512 324.693C451.959 325.238 449.365 325.774 446.728 326.299L447.021 327.77C444.448 328.283 441.835 328.786 439.185 329.279L438.91 327.805C436.328 328.285 433.71 328.755 431.057 329.216L431.314 330.694C428.712 331.146 426.077 331.588 423.41 332.02L423.17 330.539C420.575 330.96 417.948 331.371 415.293 331.773L415.517 333.256C412.914 333.65 410.283 334.034 407.625 334.409L407.415 332.924C404.804 333.292 402.166 333.651 399.503 334.001L399.698 335.488C397.07 335.833 394.417 336.169 391.741 336.495L391.559 335.006C388.949 335.325 386.316 335.634 383.662 335.935L383.83 337.425C381.203 337.722 378.554 338.011 375.884 338.29L375.728 336.798C373.092 337.073 370.437 337.34 367.762 337.597L367.905 339.09C365.278 339.343 362.632 339.587 359.969 339.822L359.837 338.328C357.203 338.56 354.551 338.784 351.883 338.998L352.003 340.494C349.356 340.706 346.692 340.91 344.012 341.105L343.903 339.609C341.271 339.801 338.624 339.983 335.962 340.157L336.06 341.654C333.412 341.827 330.751 341.991 328.075 342.146L327.988 340.648C325.343 340.802 322.684 340.946 320.012 341.082L320.088 342.58C317.443 342.714 314.785 342.839 312.115 342.956L312.05 341.457C309.397 341.573 306.733 341.68 304.058 341.778L304.113 343.277Z" stroke="#BAB484" stroke-width="3" stroke-miterlimit="2.3662" stroke-dasharray="8.2 8.2"/>
<path d="M426.796 280.322C426.85 283.014 426.886 285.716 426.904 288.427L425.404 288.437C425.413 289.789 425.418 291.144 425.418 292.5C425.418 293.857 425.413 295.212 425.404 296.564L426.904 296.574C426.886 299.285 426.85 301.986 426.796 304.679L425.297 304.649C425.242 307.358 425.17 310.057 425.08 312.746L426.58 312.796C426.489 315.502 426.381 318.198 426.254 320.883L424.756 320.812C424.629 323.523 424.483 326.223 424.32 328.911L425.817 329.002C425.653 331.706 425.471 334.398 425.271 337.077L423.775 336.965C423.573 339.671 423.353 342.364 423.115 345.044L424.609 345.176C424.369 347.88 424.111 350.57 423.835 353.246L422.342 353.092C422.065 355.786 421.769 358.465 421.455 361.129L422.945 361.304C422.626 364.006 422.29 366.693 421.935 369.364L420.448 369.166C420.092 371.844 419.719 374.505 419.327 377.15L420.811 377.37C420.412 380.067 419.994 382.748 419.558 385.41L418.078 385.168C417.64 387.841 417.183 390.496 416.709 393.132L418.185 393.397C417.704 396.072 417.204 398.728 416.686 401.363L415.214 401.074C414.69 403.74 414.147 406.386 413.586 409.01L415.053 409.324C414.486 411.978 413.899 414.61 413.295 417.22L411.833 416.882C411.22 419.53 410.588 422.155 409.937 424.756L411.392 425.12C410.73 427.764 410.049 430.383 409.349 432.976L407.901 432.586C407.197 435.198 406.473 437.784 405.731 440.343L407.171 440.761C406.41 443.386 405.629 445.983 404.829 448.551L403.397 448.105C402.588 450.7 401.76 453.265 400.913 455.8L402.336 456.275C401.473 458.854 400.591 461.402 399.69 463.917L398.278 463.411C397.36 465.974 396.421 468.503 395.463 470.996L396.863 471.534C395.883 474.087 394.881 476.604 393.86 479.083L392.473 478.512C391.438 481.023 390.383 483.495 389.308 485.928L390.68 486.534C389.579 489.025 388.457 491.475 387.314 493.883L385.959 493.239C384.788 495.706 383.596 498.128 382.383 500.502L383.719 501.184C382.472 503.625 381.203 506.018 379.913 508.359L378.599 507.636C377.286 510.02 375.95 512.351 374.594 514.627L375.883 515.395C374.482 517.746 373.059 520.04 371.613 522.275L370.354 521.46C368.878 523.742 367.38 525.962 365.86 528.116L367.086 528.981C365.501 531.228 363.893 533.406 362.262 535.513L361.076 534.595C359.406 536.752 357.713 538.833 355.997 540.837L357.137 541.812C355.347 543.903 353.533 545.91 351.694 547.832L350.61 546.796C348.729 548.763 346.823 550.639 344.895 552.42L345.913 553.522C343.892 555.39 341.845 557.156 339.774 558.819L338.835 557.649C336.719 559.347 334.58 560.934 332.418 562.406L333.263 563.646C330.992 565.192 328.696 566.615 326.375 567.912L325.643 566.602C323.292 567.916 320.917 569.096 318.522 570.14L319.121 571.515C316.612 572.607 314.079 573.553 311.522 574.349L311.076 572.917C308.531 573.709 305.965 574.348 303.379 574.83L303.654 576.305C300.995 576.801 298.314 577.134 295.614 577.302L295.521 575.805C294.203 575.886 292.881 575.928 291.554 575.928C290.226 575.928 288.904 575.886 287.586 575.805L287.493 577.302C284.793 577.134 282.112 576.8 279.453 576.305L279.728 574.83C277.142 574.348 274.576 573.709 272.031 572.917L271.585 574.349C269.028 573.553 266.495 572.607 263.987 571.515L264.585 570.14C262.19 569.096 259.815 567.916 257.464 566.602L256.732 567.912C254.411 566.615 252.115 565.192 249.845 563.646L250.689 562.406C248.527 560.934 246.388 559.347 244.272 557.649L243.333 558.819C241.262 557.156 239.215 555.39 237.194 553.522L238.212 552.42C236.284 550.639 234.379 548.763 232.497 546.796L231.413 547.832C229.575 545.91 227.76 543.903 225.97 541.812L227.11 540.837C225.394 538.833 223.701 536.752 222.031 534.595L220.845 535.513C219.214 533.406 217.606 531.228 216.021 528.981L217.247 528.116C215.727 525.962 214.229 523.742 212.753 521.46L211.494 522.275C210.049 520.04 208.625 517.746 207.224 515.395L208.513 514.627C207.157 512.351 205.822 510.02 204.508 507.636L203.194 508.359C201.904 506.018 200.635 503.626 199.388 501.184L200.724 500.502C199.511 498.128 198.319 495.706 197.148 493.239L195.793 493.883C194.651 491.475 193.528 489.026 192.427 486.534L193.799 485.928C192.724 483.495 191.669 481.023 190.634 478.512L189.247 479.083C188.226 476.604 187.225 474.087 186.244 471.534L187.644 470.996C186.686 468.503 185.748 465.974 184.829 463.411L183.417 463.917C182.516 461.402 181.634 458.854 180.772 456.275L182.194 455.8C181.347 453.265 180.519 450.7 179.71 448.105L178.278 448.551C177.478 445.983 176.697 443.386 175.936 440.761L177.376 440.343C176.634 437.784 175.91 435.198 175.206 432.586L173.758 432.977C173.058 430.383 172.377 427.764 171.715 425.12L173.171 424.756C172.52 422.155 171.887 419.53 171.274 416.882L169.812 417.221C169.208 414.61 168.621 411.978 168.054 409.324L169.521 409.01C168.96 406.386 168.417 403.74 167.893 401.074L166.421 401.363C165.903 398.728 165.403 396.072 164.922 393.397L166.398 393.132C165.924 390.496 165.467 387.841 165.03 385.168L163.549 385.41C163.113 382.748 162.695 380.067 162.296 377.37L163.78 377.15C163.388 374.505 163.015 371.844 162.659 369.166L161.172 369.364C160.817 366.693 160.481 364.006 160.163 361.304L161.652 361.129C161.338 358.465 161.042 355.786 160.765 353.093L159.273 353.246C158.996 350.57 158.738 347.88 158.498 345.176L159.992 345.044C159.754 342.364 159.534 339.671 159.332 336.965L157.836 337.077C157.636 334.398 157.454 331.706 157.29 329.002L158.787 328.911C158.624 326.223 158.478 323.523 158.351 320.812L156.853 320.883C156.726 318.198 156.618 315.502 156.528 312.796L158.027 312.746C157.937 310.057 157.865 307.358 157.811 304.649L156.311 304.679C156.257 301.986 156.221 299.285 156.203 296.574L157.703 296.564C157.694 295.212 157.689 293.857 157.689 292.5C157.689 291.144 157.694 289.789 157.703 288.437L156.203 288.427C156.221 285.716 156.257 283.014 156.311 280.322L157.811 280.352C157.865 277.643 157.937 274.944 158.027 272.255L156.528 272.205C156.618 269.499 156.726 266.803 156.853 264.118L158.351 264.189C158.478 261.478 158.624 258.778 158.787 256.09L157.29 255.999C157.454 253.295 157.636 250.603 157.836 247.924L159.332 248.035C159.534 245.33 159.754 242.637 159.992 239.957L158.498 239.824C158.738 237.121 158.996 234.431 159.273 231.754L160.765 231.908C161.042 229.215 161.338 226.536 161.652 223.872L160.163 223.697C160.481 220.995 160.817 218.308 161.172 215.637L162.659 215.834C163.015 213.157 163.388 210.496 163.78 207.851L162.296 207.631C162.695 204.934 163.113 202.253 163.549 199.59L165.03 199.833C165.467 197.16 165.924 194.505 166.398 191.869L164.922 191.604C165.403 188.929 165.903 186.273 166.421 183.637L167.893 183.927C168.417 181.261 168.96 178.615 169.521 175.991L168.054 175.677C168.621 173.023 169.208 170.39 169.812 167.78L171.274 168.119C171.887 165.471 172.52 162.846 173.171 160.245L171.715 159.881C172.377 157.237 173.058 154.618 173.758 152.024L175.206 152.415C175.91 149.803 176.634 147.217 177.376 144.658L175.936 144.24C176.697 141.615 177.478 139.018 178.278 136.45L179.71 136.896C180.519 134.301 181.347 131.736 182.194 129.201L180.772 128.726C181.634 126.146 182.516 123.599 183.417 121.083L184.829 121.589C185.747 119.027 186.686 116.498 187.644 114.005L186.244 113.467C187.224 110.914 188.226 108.397 189.247 105.918L190.634 106.489C191.669 103.978 192.724 101.506 193.799 99.0733L192.427 98.4669C193.528 95.9754 194.651 93.5254 195.793 91.1182L197.148 91.7614C198.319 89.2944 199.511 86.8731 200.724 84.4988L199.388 83.8164C200.635 81.3754 201.904 78.9832 203.194 76.6414L204.508 77.3652C205.821 74.9811 207.157 72.6502 208.513 70.3739L207.224 69.6061C208.625 67.2549 210.049 64.9609 211.494 62.726L212.753 63.5405C214.229 61.2586 215.727 59.0393 217.247 56.8845L216.021 56.02C217.606 53.7733 219.214 51.5953 220.845 49.4881L222.031 50.4062C223.701 48.249 225.394 46.1675 227.11 44.1639L225.97 43.1884C227.76 41.098 229.574 39.0905 231.413 37.1685L232.497 38.2052C234.378 36.2377 236.284 34.362 238.212 32.5805L237.194 31.4788C239.215 29.6113 241.262 27.8448 243.333 26.1822L244.272 27.352C246.388 25.6539 248.527 24.0673 250.689 22.5951L249.845 21.3553C252.115 19.8091 254.411 18.3857 256.732 17.0889L257.464 18.3984C259.815 17.0848 262.19 15.9046 264.585 14.8613L263.987 13.486C266.495 12.3937 269.028 11.4475 271.585 10.6518L272.031 12.084C274.576 11.2921 277.142 10.6529 279.729 10.1707L279.454 8.69607C282.112 8.20035 284.793 7.86641 287.493 7.69896L287.586 9.19609C288.904 9.11438 290.226 9.07324 291.554 9.07324C292.881 9.07324 294.203 9.11439 295.521 9.1961L295.614 7.69897C298.314 7.86643 300.995 8.20037 303.654 8.69609L303.379 10.1707C305.965 10.6529 308.532 11.2921 311.076 12.0841L311.522 10.6518C314.079 11.4475 316.612 12.3937 319.121 13.486L318.522 14.8613C320.917 15.9046 323.292 17.0848 325.643 18.3984L326.375 17.089C328.696 18.3858 330.992 19.8091 333.263 21.3553L332.418 22.5951C334.58 24.0673 336.719 25.6539 338.835 27.352L339.774 26.1822C341.845 27.8447 343.892 29.6113 345.913 31.4788L344.895 32.5805C346.823 34.362 348.729 36.2377 350.61 38.2052L351.694 37.1684C353.533 39.0905 355.347 41.098 357.137 43.1883L355.997 44.1639C357.713 46.1675 359.406 48.2489 361.076 50.4062L362.262 49.4881C363.893 51.5953 365.501 53.7733 367.086 56.02L365.86 56.8845C367.38 59.0393 368.878 61.2585 370.354 63.5405L371.613 62.7259C373.059 64.9609 374.482 67.2549 375.883 69.6061L374.594 70.3739C375.95 72.6502 377.286 74.9811 378.599 77.3652L379.913 76.6414C381.203 78.9832 382.472 81.3753 383.719 83.8164L382.383 84.4987C383.596 86.8731 384.788 89.2944 385.959 91.7614L387.314 91.1182C388.457 93.5254 389.579 95.9753 390.68 98.4669L389.308 99.0733C390.383 101.505 391.438 103.978 392.473 106.489L393.86 105.918C394.881 108.397 395.883 110.914 396.863 113.467L395.463 114.005C396.421 116.498 397.36 119.027 398.278 121.589L399.69 121.083C400.591 123.599 401.473 126.146 402.336 128.726L400.913 129.201C401.76 131.736 402.588 134.301 403.397 136.896L404.829 136.45C405.629 139.018 406.41 141.615 407.171 144.24L405.731 144.658C406.473 147.217 407.197 149.803 407.901 152.415L409.349 152.024C410.049 154.618 410.73 157.237 411.392 159.881L409.937 160.245C410.588 162.846 411.22 165.471 411.833 168.119L413.295 167.78C413.899 170.39 414.486 173.023 415.053 175.677L413.586 175.991C414.147 178.615 414.69 181.261 415.214 183.927L416.686 183.637C417.204 186.273 417.704 188.929 418.185 191.603L416.709 191.869C417.183 194.505 417.64 197.16 418.077 199.833L419.558 199.59C419.994 202.253 420.412 204.934 420.811 207.631L419.327 207.851C419.719 210.496 420.092 213.157 420.448 215.834L421.935 215.637C422.29 218.308 422.626 220.995 422.945 223.697L421.455 223.872C421.769 226.536 422.065 229.215 422.342 231.908L423.835 231.754C424.111 234.431 424.369 237.121 424.609 239.824L423.115 239.957C423.353 242.637 423.573 245.33 423.775 248.035L425.271 247.924C425.471 250.603 425.653 253.295 425.817 255.999L424.32 256.09C424.483 258.778 424.629 261.478 424.756 264.189L426.254 264.118C426.381 266.803 426.489 269.499 426.58 272.205L425.08 272.255C425.17 274.944 425.242 277.643 425.297 280.352L426.796 280.322Z" stroke="#85D59C" stroke-width="3" stroke-miterlimit="2.3662" stroke-dasharray="8.2 8.2"/>
<circle cx="292.499" cy="278.302" r="87.0874" fill="url(#paint1_linear)"/>
<circle cx="507.852" cy="396.152" r="13.7257" fill="url(#paint2_linear)"/>
<circle cx="292.5" cy="460.049" r="7.57282" fill="url(#paint3_linear)"/>
<circle cx="431.65" cy="286.82" r="11.3592" fill="url(#paint4_linear)"/>
<circle cx="221.978" cy="542.878" r="8.99272" fill="url(#paint5_linear)"/>
<circle cx="287.764" cy="45.4372" r="12.3058" fill="url(#paint6_linear)"/>
<circle cx="339.831" cy="521.578" r="12.3058" fill="url(#paint7_linear)"/>
<circle cx="196.419" cy="45.9112" r="6.15291" fill="url(#paint8_linear)"/>
<circle cx="86.1413" cy="437.329" r="12.3058" fill="url(#paint9_linear)"/>
<circle cx="73.8341" cy="166.603" r="12.3058" fill="url(#paint10_linear)"/>
<circle cx="49.0704" cy="378.489" r="7.18488" transform="rotate(-68.5523 49.0704 378.489)" fill="url(#paint11_linear)"/>
<circle cx="132.59" cy="217.786" r="5.89332" transform="rotate(-68.5523 132.59 217.786)" fill="url(#paint12_linear)"/>
<circle cx="516.844" cy="186.479" r="11.3592" fill="url(#paint13_linear)"/>
<mask id="path-21-inside-1" fill="white">
<path d="M358.841 322.448H328.25C328.099 322.448 327.967 322.316 327.967 322.164V292.481C327.967 292.33 328.099 292.197 328.25 292.197H358.822C358.973 292.197 359.105 292.33 359.105 292.481V322.164C359.124 322.316 358.992 322.448 358.841 322.448ZM328.534 321.881H358.558V292.764H328.534V321.881Z"/>
</mask>
<path d="M358.841 322.448H328.25C328.099 322.448 327.967 322.316 327.967 322.164V292.481C327.967 292.33 328.099 292.197 328.25 292.197H358.822C358.973 292.197 359.105 292.33 359.105 292.481V322.164C359.124 322.316 358.992 322.448 358.841 322.448ZM328.534 321.881H358.558V292.764H328.534V321.881Z" fill="#FFB800"/>
<path d="M359.105 322.164H356.105V322.351L356.129 322.537L359.105 322.164ZM328.534 321.881H325.534V324.881H328.534V321.881ZM358.558 321.881V324.881H361.557V321.881H358.558ZM358.558 292.764H361.557V289.764H358.558V292.764ZM328.534 292.764V289.764H325.534V292.764H328.534ZM358.841 319.448H328.25V325.448H358.841V319.448ZM328.25 319.448C329.756 319.448 330.967 320.659 330.967 322.164H324.967C324.967 323.972 326.442 325.448 328.25 325.448V319.448ZM330.967 322.164V292.481H324.967V322.164H330.967ZM330.967 292.481C330.967 293.986 329.756 295.197 328.25 295.197V289.197C326.442 289.197 324.967 290.673 324.967 292.481H330.967ZM328.25 295.197H358.822V289.197H328.25V295.197ZM358.822 295.197C357.316 295.197 356.105 293.986 356.105 292.481H362.105C362.105 290.673 360.63 289.197 358.822 289.197V295.197ZM356.105 292.481V322.164H362.105V292.481H356.105ZM356.129 322.537C355.895 320.668 357.427 319.448 358.841 319.448V325.448C360.557 325.448 362.354 323.963 362.082 321.792L356.129 322.537ZM328.534 324.881H358.558V318.881H328.534V324.881ZM361.557 321.881V292.764H355.558V321.881H361.557ZM358.558 289.764H328.534V295.764H358.558V289.764ZM325.534 292.764V321.881H331.534V292.764H325.534Z" fill="#FFB800" mask="url(#path-21-inside-1)"/>
<path d="M264.669 260.454C264.404 264.819 260.607 268.182 256.261 267.936C251.915 267.691 248.514 263.874 248.778 259.509C254.069 259.83 259.359 260.133 264.669 260.454Z" fill="#D5E0EA"/>
<path d="M238.009 302.232C239.35 301.457 240.956 301.532 241.92 302.515C242.883 303.498 242.902 305.122 242.071 306.426C242.411 306.785 242.77 307.144 243.11 307.503C244.848 305.822 244.905 302.987 243.205 301.249C241.523 299.511 238.689 299.454 236.95 301.155C237.309 301.514 237.65 301.873 238.009 302.232Z" fill="#00DE60"/>
<path d="M262.552 224.27C264.706 224.062 266.842 223.854 268.996 223.627C269.959 225.574 270.942 227.539 271.905 229.485C269.808 229.598 267.692 229.712 265.595 229.825C264.574 227.992 263.573 226.122 262.552 224.27Z" fill="#3C4FC8"/>
<path d="M327.436 240.597C329.356 240.597 330.913 239.04 330.913 237.12C330.913 235.2 329.356 233.644 327.436 233.644C325.516 233.644 323.959 235.2 323.959 237.12C323.959 239.04 325.516 240.597 327.436 240.597Z" fill="#FF009D"/>
<path d="M318.124 273.13C318.067 273.13 318.03 273.092 317.992 273.073C317.878 272.979 317.86 272.79 317.954 272.676C319.39 270.995 320.656 269.143 321.714 267.159C321.79 267.027 321.96 266.97 322.092 267.046C322.224 267.121 322.281 267.291 322.205 267.423C321.128 269.445 319.844 271.335 318.37 273.035C318.313 273.111 318.219 273.149 318.124 273.13Z" fill="#D5E0EA"/>
<path d="M255.469 295.919C255.431 295.919 255.393 295.919 255.355 295.901C255.223 295.844 255.147 295.693 255.223 295.579C256.205 293.784 257.056 291.8 257.755 289.684C257.793 289.552 257.963 289.476 258.114 289.514C258.265 289.552 258.359 289.684 258.303 289.816C257.585 291.952 256.716 293.954 255.733 295.787C255.676 295.863 255.582 295.919 255.469 295.919Z" fill="#D5E0EA"/>
<path d="M247.759 303.325C247.665 303.306 247.589 303.268 247.551 303.174C247.476 303.042 247.533 302.872 247.665 302.796C248.553 302.324 249.403 301.776 250.197 301.152C251.198 300.377 252.105 299.47 252.899 298.488C252.993 298.375 253.182 298.356 253.295 298.45C253.409 298.545 253.428 298.734 253.333 298.847C252.502 299.867 251.576 300.793 250.537 301.587C249.724 302.229 248.836 302.796 247.91 303.287C247.873 303.306 247.816 303.325 247.759 303.325Z" fill="#D5E0EA"/>
<path d="M327.854 249.437C327.835 249.437 327.816 249.437 327.797 249.437C327.646 249.399 327.533 249.267 327.57 249.116C327.91 247.321 328.118 245.45 328.213 243.561C328.213 243.41 328.345 243.277 328.515 243.296C328.666 243.296 328.798 243.429 328.78 243.599C328.685 245.526 328.458 247.415 328.137 249.229C328.099 249.343 327.986 249.437 327.854 249.437Z" fill="#D5E0EA"/>
<path d="M344.369 261.852C344.256 261.852 344.143 261.776 344.105 261.644C343.633 260.038 343.085 258.432 342.48 256.882C342.423 256.731 342.499 256.58 342.631 256.523C342.782 256.467 342.933 256.542 342.99 256.675C343.614 258.243 344.162 259.868 344.634 261.474C344.672 261.625 344.596 261.776 344.445 261.833C344.426 261.852 344.388 261.852 344.369 261.852Z" fill="#D5E0EA"/>
<path d="M347.088 270.071C346.956 270.071 346.842 269.977 346.805 269.863C346.408 268.238 345.935 266.613 345.406 265.026C345.35 264.875 345.444 264.724 345.576 264.667C345.728 264.61 345.879 264.705 345.935 264.837C346.465 266.443 346.937 268.087 347.334 269.712C347.371 269.863 347.277 270.014 347.126 270.052C347.126 270.071 347.107 270.071 347.088 270.071Z" fill="#D5E0EA"/>
<path d="M340.704 253.178C340.609 253.178 340.496 253.121 340.458 253.026C339.476 251.099 338.361 249.21 337.152 247.415C337.057 247.282 337.095 247.112 337.227 247.018C337.359 246.923 337.529 246.961 337.624 247.093C338.833 248.907 339.948 250.816 340.949 252.762C341.025 252.894 340.968 253.064 340.836 253.14C340.798 253.159 340.742 253.178 340.704 253.178Z" fill="#D5E0EA"/>
<path d="M334.884 243.92C334.809 243.92 334.714 243.882 334.657 243.806C333.826 242.786 332.957 241.785 332.069 240.821C331.955 240.708 331.974 240.519 332.088 240.424C332.201 240.311 332.39 240.33 332.485 240.443C333.391 241.407 334.261 242.427 335.092 243.447C335.186 243.561 335.168 243.75 335.054 243.844C334.998 243.901 334.941 243.92 334.884 243.92Z" fill="#D5E0EA"/>
<path d="M313.664 227.386C313.626 227.386 313.588 227.386 313.55 227.367C311.453 226.404 309.299 225.535 307.107 224.835C306.956 224.779 306.881 224.628 306.918 224.476C306.975 224.325 307.126 224.25 307.277 224.287C309.469 225.005 311.661 225.875 313.777 226.857C313.928 226.914 313.985 227.084 313.909 227.235C313.872 227.311 313.777 227.386 313.664 227.386Z" fill="#D5E0EA"/>
<path d="M302.023 223.401C302.004 223.401 301.985 223.401 301.966 223.401C300.096 222.985 298.168 222.645 296.279 222.437C296.128 222.418 296.014 222.286 296.033 222.116C296.052 221.965 296.184 221.851 296.355 221.87C298.263 222.097 300.209 222.418 302.099 222.853C302.25 222.891 302.344 223.042 302.306 223.193C302.269 223.325 302.155 223.401 302.023 223.401Z" fill="#D5E0EA"/>
<path d="M283.754 222.436C283.621 222.436 283.489 222.323 283.47 222.191C283.451 222.04 283.565 221.888 283.716 221.869C286.04 221.586 288.421 221.473 290.783 221.51C290.934 221.51 291.066 221.643 291.066 221.794C291.066 221.945 290.934 222.077 290.783 222.077C288.44 222.04 286.097 222.172 283.792 222.436C283.773 222.436 283.754 222.436 283.754 222.436Z" fill="#D5E0EA"/>
<path d="M272.606 225.024C272.493 225.024 272.379 224.949 272.342 224.835C272.285 224.684 272.36 224.533 272.512 224.476C273.891 223.985 275.289 223.551 276.706 223.192C277.009 223.116 277.311 223.04 277.613 222.965C277.764 222.927 277.916 223.022 277.953 223.173C277.991 223.324 277.897 223.475 277.745 223.513C277.443 223.588 277.141 223.664 276.839 223.74C275.44 224.099 274.042 224.533 272.701 225.006C272.682 225.024 272.644 225.024 272.606 225.024Z" fill="#D5E0EA"/>
<path d="M257.415 233.394C257.339 233.394 257.245 233.357 257.188 233.281C257.093 233.149 257.112 232.979 257.245 232.884C258.737 231.713 260.324 230.598 261.912 229.597C262.044 229.521 262.214 229.559 262.308 229.691C262.384 229.823 262.346 229.993 262.214 230.088C260.627 231.089 259.077 232.166 257.585 233.338C257.528 233.376 257.471 233.394 257.415 233.394Z" fill="#D5E0EA"/>
<path d="M250.064 240.293C249.988 240.293 249.932 240.274 249.875 240.217C249.761 240.104 249.743 239.934 249.856 239.82C250.838 238.724 251.878 237.647 252.936 236.627C253.049 236.514 253.219 236.514 253.333 236.627C253.446 236.74 253.446 236.91 253.333 237.024C252.274 238.025 251.254 239.102 250.272 240.198C250.215 240.274 250.139 240.293 250.064 240.293Z" fill="#D5E0EA"/>
<path d="M243.999 248.398C243.942 248.398 243.904 248.379 243.847 248.361C243.715 248.285 243.677 248.096 243.753 247.964C244.717 246.433 245.756 244.922 246.852 243.467C246.946 243.335 247.116 243.316 247.248 243.41C247.381 243.505 247.4 243.675 247.305 243.807C246.228 245.243 245.189 246.736 244.244 248.266C244.187 248.361 244.093 248.398 243.999 248.398Z" fill="#D5E0EA"/>
<path d="M239.197 257.94C239.159 257.94 239.122 257.94 239.084 257.921C238.933 257.864 238.876 257.694 238.933 257.562C239.575 255.937 240.293 254.331 241.068 252.763C241.143 252.63 241.313 252.574 241.446 252.63C241.578 252.706 241.635 252.876 241.578 253.008C240.803 254.558 240.085 256.164 239.462 257.77C239.424 257.883 239.311 257.94 239.197 257.94Z" fill="#D5E0EA"/>
<path d="M235.855 269.899C235.836 269.899 235.817 269.899 235.799 269.899C235.647 269.88 235.534 269.729 235.572 269.578C235.912 267.594 236.346 265.591 236.894 263.645C236.932 263.494 237.083 263.399 237.235 263.456C237.386 263.494 237.48 263.645 237.423 263.796C236.894 265.723 236.46 267.707 236.12 269.672C236.12 269.805 236.006 269.899 235.855 269.899Z" fill="#D5E0EA"/>
<path d="M235.251 284.638C235.1 284.638 234.986 284.524 234.967 284.373C234.76 281.86 234.703 279.291 234.816 276.778C234.816 276.626 234.948 276.494 235.119 276.513C235.27 276.513 235.402 276.645 235.383 276.815C235.27 279.309 235.326 281.841 235.534 284.335C235.553 284.487 235.44 284.638 235.27 284.638H235.251Z" fill="#D5E0EA"/>
<path d="M237.763 297.373C237.65 297.373 237.536 297.297 237.499 297.165C236.837 295.087 236.308 292.97 235.893 290.854C235.855 290.703 235.968 290.552 236.119 290.514C236.27 290.476 236.422 290.59 236.459 290.741C236.875 292.838 237.404 294.954 238.065 296.995C238.103 297.146 238.028 297.297 237.877 297.354C237.82 297.373 237.801 297.373 237.763 297.373Z" fill="#D5E0EA"/>
<path d="M277.105 278.269C277.048 278.269 277.01 278.251 276.953 278.232C275.328 277.211 273.704 276.078 272.135 274.849C272.003 274.755 271.984 274.566 272.079 274.453C272.173 274.32 272.362 274.301 272.475 274.396C274.025 275.605 275.631 276.72 277.256 277.74C277.388 277.816 277.426 278.005 277.35 278.137C277.294 278.213 277.199 278.269 277.105 278.269Z" fill="#D5E0EA"/>
<path d="M269.299 272.696C269.243 272.696 269.186 272.677 269.129 272.639C268.279 272.016 267.467 271.317 266.73 270.561C266.031 269.843 265.388 269.068 264.802 268.237C264.708 268.105 264.746 267.935 264.878 267.84C265.01 267.746 265.18 267.783 265.275 267.916C265.823 268.709 266.465 269.465 267.145 270.164C267.863 270.901 268.638 271.581 269.469 272.167C269.602 272.261 269.621 272.432 269.526 272.564C269.469 272.658 269.394 272.696 269.299 272.696Z" fill="#D5E0EA"/>
<path d="M348.941 283.542C349.187 285.62 349.281 287.698 349.262 289.796C349.262 290.155 349.829 290.155 349.829 289.796C349.848 287.698 349.753 285.62 349.508 283.542C349.451 283.183 348.884 283.164 348.941 283.542Z" fill="#D5E0EA"/>
<path d="M347.543 273.962C347.883 275.833 348.185 277.722 348.412 279.631C348.45 279.99 349.017 279.99 348.979 279.631C348.733 277.685 348.45 275.739 348.091 273.811C348.015 273.452 347.467 273.622 347.543 273.962Z" fill="#D5E0EA"/>
<path d="M321.902 242.555C323.187 244.407 324.491 246.277 325.776 248.129C323.716 247.562 321.657 246.995 319.597 246.429C319.144 248.167 318.69 249.924 318.237 251.663C317.311 249.886 316.385 248.129 315.459 246.353C313.777 247.373 312.115 248.394 310.433 249.414C311.208 247.411 311.983 245.427 312.738 243.424C311.113 242.555 309.488 241.686 307.882 240.798C309.772 240.42 311.661 240.061 313.57 239.683C313.022 237.907 312.493 236.131 311.945 234.355C313.551 235.602 315.157 236.849 316.763 238.096C317.934 236.414 319.125 234.714 320.296 233.032C320.334 235.205 320.372 237.378 320.41 239.551C322.469 239.362 324.548 239.192 326.607 239.003C325.039 240.193 323.471 241.365 321.902 242.555Z" fill="#FFB800"/>
<path d="M255.343 282.714C255.116 282.809 254.87 282.903 254.644 283.017C254.53 283.073 254.417 283.111 254.304 283.168C253.227 283.659 252.15 284.131 251.054 284.623C251.016 284.642 250.978 284.66 250.921 284.679C250.808 284.736 250.695 284.774 250.581 284.831C250.26 284.982 249.958 285.114 249.637 285.246C249.164 285.454 248.711 285.662 248.238 285.87L245.272 280.56C245.007 280.069 245.177 279.464 245.669 279.181C245.933 279.03 246.217 279.03 246.481 279.105L246.406 278.973C246.311 278.822 246.273 278.652 246.273 278.482C246.273 278.123 246.462 277.783 246.783 277.594C247.124 277.405 247.539 277.443 247.842 277.65L247.672 277.367C247.407 276.876 247.577 276.271 248.068 275.988C248.352 275.818 248.692 275.837 248.975 275.95L247.917 274.042C247.653 273.55 247.823 272.946 248.314 272.662C248.805 272.398 249.41 272.568 249.693 273.059L252.962 278.935L252.773 276.725C252.716 276.177 253.132 275.685 253.68 275.629C254.228 275.572 254.719 275.988 254.776 276.555L255.343 282.714Z" fill="#FF6876"/>
<path d="M250.09 278.028C250.053 278.028 250.034 278.009 250.015 277.971L248.938 276.063C248.919 276.025 248.938 275.968 248.976 275.93C249.013 275.911 249.07 275.93 249.108 275.968L250.185 277.876C250.204 277.914 250.185 277.971 250.147 278.009C250.128 278.028 250.109 278.028 250.09 278.028Z" fill="black"/>
<path d="M248.632 279.048C248.594 279.048 248.575 279.029 248.556 279.01L247.8 277.782C247.781 277.744 247.781 277.687 247.838 277.649C247.876 277.631 247.933 277.631 247.97 277.687L248.726 278.915C248.745 278.953 248.745 279.01 248.688 279.048C248.67 279.048 248.651 279.048 248.632 279.048Z" fill="black"/>
<path d="M247.216 280.354C247.178 280.354 247.16 280.335 247.141 280.316L246.423 279.22C246.385 279.182 246.404 279.126 246.442 279.088C246.479 279.05 246.536 279.069 246.574 279.107L247.292 280.203C247.33 280.241 247.311 280.297 247.273 280.335C247.254 280.354 247.235 280.354 247.216 280.354Z" fill="black"/>
<path d="M325.708 257.319L324.65 262.893C321.929 263.157 319.208 263.422 316.487 263.686L314.655 258.698C314.617 258.585 314.598 258.471 314.598 258.358C314.598 257.942 314.844 257.564 315.259 257.413C315.788 257.224 316.355 257.489 316.563 258.018L317.564 260.739C317.621 260.002 317.697 259.265 317.753 258.528L317.149 253.048C317.092 252.5 317.489 251.99 318.037 251.934C318.585 251.877 319.095 252.274 319.152 252.822L319.775 258.377L320.247 254.787C320.323 254.239 320.833 253.842 321.381 253.918C321.929 253.993 322.326 254.503 322.25 255.051L322.194 255.505C322.401 255.127 322.836 254.9 323.271 254.976C323.819 255.07 324.178 255.599 324.064 256.147L324.026 256.393C324.253 256.166 324.593 256.053 324.933 256.109C325.462 256.242 325.821 256.771 325.708 257.319Z" fill="#FF6876"/>
<path d="M321.742 257.209H321.723C321.666 257.19 321.647 257.153 321.647 257.096L322.082 255.509C322.101 255.452 322.139 255.433 322.195 255.433C322.252 255.452 322.271 255.49 322.271 255.546L321.836 257.134C321.818 257.19 321.78 257.209 321.742 257.209Z" fill="black"/>
<path d="M323.611 257.793C323.611 257.793 323.592 257.793 323.573 257.793C323.516 257.774 323.497 257.717 323.516 257.679L323.913 256.413C323.932 256.357 323.989 256.338 324.027 256.357C324.083 256.376 324.102 256.432 324.083 256.47L323.686 257.736C323.686 257.755 323.649 257.793 323.611 257.793Z" fill="black"/>
<path d="M257.384 304.593L252.868 296.827C252.792 296.676 252.717 296.525 252.641 296.355C252.15 295.372 251.621 294.239 251.073 292.992C251.054 292.973 251.054 292.935 251.035 292.916L259.103 306.804C258.65 306.275 258.083 305.557 257.384 304.593Z" fill="#FF6876"/>
<path d="M295.912 321.75C295.78 321.787 295.666 321.825 295.534 321.863L274.769 286.133C274.863 286.038 274.939 285.925 275.033 285.831L295.912 321.75Z" fill="#FF6876"/>
<path d="M299.918 320.578C299.786 320.616 299.673 320.654 299.541 320.691L277.868 283.412C277.906 283.374 277.963 283.355 278.019 283.317C278.076 283.28 278.133 283.242 278.208 283.204L299.918 320.578Z" fill="#FF6876"/>
<path d="M303.902 319.388C303.77 319.426 303.656 319.463 303.524 319.501L281.606 281.768C281.738 281.731 281.87 281.693 281.984 281.674L303.902 319.388Z" fill="#FF6876"/>
<path d="M307.909 318.216C307.777 318.254 307.663 318.291 307.531 318.329L285.859 281.05C285.972 281.031 286.123 281.012 286.256 280.974L307.909 318.216Z" fill="#FF6876"/>
<path d="M307.683 310.525L290.13 280.35C290.262 280.331 290.394 280.312 290.527 280.293L307.626 309.713C307.664 309.977 307.664 310.242 307.683 310.525Z" fill="#FF6876"/>
<path d="M307.231 301.664L294.552 279.878C294.703 279.897 294.855 279.916 295.006 279.916L307.174 300.832C307.193 301.116 307.212 301.399 307.231 301.664Z" fill="#FF6876"/>
<path d="M308.572 295.165C308.421 295.146 308.251 295.127 308.099 295.108L299.446 280.219C299.597 280.238 299.767 280.257 299.918 280.276L308.572 295.165Z" fill="#FF6876"/>
<path d="M313.351 295.355C313.238 295.355 313.143 295.355 313.03 295.355C312.992 295.355 312.954 295.355 312.916 295.355L304.622 281.089C304.792 281.127 304.962 281.165 305.132 281.203L313.351 295.355Z" fill="#FF6876"/>
<path d="M317.923 295.147C317.904 295.147 317.885 295.147 317.847 295.147C317.734 295.147 317.62 295.166 317.507 295.185L310.176 282.563C310.346 282.62 310.535 282.677 310.705 282.715L317.923 295.147Z" fill="#FF6876"/>
<path d="M322.194 294.446C322.061 294.483 321.948 294.521 321.816 294.54L315.581 283.827C315.732 283.846 315.883 283.846 316.034 283.846L322.194 294.446Z" fill="#FF6876"/>
<path d="M325.935 292.822C325.841 292.898 325.727 292.955 325.614 293.03L318.717 281.145C318.717 280.919 318.717 280.673 318.717 280.39L325.935 292.822Z" fill="#FF6876"/>
<path d="M328.676 289.461C328.619 289.612 328.562 289.763 328.506 289.914L317.849 271.605C317.811 271.265 317.754 270.944 317.698 270.604L328.676 289.461Z" fill="#FF6876"/>
<path d="M328.883 282.506L317.867 263.573C317.999 263.555 318.151 263.555 318.283 263.536L328.751 281.542C328.788 281.864 328.826 282.185 328.883 282.506Z" fill="#FF6876"/>
<path d="M326.898 271.035L322.288 263.118C322.42 263.099 322.571 263.099 322.703 263.081L326.596 269.788C326.709 270.204 326.803 270.62 326.898 271.035Z" fill="#FF6876"/>
<path d="M252.169 286.814C252.056 286.889 251.961 286.965 251.848 287.022L250.582 284.83C250.695 284.773 250.809 284.717 250.922 284.679L252.169 286.814Z" fill="#FF7D80"/>
<path d="M266.964 312.246C266.813 312.246 266.662 312.227 266.511 312.209L251.867 287.022C251.962 286.946 252.075 286.871 252.188 286.814L266.964 312.246Z" fill="#FF6876"/>
<path d="M275.905 327.625C275.772 327.663 275.659 327.7 275.527 327.738L272.976 323.336C272.995 323.109 273.014 322.901 273.033 322.674L275.905 327.625Z" fill="#FF6876"/>
<path d="M255.513 284.528C255.513 284.528 255.4 284.603 255.211 284.736L254.304 283.186C254.418 283.13 254.531 283.073 254.644 283.035L255.495 284.49L255.513 284.528Z" fill="#FF7D80"/>
<path d="M271.084 311.284C270.971 311.341 270.857 311.397 270.744 311.454L255.212 284.737C255.401 284.604 255.515 284.529 255.515 284.529V284.472L271.084 311.284Z" fill="#FF6876"/>
<path d="M279.906 326.455C279.774 326.493 279.66 326.531 279.528 326.569L273.576 316.328C273.595 316.101 273.614 315.893 273.633 315.667L279.906 326.455Z" fill="#FF6876"/>
<path d="M283.913 325.283C283.78 325.321 283.667 325.359 283.535 325.396L274.182 309.317L274.087 309.166L267.361 297.602C267.399 297.602 267.436 297.602 267.455 297.602C267.55 297.583 267.663 297.564 267.758 297.545L283.913 325.283Z" fill="#FF6876"/>
<path d="M287.9 324.094C287.767 324.132 287.654 324.169 287.522 324.207L270.29 294.58C270.327 294.505 270.365 294.429 270.403 294.334L270.478 294.146L287.9 324.094Z" fill="#FF6876"/>
<path d="M291.908 322.922C291.776 322.96 291.662 322.998 291.53 323.036L272.314 289.989C272.39 289.856 272.446 289.724 272.522 289.592L291.908 322.922Z" fill="#FF6876"/>
<path d="M295.835 268.92C296.251 268.07 296.685 267.201 297.101 266.35C295.948 266.048 294.777 265.746 293.624 265.444C292.264 264.045 291.168 263.082 290.79 262.798C290.355 262.458 289.94 262.213 289.94 262.213C289.826 262.156 289.751 262.099 289.656 262.042C289.713 262.42 289.77 263.308 289.316 264.272C288.787 265.406 287.899 265.954 287.578 266.124C287.937 266.294 288.598 266.691 289.108 267.446C289.959 268.675 289.826 269.997 289.77 270.337C288.504 272.869 288.22 273.927 288.258 274.362C288.258 274.4 288.258 274.437 288.258 274.437C288.296 274.494 288.693 275.061 288.73 275.779C288.73 275.817 288.73 275.855 288.73 275.911C288.73 275.93 288.73 275.968 288.73 275.987C288.73 276.025 288.73 276.081 288.711 276.119C288.711 276.138 288.711 276.176 288.693 276.195C288.693 276.251 288.674 276.289 288.655 276.346C288.655 276.365 288.636 276.384 288.636 276.421C288.617 276.497 288.598 276.573 288.56 276.648C288.409 276.988 288.012 277.668 287.54 277.763C287.521 277.763 287.446 277.782 287.351 277.801C287.219 277.839 287.049 277.895 286.954 277.99C286.935 278.009 286.879 278.084 286.765 278.179C286.746 278.198 286.728 278.216 286.69 278.235C286.085 278.708 285.273 279.067 284.517 279.18C284.781 280.692 285.046 282.203 285.31 283.734C286.69 283.772 288.069 283.809 289.448 283.847C290.941 283.299 292.453 282.77 293.945 282.222L293.284 278.424L293.246 278.16C293.246 278.16 293.227 278.103 293.19 278.009C293.624 277.857 294.172 277.65 294.758 277.158C296.761 275.458 296.798 272.17 296.194 270.054C296.118 269.563 295.967 269.185 295.835 268.92Z" fill="#FF6876"/>
<path d="M289.144 267.446C288.615 266.69 287.972 266.312 287.613 266.123C287.934 265.953 288.822 265.405 289.351 264.272C289.805 263.289 289.729 262.401 289.692 262.042C289.181 261.759 288.539 261.456 287.821 261.305C285.213 260.719 282.379 262.042 280.83 264.045C280.339 264.687 280.036 265.311 279.885 265.745V265.764C278.865 268.599 279.81 272.302 281.982 274.928C282.058 275.023 282.153 275.117 282.228 275.212C282.304 275.306 282.398 275.401 282.474 275.476C282.719 275.741 283.664 276.478 283.948 276.629C284.023 276.686 284.118 276.723 284.212 276.78L284.533 278.613L284.628 279.18C285.384 279.066 286.196 278.726 286.801 278.235C286.82 278.216 286.838 278.197 286.876 278.178C286.99 278.084 287.046 278.008 287.065 277.989C287.141 277.895 287.311 277.838 287.462 277.8C287.556 277.781 287.632 277.763 287.651 277.763C288.123 277.687 288.539 276.988 288.671 276.648C288.804 276.345 288.841 276.024 288.822 275.741C288.766 275.042 288.388 274.494 288.369 274.437C288.369 274.437 288.369 274.399 288.369 274.361C288.331 273.927 288.615 272.869 289.881 270.337C289.862 269.997 289.994 268.674 289.144 267.446Z" fill="black"/>
<path d="M290.183 270.679C289.824 270.112 289.295 269.734 288.728 269.564C288.218 269.413 287.67 269.394 287.16 269.564C286.933 269.64 286.725 269.734 286.517 269.867C285.27 270.66 284.911 272.304 285.686 273.551C286.48 274.798 288.123 275.157 289.37 274.383C290.599 273.57 290.977 271.926 290.183 270.679Z" fill="#FF6876"/>
<path d="M289.749 272.794C289.408 272.775 289.125 272.587 288.974 272.284C288.842 272.02 288.842 271.736 288.955 271.472L286.31 271.207C286.253 271.207 286.215 271.151 286.234 271.113C286.234 271.056 286.291 271.018 286.329 271.037L289.125 271.321C289.163 271.321 289.182 271.339 289.201 271.377C289.22 271.415 289.22 271.434 289.201 271.472C289.049 271.698 289.031 271.982 289.144 272.228C289.257 272.454 289.503 272.605 289.767 272.624C289.824 272.624 289.862 272.662 289.862 272.719C289.843 272.757 289.805 272.794 289.749 272.794Z" fill="black"/>
<path d="M290.733 265.278C291.251 264.624 291.552 263.999 291.404 263.882C291.257 263.766 290.718 264.202 290.199 264.856C289.681 265.511 289.381 266.136 289.528 266.253C289.675 266.369 290.215 265.933 290.733 265.278Z" fill="black"/>
<path d="M294.284 273.153C293.736 273.153 293.15 272.908 292.716 272.435C292.697 272.416 292.678 272.379 292.697 272.341C292.716 272.303 292.735 272.284 292.772 272.284L295.871 271.472C295.909 271.472 295.928 271.472 295.966 271.491C295.984 271.509 296.003 271.547 296.003 271.566C295.966 271.774 295.833 272.511 295.191 272.889C294.907 273.078 294.586 273.153 294.284 273.153ZM292.961 272.416C293.585 272.983 294.435 273.116 295.059 272.738C295.531 272.454 295.701 271.963 295.758 271.68L292.961 272.416Z" fill="black"/>
<path d="M292.716 267.032C292.966 267.032 293.169 266.829 293.169 266.579C293.169 266.329 292.966 266.125 292.716 266.125C292.465 266.125 292.262 266.329 292.262 266.579C292.262 266.829 292.465 267.032 292.716 267.032Z" fill="black"/>
<defs>
<linearGradient id="paint0_linear" x1="379.588" y1="28.9205" x2="386.769" y2="48.3095" gradientUnits="userSpaceOnUse">
<stop stop-color="#FFCF1B"/>
<stop offset="1" stop-color="#FF881B" stop-opacity="0.76"/>
</linearGradient>
<linearGradient id="paint1_linear" x1="234.756" y1="100.814" x2="307.171" y2="388.108" gradientUnits="userSpaceOnUse">
<stop offset="0.0549279" stop-color="#5049CE"/>
<stop offset="0.505975" stop-color="#5049CE"/>
<stop offset="0.942359" stop-color="#5049CE"/>
<stop offset="1" stop-color="#2E8DE1"/>
</linearGradient>
<linearGradient id="paint2_linear" x1="494.126" y1="366.334" x2="513.059" y2="417.45" gradientUnits="userSpaceOnUse">
<stop stop-color="#FFCF1B"/>
<stop offset="1" stop-color="#FF881B" stop-opacity="0.76"/>
</linearGradient>
<linearGradient id="paint3_linear" x1="284.927" y1="443.598" x2="295.372" y2="471.8" gradientUnits="userSpaceOnUse">
<stop stop-color="#FFCF1B"/>
<stop offset="1" stop-color="#FF881B" stop-opacity="0.76"/>
</linearGradient>
<linearGradient id="paint4_linear" x1="431.65" y1="275.461" x2="431.65" y2="298.179" gradientUnits="userSpaceOnUse">
<stop stop-color="#FF5B94"/>
<stop offset="1" stop-color="#8441A4" stop-opacity="0.82"/>
</linearGradient>
<linearGradient id="paint5_linear" x1="221.978" y1="533.885" x2="221.978" y2="551.87" gradientUnits="userSpaceOnUse">
<stop stop-color="#FF5B94"/>
<stop offset="1" stop-color="#8441A4" stop-opacity="0.82"/>
</linearGradient>
<linearGradient id="paint6_linear" x1="287.764" y1="33.1313" x2="287.764" y2="57.743" gradientUnits="userSpaceOnUse">
<stop stop-color="#FF5B94"/>
<stop offset="1" stop-color="#8441A4" stop-opacity="0.82"/>
</linearGradient>
<linearGradient id="paint7_linear" x1="339.831" y1="509.272" x2="352.137" y2="551.87" gradientUnits="userSpaceOnUse">
<stop stop-color="#3499FF"/>
<stop offset="1" stop-color="#3A3985" stop-opacity="0.99"/>
</linearGradient>
<linearGradient id="paint8_linear" x1="196.419" y1="39.7583" x2="202.571" y2="61.0568" gradientUnits="userSpaceOnUse">
<stop stop-color="#3499FF"/>
<stop offset="1" stop-color="#3A3985" stop-opacity="0.99"/>
</linearGradient>
<linearGradient id="paint9_linear" x1="86.1413" y1="425.023" x2="98.4471" y2="467.621" gradientUnits="userSpaceOnUse">
<stop stop-color="#3499FF"/>
<stop offset="1" stop-color="#3A3985" stop-opacity="0.99"/>
</linearGradient>
<linearGradient id="paint10_linear" x1="73.8341" y1="154.297" x2="86.14" y2="196.894" gradientUnits="userSpaceOnUse">
<stop stop-color="#005EBC"/>
<stop offset="1" stop-color="#3A3985" stop-opacity="0.99"/>
</linearGradient>
<linearGradient id="paint11_linear" x1="49.0704" y1="371.304" x2="49.0704" y2="385.674" gradientUnits="userSpaceOnUse">
<stop stop-color="#FFA62E"/>
<stop offset="1" stop-color="#EA4D2D" stop-opacity="0.9"/>
</linearGradient>
<linearGradient id="paint12_linear" x1="132.59" y1="211.893" x2="132.59" y2="223.679" gradientUnits="userSpaceOnUse">
<stop stop-color="#FFA62E"/>
<stop offset="1" stop-color="#EA4D2D" stop-opacity="0.9"/>
</linearGradient>
<linearGradient id="paint13_linear" x1="505.485" y1="166.601" x2="528.203" y2="202.572" gradientUnits="userSpaceOnUse">
<stop stop-color="#B65EBA"/>
<stop offset="1" stop-color="#05549A"/>
</linearGradient>
</defs>
</svg>
