<svg width="34" height="34" viewBox="0 0 34 34" fill="none" xmlns="http://www.w3.org/2000/svg">
<path fill-rule="evenodd" clip-rule="evenodd" d="M17.0004 5.6665C20.8644 5.6665 24.5593 7.69322 28.0026 11.0231C29.1774 12.1592 30.2401 13.372 31.1757 14.5853C31.7402 15.3175 32.1411 15.8934 32.3605 16.2365L32.8487 16.9998L32.3605 17.7631C32.1411 18.1063 31.7402 18.6822 31.1757 19.4144C30.2401 20.6277 29.1774 21.8405 28.0026 22.9765C24.5593 26.3065 20.8644 28.3332 17.0004 28.3332C13.1364 28.3332 9.44152 26.3065 5.99816 22.9765C4.82343 21.8405 3.76067 20.6277 2.8251 19.4144C2.26056 18.6822 1.85974 18.1063 1.64028 17.7631L1.1521 16.9998L1.64028 16.2365C1.85974 15.8934 2.26056 15.3175 2.8251 14.5853C3.76067 13.372 4.82343 12.1592 5.99816 11.0231C9.44152 7.69322 13.1364 5.6665 17.0004 5.6665ZM28.9318 16.3155C28.0753 15.2046 27.1014 14.0932 26.0329 13.06C23.0672 10.192 19.9825 8.49994 17.0003 8.49994C14.0181 8.49994 10.9334 10.192 7.96771 13.06C6.89925 14.0932 5.92537 15.2046 5.06879 16.3155C4.88379 16.5554 4.71284 16.7844 4.55655 16.9999C4.71284 17.2155 4.88379 17.4444 5.06879 17.6844C5.92537 18.7953 6.89925 19.9067 7.96771 20.9399C10.9334 23.8079 14.0181 25.4999 17.0003 25.4999C19.9825 25.4999 23.0672 23.8079 26.0329 20.9399C27.1014 19.9067 28.0753 18.7953 28.9318 17.6844C29.1168 17.4444 29.2878 17.2155 29.4441 16.9999C29.2878 16.7844 29.1168 16.5554 28.9318 16.3155ZM11.334 16.9997C11.334 20.1293 13.8711 22.6664 17.0007 22.6664C20.1303 22.6664 22.6674 20.1293 22.6674 16.9997C22.6674 13.8701 20.1303 11.3331 17.0007 11.3331C13.8711 11.3331 11.334 13.8701 11.334 16.9997ZM19.8341 16.9998C19.8341 18.5646 18.5656 19.8332 17.0008 19.8332C15.436 19.8332 14.1674 18.5646 14.1674 16.9998C14.1674 15.435 15.436 14.1665 17.0008 14.1665C18.5656 14.1665 19.8341 15.435 19.8341 16.9998Z" fill="white"/>
</svg>
